<svg width="36" height="36" viewBox="0 0 36 36" fill="none" xmlns="http://www.w3.org/2000/svg">
<path d="M19.1788 34.3434V22.4283H30.3293V24.7858H23.1293C22.6834 24.7858 22.3004 25.1681 22.3004 25.6142V28.8C22.3004 29.246 22.6834 29.6283 23.1293 29.6283H30.3293V31.1575H23.1293C22.6834 31.1575 22.3004 31.5398 22.3004 31.9858C22.3004 32.4319 22.6834 32.8142 23.1293 32.8142H30.3293V34.3434H19.1788ZM6.43532 32.7504H13.6353C14.0813 32.7504 14.4636 32.3681 14.4636 31.9221C14.4636 31.4761 14.0813 31.0938 13.6353 31.0938H6.43532V29.5009H8.02826C8.4742 29.5009 8.85652 29.1186 8.85652 28.6726V25.4867C8.85652 25.0407 8.4742 24.6584 8.02826 24.6584H6.43532V22.2372H17.5858V34.3434H6.43532V32.7504ZM6.43532 26.3788H7.26359V27.9717H6.43532V26.3788ZM14.7187 17.6495L16.8212 20.8354H5.98937L3.88689 17.6495H14.7187ZM21.9823 17.6495H32.8141L30.7116 20.8354H19.8798L21.9823 17.6495ZM30.3293 27.9717H23.9576V26.3788H30.3293V27.9717ZM34.9172 17.2672C35.2989 16.7575 34.9172 16.0566 34.2798 16.0566H21.5364C21.2813 16.0566 21.0268 16.1841 20.8996 16.4389L18.3505 20.1982L15.8021 16.4389C15.6742 16.2478 15.4197 16.0566 15.1646 16.0566H2.42119C1.78439 16.0566 1.40206 16.7575 1.78438 17.2672L4.84239 21.8549C4.84239 22.6195 4.84239 34.4708 4.84239 35.1717C4.84239 35.6177 5.22471 36 5.67066 36C7.07274 36 29.7555 36 31.1576 36C31.6035 36 31.9858 35.6177 31.9858 35.1717C31.9858 34.4708 31.9858 22.6195 31.9858 21.8549L34.9172 17.2672Z" fill="url(#paint0_linear_600_10405)"/>
<path d="M20.7716 31.1576C21.2289 31.1576 21.5999 31.5284 21.5999 31.9859C21.5999 32.4434 21.2289 32.8142 20.7716 32.8142C20.3143 32.8142 19.9434 32.4434 19.9434 31.9859C19.9434 31.5284 20.3143 31.1576 20.7716 31.1576Z" fill="url(#paint1_linear_600_10405)"/>
<path d="M15.9933 31.1576C16.4506 31.1576 16.8216 31.5284 16.8216 31.9859C16.8216 32.4434 16.4506 32.8142 15.9933 32.8142C15.536 32.8142 15.165 32.4434 15.165 31.9859C15.165 31.5284 15.536 31.1576 15.9933 31.1576Z" fill="url(#paint2_linear_600_10405)"/>
<path d="M34.2802 24.0213C34.2802 23.5753 33.8979 23.193 33.4519 23.193C33.006 23.193 32.623 23.5753 32.623 24.0213V32.8143C32.623 33.2603 33.006 33.6426 33.4519 33.6426C33.8979 33.6426 34.2802 33.2603 34.2802 32.8143V24.0213Z" fill="url(#paint3_linear_600_10405)"/>
<path d="M3.24917 23.193C2.80322 23.193 2.4209 23.5753 2.4209 24.0213V32.8143C2.4209 33.2603 2.80322 33.6426 3.24917 33.6426C3.69511 33.6426 4.07743 33.2603 4.07743 32.8143V24.0213C4.01382 23.5753 3.63149 23.193 3.24917 23.193Z" fill="url(#paint4_linear_600_10405)"/>
<path d="M5.92566 4.77881C5.86204 4.7151 5.79843 4.65138 5.79843 4.52395C5.79843 4.26908 5.98928 4.14164 6.30799 4.14164V4.96996C6.11714 4.90625 5.98928 4.84253 5.92566 4.77881ZM6.62671 6.2443C6.81756 6.30802 6.94541 6.37173 7.00903 6.43545C7.13626 6.49917 7.13626 6.6266 7.13626 6.69032C7.13626 6.94519 6.94542 7.07262 6.62671 7.07262V6.2443ZM5.09739 6.6266C5.03378 6.56289 4.97016 6.56289 4.97016 6.49917L4.45996 7.51864C4.97015 7.83722 5.67057 8.09209 6.24438 8.09209V8.92041H6.69031V8.09209C7.32774 8.09209 7.96453 7.83722 8.21963 7.26377C8.41048 6.88147 8.41048 6.37173 8.21963 5.98943C8.09176 5.73457 7.90092 5.4797 7.45498 5.28855C7.00903 5.0974 6.62671 5.03368 6.62671 5.03368V4.07793C7.07265 4.14164 7.64583 4.46023 7.70945 4.52395L8.21963 3.56819C8.02815 3.44076 7.77369 3.37704 7.51859 3.24961C7.2635 3.12217 6.94541 3.05846 6.69031 3.05846V2.35757H6.24438V3.12217C5.22462 3.24961 4.65144 3.88678 4.65144 4.7151C4.65144 5.22483 4.84228 5.60713 5.35248 5.862C5.7348 6.05315 6.11714 6.11687 6.24438 6.18058V7.07262C5.86205 7.0089 5.35249 6.81775 5.09739 6.6266Z" fill="url(#paint5_linear_600_10405)"/>
<path d="M6.43534 1.72054C8.60144 1.72054 10.4495 3.50462 10.4495 5.73471C10.4495 7.9648 8.66569 9.74887 6.43534 9.74887C4.20498 9.74887 2.4212 7.83737 2.4212 5.67099C2.4212 3.50462 4.20498 1.72054 6.43534 1.72054ZM5.60705 11.2144V12.871C5.60705 13.317 5.98939 13.6993 6.43534 13.6993H13.6353V14.5276C13.6353 14.9737 14.0177 15.356 14.4636 15.356C14.9102 15.356 15.2925 14.9737 15.2925 14.5276V12.9347C15.2925 12.4887 14.9102 12.1064 14.4636 12.1064H7.19999V11.2781C9.87629 10.8958 11.9788 8.53825 11.9788 5.73471C11.9788 2.6763 9.49396 0.127623 6.37172 0.127623C3.24947 0.127623 0.764648 2.61258 0.764648 5.73471C0.828265 8.47453 2.93138 10.8321 5.60705 11.2144Z" fill="url(#paint6_linear_600_10405)"/>
<path d="M17.9043 4.77881C17.8407 4.7151 17.7765 4.65138 17.7765 4.52395C17.7765 4.26908 17.9679 4.14164 18.2866 4.14164V4.96996C18.0952 4.90625 17.9679 4.84253 17.9043 4.77881ZM18.5417 6.2443C18.7326 6.30802 18.8598 6.37173 18.9235 6.43545C19.0513 6.49917 19.0513 6.6266 19.0513 6.69032C19.0513 6.94519 18.8598 7.07262 18.5417 7.07262V6.2443ZM17.0118 6.6266C16.9482 6.56289 16.8846 6.56289 16.8846 6.49917L16.375 7.51864C16.8846 7.83722 17.5856 8.09209 18.1588 8.09209V8.92041H18.6054V8.09209C19.2422 8.09209 19.8796 7.83722 20.1347 7.26377C20.3255 6.88147 20.3255 6.37173 20.1347 5.98943C20.0068 5.73457 19.816 5.4797 19.37 5.28855C18.9234 5.0974 18.5417 5.03368 18.5417 5.03368V4.07793C18.9877 4.14164 19.5609 4.46023 19.6245 4.52395L20.1347 3.56819C19.9432 3.44076 19.6887 3.37704 19.4336 3.24961C19.1785 3.12217 18.8598 3.05846 18.6054 3.05846V2.35757H18.1588V3.12217C17.1397 3.24961 16.5659 3.88678 16.5659 4.7151C16.5659 5.03368 16.6301 5.35226 16.8846 5.54342C17.1397 5.79828 17.522 5.92572 17.9043 6.05315L18.223 6.18058V7.07262C17.8407 7.0089 17.2669 6.81775 17.0118 6.6266Z" fill="url(#paint7_linear_600_10405)"/>
<path d="M18.3501 1.72059C20.5162 1.72059 22.3642 3.50466 22.3642 5.73475C22.3642 7.96484 20.5804 9.74891 18.3501 9.74891C16.1197 9.74891 14.336 7.96484 14.336 5.73475C14.336 3.50466 16.184 1.72059 18.3501 1.72059ZM17.5854 11.2144V15.2286C17.5854 15.6746 17.9678 16.0569 18.4137 16.0569C18.8597 16.0569 19.242 15.6746 19.242 15.2286V11.2144C21.9183 10.8321 24.0208 8.47458 24.0208 5.67103C24.0208 2.61262 21.536 0.0639477 18.4137 0.0639477C15.2921 0.0639477 12.8066 2.54891 12.8066 5.67103C12.8066 8.47458 14.8462 10.8321 17.5854 11.2144Z" fill="url(#paint8_linear_600_10405)"/>
<path d="M29.8202 4.77881C29.7559 4.7151 29.6923 4.65138 29.6923 4.52395C29.6923 4.26908 29.8838 4.14164 30.2019 4.14164V4.96996C30.011 4.90625 29.8838 4.84253 29.8202 4.77881ZM30.5206 6.2443C30.7121 6.30802 30.8393 6.37173 30.9036 6.43545C31.0308 6.49917 31.0308 6.6266 31.0308 6.69032C31.0308 6.94519 30.8393 7.07262 30.5206 7.07262V6.2443ZM28.9919 6.6266C28.9277 6.56289 28.864 6.56289 28.864 6.49917L28.3545 7.51864C28.8641 7.83722 29.5651 8.09209 30.1389 8.09209V8.92041H30.5848V8.09209C31.2216 8.09209 31.8584 7.83722 32.1142 7.26377C32.3044 6.88147 32.3044 6.37173 32.1142 5.98943C31.9863 5.73457 31.7955 5.4797 31.3495 5.28855C30.9036 5.0974 30.5206 5.03368 30.5206 5.03368V4.07793C30.9665 4.14164 31.5397 4.46023 31.604 4.52395L32.1142 3.56819C31.9227 3.44076 31.6682 3.37704 31.4125 3.24961C31.158 3.12217 30.8393 3.05846 30.5848 3.05846V2.35757H30.1389V3.12217C29.1191 3.24961 28.546 3.88678 28.546 4.7151C28.546 5.03368 28.6089 5.35226 28.864 5.54342C29.1191 5.79828 29.5015 5.92572 29.8838 6.05315L30.2019 6.18058V7.07262C29.7559 7.0089 29.2464 6.81775 28.9919 6.6266Z" fill="url(#paint9_linear_600_10405)"/>
<path d="M30.3291 1.72054C32.4952 1.72054 34.3432 3.50461 34.3432 5.7347C34.3432 7.9648 32.5594 9.74887 30.3291 9.74887C28.0993 9.74887 26.3149 7.9648 26.3149 5.7347C26.3149 3.50461 28.0993 1.72054 30.3291 1.72054ZM29.5008 11.2144V12.0427H22.3644C21.9185 12.0427 21.5361 12.425 21.5361 12.871V14.4639C21.5361 14.9099 21.9185 15.2922 22.3644 15.2922C22.8103 15.2922 23.1927 14.9099 23.1927 14.4639V13.6356H30.3927C30.8386 13.6356 31.221 13.2533 31.221 12.8073V11.1506C33.8973 10.7683 35.9997 8.41081 35.9997 5.60727C35.9997 2.54886 33.5149 0.000185013 30.3927 0.000185013C27.2704 0.000185013 24.722 2.61258 24.722 5.67099C24.722 8.47453 26.8245 10.8321 29.5008 11.2144Z" fill="url(#paint10_linear_600_10405)"/>
<path d="M35.1079 11.2142C35.5658 11.2142 35.9368 11.585 35.9368 12.0425C35.9368 12.5 35.5658 12.8708 35.1079 12.8708C34.6513 12.8708 34.2803 12.5 34.2803 12.0425C34.2803 11.585 34.6513 11.2142 35.1079 11.2142Z" fill="url(#paint11_linear_600_10405)"/>
<path d="M2.42106 12.0426C2.87897 12.0426 3.24932 12.4134 3.24932 12.8709C3.24932 13.3284 2.87897 13.6992 2.42106 13.6992C1.96377 13.6992 1.59277 13.3284 1.59277 12.8709C1.59277 12.4134 1.96377 12.0426 2.42106 12.0426Z" fill="url(#paint12_linear_600_10405)"/>
<path d="M0.828283 20.0069C1.2862 20.0069 1.65718 20.3778 1.65718 20.8353C1.65718 21.2927 1.2862 21.6636 0.828283 21.6636C0.371 21.6636 0 21.2927 0 20.8353C0 20.3778 0.371 20.0069 0.828283 20.0069Z" fill="url(#paint13_linear_600_10405)"/>
<path d="M35.1079 34.3434C35.5658 34.3434 35.9368 34.7142 35.9368 35.1717C35.9368 35.6292 35.5658 36 35.1079 36C34.6513 36 34.2803 35.6292 34.2803 35.1717C34.2803 34.7142 34.6513 34.3434 35.1079 34.3434Z" fill="url(#paint14_linear_600_10405)"/>
<path d="M35.1079 20.7716C35.5658 20.7716 35.9368 21.1424 35.9368 21.5999C35.9368 22.0574 35.5658 22.4282 35.1079 22.4282C34.6513 22.4282 34.2803 22.0574 34.2803 21.5999C34.2803 21.1424 34.6513 20.7716 35.1079 20.7716Z" fill="url(#paint15_linear_600_10405)"/>
<defs>
<linearGradient id="paint0_linear_600_10405" x1="1.63184" y1="26.0283" x2="35.0695" y2="26.0283" gradientUnits="userSpaceOnUse">
<stop stop-color="#2E0797"/>
<stop offset="1" stop-color="#726EFC"/>
</linearGradient>
<linearGradient id="paint1_linear_600_10405" x1="19.9434" y1="31.9859" x2="21.5999" y2="31.9859" gradientUnits="userSpaceOnUse">
<stop stop-color="#2E0797"/>
<stop offset="1" stop-color="#726EFC"/>
</linearGradient>
<linearGradient id="paint2_linear_600_10405" x1="15.165" y1="31.9859" x2="16.8216" y2="31.9859" gradientUnits="userSpaceOnUse">
<stop stop-color="#2E0797"/>
<stop offset="1" stop-color="#726EFC"/>
</linearGradient>
<linearGradient id="paint3_linear_600_10405" x1="32.623" y1="28.4178" x2="34.2802" y2="28.4178" gradientUnits="userSpaceOnUse">
<stop stop-color="#2E0797"/>
<stop offset="1" stop-color="#726EFC"/>
</linearGradient>
<linearGradient id="paint4_linear_600_10405" x1="2.4209" y1="28.4178" x2="4.07743" y2="28.4178" gradientUnits="userSpaceOnUse">
<stop stop-color="#2E0797"/>
<stop offset="1" stop-color="#726EFC"/>
</linearGradient>
<linearGradient id="paint5_linear_600_10405" x1="4.45996" y1="5.63899" x2="8.36276" y2="5.63899" gradientUnits="userSpaceOnUse">
<stop stop-color="#2E0797"/>
<stop offset="1" stop-color="#726EFC"/>
</linearGradient>
<linearGradient id="paint6_linear_600_10405" x1="0.764648" y1="7.74179" x2="15.2925" y2="7.74179" gradientUnits="userSpaceOnUse">
<stop stop-color="#2E0797"/>
<stop offset="1" stop-color="#726EFC"/>
</linearGradient>
<linearGradient id="paint7_linear_600_10405" x1="16.375" y1="5.63899" x2="20.2778" y2="5.63899" gradientUnits="userSpaceOnUse">
<stop stop-color="#2E0797"/>
<stop offset="1" stop-color="#726EFC"/>
</linearGradient>
<linearGradient id="paint8_linear_600_10405" x1="12.8066" y1="8.06042" x2="24.0208" y2="8.06042" gradientUnits="userSpaceOnUse">
<stop stop-color="#2E0797"/>
<stop offset="1" stop-color="#726EFC"/>
</linearGradient>
<linearGradient id="paint9_linear_600_10405" x1="28.3545" y1="5.63899" x2="32.2568" y2="5.63899" gradientUnits="userSpaceOnUse">
<stop stop-color="#2E0797"/>
<stop offset="1" stop-color="#726EFC"/>
</linearGradient>
<linearGradient id="paint10_linear_600_10405" x1="21.5361" y1="7.64621" x2="35.9997" y2="7.64621" gradientUnits="userSpaceOnUse">
<stop stop-color="#2E0797"/>
<stop offset="1" stop-color="#726EFC"/>
</linearGradient>
<linearGradient id="paint11_linear_600_10405" x1="34.2803" y1="12.0425" x2="35.9368" y2="12.0425" gradientUnits="userSpaceOnUse">
<stop stop-color="#2E0797"/>
<stop offset="1" stop-color="#726EFC"/>
</linearGradient>
<linearGradient id="paint12_linear_600_10405" x1="1.59277" y1="12.8709" x2="3.24932" y2="12.8709" gradientUnits="userSpaceOnUse">
<stop stop-color="#2E0797"/>
<stop offset="1" stop-color="#726EFC"/>
</linearGradient>
<linearGradient id="paint13_linear_600_10405" x1="0" y1="20.8353" x2="1.65718" y2="20.8353" gradientUnits="userSpaceOnUse">
<stop stop-color="#2E0797"/>
<stop offset="1" stop-color="#726EFC"/>
</linearGradient>
<linearGradient id="paint14_linear_600_10405" x1="34.2803" y1="35.1717" x2="35.9368" y2="35.1717" gradientUnits="userSpaceOnUse">
<stop stop-color="#2E0797"/>
<stop offset="1" stop-color="#726EFC"/>
</linearGradient>
<linearGradient id="paint15_linear_600_10405" x1="34.2803" y1="21.5999" x2="35.9368" y2="21.5999" gradientUnits="userSpaceOnUse">
<stop stop-color="#2E0797"/>
<stop offset="1" stop-color="#726EFC"/>
</linearGradient>
</defs>
</svg>
