<svg width="32" height="32" viewBox="0 0 32 32" fill="none" xmlns="http://www.w3.org/2000/svg">
<path d="M17.9575 17.3338L17.0621 16.4449C17.2861 16.3338 17.5095 16.2782 17.6776 16.2227C17.8452 16.1671 18.0127 16.2227 18.125 16.3893C18.349 16.6116 18.2926 16.9449 17.9575 17.3338ZM14.6006 15.556C14.433 15.556 14.2649 15.5005 14.1532 15.3893C13.8734 15.1116 13.9292 14.7782 14.2649 14.3893L15.2161 15.3338C14.9927 15.5005 14.7682 15.556 14.6006 15.556ZM20.0269 16.6671C20.0833 16.3893 20.0269 16.056 19.9152 15.7782C19.8034 15.5005 19.6353 15.1671 19.3002 14.8893C18.6288 14.2227 17.901 14.056 16.8945 14.4449C16.2226 14.7227 15.7193 15.056 15.6635 15.1116L14.6006 14.056C14.7682 13.9449 14.9363 13.8338 15.1044 13.7227C15.3842 13.6116 15.7758 13.4449 16.055 13.3338C16.1673 13.2782 16.279 13.2782 16.279 13.2782L15.7758 11.6671C15.4395 11.7782 15.048 11.8894 14.6564 12.056C14.2649 12.2227 13.8734 12.4449 13.4818 12.7782L12.8104 12.1116L12.3066 12.6116L13.0903 13.3894C12.4189 14.1671 12.1391 15.1116 12.5306 16.056C12.6423 16.3338 12.8104 16.6116 13.0903 16.8893C13.6499 17.4449 14.2649 17.6116 15.1597 17.3338C15.7758 17.1116 16.3349 16.7782 16.5589 16.6671L17.5659 17.6671C17.3419 17.8338 17.118 17.9449 16.8945 18.056C16.5588 18.2227 16.1109 18.4449 15.7194 18.5004C15.5512 18.556 15.4959 18.556 15.4395 18.556L15.9992 20.2227C16.9504 20.056 17.901 19.5004 18.6288 18.8893L19.5236 19.7782L20.0269 19.2782L19.1321 18.3893C19.3555 18.1116 19.5795 17.8893 19.747 17.556C19.9152 17.2782 19.971 17.0004 20.0269 16.6671Z" fill="white"/>
<path d="M30.6017 17.0007L27.0219 17.1674C26.6857 17.1674 26.4059 17.4452 26.3506 17.7229C26.2383 18.334 26.0707 18.9451 25.8468 19.5007C25.7345 19.7785 25.8468 20.1674 26.126 20.334L29.1472 22.2785L28.1402 24.0007L24.9514 22.3896C24.6721 22.2229 24.28 22.334 24.1125 22.5562C23.7209 23.0562 23.273 23.4451 22.7697 23.8896C22.5463 24.1118 22.4346 24.4451 22.6016 24.7229L24.2242 27.8896L22.4899 28.8896L20.5322 25.8896C20.3641 25.6118 20.0284 25.5007 19.6933 25.6118C19.1336 25.834 18.5186 26.0007 17.9026 26.1118C17.5674 26.1673 17.3435 26.4451 17.3435 26.7784L17.1753 30.334H15.1612L14.9942 26.7784C14.9942 26.4451 14.7144 26.1673 14.4345 26.1118C13.819 26.0007 13.2035 25.834 12.6438 25.6118C12.3646 25.5007 11.973 25.6118 11.8049 25.8896L9.84721 28.8896L8.11237 27.8896L9.73493 24.7229C9.9025 24.4451 9.7908 24.0562 9.56738 23.8896C9.06357 23.5007 8.61619 23.0562 8.22465 22.5562C8.00067 22.2785 7.66552 22.2229 7.38569 22.3896L4.1964 24.0007L3.18991 22.2785L6.21051 20.334C6.49034 20.1674 6.60261 19.834 6.49034 19.5007C6.26637 18.9451 6.09881 18.334 5.98654 17.7229C5.93069 17.3896 5.65142 17.1674 5.31573 17.1674L1.7349 17.0007V15.0007L5.31573 14.8341C5.65142 14.8341 5.93069 14.5563 5.98654 14.2785C6.09881 13.6674 6.26637 13.0563 6.49034 12.5007C6.60261 12.2229 6.49034 11.8341 6.21051 11.6674L3.18991 9.72296L4.1964 8.00074L7.38569 9.61185C7.66552 9.77851 8.05708 9.6674 8.22465 9.44518C8.61619 8.94518 9.06357 8.5563 9.51097 8.16741C9.7908 7.94519 9.84721 7.61186 9.67909 7.33408L8.05707 4.16743L9.7908 3.16743L11.7491 6.16742C11.9166 6.44519 12.2523 6.5563 12.588 6.44519C13.1477 6.22297 13.7632 6.05631 14.3782 5.9452C14.7144 5.88964 14.9378 5.61186 14.9378 5.27853L15.1059 1.72299H17.1195L17.2876 5.27853C17.2876 5.61186 17.5674 5.88964 17.8467 5.9452C18.4622 6.05631 19.0772 6.22297 19.6369 6.44519C19.9167 6.5563 20.3082 6.44519 20.4763 6.16742L22.4346 3.16743L24.1683 4.16743L22.5463 7.33408C22.3782 7.61186 22.4899 8.00074 22.7133 8.16741C23.1613 8.5563 23.6092 9.00074 24.0566 9.50074C24.28 9.72296 24.6157 9.83407 24.8956 9.6674L28.0843 8.0563L29.0914 9.77851L26.0707 11.723C25.7909 11.8896 25.6792 12.2229 25.7909 12.5563C26.0143 13.1118 26.1824 13.7229 26.2942 14.3341C26.3506 14.6674 26.6304 14.8896 26.9655 14.8896L30.5464 15.0563L30.6017 17.0007ZM31.3294 13.6674L27.6369 13.4452C27.5811 13.1118 27.4688 12.7785 27.3571 12.5007L30.4341 10.5007C30.7698 10.2785 30.8257 9.88963 30.6581 9.55629L28.9797 6.66742C28.8115 6.33408 28.3641 6.22297 28.0843 6.38964L24.7838 8.0563C24.5599 7.83408 24.3365 7.5563 24.0566 7.33408L25.7345 4.05631C25.9026 3.72298 25.7909 3.3341 25.4552 3.16743L22.5463 1.50077C22.2101 1.3341 21.8185 1.38966 21.5951 1.72299L19.581 4.77853C19.2453 4.66742 18.9655 4.61187 18.6303 4.50076L18.4058 0.834105C18.4058 0.445217 18.0707 0.16744 17.735 0.16744H14.3782C13.9866 0.16744 13.7068 0.445217 13.7068 0.834105L13.4833 4.50076C13.1477 4.55631 12.812 4.66742 12.5321 4.77853L10.5186 1.72299C10.2941 1.38966 9.90251 1.3341 9.56738 1.50077L6.65792 3.16743C6.32279 3.3341 6.21052 3.77854 6.37809 4.05631L8.05707 7.33408C7.83254 7.5563 7.5527 7.77852 7.32928 8.0563L4.02884 6.38964C3.69316 6.22297 3.30162 6.33408 3.1335 6.66742L1.4556 9.55629C1.28748 9.88963 1.34334 10.2785 1.67903 10.5007L4.75606 12.5007C4.64435 12.8341 4.58794 13.1118 4.47623 13.4452L0.783684 13.6674C0.392143 13.6674 0.112305 14.0007 0.112305 14.3341V17.6674C0.112305 18.0563 0.392143 18.334 0.783684 18.334L4.47623 18.5563C4.53264 18.8896 4.64435 19.2229 4.75606 19.5007L1.67903 21.5007C1.34334 21.7229 1.28748 22.1118 1.4556 22.4451L3.1335 25.334C3.30162 25.6673 3.74901 25.7785 4.02884 25.6118L7.32928 23.9451C7.5527 24.1673 7.77723 24.4451 8.05707 24.6673L6.37809 27.9451C6.21052 28.2784 6.32279 28.6673 6.65792 28.834L9.56738 30.5007C9.90251 30.6673 10.2941 30.6118 10.5186 30.2784L12.5321 27.2229C12.8678 27.334 13.1477 27.3896 13.4833 27.5007L13.7068 31.1673C13.7068 31.5562 14.043 31.834 14.3782 31.834H17.735C18.1265 31.834 18.4058 31.5562 18.4058 31.1673L18.6303 27.5007C18.9655 27.4451 19.3017 27.334 19.581 27.2229L21.5951 30.2784C21.8185 30.6118 22.2101 30.6673 22.5463 30.5007L25.4552 28.834C25.7909 28.6673 25.9026 28.2229 25.7345 27.9451L24.0566 24.6673C24.28 24.4451 24.5599 24.2229 24.7838 23.9451L28.0843 25.6118C28.42 25.7785 28.8115 25.6673 28.9797 25.334L30.6581 22.4451C30.8257 22.1118 30.7698 21.7229 30.4341 21.5007L27.3571 19.5007C27.4688 19.1674 27.5252 18.8896 27.6369 18.5563L31.3294 18.334C31.721 18.334 32.0003 18.0007 32.0003 17.6674V14.3341C32.0003 13.9452 31.721 13.6674 31.3294 13.6674Z" fill="white"/>
<path d="M16.1111 22.2224C12.6425 22.2224 9.84587 19.4447 9.84587 16.0002C9.84587 12.5558 12.6425 9.77805 16.1111 9.77805C19.5797 9.77805 22.3768 12.5558 22.3768 16.0002C22.3768 19.4447 19.5797 22.2224 16.1111 22.2224ZM16.1111 8.38917C11.8594 8.38917 8.44727 11.8336 8.44727 16.0002C8.44727 20.2225 11.9153 23.6113 16.1111 23.6113C20.3627 23.6113 23.7754 20.1669 23.7754 16.0002C23.7754 11.778 20.3627 8.38917 16.1111 8.38917Z" fill="white"/>
<path d="M2.12639 29.2216C1.7343 29.2216 1.3986 28.8882 1.3986 28.4994C1.3986 28.1105 1.7343 27.7771 2.12639 27.7771C2.51793 27.7771 2.85307 28.1105 2.85307 28.4994C2.85307 28.8882 2.51793 29.2216 2.12639 29.2216ZM2.12639 26.4438C0.951213 26.4438 0 27.3883 0 28.5549C0 29.7216 0.951213 30.666 2.12639 30.666C3.30101 30.666 4.25221 29.7216 4.25221 28.5549C4.25221 27.3883 3.30101 26.4438 2.12639 26.4438Z" fill="white"/>
<path d="M29.0357 1.44448C29.5954 1.44448 30.0986 1.88893 30.0986 2.50004C30.0986 3.11115 29.6507 3.55559 29.0357 3.55559C28.4202 3.55559 27.9728 3.11115 27.9728 2.50004C27.9728 1.88893 28.4761 1.44448 29.0357 1.44448ZM29.0357 4.88892C30.3785 4.88892 31.4972 3.77781 31.4972 2.44448C31.4972 1.11115 30.3785 4.62532e-05 29.0357 4.62532e-05C27.693 4.62532e-05 26.5742 1.11115 26.5742 2.44448C26.5742 3.77781 27.693 4.88892 29.0357 4.88892Z" fill="white"/>
<path d="M5.65203 0.721821C6.05352 0.721821 6.37871 1.04515 6.37871 1.44404C6.37871 1.84293 6.05352 2.16626 5.65203 2.16626C5.24998 2.16626 4.9248 1.84293 4.9248 1.44404C4.9248 1.04515 5.24998 0.721821 5.65203 0.721821Z" fill="white"/>
<path d="M30.0978 25.7216C30.4999 25.7216 30.825 26.0449 30.825 26.4438C30.825 26.8427 30.4999 27.166 30.0978 27.166C29.6958 27.166 29.3706 26.8427 29.3706 26.4438C29.3706 26.0449 29.6958 25.7216 30.0978 25.7216Z" fill="white"/>
<path d="M30.8259 5.55581C31.2274 5.55581 31.5531 5.87914 31.5531 6.27802C31.5531 6.67691 31.2274 7.00024 30.8259 7.00024C30.4244 7.00024 30.0986 6.67691 30.0986 6.27802C30.0986 5.87914 30.4244 5.55581 30.8259 5.55581Z" fill="white"/>
<path d="M27.3014 29.8895C27.7029 29.8895 28.0287 30.2129 28.0287 30.6118C28.0287 31.0107 27.7029 31.334 27.3014 31.334C26.8999 31.334 26.5742 31.0107 26.5742 30.6118C26.5742 30.2129 26.8999 29.8895 27.3014 29.8895Z" fill="white"/>
<path d="M6.32349 30.5556C6.72443 30.5556 7.05017 30.8789 7.05017 31.2778C7.05017 31.6767 6.72443 32 6.32349 32C5.92144 32 5.5957 31.6767 5.5957 31.2778C5.5957 30.8789 5.92144 30.5556 6.32349 30.5556Z" fill="white"/>
<path d="M1.45671 3.49916C1.85821 3.49916 2.1834 3.8225 2.1834 4.22138C2.1834 4.62027 1.85821 4.9436 1.45671 4.9436C1.05467 4.9436 0.729492 4.62027 0.729492 4.22138C0.729492 3.8225 1.05467 3.49916 1.45671 3.49916Z" fill="white"/>
</svg>
