<svg width="36" height="36" viewBox="0 0 36 36" fill="none" xmlns="http://www.w3.org/2000/svg">
<path d="M34.3387 3.99298C34.7976 3.99298 35.1699 4.36186 35.1699 4.81693C35.1699 5.272 34.7976 5.64087 34.3387 5.64087C33.8792 5.64087 33.5068 5.272 33.5068 4.81693C33.5068 4.36186 33.8792 3.99298 34.3387 3.99298Z" fill="url(#paint0_linear_600_10388)"/>
<path d="M21.549 9.57038C22.0079 9.57038 22.3802 9.93925 22.3802 10.3943C22.3802 10.8494 22.0079 11.2183 21.549 11.2183C21.0901 11.2183 20.7178 10.8494 20.7178 10.3943C20.7178 9.93925 21.0901 9.57038 21.549 9.57038Z" fill="url(#paint1_linear_600_10388)"/>
<path d="M18.3517 2.40827C18.8106 2.40827 19.183 2.77714 19.183 3.23221C19.183 3.68728 18.8106 4.05615 18.3517 4.05615C17.8922 4.05615 17.5205 3.68728 17.5205 3.23221C17.5205 2.77714 17.8922 2.40827 18.3517 2.40827Z" fill="url(#paint2_linear_600_10388)"/>
<path d="M10.3595 2.40827C10.8185 2.40827 11.1908 2.77714 11.1908 3.23221C11.1908 3.68728 10.8185 4.05615 10.3595 4.05615C9.9 4.05615 9.52832 3.68728 9.52832 3.23221C9.52832 2.77714 9.9 2.40827 10.3595 2.40827Z" fill="url(#paint3_linear_600_10388)"/>
<path d="M8.56847 14.4506C8.44015 14.3872 8.44017 14.2604 8.44017 14.1337C8.44017 13.8168 8.63232 13.69 9.01601 13.6266V14.7041C8.82385 14.5773 8.69616 14.514 8.56847 14.4506ZM9.46355 16.2252C9.65508 16.2886 9.8466 16.352 9.97492 16.4787C10.1026 16.5421 10.1664 16.6689 10.1664 16.7956C10.1664 17.1125 9.97493 17.2393 9.52739 17.2393L9.46355 16.2252ZM8.44017 17.1125C8.12032 16.9858 7.80109 16.859 7.54509 16.6689C7.4174 16.6055 7.35356 16.5421 7.35356 16.5421L6.71387 17.7464C7.35356 18.19 8.18478 18.4435 8.95153 18.5069V19.521H9.52739V18.5069C9.78277 18.5069 10.0388 18.4435 10.2941 18.3802C10.8061 18.2534 11.1898 17.9365 11.4458 17.4928C11.7012 17.0492 11.7012 16.352 11.5097 15.9083C11.3814 15.5914 11.0622 15.2745 10.5501 15.021C10.0388 14.8309 9.52739 14.7041 9.46355 14.7041V13.5633C10.0388 13.6266 10.7423 14.0069 10.87 14.1337L11.5097 12.9928C11.2537 12.8661 10.9977 12.7393 10.6785 12.6126C10.3586 12.4858 9.97493 12.4224 9.59124 12.359V11.4717H9.01601V12.359C8.18478 12.4224 7.54508 12.8027 7.22524 13.4999C7.09755 13.7534 7.09756 14.0069 7.09756 14.3238C7.09756 14.9576 7.35356 15.4013 7.99263 15.7182C8.44016 15.9717 8.95154 16.0351 9.1437 16.0985V17.2393C8.82385 17.2393 8.63233 17.1759 8.44017 17.1125Z" fill="url(#paint4_linear_600_10388)"/>
<path d="M9.14434 10.3945C12.0217 10.3945 14.3239 12.6762 14.3239 15.5283C14.3239 18.3804 12.0217 20.6621 9.14434 20.6621C6.26697 20.6621 3.96482 18.3804 3.96482 15.5283C3.96482 12.6762 6.26697 10.3945 9.14434 10.3945ZM9.14434 22.2466C12.9168 22.2466 15.9225 19.2043 15.9225 15.5283C15.9225 11.8522 12.8529 8.80998 9.14434 8.80998C5.43511 8.80998 2.36621 11.7888 2.36621 15.5283C2.36621 19.2677 5.43511 22.2466 9.14434 22.2466Z" fill="url(#paint5_linear_600_10388)"/>
<path d="M27.6877 34.3521V13.3099C29.5424 12.169 30.9488 11.2183 31.9077 10.5212V34.3521H27.6877ZM21.8692 16.4789C23.2756 15.7817 24.6827 15.0212 26.0891 14.2606V34.3521H21.8692V16.4789ZM16.0499 21.5493C16.8812 20.5986 17.5209 19.4578 17.9046 18.2535C18.6713 17.9366 19.4387 17.6197 20.2705 17.2395V34.3521H16.0499V21.5493ZM10.2307 24.5916C11.7661 24.4014 13.2364 23.831 14.4513 23.0071V34.4155H10.2307V24.5916ZM4.41214 23.324C5.6909 24.0845 7.09797 24.5282 8.63274 24.6549V34.3521H4.41214V23.324ZM1.59861 15.5282C1.59861 11.4085 4.98736 7.98595 9.20796 7.98595C13.4279 7.98595 16.8173 11.3451 16.8173 15.5282C16.8173 19.7113 13.4279 23.0704 9.20796 23.0704C4.98736 23.0704 1.59861 19.6479 1.59861 15.5282ZM35.1694 34.3521H33.5708V8.93665C33.5708 8.61975 33.3786 8.36623 33.1233 8.23947C32.8673 8.11271 32.5474 8.11271 32.2914 8.30285C32.2914 8.30285 30.0537 10.0775 26.5366 12.169C23.8508 13.7535 21.1018 15.2113 18.3521 16.3521C18.8635 10.9648 14.579 6.40145 9.20796 6.40145C4.15676 6.40145 0 10.4578 0 15.5282C0 18.1268 1.08723 20.4085 2.81353 22.1197V34.3521H1.59861C1.15108 34.3521 0.767384 34.7324 0.767384 35.1761C0.767384 35.6197 1.15108 36 1.59861 36C9.20796 36 18.8635 36 35.1694 36C35.6169 36 36 35.6197 36 35.1761C35.9362 34.669 35.5525 34.3521 35.1694 34.3521Z" fill="url(#paint6_linear_600_10388)"/>
<path d="M3.965 1.64788C4.41253 1.64788 4.79622 2.02817 4.79622 2.47183C4.79622 2.91549 4.41253 3.29577 3.965 3.29577C3.51746 3.29577 3.13377 2.91549 3.13377 2.47183C3.19761 2.02817 3.51746 1.64788 3.965 1.64788ZM3.965 4.81689C5.3076 4.81689 6.39483 3.73943 6.39483 2.40845C6.39483 1.07746 5.3076 -9.53674e-07 3.965 -9.53674e-07C2.62239 -9.53674e-07 1.53516 1.07746 1.53516 2.40845C1.53516 3.73943 2.62239 4.81689 3.965 4.81689Z" fill="url(#paint7_linear_600_10388)"/>
<path d="M27.9427 1.64785C28.8384 1.64785 29.5419 2.34503 29.5419 3.23236C29.5419 4.11968 28.8384 4.81686 27.9427 4.81686C27.0476 4.81686 26.3447 4.11968 26.3447 3.23236C26.3447 2.34503 27.0476 1.64785 27.9427 1.64785ZM27.9427 6.40137C29.7334 6.40137 31.1399 5.007 31.1399 3.23236C31.1399 1.45771 29.7334 0.0633469 27.9427 0.0633469C26.1525 0.0633469 24.7461 1.45771 24.7461 3.23236C24.7461 5.007 26.1525 6.40137 27.9427 6.40137Z" fill="url(#paint8_linear_600_10388)"/>
<defs>
<linearGradient id="paint0_linear_600_10388" x1="33.5068" y1="4.81693" x2="35.1699" y2="4.81693" gradientUnits="userSpaceOnUse">
<stop stop-color="#2E0797"/>
<stop offset="1" stop-color="#726EFC"/>
</linearGradient>
<linearGradient id="paint1_linear_600_10388" x1="20.7178" y1="10.3943" x2="22.3802" y2="10.3943" gradientUnits="userSpaceOnUse">
<stop stop-color="#2E0797"/>
<stop offset="1" stop-color="#726EFC"/>
</linearGradient>
<linearGradient id="paint2_linear_600_10388" x1="17.5205" y1="3.23221" x2="19.183" y2="3.23221" gradientUnits="userSpaceOnUse">
<stop stop-color="#2E0797"/>
<stop offset="1" stop-color="#726EFC"/>
</linearGradient>
<linearGradient id="paint3_linear_600_10388" x1="9.52832" y1="3.23221" x2="11.1908" y2="3.23221" gradientUnits="userSpaceOnUse">
<stop stop-color="#2E0797"/>
<stop offset="1" stop-color="#726EFC"/>
</linearGradient>
<linearGradient id="paint4_linear_600_10388" x1="6.71387" y1="15.4964" x2="11.6462" y2="15.4964" gradientUnits="userSpaceOnUse">
<stop stop-color="#2E0797"/>
<stop offset="1" stop-color="#726EFC"/>
</linearGradient>
<linearGradient id="paint5_linear_600_10388" x1="2.36621" y1="15.5283" x2="15.9225" y2="15.5283" gradientUnits="userSpaceOnUse">
<stop stop-color="#2E0797"/>
<stop offset="1" stop-color="#726EFC"/>
</linearGradient>
<linearGradient id="paint6_linear_600_10388" x1="0" y1="21.2007" x2="36" y2="21.2007" gradientUnits="userSpaceOnUse">
<stop stop-color="#2E0797"/>
<stop offset="1" stop-color="#726EFC"/>
</linearGradient>
<linearGradient id="paint7_linear_600_10388" x1="1.53516" y1="2.40845" x2="6.39483" y2="2.40845" gradientUnits="userSpaceOnUse">
<stop stop-color="#2E0797"/>
<stop offset="1" stop-color="#726EFC"/>
</linearGradient>
<linearGradient id="paint8_linear_600_10388" x1="24.7461" y1="3.23236" x2="31.1399" y2="3.23236" gradientUnits="userSpaceOnUse">
<stop stop-color="#2E0797"/>
<stop offset="1" stop-color="#726EFC"/>
</linearGradient>
</defs>
</svg>
