<svg width="36" height="36" viewBox="0 0 36 36" fill="none" xmlns="http://www.w3.org/2000/svg">
<path d="M19.1778 34.3434V22.4283H30.3283V24.7858H23.1283C22.6824 24.7858 22.2994 25.1681 22.2994 25.6142V28.8C22.2994 29.246 22.6824 29.6283 23.1283 29.6283H30.3283V31.1575H23.1283C22.6824 31.1575 22.2994 31.5398 22.2994 31.9858C22.2994 32.4319 22.6824 32.8142 23.1283 32.8142H30.3283V34.3434H19.1778ZM6.43435 32.7504H13.6343C14.0803 32.7504 14.4626 32.3681 14.4626 31.9221C14.4626 31.4761 14.0803 31.0938 13.6343 31.0938H6.43435V29.5009H8.02728C8.47322 29.5009 8.85555 29.1186 8.85555 28.6726V25.4867C8.85555 25.0407 8.47322 24.6584 8.02728 24.6584H6.43435V22.2372H17.5849V34.3434H6.43435V32.7504ZM6.43435 26.3788H7.26261V27.9717H6.43435V26.3788ZM14.7177 17.6495L16.8202 20.8354H5.9884L3.88591 17.6495H14.7177ZM21.9813 17.6495H32.8131L30.7106 20.8354H19.8788L21.9813 17.6495ZM30.3283 27.9717H23.9566V26.3788H30.3283V27.9717ZM34.9163 17.2672C35.298 16.7575 34.9163 16.0566 34.2788 16.0566H21.5354C21.2803 16.0566 21.0258 16.1841 20.8986 16.4389L18.3495 20.1982L15.8011 16.4389C15.6732 16.2478 15.4187 16.0566 15.1636 16.0566H2.42021C1.78341 16.0566 1.40108 16.7575 1.78341 17.2672L4.84141 21.8549C4.84141 22.6195 4.84141 34.4708 4.84141 35.1717C4.84141 35.6177 5.22373 36 5.66968 36C7.07176 36 29.7545 36 31.1566 36C31.6025 36 31.9849 35.6177 31.9849 35.1717C31.9849 34.4708 31.9849 22.6195 31.9849 21.8549L34.9163 17.2672Z" fill="#0C3A30"/>
<path d="M20.7716 31.1576C21.2289 31.1576 21.5999 31.5284 21.5999 31.9859C21.5999 32.4434 21.2289 32.8142 20.7716 32.8142C20.3143 32.8142 19.9434 32.4434 19.9434 31.9859C19.9434 31.5284 20.3143 31.1576 20.7716 31.1576Z" fill="#0C3A30"/>
<path d="M15.9923 31.1576C16.4496 31.1576 16.8206 31.5284 16.8206 31.9859C16.8206 32.4434 16.4496 32.8142 15.9923 32.8142C15.5351 32.8142 15.1641 32.4434 15.1641 31.9859C15.1641 31.5284 15.5351 31.1576 15.9923 31.1576Z" fill="#0C3A30"/>
<path d="M34.2802 24.0213C34.2802 23.5753 33.8979 23.193 33.4519 23.193C33.006 23.193 32.623 23.5753 32.623 24.0213V32.8143C32.623 33.2603 33.006 33.6426 33.4519 33.6426C33.8979 33.6426 34.2802 33.2603 34.2802 32.8143V24.0213Z" fill="#0C3A30"/>
<path d="M3.25014 23.193C2.8042 23.193 2.42188 23.5753 2.42188 24.0213V32.8143C2.42188 33.2603 2.8042 33.6426 3.25014 33.6426C3.69609 33.6426 4.07841 33.2603 4.07841 32.8143V24.0213C4.01479 23.5753 3.63247 23.193 3.25014 23.193Z" fill="#0C3A30"/>
<path d="M5.92664 4.77881C5.86302 4.7151 5.7994 4.65138 5.7994 4.52395C5.7994 4.26908 5.99026 4.14164 6.30897 4.14164V4.96996C6.11812 4.90625 5.99025 4.84253 5.92664 4.77881ZM6.62769 6.2443C6.81854 6.30802 6.94639 6.37173 7.01 6.43545C7.13724 6.49917 7.13724 6.6266 7.13724 6.69032C7.13724 6.94519 6.9464 7.07262 6.62769 7.07262V6.2443ZM5.09837 6.6266C5.03475 6.56289 4.97114 6.56289 4.97114 6.49917L4.46094 7.51864C4.97113 7.83722 5.67155 8.09209 6.24535 8.09209V8.92041H6.69129V8.09209C7.32871 8.09209 7.96551 7.83722 8.2206 7.26377C8.41145 6.88147 8.41145 6.37173 8.2206 5.98943C8.09274 5.73457 7.9019 5.4797 7.45595 5.28855C7.01001 5.0974 6.62769 5.03368 6.62769 5.03368V4.07793C7.07363 4.14164 7.64681 4.46023 7.71042 4.52395L8.2206 3.56819C8.02912 3.44076 7.77467 3.37704 7.51957 3.24961C7.26447 3.12217 6.94638 3.05846 6.69129 3.05846V2.35757H6.24535V3.12217C5.2256 3.24961 4.65242 3.88678 4.65242 4.7151C4.65242 5.22483 4.84326 5.60713 5.35345 5.862C5.73578 6.05315 6.11812 6.11687 6.24535 6.18058V7.07262C5.86302 7.0089 5.35347 6.81775 5.09837 6.6266Z" fill="#0C3A30"/>
<path d="M6.43631 1.72054C8.60242 1.72054 10.4504 3.50462 10.4504 5.73471C10.4504 7.9648 8.66667 9.74887 6.43631 9.74887C4.20596 9.74887 2.42218 7.83737 2.42218 5.67099C2.42218 3.50462 4.20596 1.72054 6.43631 1.72054ZM5.60803 11.2144V12.871C5.60803 13.317 5.99037 13.6993 6.43631 13.6993H13.6363V14.5276C13.6363 14.9737 14.0186 15.356 14.4646 15.356C14.9112 15.356 15.2935 14.9737 15.2935 14.5276V12.9347C15.2935 12.4887 14.9112 12.1064 14.4646 12.1064H7.20096V11.2781C9.87726 10.8958 11.9798 8.53825 11.9798 5.73471C11.9798 2.6763 9.49494 0.127623 6.37269 0.127623C3.25045 0.127623 0.765625 2.61258 0.765625 5.73471C0.829241 8.47453 2.93236 10.8321 5.60803 11.2144Z" fill="#0C3A30"/>
<path d="M17.9043 4.77881C17.8407 4.7151 17.7765 4.65138 17.7765 4.52395C17.7765 4.26908 17.9679 4.14164 18.2866 4.14164V4.96996C18.0952 4.90625 17.9679 4.84253 17.9043 4.77881ZM18.5417 6.2443C18.7326 6.30802 18.8598 6.37173 18.9235 6.43545C19.0513 6.49917 19.0513 6.6266 19.0513 6.69032C19.0513 6.94519 18.8598 7.07262 18.5417 7.07262V6.2443ZM17.0118 6.6266C16.9482 6.56289 16.8846 6.56289 16.8846 6.49917L16.375 7.51864C16.8846 7.83722 17.5856 8.09209 18.1588 8.09209V8.92041H18.6054V8.09209C19.2422 8.09209 19.8796 7.83722 20.1347 7.26377C20.3255 6.88147 20.3255 6.37173 20.1347 5.98943C20.0068 5.73457 19.816 5.4797 19.37 5.28855C18.9234 5.0974 18.5417 5.03368 18.5417 5.03368V4.07793C18.9877 4.14164 19.5609 4.46023 19.6245 4.52395L20.1347 3.56819C19.9432 3.44076 19.6887 3.37704 19.4336 3.24961C19.1785 3.12217 18.8598 3.05846 18.6054 3.05846V2.35757H18.1588V3.12217C17.1397 3.24961 16.5659 3.88678 16.5659 4.7151C16.5659 5.03368 16.6301 5.35226 16.8846 5.54342C17.1397 5.79828 17.522 5.92572 17.9043 6.05315L18.223 6.18058V7.07262C17.8407 7.0089 17.2669 6.81775 17.0118 6.6266Z" fill="#0C3A30"/>
<path d="M18.3501 1.72059C20.5162 1.72059 22.3642 3.50466 22.3642 5.73475C22.3642 7.96484 20.5804 9.74891 18.3501 9.74891C16.1197 9.74891 14.336 7.96484 14.336 5.73475C14.336 3.50466 16.184 1.72059 18.3501 1.72059ZM17.5854 11.2144V15.2286C17.5854 15.6746 17.9678 16.0569 18.4137 16.0569C18.8597 16.0569 19.242 15.6746 19.242 15.2286V11.2144C21.9183 10.8321 24.0208 8.47458 24.0208 5.67103C24.0208 2.61262 21.536 0.0639477 18.4137 0.0639477C15.2921 0.0639477 12.8066 2.54891 12.8066 5.67103C12.8066 8.47458 14.8462 10.8321 17.5854 11.2144Z" fill="#0C3A30"/>
<path d="M29.8192 4.77881C29.755 4.7151 29.6914 4.65138 29.6914 4.52395C29.6914 4.26908 29.8828 4.14164 30.2009 4.14164V4.96996C30.0101 4.90625 29.8828 4.84253 29.8192 4.77881ZM30.5196 6.2443C30.7111 6.30802 30.8383 6.37173 30.9026 6.43545C31.0298 6.49917 31.0298 6.6266 31.0298 6.69032C31.0298 6.94519 30.8383 7.07262 30.5196 7.07262V6.2443ZM28.9909 6.6266C28.9267 6.56289 28.8631 6.56289 28.8631 6.49917L28.3535 7.51864C28.8631 7.83722 29.5641 8.09209 30.1379 8.09209V8.92041H30.5839V8.09209C31.2207 8.09209 31.8575 7.83722 32.1132 7.26377C32.3034 6.88147 32.3034 6.37173 32.1132 5.98943C31.9853 5.73457 31.7945 5.4797 31.3485 5.28855C30.9026 5.0974 30.5196 5.03368 30.5196 5.03368V4.07793C30.9656 4.14164 31.5387 4.46023 31.603 4.52395L32.1132 3.56819C31.9217 3.44076 31.6672 3.37704 31.4115 3.24961C31.1571 3.12217 30.8383 3.05846 30.5839 3.05846V2.35757H30.1379V3.12217C29.1182 3.24961 28.545 3.88678 28.545 4.7151C28.545 5.03368 28.608 5.35226 28.8631 5.54342C29.1182 5.79828 29.5005 5.92572 29.8828 6.05315L30.2009 6.18058V7.07262C29.755 7.0089 29.2454 6.81775 28.9909 6.6266Z" fill="#0C3A30"/>
<path d="M30.33 1.72054C32.4961 1.72054 34.3442 3.50461 34.3442 5.7347C34.3442 7.9648 32.5604 9.74887 30.33 9.74887C28.1003 9.74887 26.3159 7.9648 26.3159 5.7347C26.3159 3.50461 28.1003 1.72054 30.33 1.72054ZM29.5018 11.2144V12.0427H22.3654C21.9194 12.0427 21.5371 12.425 21.5371 12.871V14.4639C21.5371 14.9099 21.9194 15.2922 22.3654 15.2922C22.8113 15.2922 23.1936 14.9099 23.1936 14.4639V13.6356H30.3936C30.8396 13.6356 31.2219 13.2533 31.2219 12.8073V11.1506C33.8982 10.7683 36.0007 8.41081 36.0007 5.60727C36.0007 2.54886 33.5159 0.000185013 30.3936 0.000185013C27.2714 0.000185013 24.723 2.61258 24.723 5.67099C24.723 8.47453 26.8255 10.8321 29.5018 11.2144Z" fill="#0C3A30"/>
<path d="M35.1069 11.2142C35.5649 11.2142 35.9358 11.585 35.9358 12.0425C35.9358 12.5 35.5649 12.8708 35.1069 12.8708C34.6503 12.8708 34.2793 12.5 34.2793 12.0425C34.2793 11.585 34.6503 11.2142 35.1069 11.2142Z" fill="#0C3A30"/>
<path d="M2.42203 12.0426C2.87995 12.0426 3.2503 12.4134 3.2503 12.8709C3.2503 13.3284 2.87995 13.6992 2.42203 13.6992C1.96475 13.6992 1.59375 13.3284 1.59375 12.8709C1.59375 12.4134 1.96475 12.0426 2.42203 12.0426Z" fill="#0C3A30"/>
<path d="M0.828283 20.0069C1.2862 20.0069 1.65718 20.3778 1.65718 20.8353C1.65718 21.2927 1.2862 21.6636 0.828283 21.6636C0.371 21.6636 0 21.2927 0 20.8353C0 20.3778 0.371 20.0069 0.828283 20.0069Z" fill="#0C3A30"/>
<path d="M35.1069 34.3434C35.5649 34.3434 35.9358 34.7142 35.9358 35.1717C35.9358 35.6292 35.5649 36 35.1069 36C34.6503 36 34.2793 35.6292 34.2793 35.1717C34.2793 34.7142 34.6503 34.3434 35.1069 34.3434Z" fill="#0C3A30"/>
<path d="M35.1069 20.7716C35.5649 20.7716 35.9358 21.1424 35.9358 21.5999C35.9358 22.0574 35.5649 22.4282 35.1069 22.4282C34.6503 22.4282 34.2793 22.0574 34.2793 21.5999C34.2793 21.1424 34.6503 20.7716 35.1069 20.7716Z" fill="#0C3A30"/>
</svg>
