<svg width="36" height="36" viewBox="0 0 36 36" fill="none" xmlns="http://www.w3.org/2000/svg">
<path d="M34.3377 3.99298C34.7966 3.99298 35.1689 4.36186 35.1689 4.81693C35.1689 5.272 34.7966 5.64087 34.3377 5.64087C33.8782 5.64087 33.5059 5.272 33.5059 4.81693C33.5059 4.36186 33.8782 3.99298 34.3377 3.99298Z" fill="#0C3A30"/>
<path d="M21.55 9.57038C22.0089 9.57038 22.3812 9.93925 22.3812 10.3943C22.3812 10.8494 22.0089 11.2183 21.55 11.2183C21.0911 11.2183 20.7188 10.8494 20.7188 10.3943C20.7188 9.93925 21.0911 9.57038 21.55 9.57038Z" fill="#0C3A30"/>
<path d="M18.3527 2.40827C18.8116 2.40827 19.1839 2.77714 19.1839 3.23221C19.1839 3.68728 18.8116 4.05615 18.3527 4.05615C17.8932 4.05615 17.5215 3.68728 17.5215 3.23221C17.5215 2.77714 17.8932 2.40827 18.3527 2.40827Z" fill="#0C3A30"/>
<path d="M10.3586 2.40827C10.8175 2.40827 11.1898 2.77714 11.1898 3.23221C11.1898 3.68728 10.8175 4.05615 10.3586 4.05615C9.89902 4.05615 9.52734 3.68728 9.52734 3.23221C9.52734 2.77714 9.89902 2.40827 10.3586 2.40827Z" fill="#0C3A30"/>
<path d="M8.56945 14.4506C8.44113 14.3872 8.44114 14.2604 8.44114 14.1337C8.44114 13.8168 8.6333 13.69 9.01699 13.6266V14.7041C8.82483 14.5773 8.69713 14.514 8.56945 14.4506ZM9.46453 16.2252C9.65606 16.2886 9.84758 16.352 9.97589 16.4787C10.1036 16.5421 10.1674 16.6689 10.1674 16.7956C10.1674 17.1125 9.97591 17.2393 9.52837 17.2393L9.46453 16.2252ZM8.44114 17.1125C8.12129 16.9858 7.80207 16.859 7.54606 16.6689C7.41838 16.6055 7.35453 16.5421 7.35453 16.5421L6.71484 17.7464C7.35454 18.19 8.18576 18.4435 8.95251 18.5069V19.521H9.52837V18.5069C9.78374 18.5069 10.0397 18.4435 10.2951 18.3802C10.8071 18.2534 11.1908 17.9365 11.4468 17.4928C11.7022 17.0492 11.7022 16.352 11.5107 15.9083C11.3823 15.5914 11.0631 15.2745 10.5511 15.021C10.0397 14.8309 9.52837 14.7041 9.46453 14.7041V13.5633C10.0397 13.6266 10.7433 14.0069 10.871 14.1337L11.5107 12.9928C11.2547 12.8661 10.9987 12.7393 10.6794 12.6126C10.3596 12.4858 9.97591 12.4224 9.59221 12.359V11.4717H9.01699V12.359C8.18576 12.4224 7.54606 12.8027 7.22621 13.4999C7.09853 13.7534 7.09854 14.0069 7.09854 14.3238C7.09854 14.9576 7.35454 15.4013 7.9936 15.7182C8.44114 15.9717 8.95251 16.0351 9.14468 16.0985V17.2393C8.82483 17.2393 8.6333 17.1759 8.44114 17.1125Z" fill="#0C3A30"/>
<path d="M9.14336 10.3945C12.0207 10.3945 14.3229 12.6762 14.3229 15.5283C14.3229 18.3804 12.0207 20.6621 9.14336 20.6621C6.26599 20.6621 3.96385 18.3804 3.96385 15.5283C3.96385 12.6762 6.26599 10.3945 9.14336 10.3945ZM9.14336 22.2466C12.9158 22.2466 15.9215 19.2043 15.9215 15.5283C15.9215 11.8522 12.852 8.80998 9.14336 8.80998C5.43413 8.80998 2.36523 11.7888 2.36523 15.5283C2.36523 19.2677 5.43413 22.2466 9.14336 22.2466Z" fill="#0C3A30"/>
<path d="M27.6877 34.3521V13.3099C29.5424 12.169 30.9488 11.2183 31.9077 10.5212V34.3521H27.6877ZM21.8692 16.4789C23.2756 15.7817 24.6827 15.0212 26.0891 14.2606V34.3521H21.8692V16.4789ZM16.0499 21.5493C16.8812 20.5986 17.5209 19.4578 17.9046 18.2535C18.6713 17.9366 19.4387 17.6197 20.2705 17.2395V34.3521H16.0499V21.5493ZM10.2307 24.5916C11.7661 24.4014 13.2364 23.831 14.4513 23.0071V34.4155H10.2307V24.5916ZM4.41214 23.324C5.6909 24.0845 7.09797 24.5282 8.63274 24.6549V34.3521H4.41214V23.324ZM1.59861 15.5282C1.59861 11.4085 4.98736 7.98595 9.20796 7.98595C13.4279 7.98595 16.8173 11.3451 16.8173 15.5282C16.8173 19.7113 13.4279 23.0704 9.20796 23.0704C4.98736 23.0704 1.59861 19.6479 1.59861 15.5282ZM35.1694 34.3521H33.5708V8.93665C33.5708 8.61975 33.3786 8.36623 33.1233 8.23947C32.8673 8.11271 32.5474 8.11271 32.2914 8.30285C32.2914 8.30285 30.0537 10.0775 26.5366 12.169C23.8508 13.7535 21.1018 15.2113 18.3521 16.3521C18.8635 10.9648 14.579 6.40145 9.20796 6.40145C4.15676 6.40145 0 10.4578 0 15.5282C0 18.1268 1.08723 20.4085 2.81353 22.1197V34.3521H1.59861C1.15108 34.3521 0.767384 34.7324 0.767384 35.1761C0.767384 35.6197 1.15108 36 1.59861 36C9.20796 36 18.8635 36 35.1694 36C35.6169 36 36 35.6197 36 35.1761C35.9362 34.669 35.5525 34.3521 35.1694 34.3521Z" fill="#0C3A30"/>
<path d="M3.965 1.64788C4.41253 1.64788 4.79622 2.02817 4.79622 2.47183C4.79622 2.91549 4.41253 3.29577 3.965 3.29577C3.51746 3.29577 3.13377 2.91549 3.13377 2.47183C3.19761 2.02817 3.51746 1.64788 3.965 1.64788ZM3.965 4.81689C5.3076 4.81689 6.39483 3.73943 6.39483 2.40845C6.39483 1.07746 5.3076 -9.53674e-07 3.965 -9.53674e-07C2.62239 -9.53674e-07 1.53516 1.07746 1.53516 2.40845C1.53516 3.73943 2.62239 4.81689 3.965 4.81689Z" fill="#0C3A30"/>
<path d="M27.9427 1.64785C28.8384 1.64785 29.5419 2.34503 29.5419 3.23236C29.5419 4.11968 28.8384 4.81686 27.9427 4.81686C27.0476 4.81686 26.3447 4.11968 26.3447 3.23236C26.3447 2.34503 27.0476 1.64785 27.9427 1.64785ZM27.9427 6.40137C29.7334 6.40137 31.1399 5.007 31.1399 3.23236C31.1399 1.45771 29.7334 0.0633469 27.9427 0.0633469C26.1525 0.0633469 24.7461 1.45771 24.7461 3.23236C24.7461 5.007 26.1525 6.40137 27.9427 6.40137Z" fill="#0C3A30"/>
</svg>
