<svg width="28" height="28" viewBox="0 0 28 28" fill="none" xmlns="http://www.w3.org/2000/svg">
<path d="M13.987 0.666016C6.62699 0.666016 0.666992 6.63935 0.666992 13.9993C0.666992 21.3593 6.62699 27.3327 13.987 27.3327C21.3603 27.3327 27.3337 21.3593 27.3337 13.9993C27.3337 6.63935 21.3603 0.666016 13.987 0.666016ZM14.0003 24.666C8.10699 24.666 3.33366 19.8927 3.33366 13.9993C3.33366 8.10602 8.10699 3.33268 14.0003 3.33268C19.8937 3.33268 24.667 8.10602 24.667 13.9993C24.667 19.8927 19.8937 24.666 14.0003 24.666ZM13.707 7.33268H13.627C13.0937 7.33268 12.667 7.75935 12.667 8.29268V14.586C12.667 15.0527 12.907 15.4927 13.3203 15.7327L18.8537 19.0527C19.307 19.3193 19.8937 19.186 20.1603 18.7327C20.2273 18.6247 20.2718 18.5044 20.2913 18.3789C20.3108 18.2533 20.3048 18.1251 20.2737 18.002C20.2426 17.8788 20.187 17.7632 20.1102 17.6619C20.0335 17.5607 19.9372 17.4759 19.827 17.4127L14.667 14.346V8.29268C14.667 7.75935 14.2403 7.33268 13.707 7.33268Z" fill="#032530"/>
</svg>
