<svg width="25" height="25" viewBox="0 0 25 25" fill="none" xmlns="http://www.w3.org/2000/svg">
<g clip-path="url(#clip0_600_10530)">
<path d="M6.24233 0.549805H19.7303C22.6332 0.549805 24.9863 2.90293 24.9863 5.8058V19.2938C24.9863 22.1967 22.6332 24.5498 19.7303 24.5498H6.24233C3.33945 24.5498 0.986328 22.1967 0.986328 19.2938V5.8058C0.986328 2.90293 3.33945 0.549805 6.24233 0.549805Z" fill="url(#paint0_linear_600_10530)"/>
<path d="M8.67766 17.9691L8.67991 17.9698L7.85931 19.3911C7.55978 19.9099 6.89641 20.0876 6.37759 19.7881C5.85878 19.4886 5.68103 18.8252 5.98056 18.3064L6.58506 17.2594L6.64309 17.1589C6.74669 17.01 7.00234 16.7529 7.51375 16.8013C7.51375 16.8013 8.71722 16.9319 8.80431 17.5574C8.80431 17.5574 8.81612 17.7632 8.67766 17.9691ZM20.3161 14.3391H17.7572C17.583 14.3273 17.5069 14.2651 17.4769 14.2289L17.4751 14.2256L14.736 9.48131L14.7324 9.48365L14.5682 9.24815C14.2989 8.8364 13.8714 9.8894 13.8714 9.8894C13.3609 11.0628 13.9439 12.3967 14.147 12.8L17.9516 19.3897C18.251 19.9084 18.9144 20.0862 19.4333 19.7866C19.952 19.4871 20.1299 18.8237 19.8302 18.3049L18.879 16.6571C18.8605 16.6172 18.8284 16.5088 19.0235 16.5083H20.3161C20.9151 16.5083 21.4007 16.0227 21.4007 15.4236C21.4007 14.8246 20.9151 14.3391 20.3161 14.3391ZM15.346 15.8135C15.346 15.8135 15.4826 16.5082 14.9541 16.5082H5.49484C4.89578 16.5082 4.41016 16.0226 4.41016 15.4236C4.41016 14.8245 4.89578 14.3389 5.49484 14.3389H7.92672C8.31934 14.3162 8.41234 14.0895 8.41234 14.0895L8.41459 14.0906L11.589 8.59237L11.588 8.59218C11.6459 8.48596 11.5977 8.38556 11.5893 8.36971L10.5409 6.55387C10.2414 6.03515 10.4192 5.37168 10.938 5.07224C11.4568 4.77281 12.1202 4.95037 12.4197 5.46918L12.9059 6.31134L13.3912 5.47068C13.6908 4.95196 14.3541 4.77412 14.8729 5.07374C15.3917 5.37337 15.5695 6.03656 15.27 6.55537L10.8527 14.2063C10.8333 14.2529 10.8274 14.326 10.9712 14.3389H13.6115L13.6121 14.3647C13.6121 14.3647 15.1382 14.3884 15.346 15.8135Z" fill="white"/>
</g>
<defs>
<linearGradient id="paint0_linear_600_10530" x1="1200.99" y1="0.549805" x2="1200.99" y2="2400.55" gradientUnits="userSpaceOnUse">
<stop stop-color="#17C9FB"/>
<stop offset="1" stop-color="#1A74E8"/>
</linearGradient>
<clipPath id="clip0_600_10530">
<rect width="24" height="24" fill="white" transform="translate(0.986328 0.549805)"/>
</clipPath>
</defs>
</svg>
