<svg width="29" height="28" viewBox="0 0 29 28" fill="none" xmlns="http://www.w3.org/2000/svg">
<path d="M18.5841 16.0852C15.9927 16.0852 13.7571 14.4469 12.8931 12.2129H13.5536C14.3668 14.1987 16.3484 15.4895 18.5333 15.4895C20.7183 15.4895 22.6998 14.1987 23.5125 12.2129H24.173C23.411 14.4965 21.1754 16.0852 18.5841 16.0852ZM18.5841 4.31926C21.1754 4.31926 23.411 5.95756 24.275 8.1916H23.6145C22.8013 6.20579 20.8197 4.91501 18.6348 4.91501C16.4503 4.91501 14.4683 6.20579 13.6556 8.1916H12.9951C13.7571 5.90791 15.9927 4.31926 18.5841 4.31926ZM12.5882 9.43273H14.0112C14.2649 9.43273 14.519 9.23415 14.6205 8.98592C15.1795 7.29798 16.7547 6.15614 18.5841 6.15614C20.4134 6.15614 21.9881 7.29798 22.5471 8.98592C22.6491 9.23415 22.852 9.43273 23.1569 9.43273H24.5799C24.6306 9.92918 24.6306 10.4753 24.5799 10.9717H23.1569C22.9027 10.9717 22.6491 11.1703 22.5471 11.4185C21.9881 13.1065 20.4134 14.2483 18.5841 14.2483C16.7547 14.2483 15.1795 13.1065 14.6205 11.4185C14.519 11.1703 14.3156 10.9717 14.0112 10.9717H12.5882C12.5375 10.4753 12.5375 9.92918 12.5882 9.43273ZM25.7482 8.68805C25.6975 8.68805 25.6975 8.68805 25.7482 8.68805C25.037 5.46111 22.09 3.07813 18.5841 3.07813C13.9092 3.07813 10.454 7.29798 11.4194 11.7164V11.7661C12.1311 14.9434 15.0781 17.376 18.5333 17.376C22.5471 17.376 25.8502 14.1987 25.8502 10.2271C25.9009 9.68096 25.8502 9.1845 25.7482 8.68805Z" fill="#0C3A30"/>
<path d="M20.1081 9.28356C20.1081 9.43249 19.9554 9.58143 19.8032 9.58143H17.5675V8.93604H19.8032C19.9554 8.93604 20.1081 9.08498 20.1081 9.28356ZM19.7525 11.4183H17.5168V10.7729H19.7525C19.9047 10.7729 20.0574 10.9219 20.0574 11.0708C20.1081 11.319 19.9554 11.4183 19.7525 11.4183ZM16.2972 11.4183C15.9416 11.4183 15.6367 11.7162 15.6367 12.0637C15.6367 12.4112 15.9416 12.7091 16.2972 12.7091C16.4499 12.7091 17.0085 12.7091 17.2626 12.7091V13.007C17.2626 13.3545 17.5675 13.6523 17.9231 13.6523C18.2788 13.6523 18.5837 13.3545 18.5837 13.007V12.7091H18.7358V13.007C18.7358 13.3545 19.0407 13.6523 19.3969 13.6523C19.7525 13.6523 20.0574 13.3545 20.0574 13.007V12.7091C20.8701 12.6098 21.4799 11.9644 21.4799 11.1701C21.4799 10.8226 21.3784 10.475 21.175 10.2268C21.3784 9.97859 21.4799 9.63107 21.4799 9.28356C21.4799 8.48923 20.8701 7.7942 20.0574 7.74455V7.44668C20.0574 7.09916 19.7525 6.80129 19.3969 6.80129C19.0407 6.80129 18.7358 7.09916 18.7358 7.44668V7.74455H18.5837V7.44668C18.5837 7.09916 18.2788 6.80129 17.9231 6.80129C17.5675 6.80129 17.2626 7.09916 17.2626 7.44668V7.74455C17.1612 7.74455 16.5514 7.74455 16.2972 7.74455C15.9416 7.74455 15.6367 8.04243 15.6367 8.38994C15.6367 8.73746 15.9416 9.03533 16.2972 9.03533V10.2765V11.4183Z" fill="#0C3A30"/>
<path d="M12.2838 22.1418C12.0296 21.8936 11.6233 21.8936 11.3691 22.1418L6.4914 26.9078C6.23724 27.156 6.23724 27.5532 6.4914 27.8014C6.74556 28.0496 7.15191 28.0496 7.40607 27.8014L12.2838 23.0354C12.4872 22.7872 12.4872 22.39 12.2838 22.1418Z" fill="#0C3A30"/>
<path d="M11.4189 19.461C11.1652 19.2127 10.7584 19.2127 10.5047 19.461L2.883 26.9078C2.62884 27.156 2.62884 27.5532 2.883 27.8014C3.13716 28.0496 3.54351 28.0496 3.79767 27.8014L11.4189 20.3546C11.6731 20.1064 11.6731 19.7092 11.4189 19.461Z" fill="#0C3A30"/>
<path d="M18.5844 19.1632C13.554 19.1632 9.43826 15.1419 9.43826 10.227C9.43826 5.31213 13.554 1.29086 18.5844 1.29086C23.6149 1.29086 27.7306 5.31213 27.7306 10.227C27.7306 15.1419 23.6149 19.1632 18.5844 19.1632ZM29.0004 10.1774C29.0004 4.56745 24.3261 8.2016e-05 18.5844 8.2016e-05C12.8428 8.2016e-05 8.16797 4.56745 8.16797 10.1774C8.16797 15.7873 12.8428 20.4043 18.5844 20.4043C24.3261 20.4043 29.0004 15.8369 29.0004 10.1774Z" fill="#0C3A30"/>
<path d="M7.55776 17.9717L3.74688 21.6951C3.49323 21.9433 3.49323 22.3405 3.74688 22.5887C4.00104 22.837 4.40739 22.837 4.66155 22.5887L8.47242 18.8653C8.72658 18.6171 8.72658 18.2199 8.47242 17.9717C8.21826 17.7235 7.81191 17.7235 7.55776 17.9717Z" fill="#0C3A30"/>
<path d="M16.7043 21.3475C16.4506 21.0993 16.0438 21.0993 15.7896 21.3475L12.0295 25.0213C11.7753 25.2695 11.7753 25.6667 12.0295 25.9149C12.2836 26.1631 12.6905 26.1631 12.9447 25.9149L16.7043 22.2412C16.9584 21.9433 16.9584 21.5958 16.7043 21.3475Z" fill="#0C3A30"/>
<path d="M8.06595 14.8439C7.8118 14.5956 7.40545 14.5956 7.15129 14.8439L0.64765 21.2481C0.393492 21.4963 0.393492 21.8935 0.64765 22.1417C0.901306 22.3899 1.30816 22.3899 1.56232 22.1417L8.11669 15.7375C8.32011 15.4892 8.32011 15.0921 8.06595 14.8439Z" fill="#0C3A30"/>
<path d="M1.10491 19.0141L7.40563 12.8581C7.65978 12.6099 7.65978 12.2127 7.40563 11.9645C7.15147 11.7163 6.74512 11.7163 6.49096 11.9645L0.190242 18.1702C-0.063414 18.4184 -0.063414 18.8156 0.190242 19.0638C0.4444 19.2624 0.85075 19.2624 1.10491 19.0141Z" fill="#0C3A30"/>
<path d="M3.59486 6.25528C3.95048 6.25528 4.25537 6.55316 4.25537 6.90067C4.25537 7.24819 3.89975 7.49642 3.59486 7.49642C3.28997 7.49642 2.93435 7.19854 2.93435 6.85103C2.93435 6.50351 3.23924 6.25528 3.59486 6.25528ZM3.59486 8.73755C4.66172 8.73755 5.52565 7.89358 5.52565 6.85103C5.52565 5.80848 4.61099 5.01415 3.59486 5.01415C2.57873 5.01415 1.66406 5.85812 1.66406 6.90067C1.66406 7.94322 2.528 8.73755 3.59486 8.73755Z" fill="#0C3A30"/>
<path d="M25.494 24.8723C24.9862 24.8723 24.5286 24.4751 24.5286 23.929C24.5286 23.3829 24.9354 22.9858 25.494 22.9858C26.053 22.9858 26.4599 23.3829 26.4599 23.929C26.4599 24.4751 26.0023 24.8723 25.494 24.8723ZM25.494 21.7943C24.2749 21.7943 23.2588 22.7872 23.2588 23.9787C23.2588 25.1702 24.2749 26.1631 25.494 26.1631C26.714 26.1631 27.7302 25.1702 27.7302 23.9787C27.7302 22.7872 26.714 21.7943 25.494 21.7943Z" fill="#0C3A30"/>
<path d="M7.40563 1.88647C7.7703 1.88647 8.06614 2.1754 8.06614 2.53186C8.06614 2.88831 7.7703 3.17725 7.40563 3.17725C7.04097 3.17725 6.74512 2.88831 6.74512 2.53186C6.74512 2.1754 7.04097 1.88647 7.40563 1.88647Z" fill="#0C3A30"/>
<path d="M2.32457 11.22C2.68974 11.22 2.98509 11.5089 2.98509 11.8654C2.98509 12.2218 2.68974 12.5107 2.32457 12.5107C1.95991 12.5107 1.66406 12.2218 1.66406 11.8654C1.66406 11.5089 1.95991 11.22 2.32457 11.22Z" fill="#0C3A30"/>
<path d="M16.9076 24.227C17.2722 24.227 17.5681 24.516 17.5681 24.8724C17.5681 25.2289 17.2722 25.5178 16.9076 25.5178C16.5429 25.5178 16.2471 25.2289 16.2471 24.8724C16.2471 24.516 16.5429 24.227 16.9076 24.227Z" fill="#0C3A30"/>
<path d="M27.7298 18.0215C28.0945 18.0215 28.3899 18.3104 28.3899 18.6669C28.3899 19.0233 28.0945 19.3123 27.7298 19.3123C27.3647 19.3123 27.0693 19.0233 27.0693 18.6669C27.0693 18.3104 27.3647 18.0215 27.7298 18.0215Z" fill="#0C3A30"/>
<path d="M2.32457 22.9858C2.68974 22.9858 2.98509 23.2748 2.98509 23.6312C2.98509 23.9877 2.68974 24.2766 2.32457 24.2766C1.95991 24.2766 1.66406 23.9877 1.66406 23.6312C1.66406 23.2748 1.95991 22.9858 2.32457 22.9858Z" fill="#0C3A30"/>
<path d="M13.0961 20.5037C13.4607 20.5037 13.7566 20.7926 13.7566 21.149C13.7566 21.5055 13.4607 21.7944 13.0961 21.7944C12.7314 21.7944 12.4355 21.5055 12.4355 21.149C12.4355 20.7926 12.7314 20.5037 13.0961 20.5037Z" fill="#0C3A30"/>
<path d="M27.0692 0.645502C27.4339 0.645502 27.7297 0.934437 27.7297 1.29089C27.7297 1.64734 27.4339 1.93628 27.0692 1.93628C26.7041 1.93628 26.4082 1.64734 26.4082 1.29089C26.4082 0.934437 26.7041 0.645502 27.0692 0.645502Z" fill="#0C3A30"/>
<path d="M21.9886 26.7092C22.3538 26.7092 22.6497 26.9982 22.6497 27.3546C22.6497 27.7111 22.3538 28 21.9886 28C21.624 28 21.3281 27.7111 21.3281 27.3546C21.3281 26.9982 21.624 26.7092 21.9886 26.7092Z" fill="#0C3A30"/>
</svg>
