<svg width="12" height="14" viewBox="0 0 12 14" fill="none" xmlns="http://www.w3.org/2000/svg">
<path fill-rule="evenodd" clip-rule="evenodd" d="M6.03823 13.1257L6.51899 12.584C7.06451 11.9593 7.55518 11.3665 7.99175 10.8027L8.35213 10.3273C9.85689 8.29983 10.6097 6.69069 10.6097 5.50136C10.6097 2.96269 8.56318 0.904785 6.03823 0.904785C3.51327 0.904785 1.4668 2.96269 1.4668 5.50136C1.4668 6.69069 2.21956 8.29983 3.72432 10.3273L4.0847 10.8027C4.70751 11.6007 5.35912 12.3751 6.03823 13.1257Z" stroke="white" stroke-width="1.5" stroke-linecap="round" stroke-linejoin="round"/>
<path d="M6.03757 7.38081C7.08955 7.38081 7.94234 6.52802 7.94234 5.47605C7.94234 4.42408 7.08955 3.57129 6.03757 3.57129C4.9856 3.57129 4.13281 4.42408 4.13281 5.47605C4.13281 6.52802 4.9856 7.38081 6.03757 7.38081Z" stroke="white" stroke-width="1.5" stroke-linecap="round" stroke-linejoin="round"/>
</svg>
