<svg width="32" height="32" viewBox="0 0 32 32" fill="none" xmlns="http://www.w3.org/2000/svg">
<path d="M5.33366 26.6654C4.60033 26.6654 3.97233 26.404 3.44966 25.8814C2.92699 25.3587 2.66611 24.7311 2.66699 23.9987V7.9987C2.66699 7.26537 2.92833 6.63737 3.45099 6.1147C3.97366 5.59203 4.60122 5.33114 5.33366 5.33203H26.667C27.4003 5.33203 28.0283 5.59337 28.551 6.11603C29.0737 6.6387 29.3346 7.26626 29.3337 7.9987V23.9987C29.3337 24.732 29.0723 25.36 28.5497 25.8827C28.027 26.4054 27.3994 26.6663 26.667 26.6654H5.33366ZM26.667 10.6654L16.7003 16.8987C16.5892 16.9654 16.4723 17.0156 16.3497 17.0494C16.227 17.0831 16.1106 17.0996 16.0003 17.0987C15.8892 17.0987 15.7723 17.0823 15.6497 17.0494C15.527 17.0165 15.4106 16.9663 15.3003 16.8987L5.33366 10.6654V23.9987H26.667V10.6654ZM16.0003 14.6654L26.667 7.9987H5.33366L16.0003 14.6654ZM5.33366 10.9987V9.03203V9.06537V9.04937V10.9987Z" fill="#032530"/>
</svg>
