<svg width="40" height="40" viewBox="0 0 40 40" fill="none" xmlns="http://www.w3.org/2000/svg">
<path d="M37.298 10.4614C33.4156 10.4614 6.51686 10.4614 2.63443 10.4614C2.14921 10.4614 1.73251 10.0457 1.73251 9.56076C1.73251 9.07579 2.14921 8.66009 2.63443 8.66009C3.67408 8.66009 36.6045 8.66009 37.298 8.66009C37.7833 8.66009 38.1992 9.07579 38.1992 9.56076C38.1992 10.0457 37.7833 10.4614 37.298 10.4614ZM35.5655 27.782H20.8671C20.3819 27.782 19.9666 28.1977 19.9666 28.6827C19.9666 29.1677 20.3819 29.5834 20.8671 29.5834H35.4956C35.2187 30.5533 34.3168 31.3154 33.2772 31.3154H6.65529C5.61495 31.3154 4.71441 30.5533 4.43685 29.5834H6.93217C7.41738 29.5834 7.83408 29.1677 7.83408 28.6827C7.83408 28.1977 7.41738 27.782 6.93217 27.782H4.29841V12.1935H35.4956V27.782H35.5655ZM19.1346 4.01817V6.92803H13.2414L19.1346 4.01817ZM26.6904 6.99731H20.7986V4.01817L26.6904 6.99731ZM37.298 6.99731H30.5728L20.8671 2.14755V0.969746C20.8671 0.484768 20.4518 0.0690765 19.9666 0.0690765C19.4807 0.0690765 19.0647 0.484768 19.0647 0.969746V2.14755L9.35895 6.99731H2.63443C1.17877 6.99731 0 8.17512 0 9.63005C0 11.085 1.17877 12.2628 2.63443 12.2628V29.0291C2.63443 31.2462 4.43686 33.0475 6.65529 33.0475H16.361L13.5189 38.7287C13.3106 39.1444 13.449 39.6986 13.9349 39.9065C14.3509 40.1143 14.9054 39.9758 15.1137 39.4908L18.3718 33.0475H19.1346V37.2737C19.1346 37.7587 19.5499 38.1744 20.0351 38.1744C20.5203 38.1744 20.937 37.7587 20.937 37.2737V32.9089H21.6991L24.9579 39.3522C25.0963 39.6293 25.4431 39.8372 25.72 39.8372C26.345 39.8372 26.7603 39.1444 26.4834 38.5901L23.6406 32.9089H33.3464C35.5655 32.9089 37.3679 31.1076 37.3679 28.8906V12.1935C38.8236 12.1935 40.0017 11.0157 40.0017 9.56076C40.0017 8.10583 38.7544 6.99731 37.298 6.99731Z" fill="#6E9419"/>
<path d="M10.815 16.5585L12.3406 20.854L8.11139 19.2605C8.73573 18.152 9.70615 17.182 10.815 16.5585ZM14.0046 17.1127C16.9851 17.1127 19.3427 19.4683 19.3427 22.3782C19.3427 25.3573 16.9166 27.7129 14.0046 27.7129C12.6874 27.7129 11.4401 27.228 10.4689 26.3273L11.2317 25.6345C11.9938 26.258 12.9642 26.6737 14.0046 26.6737C16.3614 26.6737 18.3722 24.7338 18.3722 22.3089C18.3722 21.8239 17.9562 21.4082 17.4703 21.4082C16.9851 21.4082 16.5698 21.8239 16.5698 22.3089C16.5698 23.7638 15.391 24.9416 13.9354 24.9416C13.3809 24.9416 12.8957 24.8031 12.479 24.5259C12.8957 24.1795 14.2815 22.9325 14.3514 22.9325C14.6282 22.6553 14.6974 22.3089 14.559 22.0318L12.8258 17.182C13.2418 17.1127 13.5886 17.1127 14.0046 17.1127ZM11.5785 23.1403C11.5086 22.8632 11.4401 22.586 11.4401 22.3782L12.1323 22.6553L11.5785 23.1403ZM9.77537 21.7547C9.63693 22.7246 9.77536 23.6253 10.1914 24.3874L9.42859 25.0802C8.80493 23.9024 8.59658 22.6553 8.80493 21.4082L9.77537 21.7547ZM6.65572 20.5769L7.14094 20.7847C6.1006 25.4266 9.56771 29.5143 14.0046 29.5143C17.887 29.5143 21.0759 26.3273 21.0759 22.4475C21.0759 18.5677 17.887 15.45 14.0046 15.45C13.3809 15.45 12.8258 15.5192 12.2707 15.6578L12.1323 15.1035C11.9938 14.6186 11.4401 14.4107 11.0234 14.6186C8.80493 15.45 7.0025 17.2513 6.1705 19.4683C5.96216 19.884 6.23972 20.369 6.65572 20.5769Z" fill="#6E9419"/>
<path d="M33.4144 36.4406C33.2067 36.4406 32.9984 36.2328 32.9984 36.0249C32.9984 35.8171 33.2067 35.6092 33.4144 35.6092C33.6227 35.6092 33.8304 35.8171 33.8304 36.0249C33.8304 36.2328 33.6227 36.4406 33.4144 36.4406ZM33.4144 33.8079C32.2363 33.8079 31.2651 34.7778 31.2651 35.9556C31.2651 37.1334 32.2363 38.1034 33.4144 38.1034C34.5932 38.1034 35.5642 37.1334 35.5642 35.9556C35.5642 34.7778 34.5932 33.8079 33.4144 33.8079Z" fill="#6E9419"/>
<path d="M5.68436 37.2745C5.47602 37.2745 5.26837 37.0667 5.26837 36.8588C5.26837 36.651 5.47602 36.4431 5.68436 36.4431C5.8927 36.4431 6.09968 36.5817 6.09968 36.8588C6.09968 37.0667 5.8927 37.2745 5.68436 37.2745ZM5.68436 34.7111C4.50558 34.7111 3.53516 35.681 3.53516 36.8588C3.53516 38.0366 4.50558 39.0066 5.68436 39.0066C6.86314 39.0066 7.8336 38.0366 7.8336 36.8588C7.8336 35.681 6.86314 34.7111 5.68436 34.7111Z" fill="#6E9419"/>
<path d="M32.5162 3.53238C32.7245 3.53238 32.9322 3.74022 32.9322 3.94807C32.9322 4.15592 32.7245 4.36376 32.5162 4.36376C32.3085 4.36376 32.1002 4.15592 32.1002 3.94807C32.1002 3.74022 32.3085 3.53238 32.5162 3.53238ZM32.5162 6.09583C33.695 6.09583 34.6654 5.12587 34.6654 3.94807C34.6654 2.77027 33.695 1.80032 32.5162 1.80032C31.3381 1.80032 30.3677 2.77027 30.3677 3.94807C30.3677 5.12587 31.3381 6.09583 32.5162 6.09583Z" fill="#6E9419"/>
<path d="M7.00113 1.80163C7.48634 1.80163 7.90234 2.21732 7.90234 2.7023C7.90234 3.18727 7.48634 3.60297 7.00113 3.60297C6.51591 3.60297 6.09921 3.11799 6.09921 2.63302C6.09921 2.14804 6.51591 1.80163 7.00113 1.80163ZM7.00113 5.26575C8.45678 5.26575 9.63555 4.08795 9.63555 2.63302C9.63555 1.17808 8.45678 0.000283241 7.00113 0.000283241C5.54547 0.000283241 4.3667 1.17808 4.3667 2.63302C4.3667 4.08795 5.54547 5.26575 7.00113 5.26575Z" fill="#6E9419"/>
<path d="M28.6327 34.6393C29.1309 34.6393 29.5346 35.0426 29.5346 35.54C29.5346 36.0375 29.1309 36.4407 28.6327 36.4407C28.1351 36.4407 27.7314 36.0375 27.7314 35.54C27.7314 35.0426 28.1351 34.6393 28.6327 34.6393Z" fill="#6E9419"/>
<path d="M10.4671 34.6393C10.9647 34.6393 11.3683 35.0426 11.3683 35.54C11.3683 36.0375 10.9647 36.4407 10.4671 36.4407C9.96957 36.4407 9.56592 36.0375 9.56592 35.54C9.56592 35.0426 9.96957 34.6393 10.4671 34.6393Z" fill="#6E9419"/>
<path d="M26.899 4.86374e-05C27.3973 4.86374e-05 27.801 0.403272 27.801 0.90072C27.801 1.39817 27.3973 1.80139 26.899 1.80139C26.4022 1.80139 25.9985 1.39817 25.9985 0.90072C25.9985 0.403272 26.4022 4.86374e-05 26.899 4.86374e-05Z" fill="#6E9419"/>
<path d="M13.0323 1.73113C13.5298 1.73113 13.9335 2.13435 13.9335 2.6318C13.9335 3.12925 13.5298 3.53247 13.0323 3.53247C12.534 3.53247 12.1304 3.12925 12.1304 2.6318C12.1304 2.13435 12.534 1.73113 13.0323 1.73113Z" fill="#6E9419"/>
<path d="M1.80258 3.4644C2.30082 3.4644 2.70379 3.86763 2.70379 4.36508C2.70379 4.86252 2.30082 5.26575 1.80258 5.26575C1.30434 5.26575 0.901367 4.86252 0.901367 4.36508C0.901367 3.86763 1.30434 3.4644 1.80258 3.4644Z" fill="#6E9419"/>
<path d="M37.298 3.4644C37.7962 3.4644 38.1992 3.86763 38.1992 4.36508C38.1992 4.86252 37.7962 5.26575 37.298 5.26575C36.8004 5.26575 36.3975 4.86252 36.3975 4.36508C36.3975 3.86763 36.8004 3.4644 37.298 3.4644Z" fill="#6E9419"/>
<path d="M26.0655 20.8536H26.8975V24.3177H25.997V20.8536H26.0655ZM28.6307 19.1216H29.5326V24.3177H28.6307C28.6307 22.3086 28.6307 20.9922 28.6307 19.1216ZM31.2651 17.3895H32.167V24.3177H31.2651C31.2651 23.2785 31.2651 18.1516 31.2651 17.3895ZM25.165 26.0498C26.1354 26.0498 32.0971 26.0498 32.9983 26.0498C33.4836 26.0498 33.9003 25.6341 33.9003 25.1491V16.4888C33.9003 16.0039 33.4836 15.5882 32.9983 15.5882H30.3646C29.8794 15.5882 29.4627 16.0039 29.4627 16.4888V17.3895H27.7295C27.2443 17.3895 26.8289 17.8052 26.8289 18.2902V19.1908H25.0951C24.6098 19.1908 24.1938 19.6065 24.1938 20.0915V25.2877C24.333 25.6341 24.6791 26.0498 25.165 26.0498Z" fill="#6E9419"/>
</svg>
