<svg width="32" height="32" viewBox="0 0 32 32" fill="none" xmlns="http://www.w3.org/2000/svg">
<g clip-path="url(#clip0_600_634)">
<path d="M8.53317 12.2667H8.79984C9.8265 12.2667 10.6665 13.1067 10.6665 14.1334V23.4667C10.6665 24.4934 9.8265 25.3334 8.79984 25.3334H8.53317C7.5065 25.3334 6.6665 24.4934 6.6665 23.4667V14.1334C6.6665 13.1067 7.5065 12.2667 8.53317 12.2667ZM15.9998 6.66675C17.0265 6.66675 17.8665 7.50675 17.8665 8.53341V23.4667C17.8665 24.4934 17.0265 25.3334 15.9998 25.3334C14.9732 25.3334 14.1332 24.4934 14.1332 23.4667V8.53341C14.1332 7.50675 14.9732 6.66675 15.9998 6.66675ZM23.4665 17.3334C24.4932 17.3334 25.3332 18.1734 25.3332 19.2001V23.4667C25.3332 24.4934 24.4932 25.3334 23.4665 25.3334C22.4398 25.3334 21.5998 24.4934 21.5998 23.4667V19.2001C21.5998 18.1734 22.4398 17.3334 23.4665 17.3334Z" fill="#6E9419"/>
</g>
<defs>
<clipPath id="clip0_600_634">
<rect width="32" height="32" fill="white"/>
</clipPath>
</defs>
</svg>
