<svg width="40" height="40" viewBox="0 0 40 40" fill="none" xmlns="http://www.w3.org/2000/svg">
<path d="M21.1248 16.0562L26.3513 11.438C26.7144 11.0827 26.7144 10.5143 26.4238 10.1591C26.1338 9.80382 25.4801 9.80382 25.1169 10.088L20.0354 14.6352V12.5037C20.9791 7.03288 25.9157 3.90668 31.9409 5.04348C32.3765 8.52492 27.9487 16.7667 21.1248 16.0562ZM25.4801 29.3425C25.4801 32.7529 22.649 35.5949 19.0917 35.5949C15.5344 35.5949 12.7033 32.824 12.7033 29.3425C12.7033 25.8611 15.5344 23.0902 19.0917 23.0902C22.649 23.0902 25.4801 25.9321 25.4801 29.3425ZM6.24248 5.04348C12.3402 3.83563 17.2768 6.96182 18.148 12.5037V14.6352L13.0665 10.088C12.7033 9.73277 12.1228 9.80382 11.7597 10.1591C11.3965 10.5143 11.469 11.0827 11.8321 11.438L17.0586 16.0562C10.1629 16.7667 5.37128 11.9353 6.24248 5.04348ZM33.6101 4.11983C33.5384 3.76458 33.3202 3.48038 32.9571 3.40933C27.8755 2.20148 22.794 3.55143 19.9629 7.67232V2.98303C19.9629 2.48568 19.5273 2.05938 19.0192 2.05938C18.5111 2.05938 18.0755 2.48568 18.0755 2.98303V7.67232C17.6399 7.03288 17.0587 6.39342 16.4781 5.82503C13.647 3.26723 9.50915 2.34358 5.08064 3.40933C4.71824 3.48038 4.42759 3.76458 4.42759 4.11983C2.9751 12.7879 9.3642 19.1114 18.0755 17.6193V21.3139C15.8975 21.5271 13.9377 22.6639 12.6309 24.2269V21.5271C12.6309 21.0297 12.1953 20.6034 11.6872 20.6034C11.1791 20.6034 10.7435 21.0297 10.7435 21.5271V29.2004C10.7435 33.6055 14.3733 37.2291 18.9467 37.2291C21.4872 37.2291 23.8101 36.0923 25.3344 34.245V36.9449C25.3344 37.4422 25.7707 37.8685 26.2788 37.8685C26.7869 37.8685 27.2225 37.4422 27.2225 36.9449V29.3425C27.2225 25.2216 24.0283 21.8113 19.9629 21.385V20.4613C24.5364 20.8876 28.1662 24.7243 28.1662 29.2715C28.1662 29.7688 28.6018 30.1951 29.1099 30.1951C29.618 30.1951 30.0535 29.7688 30.0535 29.2715C30.0535 23.7296 25.625 19.1114 20.0354 18.6851V17.6193C28.6742 19.1824 35.0626 12.859 33.6101 4.11983Z" fill="#6E9419"/>
<path d="M28.1683 7.81506C28.6893 7.81506 29.112 8.22857 29.112 8.7387C29.112 9.24884 28.6893 9.66235 28.1683 9.66235C27.6473 9.66235 27.2246 9.24884 27.2246 8.7387C27.2246 8.22857 27.6473 7.81506 28.1683 7.81506Z" fill="#6E9419"/>
<path d="M37.2435 10.657C37.7645 10.657 38.1865 11.0705 38.1865 11.5806C38.1865 12.0908 37.7645 12.5043 37.2435 12.5043C36.7218 12.5043 36.2998 12.0908 36.2998 11.5806C36.2998 11.0705 36.7218 10.657 37.2435 10.657Z" fill="#6E9419"/>
<path d="M14.5926 -7.39098e-06C15.1143 -7.39098e-06 15.5363 0.413503 15.5363 0.923641C15.5363 1.43378 15.1143 1.84729 14.5926 1.84729C14.0716 1.84729 13.6489 1.43378 13.6489 0.923641C13.6489 0.413503 14.0716 -7.39098e-06 14.5926 -7.39098e-06Z" fill="#6E9419"/>
<path d="M1.8885 11.5798C2.40951 11.5798 2.83219 11.9933 2.83219 12.5035C2.83219 13.0136 2.40951 13.4271 1.8885 13.4271C1.3675 13.4271 0.944824 13.0136 0.944824 12.5035C0.944824 11.9933 1.3675 11.5798 1.8885 11.5798Z" fill="#6E9419"/>
<path d="M7.33286 20.4619C7.85386 20.4619 8.27654 20.8754 8.27654 21.3856C8.27654 21.8957 7.85386 22.3092 7.33286 22.3092C6.81186 22.3092 6.38916 21.8957 6.38916 21.3856C6.38916 20.8754 6.81186 20.4619 7.33286 20.4619Z" fill="#6E9419"/>
<path d="M3.70249 35.5232C4.22421 35.5232 4.64617 35.9367 4.64617 36.4468C4.64617 36.957 4.22421 37.3705 3.70249 37.3705C3.18149 37.3705 2.75879 36.957 2.75879 36.4468C2.75879 35.9367 3.18149 35.5232 3.70249 35.5232Z" fill="#6E9419"/>
<path d="M32.7401 35.5232C33.2611 35.5232 33.6838 35.9367 33.6838 36.4468C33.6838 36.957 33.2611 37.3705 32.7401 37.3705C32.2191 37.3705 31.7964 36.957 31.7964 36.4468C31.7964 35.9367 32.2191 35.5232 32.7401 35.5232Z" fill="#6E9419"/>
<path d="M33.6119 26.6437C34.1336 26.6437 34.5563 27.0572 34.5563 27.5673C34.5563 28.0775 34.1336 28.491 33.6119 28.491C33.0916 28.491 32.6689 28.0775 32.6689 27.5673C32.6689 27.0572 33.0916 26.6437 33.6119 26.6437Z" fill="#6E9419"/>
<path d="M18.9467 28.2047C18.656 28.1337 18.5111 27.9916 18.3654 27.9205C18.2204 27.7784 18.148 27.6363 18.148 27.4942C18.148 27.0679 18.4379 26.8548 18.9467 26.8548V28.2047ZM19.4548 30.3362C19.7447 30.4073 19.9628 30.5494 20.1078 30.6204C20.2535 30.7625 20.326 30.9046 20.326 31.0467C20.326 31.402 20.0353 31.6151 19.4548 31.6151V30.3362ZM18.801 24.0128V25.1496C17.7124 25.2917 16.8412 25.718 16.4056 26.7127C16.1881 26.9969 16.1881 27.3521 16.1881 27.7784C16.1881 28.3468 16.3331 28.7731 16.6962 29.1994C17.1318 29.6257 17.7848 29.8389 18.3654 30.052L18.9467 30.1941V31.6862C18.656 31.6151 18.3654 31.6151 18.148 31.473C17.7848 31.3309 17.2767 31.1178 16.9136 30.9046C16.7687 30.8336 16.6962 30.7625 16.6962 30.6915L15.8975 32.3256C16.7687 32.894 17.8573 33.1782 18.8735 33.3203V34.6703H19.6722V33.3914C20.326 33.3914 21.0515 33.1782 21.6328 32.7519C21.9227 32.5388 22.0677 32.3256 22.2858 32.0414C22.4308 31.7572 22.504 31.402 22.504 30.9757C22.504 29.981 22.0677 29.3415 20.979 28.9152C20.2535 28.631 19.5997 28.4889 19.5273 28.4889V26.8548C20.326 26.9969 21.2697 27.4942 21.3422 27.5653L22.1409 26.0022C21.8502 25.7891 21.4146 25.647 20.979 25.5049C20.5434 25.3628 20.0353 25.2207 19.5997 25.1496V24.0128H18.801Z" fill="#6E9419"/>
<path d="M19.094 38.2238C14.0849 38.2238 10.0195 34.245 10.0195 29.3425C10.0195 28.8452 9.58387 28.4189 9.07579 28.4189C8.5677 28.4189 8.20459 28.8452 8.20459 29.3425C8.20459 35.2397 13.0687 40 19.094 40C19.602 40 20.0376 39.5737 20.0376 39.0764C20.0376 38.6501 19.602 38.2238 19.094 38.2238Z" fill="#6E9419"/>
<path d="M2.75858 24.937C2.25049 24.937 1.8149 24.5107 1.8149 24.0134C1.8149 23.516 2.25049 23.0897 2.75858 23.0897C3.26666 23.0897 3.70227 23.516 3.70227 24.0134C3.70227 24.5107 3.26666 24.937 2.75858 24.937ZM2.75858 21.3845C1.23432 21.3845 0 22.5924 0 24.0844C0 25.5765 1.23432 26.7843 2.75858 26.7843C4.28355 26.7843 5.51717 25.5765 5.51717 24.0844C5.51717 22.5924 4.28355 21.3845 2.75858 21.3845Z" fill="#6E9419"/>
<path d="M36.371 22.2371C35.3541 22.2371 34.5561 21.4555 34.5561 20.4608C34.5561 19.4661 35.3541 18.6846 36.371 18.6846C37.3872 18.6846 38.1852 19.4661 38.1852 20.4608C38.1852 21.4555 37.3147 22.2371 36.371 22.2371ZM36.371 16.9083C34.3379 16.9083 32.7412 18.4714 32.7412 20.4608C32.7412 22.4502 34.3379 24.0133 36.371 24.0133C38.4033 24.0133 40.0008 22.4502 40.0008 20.4608C40.0008 18.4714 38.3309 16.9083 36.371 16.9083Z" fill="#6E9419"/>
</svg>
