<svg width="12" height="14" viewBox="0 0 12 14" fill="none" xmlns="http://www.w3.org/2000/svg">
<path d="M1.75396 4.25757C1.56296 2.99957 2.44996 1.86957 3.80496 1.45557C4.04541 1.38205 4.30485 1.40298 4.53041 1.51409C4.75598 1.6252 4.93069 1.81813 5.01896 2.05357L5.45396 3.21357C5.52398 3.40018 5.53665 3.60347 5.49032 3.79733C5.44399 3.99119 5.34079 4.16678 5.19396 4.30157L3.89996 5.48657C3.83617 5.5451 3.78864 5.61916 3.76201 5.70153C3.73537 5.78391 3.73053 5.87177 3.74796 5.95657L3.75996 6.00857L3.79096 6.13857C3.95188 6.77022 4.19708 7.37733 4.51996 7.94357C4.87167 8.54527 5.30814 9.09322 5.81596 9.57057L5.85596 9.60657C5.92056 9.66391 5.99891 9.70354 6.08338 9.72159C6.16785 9.73964 6.25556 9.7355 6.33796 9.70957L8.01096 9.18257C8.20109 9.12287 8.40472 9.12135 8.59572 9.17819C8.78673 9.23502 8.9564 9.34763 9.08296 9.50157L9.87496 10.4626C10.205 10.8626 10.165 11.4506 9.78596 11.8036C8.74896 12.7706 7.32296 12.9686 6.33096 12.1716C5.11498 11.1907 4.08991 9.99447 3.30696 8.64257C2.51765 7.29171 1.99142 5.804 1.75396 4.25757ZM4.79696 6.02257L5.86896 5.03857C6.16279 4.76911 6.36939 4.41797 6.46222 4.03024C6.55506 3.64252 6.52989 3.23589 6.38996 2.86257L5.95596 1.70257C5.7783 1.22882 5.42669 0.84063 4.97277 0.617109C4.51885 0.393587 3.99679 0.351553 3.51296 0.49957C1.82996 1.01457 0.478957 2.52357 0.764957 4.40857C0.964957 5.72457 1.42596 7.39857 2.44296 9.14657C3.28767 10.6043 4.39341 11.8941 5.70496 12.9516C7.19296 14.1466 9.17896 13.7386 10.469 12.5366C10.8381 12.1929 11.0621 11.7213 11.0954 11.2181C11.1287 10.7148 10.9686 10.2178 10.648 9.82857L9.85596 8.86657C9.60259 8.55905 9.26315 8.33422 8.88116 8.2209C8.49916 8.10759 8.09203 8.11095 7.71196 8.23057L6.32296 8.66757C5.96433 8.2978 5.65019 7.88735 5.38696 7.44457C5.13268 6.99693 4.93452 6.51967 4.79696 6.02357V6.02257Z" fill="white"/>
</svg>
