<svg width="39" height="36" viewBox="0 0 39 36" fill="none" xmlns="http://www.w3.org/2000/svg">
<path d="M4.12437 11.1312L19.4879 3.30791L34.8514 11.1312C32.7771 11.1312 5.61618 11.1312 4.12437 11.1312ZM32.4528 14.3114C31.2212 14.3114 28.4983 14.3114 27.5909 14.3114V12.7213H32.4528V14.3114ZM30.8322 29.4493H29.2116V15.9015H30.8322V29.4493ZM7.36624 31.8026V30.9758C8.33835 30.9758 31.2212 30.9758 32.5175 30.9758V31.8026H7.36624ZM34.9161 34.2196H4.90233V33.3927C7.68986 33.3927 33.6197 33.3927 34.9161 33.3927V34.2196ZM8.14419 15.9015H9.76416V29.4493H8.14419V15.9015ZM11.3848 14.3114C10.1538 14.3114 7.43096 14.3114 6.52357 14.3114V12.7213H11.3848V14.3114ZM18.6458 27.0323H16.6363C15.6635 27.0323 14.8208 26.3326 14.626 25.4422H16.6363C17.6077 25.4422 18.451 26.1418 18.6458 27.0323ZM23.5718 16.7284C23.5718 18.8909 21.757 20.7355 19.4879 20.7355C17.2194 20.7355 15.404 18.9546 15.404 16.7284C15.404 14.5023 17.2194 12.7213 19.4879 12.7213C21.757 12.7213 23.5718 14.5023 23.5718 16.7284ZM20.3305 27.0323C20.5253 26.1418 21.368 25.4422 22.3401 25.4422H24.3497C24.1556 26.3326 23.3129 27.0323 22.3401 27.0323H20.3305ZM26.8136 15.9015H27.6557V29.4493H20.3305V28.6224H22.3401C24.3497 28.6224 25.9703 27.0323 25.9703 25.0606V24.6789C25.9703 24.2337 25.5814 23.8521 25.1277 23.8521H22.276C21.4975 23.8521 20.8496 24.1065 20.2658 24.4881V22.262C22.9887 21.8803 25.1277 19.527 25.1277 16.7284C25.1277 15.2019 24.4792 13.739 23.4423 12.7213H25.9703V15.1383C25.9703 15.5199 26.3593 15.9015 26.8136 15.9015ZM15.534 12.7213C14.4966 13.739 13.8481 15.1383 13.8481 16.7284C13.8481 19.527 15.9877 21.8803 18.7099 22.262V24.4881C18.1268 24.1065 17.4142 23.8521 16.7003 23.8521H13.8481C13.3944 23.8521 13.0061 24.2337 13.0061 24.6789V25.0606C13.0061 27.0323 14.626 28.6224 16.6363 28.6224H18.6458V29.4493H11.3848V15.9015H12.2281C12.6818 15.9015 13.0701 15.5199 13.0701 15.0747V12.6577H15.534V12.7213ZM38.4816 11.1948L19.8768 1.6542C19.6173 1.52699 19.3584 1.52699 19.0995 1.6542L0.430084 11.1948C0.105832 11.3856 -0.0889803 11.7037 0.040464 12.0853C0.169908 12.4669 0.430056 12.7213 0.818389 12.7213H4.90233V15.1383C4.90233 15.5835 5.29192 15.9652 5.74561 15.9652H6.52357V29.5129C6.06988 29.5129 5.68025 29.8945 5.68025 30.3397V31.9298H4.06029C3.60595 31.9298 3.21697 32.3114 3.21697 32.7567V34.3468H2.3743C1.92061 34.3468 1.53164 34.7284 1.53164 35.1736C1.53164 35.6189 1.92061 36.0005 2.3743 36.0005C4.44862 36.0005 35.3051 36.0005 37.2499 36.0005C37.7036 36.0005 38.0926 35.6189 38.0926 35.1736C38.0926 34.7284 37.7036 34.3468 37.2499 34.3468H36.4066V32.7567C36.4066 32.3114 36.0183 31.9298 35.5646 31.9298H33.944V30.2125C33.944 29.7673 33.555 29.3856 33.1007 29.3856H32.4528V15.9015H33.2955C33.7492 15.9015 34.1382 15.5199 34.1382 15.0747V12.6577H38.2221C38.611 12.6577 38.9353 12.4033 39 12.0217C39 11.7673 38.8052 11.3856 38.4816 11.1948Z" fill="#6E9419"/>
<path d="M19.0334 15.8379C18.9687 15.7743 18.904 15.7107 18.904 15.5835C18.904 15.3291 19.0988 15.2019 19.4224 15.2019V16.0287C19.2282 15.9651 19.0988 15.9015 19.0334 15.8379ZM19.6819 17.3008C19.8761 17.3644 20.0062 17.428 20.0709 17.4916C20.2003 17.5552 20.2003 17.6824 20.2003 17.746C20.2003 18.0004 20.0062 18.1276 19.6819 18.1276V17.3008ZM18.126 17.6824C18.0607 17.6188 17.9966 17.6188 17.9966 17.5552L17.4775 18.5729C17.9966 18.8909 18.7092 19.0817 19.2929 19.1453V19.9722H19.7466V19.1453C20.3951 19.1453 21.043 18.8909 21.3026 18.3185C21.4967 17.9368 21.4967 17.428 21.3026 17.0464C21.1731 16.792 20.9783 16.5375 20.5246 16.3467C20.0709 16.1559 19.6819 16.0923 19.6819 16.0923V15.1382C20.1356 15.2019 20.7188 15.5199 20.7835 15.5835L21.3026 14.6294C21.1077 14.5022 20.8488 14.4386 20.5893 14.3114C20.3298 14.1842 20.0062 14.1206 19.7466 14.1206V13.4209H19.2929V14.1206C18.6451 14.1842 18.0607 14.5022 17.8018 15.0746C17.6723 15.4563 17.6723 15.9015 17.7371 16.2195C17.8671 16.5375 18.126 16.7284 18.3849 16.8556C18.7745 17.0464 19.1629 17.11 19.2929 17.1736V18.1276C18.9687 18.064 18.3849 17.8096 18.126 17.6824Z" fill="#6E9419"/>
<path d="M4.90179 4.00778C5.35549 4.00778 5.74508 4.3894 5.74508 4.83463C5.74508 5.27986 5.35549 5.66149 4.90179 5.66149C4.4481 5.66149 4.05975 5.27986 4.05975 4.83463C4.12384 4.3258 4.4481 4.00778 4.90179 4.00778ZM4.90179 7.18799C6.26352 7.18799 7.3657 6.10672 7.3657 4.77103C7.3657 3.43534 6.26352 2.35407 4.90179 2.35407C3.5407 2.35407 2.43848 3.43534 2.43848 4.77103C2.43848 6.10672 3.5407 7.18799 4.90179 7.18799Z" fill="#6E9419"/>
<path d="M3.67009 27.0329C3.8649 27.0329 4.05971 27.2237 4.05971 27.4145C4.05971 27.6053 3.8649 27.7961 3.67009 27.7961C3.47592 27.7961 3.28175 27.6689 3.28175 27.4145C3.28175 27.2237 3.47592 27.0329 3.67009 27.0329ZM1.66113 27.4145C1.66113 28.4958 2.56853 29.3862 3.67009 29.3862C4.77229 29.3862 5.67967 28.4958 5.67967 27.4145C5.67967 26.3332 4.77229 25.4428 3.67009 25.4428C2.56853 25.4428 1.66113 26.3332 1.66113 27.4145Z" fill="#6E9419"/>
<path d="M33.6833 1.59108C34.3318 1.59108 34.915 2.09991 34.915 2.79956C34.915 3.4992 34.3966 4.00804 33.6833 4.00804C32.9701 4.00804 32.4517 3.4356 32.4517 2.79956C32.4517 2.16352 32.9701 1.59108 33.6833 1.59108ZM33.6833 5.59814C35.2392 5.59814 36.5356 4.32606 36.5356 2.79956C36.5356 1.27306 35.2392 0.000971317 33.6833 0.000971317C32.1281 0.000971317 30.8311 1.27306 30.8311 2.79956C30.8311 4.32606 32.1281 5.59814 33.6833 5.59814Z" fill="#6E9419"/>
<path d="M36.5365 5.53428C37.0017 5.53428 37.3792 5.90445 37.3792 6.36113C37.3792 6.81781 37.0017 7.18799 36.5365 7.18799C36.0713 7.18799 35.6938 6.81781 35.6938 6.36113C35.6938 5.90445 36.0713 5.53428 36.5365 5.53428Z" fill="#6E9419"/>
<path d="M26.813 0.76377C27.2776 0.76377 27.6551 1.13395 27.6551 1.59063C27.6551 2.0473 27.2776 2.41748 26.813 2.41748C26.3472 2.41748 25.9697 2.0473 25.9697 1.59063C25.9697 1.13395 26.3472 0.76377 26.813 0.76377Z" fill="#6E9419"/>
<path d="M12.2281 9.84669e-05C12.6927 9.84669e-05 13.0701 0.370275 13.0701 0.826954C13.0701 1.28363 12.6927 1.65381 12.2281 1.65381C11.7622 1.65381 11.3848 1.28363 11.3848 0.826954C11.3848 0.370275 11.7622 9.84669e-05 12.2281 9.84669e-05Z" fill="#6E9419"/>
<path d="M1.6607 7.95127C2.12593 7.95127 2.50337 8.32145 2.50337 8.77813C2.50337 9.2348 2.12593 9.60498 1.6607 9.60498C1.19483 9.60498 0.817383 9.2348 0.817383 8.77813C0.817383 8.32145 1.19483 7.95127 1.6607 7.95127Z" fill="#6E9419"/>
<path d="M3.2818 19.0821C3.74639 19.0821 4.12384 19.4523 4.12384 19.909C4.12384 20.3657 3.74639 20.7358 3.2818 20.7358C2.81593 20.7358 2.43848 20.3657 2.43848 19.909C2.43848 19.4523 2.81593 19.0821 3.2818 19.0821Z" fill="#6E9419"/>
<path d="M36.5365 18.255C37.0017 18.255 37.3792 18.6252 37.3792 19.0818C37.3792 19.5385 37.0017 19.9087 36.5365 19.9087C36.0713 19.9087 35.6938 19.5385 35.6938 19.0818C35.6938 18.6252 36.0713 18.255 36.5365 18.255Z" fill="#6E9419"/>
<path d="M25.9706 20.672C26.4365 20.672 26.8139 21.0422 26.8139 21.4988C26.8139 21.9555 26.4365 22.3257 25.9706 22.3257C25.5054 22.3257 25.1279 21.9555 25.1279 21.4988C25.1279 21.0422 25.5054 20.672 25.9706 20.672Z" fill="#6E9419"/>
<path d="M13.8474 20.672C14.3132 20.672 14.6907 21.0422 14.6907 21.4988C14.6907 21.9555 14.3132 22.3257 13.8474 22.3257C13.3821 22.3257 13.0054 21.9555 13.0054 21.4988C13.0054 21.0422 13.3821 20.672 13.8474 20.672Z" fill="#6E9419"/>
<path d="M35.6932 28.6222C36.1591 28.6222 36.5359 28.9923 36.5359 29.449C36.5359 29.9057 36.1591 30.2759 35.6932 30.2759C35.2274 30.2759 34.8506 29.9057 34.8506 29.449C34.8506 28.9923 35.2274 28.6222 35.6932 28.6222Z" fill="#6E9419"/>
</svg>
