<svg width="32" height="32" viewBox="0 0 32 32" fill="none" xmlns="http://www.w3.org/2000/svg">
<path d="M16.0271 25.7112C16.4265 25.7112 16.7505 26.0351 16.7505 26.4347C16.7505 26.8343 16.4265 27.1582 16.0271 27.1582C15.6272 27.1582 15.3037 26.8343 15.3037 26.4347C15.3037 26.0351 15.6272 25.7112 16.0271 25.7112Z" fill="#6E9419"/>
<path d="M18.1414 20.8694C18.5408 20.8694 18.8648 21.1933 18.8648 21.5929C18.8648 21.9925 18.5408 22.3164 18.1414 22.3164C17.742 22.3164 17.418 21.9925 17.418 21.5929C17.418 21.1933 17.742 20.8694 18.1414 20.8694Z" fill="#6E9419"/>
<path d="M24.3738 1.39093C24.7737 1.39093 25.0977 1.71483 25.0977 2.11441C25.0977 2.51399 24.7737 2.83789 24.3738 2.83789C23.9744 2.83789 23.6504 2.51399 23.6504 2.11441C23.6504 1.71483 23.9744 1.39093 24.3738 1.39093Z" fill="#6E9419"/>
<path d="M7.67994 1.39093C8.07932 1.39093 8.40335 1.71483 8.40335 2.11441C8.40335 2.51399 8.07932 2.83789 7.67994 2.83789C7.28056 2.83789 6.95654 2.51399 6.95654 2.11441C6.95654 1.71483 7.28056 1.39093 7.67994 1.39093Z" fill="#6E9419"/>
<path d="M24.3738 29.8851C24.7737 29.8851 25.0977 30.209 25.0977 30.6086C25.0977 31.0081 24.7737 31.332 24.3738 31.332C23.9744 31.332 23.6504 31.0081 23.6504 30.6086C23.6504 30.209 23.9744 29.8851 24.3738 29.8851Z" fill="#6E9419"/>
<path d="M29.9393 29.9407H26.4334C26.0433 29.9407 25.71 30.2747 25.71 30.6642C25.71 31.0538 26.0433 31.3877 26.4334 31.3877H29.9393C30.3287 31.3877 30.6627 31.0538 30.6627 30.6642C30.6627 30.219 30.3287 29.9407 29.9393 29.9407Z" fill="#6E9419"/>
<path d="M7.67994 29.8851C8.07932 29.8851 8.40335 30.209 8.40335 30.6086C8.40335 31.0081 8.07932 31.332 7.67994 31.332C7.28056 31.332 6.95654 31.0081 6.95654 30.6086C6.95654 30.209 7.28056 29.8851 7.67994 29.8851Z" fill="#6E9419"/>
<path d="M5.62089 29.9407H2.115C1.72552 29.9407 1.3916 30.2747 1.3916 30.6642C1.3916 31.0538 1.72552 31.3877 2.115 31.3877H5.62089C6.01037 31.3877 6.34429 31.0538 6.34429 30.6642C6.28872 30.219 5.95481 29.9407 5.62089 29.9407Z" fill="#6E9419"/>
<path d="M22.538 16.5848C22.4825 16.5292 22.4269 16.4179 22.4269 16.3066C22.4269 16.0839 22.5941 15.9726 22.8719 15.917V16.7518C22.7053 16.6961 22.5941 16.6405 22.538 16.5848ZM23.2058 17.9761C23.3731 18.0318 23.4842 18.0874 23.5953 18.1431C23.707 18.1987 23.7626 18.31 23.7626 18.4213C23.7626 18.6439 23.5953 18.7553 23.2614 18.7553V17.9761H23.2058ZM21.7035 18.31C21.6479 18.2544 21.5924 18.1987 21.5368 18.1987L21.0356 19.1448C21.5368 19.4787 22.1485 19.6457 22.7608 19.7013V20.4805H23.2614V19.7013C23.4842 19.7013 23.6509 19.6457 23.8737 19.59C24.2632 19.4787 24.5415 19.2561 24.7643 18.9222C24.931 18.5883 24.931 18.0318 24.8199 17.6979C24.7082 17.4196 24.486 17.197 24.0404 17.03C23.6509 16.8631 23.2614 16.8074 23.2058 16.7518V15.8613C23.6509 15.917 24.2076 16.1953 24.2632 16.3066L24.7643 15.4161C24.5971 15.3048 24.3743 15.1935 24.0965 15.0822C23.8181 15.0266 23.5398 14.9709 23.2614 14.9709V14.3031H22.8164V14.9709C22.2046 15.0266 21.7035 15.3048 21.4251 15.8613C21.3696 16.0283 21.314 16.2509 21.314 16.4735C21.314 16.8074 21.3696 17.0857 21.6479 17.3083C21.8707 17.5309 22.2602 17.6979 22.5941 17.8092L22.9275 17.9205V18.8109C22.4825 18.6996 21.9819 18.477 21.7035 18.31Z" fill="#6E9419"/>
<path d="M8.4031 18.0872C8.80248 18.0872 9.12649 18.4111 9.12649 18.8107C9.12649 19.2103 8.80248 19.5342 8.4031 19.5342C8.00371 19.5342 7.67969 19.2103 7.67969 18.8107C7.67969 18.4111 8.00371 18.0872 8.4031 18.0872Z" fill="#6E9419"/>
<path d="M30.6629 26.7133C30.6629 27.3255 30.1617 27.8263 29.55 27.8263C27.9915 27.8263 4.11816 27.8263 2.50412 27.8263C1.89184 27.8263 1.39124 27.3255 1.39124 26.7133V8.06981C1.39124 7.45763 1.89184 6.95677 2.50412 6.95677H8.45857L8.40301 7.68024H2.83804C2.44856 7.68024 2.11464 8.01416 2.11464 8.40372V24.4315C2.11464 24.8211 2.44856 25.155 2.83804 25.155H29.2716C29.6611 25.155 29.995 24.8211 29.995 24.4315V8.34807C29.995 7.9585 29.6611 7.62459 29.2716 7.62459H23.7067L23.6506 6.90111H29.6056C30.2173 6.90111 30.7184 7.40198 30.7184 8.01416V26.7133H30.6629ZM21.592 29.9411C21.592 30.3307 21.2581 30.6646 20.8686 30.6646H11.1855C10.796 30.6646 10.4621 30.3307 10.4621 29.9411C10.4621 29.5515 10.796 29.2176 11.1855 29.2176H20.9242C21.2581 29.2176 21.592 29.5515 21.592 29.9411ZM16.0271 1.72546C16.9727 2.67155 19.0879 4.39676 21.9815 4.67503L22.3154 8.01416C22.5377 10.2402 21.5365 12.4107 19.7552 13.6907L16.0271 16.362L12.2984 13.6907C10.5177 12.4107 9.5159 10.1846 9.73869 8.01416C9.79426 7.51329 10.017 5.06459 10.0726 4.67503C12.9662 4.39676 15.0809 2.67155 16.0271 1.72546ZM22.9833 13.9133C24.8751 13.9133 26.4892 15.4715 26.4892 17.4194C26.4892 19.3672 24.9307 20.9255 22.9833 20.9255C21.0353 20.9255 19.4774 19.3672 19.4774 17.4194C19.4774 15.4715 21.0909 13.9133 22.9833 13.9133ZM28.5477 9.07155V23.7081H3.50588V22.2611H16.0271C16.4165 22.2611 16.7505 21.9272 16.7505 21.5376C16.7505 21.1481 16.4165 20.8142 16.0271 20.8142H3.50588V19.4785H6.28837C6.67785 19.4785 7.01177 19.1446 7.01177 18.755C7.01177 18.3655 6.67785 18.0315 6.28837 18.0315H3.50588V9.07155H8.34745C8.51414 11.3533 9.62701 13.4681 11.5194 14.8594C15.9154 18.0315 15.6376 17.8646 15.7487 17.9202C15.971 18.0315 16.2493 18.0315 16.4721 17.8646L18.2528 16.5846C17.6967 19.5898 20.0336 22.3168 23.0388 22.3168C25.7102 22.3168 27.9359 20.1463 27.9359 17.4194C27.9359 14.6368 25.543 12.355 22.7049 12.5776C23.3172 11.5202 23.7067 10.3515 23.8178 9.07155H28.5477ZM29.55 5.56546H23.4839L23.3172 3.95155C23.2611 3.61764 22.9833 3.33937 22.6493 3.33937C19.0879 3.28372 16.6388 0.389809 16.5832 0.278503C16.4721 0.111547 16.3049 0.0558949 16.1382 0.0558949C16.0826 0.0558949 16.1382 0.0558949 16.0826 0.0558949C16.0271 0.000244141 16.0271 0.000244141 16.0271 0.000244141C15.8043 0.000244141 15.6376 0.111547 15.5259 0.278503C15.4703 0.334156 13.0218 3.28372 9.46033 3.33937C9.12641 3.33937 8.79249 3.61764 8.79249 3.95155L8.5697 5.56546H2.50412C1.11288 5.56546 0 6.6785 0 8.06981V26.7133C0 28.1046 1.11288 29.2176 2.50412 29.2176H9.18197C8.68137 30.5533 9.73868 32.0002 11.1299 32.0002H20.8686C22.3154 32.0002 23.3172 30.5533 22.816 29.2176H29.4939C30.8851 29.2176 31.998 28.1046 31.998 26.7133V8.06981C32.0536 6.6785 30.9407 5.56546 29.55 5.56546Z" fill="#6E9419"/>
<path d="M4.56354 2.78268C4.73022 2.78268 4.89746 2.94963 4.89746 3.11659C4.89746 3.28355 4.73022 3.4505 4.56354 3.4505C4.3963 3.4505 4.22962 3.28355 4.22962 3.11659C4.22962 2.94963 4.34074 2.78268 4.56354 2.78268ZM4.56354 4.89746C5.50974 4.89746 6.28871 4.11833 6.28871 3.17224C6.28871 2.22616 5.50974 1.44703 4.56354 1.44703C3.61734 1.44703 2.83838 2.22616 2.83838 3.17224C2.83838 4.11833 3.61734 4.89746 4.56354 4.89746Z" fill="#6E9419"/>
<path d="M28.5477 2.11485C28.9377 2.11485 29.2716 2.44877 29.2716 2.83833C29.2716 3.2279 28.9377 3.56181 28.5477 3.56181C28.1582 3.56181 27.8243 3.2279 27.8243 2.83833C27.8798 2.39311 28.1582 2.11485 28.5477 2.11485ZM28.5477 4.89746C29.7167 4.89746 30.6629 3.95137 30.6629 2.78268C30.6629 1.61398 29.7167 0.667896 28.5477 0.667896C27.3792 0.667896 26.4336 1.61398 26.4336 2.78268C26.4336 3.95137 27.3792 4.89746 28.5477 4.89746Z" fill="#6E9419"/>
<path d="M18.3646 8.62584C18.6424 8.34757 18.6424 7.90236 18.3646 7.6241C18.0863 7.34584 17.6407 7.34584 17.3629 7.6241L15.2482 9.73888L14.4132 8.9041C14.1348 8.62584 13.6898 8.62584 13.4114 8.9041C13.133 9.18236 13.133 9.62757 13.4114 9.90584L14.6915 11.1858C14.9699 11.4641 15.4149 11.4641 15.6933 11.1858L18.3646 8.62584Z" fill="#6E9419"/>
<path d="M11.8534 9.73918C12.2429 9.73918 12.5768 9.40527 12.5768 9.01571C12.5768 7.12353 14.1347 5.50962 16.0827 5.50962C18.0306 5.50962 19.5886 7.06788 19.5886 9.01571C19.5886 10.9635 18.0306 12.5218 16.0827 12.5218C15.6932 12.5218 15.3593 12.8557 15.3593 13.2453C15.3593 13.6348 15.6932 13.9688 16.0827 13.9688C18.754 13.9688 20.9798 11.7983 20.9798 9.07136C20.9798 6.3444 18.8096 4.17397 16.0827 4.17397C13.3558 4.17397 11.1855 6.3444 11.1855 9.07136C11.1855 9.40527 11.4639 9.73918 11.8534 9.73918Z" fill="#6E9419"/>
</svg>
