<svg width="39" height="36" viewBox="0 0 39 36" fill="none" xmlns="http://www.w3.org/2000/svg">
<path d="M4.12437 11.1312L19.4879 3.30791L34.8514 11.1312C32.7771 11.1312 5.61618 11.1312 4.12437 11.1312ZM32.4528 14.3114C31.2212 14.3114 28.4983 14.3114 27.5909 14.3114V12.7213H32.4528V14.3114ZM30.8322 29.4493H29.2116V15.9015H30.8322V29.4493ZM7.36624 31.8026V30.9758C8.33835 30.9758 31.2212 30.9758 32.5175 30.9758V31.8026H7.36624ZM34.9161 34.2196H4.90233V33.3927C7.68986 33.3927 33.6197 33.3927 34.9161 33.3927V34.2196ZM8.14419 15.9015H9.76416V29.4493H8.14419V15.9015ZM11.3848 14.3114C10.1538 14.3114 7.43096 14.3114 6.52357 14.3114V12.7213H11.3848V14.3114ZM18.6458 27.0323H16.6363C15.6635 27.0323 14.8208 26.3326 14.626 25.4422H16.6363C17.6077 25.4422 18.451 26.1418 18.6458 27.0323ZM23.5718 16.7284C23.5718 18.8909 21.757 20.7355 19.4879 20.7355C17.2194 20.7355 15.404 18.9546 15.404 16.7284C15.404 14.5023 17.2194 12.7213 19.4879 12.7213C21.757 12.7213 23.5718 14.5023 23.5718 16.7284ZM20.3305 27.0323C20.5253 26.1418 21.368 25.4422 22.3401 25.4422H24.3497C24.1556 26.3326 23.3129 27.0323 22.3401 27.0323H20.3305ZM26.8136 15.9015H27.6557V29.4493H20.3305V28.6224H22.3401C24.3497 28.6224 25.9703 27.0323 25.9703 25.0606V24.6789C25.9703 24.2337 25.5814 23.8521 25.1277 23.8521H22.276C21.4975 23.8521 20.8496 24.1065 20.2658 24.4881V22.262C22.9887 21.8803 25.1277 19.527 25.1277 16.7284C25.1277 15.2019 24.4792 13.739 23.4423 12.7213H25.9703V15.1383C25.9703 15.5199 26.3593 15.9015 26.8136 15.9015ZM15.534 12.7213C14.4966 13.739 13.8481 15.1383 13.8481 16.7284C13.8481 19.527 15.9877 21.8803 18.7099 22.262V24.4881C18.1268 24.1065 17.4142 23.8521 16.7003 23.8521H13.8481C13.3944 23.8521 13.0061 24.2337 13.0061 24.6789V25.0606C13.0061 27.0323 14.626 28.6224 16.6363 28.6224H18.6458V29.4493H11.3848V15.9015H12.2281C12.6818 15.9015 13.0701 15.5199 13.0701 15.0747V12.6577H15.534V12.7213ZM38.4816 11.1948L19.8768 1.6542C19.6173 1.52699 19.3584 1.52699 19.0995 1.6542L0.430084 11.1948C0.105832 11.3856 -0.0889803 11.7037 0.040464 12.0853C0.169908 12.4669 0.430056 12.7213 0.818389 12.7213H4.90233V15.1383C4.90233 15.5835 5.29192 15.9652 5.74561 15.9652H6.52357V29.5129C6.06988 29.5129 5.68025 29.8945 5.68025 30.3397V31.9298H4.06029C3.60595 31.9298 3.21697 32.3114 3.21697 32.7567V34.3468H2.3743C1.92061 34.3468 1.53164 34.7284 1.53164 35.1736C1.53164 35.6189 1.92061 36.0005 2.3743 36.0005C4.44862 36.0005 35.3051 36.0005 37.2499 36.0005C37.7036 36.0005 38.0926 35.6189 38.0926 35.1736C38.0926 34.7284 37.7036 34.3468 37.2499 34.3468H36.4066V32.7567C36.4066 32.3114 36.0183 31.9298 35.5646 31.9298H33.944V30.2125C33.944 29.7673 33.555 29.3856 33.1007 29.3856H32.4528V15.9015H33.2955C33.7492 15.9015 34.1382 15.5199 34.1382 15.0747V12.6577H38.2221C38.611 12.6577 38.9353 12.4033 39 12.0217C39 11.7673 38.8052 11.3856 38.4816 11.1948Z" fill="#F4D445"/>
<path d="M19.0334 15.8378C18.9687 15.7742 18.904 15.7106 18.904 15.5834C18.904 15.3289 19.0988 15.2017 19.4224 15.2017V16.0286C19.2282 15.965 19.0988 15.9014 19.0334 15.8378ZM19.6819 17.3007C19.8761 17.3643 20.0062 17.4279 20.0709 17.4915C20.2003 17.5551 20.2003 17.6823 20.2003 17.7459C20.2003 18.0003 20.0062 18.1275 19.6819 18.1275V17.3007ZM18.126 17.6823C18.0607 17.6187 17.9966 17.6187 17.9966 17.5551L17.4775 18.5728C17.9966 18.8908 18.7092 19.0816 19.2929 19.1452V19.972H19.7466V19.1452C20.3951 19.1452 21.043 18.8908 21.3026 18.3183C21.4967 17.9367 21.4967 17.4279 21.3026 17.0463C21.1731 16.7918 20.9783 16.5374 20.5246 16.3466C20.0709 16.1558 19.6819 16.0922 19.6819 16.0922V15.1381C20.1356 15.2017 20.7188 15.5197 20.7835 15.5834L21.3026 14.6293C21.1077 14.5021 20.8488 14.4385 20.5893 14.3113C20.3298 14.1841 20.0062 14.1205 19.7466 14.1205V13.4208H19.2929V14.1205C18.6451 14.1841 18.0607 14.5021 17.8018 15.0745C17.6723 15.4561 17.6723 15.9014 17.7371 16.2194C17.8671 16.5374 18.126 16.7282 18.3849 16.8554C18.7745 17.0463 19.1629 17.1099 19.2929 17.1735V18.1275C18.9687 18.0639 18.3849 17.8095 18.126 17.6823Z" fill="#F4D445"/>
<path d="M4.90179 4.00765C5.35549 4.00765 5.74508 4.38928 5.74508 4.83451C5.74508 5.27974 5.35549 5.66136 4.90179 5.66136C4.4481 5.66136 4.05975 5.27974 4.05975 4.83451C4.12384 4.32568 4.4481 4.00765 4.90179 4.00765ZM4.90179 7.18787C6.26352 7.18787 7.3657 6.10659 7.3657 4.77091C7.3657 3.43522 6.26352 2.35394 4.90179 2.35394C3.5407 2.35394 2.43848 3.43522 2.43848 4.77091C2.43848 6.10659 3.5407 7.18787 4.90179 7.18787Z" fill="#F4D445"/>
<path d="M3.67009 27.0328C3.8649 27.0328 4.05971 27.2236 4.05971 27.4144C4.05971 27.6052 3.8649 27.796 3.67009 27.796C3.47592 27.796 3.28175 27.6688 3.28175 27.4144C3.28175 27.2236 3.47592 27.0328 3.67009 27.0328ZM1.66113 27.4144C1.66113 28.4956 2.56853 29.3861 3.67009 29.3861C4.77229 29.3861 5.67967 28.4956 5.67967 27.4144C5.67967 26.3331 4.77229 25.4426 3.67009 25.4426C2.56853 25.4426 1.66113 26.3331 1.66113 27.4144Z" fill="#F4D445"/>
<path d="M33.6833 1.59096C34.3318 1.59096 34.915 2.09979 34.915 2.79944C34.915 3.49908 34.3966 4.00792 33.6833 4.00792C32.9701 4.00792 32.4517 3.43548 32.4517 2.79944C32.4517 2.16339 32.9701 1.59096 33.6833 1.59096ZM33.6833 5.59802C35.2392 5.59802 36.5356 4.32594 36.5356 2.79944C36.5356 1.27293 35.2392 0.000849247 33.6833 0.000849247C32.1281 0.000849247 30.8311 1.27293 30.8311 2.79944C30.8311 4.32594 32.1281 5.59802 33.6833 5.59802Z" fill="#F4D445"/>
<path d="M36.537 5.53416C37.0022 5.53416 37.3797 5.90433 37.3797 6.36101C37.3797 6.81769 37.0022 7.18787 36.537 7.18787C36.0718 7.18787 35.6943 6.81769 35.6943 6.36101C35.6943 5.90433 36.0718 5.53416 36.537 5.53416Z" fill="#F4D445"/>
<path d="M26.813 0.763648C27.2776 0.763648 27.6551 1.13382 27.6551 1.5905C27.6551 2.04718 27.2776 2.41736 26.813 2.41736C26.3472 2.41736 25.9697 2.04718 25.9697 1.5905C25.9697 1.13382 26.3472 0.763648 26.813 0.763648Z" fill="#F4D445"/>
<path d="M12.2281 -2.36034e-05C12.6927 -2.36034e-05 13.0701 0.370153 13.0701 0.826831C13.0701 1.28351 12.6927 1.65369 12.2281 1.65369C11.7622 1.65369 11.3848 1.28351 11.3848 0.826831C11.3848 0.370153 11.7622 -2.36034e-05 12.2281 -2.36034e-05Z" fill="#F4D445"/>
<path d="M1.6607 7.95115C2.12593 7.95115 2.50337 8.32132 2.50337 8.778C2.50337 9.23468 2.12593 9.60486 1.6607 9.60486C1.19483 9.60486 0.817383 9.23468 0.817383 8.778C0.817383 8.32132 1.19483 7.95115 1.6607 7.95115Z" fill="#F4D445"/>
<path d="M3.2818 19.082C3.74639 19.082 4.12384 19.4522 4.12384 19.9089C4.12384 20.3655 3.74639 20.7357 3.2818 20.7357C2.81593 20.7357 2.43848 20.3655 2.43848 19.9089C2.43848 19.4522 2.81593 19.082 3.2818 19.082Z" fill="#F4D445"/>
<path d="M36.537 18.2549C37.0022 18.2549 37.3797 18.625 37.3797 19.0817C37.3797 19.5384 37.0022 19.9086 36.537 19.9086C36.0718 19.9086 35.6943 19.5384 35.6943 19.0817C35.6943 18.625 36.0718 18.2549 36.537 18.2549Z" fill="#F4D445"/>
<path d="M25.9706 20.6719C26.4365 20.6719 26.8139 21.042 26.8139 21.4987C26.8139 21.9554 26.4365 22.3256 25.9706 22.3256C25.5054 22.3256 25.1279 21.9554 25.1279 21.4987C25.1279 21.042 25.5054 20.6719 25.9706 20.6719Z" fill="#F4D445"/>
<path d="M13.8479 20.6719C14.3137 20.6719 14.6912 21.042 14.6912 21.4987C14.6912 21.9554 14.3137 22.3256 13.8479 22.3256C13.3826 22.3256 13.0059 21.9554 13.0059 21.4987C13.0059 21.042 13.3826 20.6719 13.8479 20.6719Z" fill="#F4D445"/>
<path d="M35.6932 28.622C36.1591 28.622 36.5359 28.9922 36.5359 29.4489C36.5359 29.9056 36.1591 30.2758 35.6932 30.2758C35.2274 30.2758 34.8506 29.9056 34.8506 29.4489C34.8506 28.9922 35.2274 28.622 35.6932 28.622Z" fill="#F4D445"/>
</svg>
