<svg width="39" height="36" viewBox="0 0 39 36" fill="none" xmlns="http://www.w3.org/2000/svg">
<path d="M31.9754 34.4014L33.0804 31.2042C34.1205 31.2042 34.9647 31.2042 35.94 31.2042L37.0443 34.4014H31.9754ZM24.697 34.4014L25.8007 31.2042C26.8415 31.2042 27.6863 31.2042 28.6609 31.2042L29.7653 34.4014H24.697ZM17.3525 34.4014L18.4575 31.2042C19.4976 31.2042 20.3418 31.2042 21.3171 31.2042L22.4221 34.4014H17.3525ZM10.0741 34.4014L11.1792 31.2042C12.2186 31.2042 13.0635 31.2042 14.0381 31.2042L15.1431 34.4014H10.0741ZM2.72961 34.4014L3.83465 31.2042C4.87478 31.2042 5.71959 31.2042 6.69419 31.2042L7.79922 34.4014H2.72961ZM8.96913 32.611L8.44939 31.2042H9.42399L8.96913 32.611ZM7.47414 26.4085C8.51363 26.4085 9.35908 26.4085 10.3337 26.4085L11.4387 29.6057C9.61864 29.6057 8.18918 29.6057 6.36911 29.6057L7.47414 26.4085ZM11.1792 21.6127C12.2186 21.6127 13.0635 21.6127 14.0381 21.6127L15.1431 24.8099C14.0381 24.8099 11.1791 24.8099 10.0741 24.8099L11.1792 21.6127ZM14.6233 17.3285L15.8582 18.5434C16.1832 18.8632 16.7023 18.8632 17.0274 18.5434L18.0027 17.5843L18.7826 19.9502C16.9632 19.9502 15.5331 19.9502 13.713 19.9502L14.6233 17.3285ZM12.6735 14.3232L9.68417 17.2646L8.44939 16.0496L13.2581 11.3178L15.8582 13.8756C16.1832 14.1953 16.7023 14.1953 17.0274 13.8756L25.1519 5.88264L26.3867 7.09757C26.1258 7.35334 16.8328 16.4973 16.4428 16.8809L13.8434 14.3232C13.5183 14.0035 12.9986 14.0035 12.6735 14.3232ZM28.5961 3.51674L28.6609 7.03362C28.4007 6.77785 25.9318 4.348 25.0864 3.51674H28.5961ZM22.4221 15.2184C21.9017 15.2184 20.9271 15.2184 20.4074 15.2184L21.9017 13.7477L22.4221 15.2184ZM19.887 18.2237L19.3672 16.753H20.3418L19.887 18.2237ZM26.0616 20.0141C24.9566 20.0141 22.097 20.0141 20.992 20.0141L22.097 16.817C23.1365 16.817 23.9813 16.817 24.9566 16.817L26.0616 20.0141ZM29.7653 24.8099C27.9459 24.8099 26.5165 24.8099 24.697 24.8099L25.8014 21.6127C26.8415 21.6127 27.6863 21.6127 28.6609 21.6127L29.7653 24.8099ZM26.7111 26.4085H27.6863L27.2309 27.8152L26.7111 26.4085ZM16.2475 23.0195L15.7284 21.5488H16.7023L16.2475 23.0195ZM20.4074 26.4085L19.887 27.8152L19.3672 26.3445H20.4074V26.4085ZM23.0716 21.6127H24.0469L23.5265 23.0834L23.0716 21.6127ZM21.3171 21.6127L22.4221 24.8099C21.3171 24.8099 18.4575 24.8099 17.3525 24.8099L18.4575 21.6127C19.4976 21.6127 20.3418 21.6127 21.3171 21.6127ZM12.608 27.8152L12.0889 26.3445H13.0635L12.608 27.8152ZM13.713 29.6057L14.818 26.4085C15.8582 26.4085 16.7023 26.4085 17.6776 26.4085L18.7826 29.6057C16.9632 29.6057 15.5331 29.6057 13.713 29.6057ZM16.2475 32.611L15.7284 31.1403H16.7023L16.2475 32.611ZM21.0575 29.6057L22.1619 26.4085C23.202 26.4085 24.0469 26.4085 25.0215 26.4085L26.1258 29.6057C24.3064 29.6057 22.8121 29.6057 21.0575 29.6057ZM23.592 32.611L23.0716 31.1403H24.0469L23.592 32.611ZM30.8703 32.611L30.3506 31.1403H31.3252L30.8703 32.611ZM33.4048 29.6057C31.5854 29.6057 30.1559 29.6057 28.3359 29.6057L29.4403 26.4085C30.481 26.4085 31.3252 26.4085 32.3005 26.4085L33.4048 29.6057ZM38.9293 34.913L37.3045 30.1172C37.1747 29.7975 36.9146 29.5417 36.5246 29.5417H35.0945L33.6657 25.3214C33.5353 25.0017 33.2751 24.746 32.8857 24.746H31.4556L30.0262 20.5257C29.8957 20.206 29.6356 19.9502 29.2462 19.9502H27.8161L26.3867 15.7299C26.2562 15.4102 25.996 15.1544 25.6067 15.1544H24.1766L23.2669 12.4049L27.5559 8.1846L28.9854 9.59136C29.1165 9.71925 29.376 9.84713 29.5713 9.84713C30.0261 9.84713 30.4155 9.46347 30.3506 9.01587L30.2857 2.68547C30.2857 2.23787 29.8958 1.91815 29.4403 1.91815L23.202 1.98209C22.877 1.98209 22.5519 2.17392 22.487 2.49364C22.3566 2.81335 22.4221 3.13307 22.6816 3.38885L24.1117 4.7956L16.4428 12.213L13.8434 9.6553C13.5183 9.33559 12.9986 9.33559 12.6735 9.6553L6.75972 15.4742C6.43464 15.7939 6.43464 16.3054 6.75972 16.6251L9.16378 18.991C9.48886 19.3108 10.0086 19.3108 10.3337 18.991L13.3237 16.0496L13.3879 16.1136L12.0889 20.0141H10.6588C10.3337 20.0141 10.0086 20.206 9.87885 20.5896L8.44939 24.8099H7.01928C6.69419 24.8099 6.3691 25.0017 6.23933 25.3854L4.80987 29.6057H3.25001C2.92493 29.6057 2.59984 29.7975 2.47006 30.1811L0.845295 34.9769C0.649989 35.4885 1.03997 36 1.62524 36C3.25001 36 36.5895 36 38.2149 36C38.4744 36 38.734 35.8721 38.8637 35.6803C38.9948 35.4245 39.0591 35.1687 38.9293 34.913Z" fill="#6E9419"/>
<path d="M1.62477 15.2183C1.62477 14.7707 2.01473 14.3871 2.46959 14.3871C2.92444 14.3871 3.31441 14.7707 3.31441 15.2183C3.31441 15.6659 2.92444 16.0496 2.46959 16.0496C2.01473 16.0496 1.62477 15.602 1.62477 15.2183ZM4.8743 15.2183C4.8743 13.8755 3.76927 12.7885 2.40405 12.7885C1.03948 12.7885 0 13.8755 0 15.2183C0 16.5612 1.10502 17.6482 2.46959 17.6482C3.83416 17.6482 4.8743 16.4972 4.8743 15.2183Z" fill="#6E9419"/>
<path d="M12.6079 1.59852C13.2581 1.59852 13.8434 2.11006 13.8434 2.81344C13.8434 3.51682 13.3236 4.02837 12.6079 4.02837C11.8935 4.02837 11.3731 3.51682 11.3731 2.81344C11.3731 2.11006 11.8935 1.59852 12.6079 1.59852ZM12.6079 5.62695C14.1678 5.62695 15.4675 4.34808 15.4675 2.81344C15.4675 1.2788 14.1678 -6.96182e-05 12.6079 -6.96182e-05C11.0487 -6.96182e-05 9.74902 1.2788 9.74902 2.81344C9.74902 4.34808 11.0487 5.62695 12.6079 5.62695Z" fill="#6E9419"/>
<path d="M34.9644 10.423C35.8741 10.423 36.5891 11.1264 36.5891 12.0216C36.5891 12.9168 35.8741 13.6202 34.9644 13.6202C34.0547 13.6202 33.3403 12.9168 33.3403 12.0216C33.3403 11.1264 34.0547 10.423 34.9644 10.423ZM34.9644 15.2188C36.7844 15.2188 38.2145 13.812 38.2145 12.0216C38.2145 10.2312 36.7844 8.82441 34.9644 8.82441C33.1449 8.82441 31.7148 10.2312 31.7148 12.0216C31.7148 13.812 33.1449 15.2188 34.9644 15.2188Z" fill="#6E9419"/>
<path d="M35.7446 23.9781C36.2116 23.9781 36.5894 24.3502 36.5894 24.8094C36.5894 25.2685 36.2116 25.6406 35.7446 25.6406C35.2782 25.6406 34.9004 25.2685 34.9004 24.8094C34.9004 24.3502 35.2782 23.9781 35.7446 23.9781Z" fill="#6E9419"/>
<path d="M34.9643 3.96442C35.4314 3.96442 35.8098 4.33657 35.8098 4.79569C35.8098 5.2548 35.4314 5.62695 34.9643 5.62695C34.4985 5.62695 34.1201 5.2548 34.1201 4.79569C34.1201 4.33657 34.4985 3.96442 34.9643 3.96442Z" fill="#6E9419"/>
<path d="M17.8728 3.19685C18.3392 3.19685 18.7176 3.569 18.7176 4.02811C18.7176 4.48722 18.3392 4.85938 17.8728 4.85938C17.4058 4.85938 17.0273 4.48722 17.0273 4.02811C17.0273 3.569 17.4058 3.19685 17.8728 3.19685Z" fill="#6E9419"/>
<path d="M6.49797 2.36579C6.96503 2.36579 7.34345 2.73794 7.34345 3.19706C7.34345 3.65617 6.96503 4.02832 6.49797 4.02832C6.03219 4.02832 5.65381 3.65617 5.65381 3.19706C5.65381 2.73794 6.03219 2.36579 6.49797 2.36579Z" fill="#6E9419"/>
<path d="M7.34401 9.59138C7.81043 9.59138 8.18883 9.96353 8.18883 10.4226C8.18883 10.8818 7.81043 11.2539 7.34401 11.2539C6.87695 11.2539 6.49854 10.8818 6.49854 10.4226C6.49854 9.96353 6.87695 9.59138 7.34401 9.59138Z" fill="#6E9419"/>
<path d="M4.8746 19.9498C5.34103 19.9498 5.71942 20.3219 5.71942 20.781C5.71942 21.2402 5.34103 21.6123 4.8746 21.6123C4.40818 21.6123 4.02979 21.2402 4.02979 20.781C4.02979 20.3219 4.40818 19.9498 4.8746 19.9498Z" fill="#6E9419"/>
<path d="M30.8696 16.7525C31.3366 16.7525 31.7144 17.1247 31.7144 17.5838C31.7144 18.0429 31.3366 18.415 30.8696 18.415C30.4032 18.415 30.0254 18.0429 30.0254 17.5838C30.0254 17.1247 30.4032 16.7525 30.8696 16.7525Z" fill="#6E9419"/>
</svg>
