<svg width="34" height="32" viewBox="0 0 34 32" fill="none" xmlns="http://www.w3.org/2000/svg">
<path d="M19.5971 20.501V19.1071C19.8924 19.2233 20.0698 19.2814 20.2466 19.3975C20.424 19.5137 20.4829 19.6879 20.4829 19.8621C20.4829 20.3268 20.1877 20.501 19.5971 20.501ZM19.0072 17.0164C18.712 16.9583 18.5348 16.8421 18.4169 16.726C18.2989 16.6098 18.2396 16.4356 18.2396 16.2614C18.2396 15.8548 18.5348 15.6225 19.0662 15.5645L19.0072 17.0164ZM21.0139 17.5971C20.3055 17.3068 19.6567 17.1906 19.5382 17.1325V15.5645C19.7745 15.6225 19.9513 15.6225 20.1877 15.7387C20.5419 15.8548 20.8961 16.0291 21.1913 16.2033C21.3092 16.2614 21.3681 16.3195 21.3681 16.3775L22.1944 14.8095C21.8408 14.6352 21.4866 14.461 21.0139 14.2868C20.5419 14.1125 20.0698 13.9964 19.5971 13.9383V12.7768H18.7709V13.9383C17.6497 14.0545 16.764 14.5191 16.2919 15.5064C16.1739 15.7968 16.0557 16.1452 16.0557 16.5518C16.0557 17.4229 16.41 18.0037 17.2955 18.4102C17.9445 18.7006 18.6531 18.8748 18.8298 18.9329V20.4429C18.5348 20.3848 18.2989 20.3268 18.0037 20.2687C17.5902 20.1525 17.1181 19.9202 16.764 19.6879C16.6461 19.5718 16.5278 19.5137 16.5278 19.5137L15.8784 21.1979C16.764 21.7787 17.8856 22.1271 18.8888 22.1852V23.521H19.7156V22.1852C20.424 22.1852 21.1324 22.011 21.6634 21.5464C21.8997 21.3721 22.1354 21.0818 22.3128 20.7914C22.4896 20.501 22.5486 20.0945 22.5486 19.6879C22.5486 19.3395 22.4896 18.991 22.3718 18.7006C22.1354 18.2941 21.7812 17.8875 21.0139 17.5971Z" fill="#6E9419"/>
<path d="M19.2428 24.6829C15.5836 24.6829 12.5731 21.779 12.5731 18.1202C12.5731 14.4613 15.5243 11.5575 19.2428 11.5575C22.9616 11.5575 25.8541 14.5194 25.8541 18.1783C25.8541 21.8371 22.9026 24.6829 19.2428 24.6829ZM19.2428 10.1636C14.7571 10.1636 11.0972 13.7644 11.0972 18.1783C11.0972 22.5921 14.7571 26.1929 19.2428 26.1929C23.7295 26.1929 27.3887 22.5921 27.3887 18.1783C27.3887 13.7644 23.67 10.1636 19.2428 10.1636Z" fill="#6E9419"/>
<path d="M19.2428 26.8894C14.3438 26.8894 10.3889 22.9982 10.3889 18.1778C10.3889 17.7713 10.0348 17.4228 9.62174 17.4228C9.2085 17.4228 8.85425 17.7713 8.85425 18.1778C8.85425 23.7532 13.5176 28.3413 19.1839 28.3413C19.597 28.3413 19.9512 27.9928 19.9512 27.5863C19.9512 27.1798 19.597 26.8894 19.2428 26.8894Z" fill="#6E9419"/>
<path d="M19.2435 8.01418C18.8304 8.01418 18.4766 8.36264 18.4766 8.76918C18.4766 9.17572 18.8304 9.52418 19.2435 9.52418C24.1433 9.52418 28.0978 13.4153 28.0978 18.2357C28.0978 18.6423 28.452 18.9907 28.8657 18.9907C29.2788 18.9907 29.633 18.6423 29.633 18.2357C29.5735 12.5442 24.9106 8.01418 19.2435 8.01418Z" fill="#6E9419"/>
<path d="M10.8612 26.3671C7.08367 22.6502 6.43427 17.0748 8.73618 12.7771L8.79546 12.7191C12.573 5.86598 21.9585 4.47214 27.566 9.98944C32.17 14.5194 32.17 21.8952 27.566 26.4252C22.9615 30.8971 15.4653 30.8971 10.8612 26.3671ZM7.20148 10.4541C7.61449 10.0475 10.6841 7.02752 11.3923 6.3306L12.1598 7.0856C10.507 8.07291 9.09037 9.46675 7.96874 11.2091L7.20148 10.4541ZM6.67019 6.85329L7.73259 5.80791L8.79546 6.85329L7.73259 7.89868L6.67019 6.85329ZM28.6286 8.88598C24.4378 4.76252 18.3578 4.0656 13.5175 6.3306L11.9239 4.76252C11.6284 4.47214 11.1562 4.47214 10.8612 4.76252L9.79881 5.80791L8.20483 4.23983C7.90992 3.94944 7.43763 3.94944 7.14243 4.23983L6.67019 4.70444C6.08002 3.89137 5.07644 2.84598 3.60055 2.96214C2.5972 3.07829 2.30224 2.14906 2.30224 1.97483C2.24301 1.56829 1.82994 1.33598 1.4167 1.39406C1.00369 1.45214 0.767306 1.85867 0.826358 2.26521C1.00369 3.07829 1.82994 4.58829 3.71889 4.41406C4.54515 4.35598 5.19454 5.22714 5.54873 5.74983L5.01762 6.27252C4.72248 6.56291 4.72248 7.02752 5.01762 7.31791L6.61114 8.88598L5.54873 9.93137C5.25353 10.2218 5.25353 10.6864 5.54873 10.9768L7.14243 12.5448C4.84029 17.3071 5.54873 23.3471 9.73953 27.4125C14.9342 32.5233 23.3157 32.5233 28.5108 27.4125C33.8231 22.3018 33.8231 13.9968 28.6286 8.88598Z" fill="#6E9419"/>
<path d="M3.01071 27.5872C2.59724 27.5872 2.24304 27.2387 2.24304 26.8322C2.24304 26.4256 2.59724 26.0772 3.01071 26.0772C3.42372 26.0772 3.77791 26.4256 3.77791 26.8322C3.71892 27.2387 3.36467 27.5872 3.01071 27.5872ZM3.01071 24.6833C1.77098 24.6833 0.767334 25.6706 0.767334 26.8902C0.767334 28.1099 1.77098 29.0972 3.01071 29.0972C4.24998 29.0972 5.25356 28.1099 5.25356 26.8902C5.25356 25.6706 4.19093 24.6833 3.01071 24.6833Z" fill="#6E9419"/>
<path d="M29.1597 1.45199C29.7502 1.45199 30.2812 1.91661 30.2812 2.55545C30.2812 3.1943 29.8092 3.65892 29.1597 3.65892C28.5109 3.65892 28.0382 3.1943 28.0382 2.55545C28.0382 1.91661 28.5698 1.45199 29.1597 1.45199ZM29.1597 5.11084C30.5765 5.11084 31.7569 3.9493 31.7569 2.55545C31.7569 1.16161 30.5765 6.86646e-05 29.1597 6.86646e-05C27.7429 6.86646e-05 26.5625 1.16161 26.5625 2.55545C26.5625 3.9493 27.7429 5.11084 29.1597 5.11084Z" fill="#6E9419"/>
<path d="M0.767204 6.50514C1.19119 6.50514 1.5347 6.84314 1.5347 7.26014C1.5347 7.67713 1.19119 8.01514 0.767204 8.01514C0.343749 8.01514 0 7.67713 0 7.26014C0 6.84314 0.343749 6.50514 0.767204 6.50514Z" fill="#6E9419"/>
<path d="M3.71891 13.7639C4.1426 13.7639 4.48635 14.1019 4.48635 14.5189C4.48635 14.9359 4.1426 15.2739 3.71891 15.2739C3.29493 15.2739 2.95142 14.9359 2.95142 14.5189C2.95142 14.1019 3.29493 13.7639 3.71891 13.7639Z" fill="#6E9419"/>
<path d="M8.91295 29.7356C9.3367 29.7356 9.68016 30.0736 9.68016 30.4906C9.68016 30.9076 9.3367 31.2456 8.91295 31.2456C8.48921 31.2456 8.14575 30.9076 8.14575 30.4906C8.14575 30.0736 8.48921 29.7356 8.91295 29.7356Z" fill="#6E9419"/>
<path d="M28.806 30.4905C29.2296 30.4905 29.5727 30.8285 29.5727 31.2455C29.5727 31.6625 29.2296 32.0005 28.806 32.0005C28.3818 32.0005 28.0381 31.6625 28.0381 31.2455C28.0381 30.8285 28.3818 30.4905 28.806 30.4905Z" fill="#6E9419"/>
<path d="M33.2324 26.135C33.6566 26.135 33.9997 26.473 33.9997 26.89C33.9997 27.307 33.6566 27.645 33.2324 27.645C32.8088 27.645 32.4651 27.307 32.4651 26.89C32.4651 26.473 32.8088 26.135 33.2324 26.135Z" fill="#6E9419"/>
<path d="M31.7578 7.25904C32.182 7.25904 32.5251 7.59705 32.5251 8.01404C32.5251 8.43104 32.182 8.76904 31.7578 8.76904C31.3342 8.76904 30.9905 8.43104 30.9905 8.01404C30.9905 7.59705 31.3342 7.25904 31.7578 7.25904Z" fill="#6E9419"/>
<path d="M21.428 0.696543C21.8516 0.696543 22.1947 1.03455 22.1947 1.45154C22.1947 1.86854 21.8516 2.20654 21.428 2.20654C21.0038 2.20654 20.6606 1.86854 20.6606 1.45154C20.6606 1.03455 21.0038 0.696543 21.428 0.696543Z" fill="#6E9419"/>
<path d="M12.5727 1.4524C12.9964 1.4524 13.3399 1.79041 13.3399 2.2074C13.3399 2.62439 12.9964 2.9624 12.5727 2.9624C12.1487 2.9624 11.8054 2.62439 11.8054 2.2074C11.8054 1.79041 12.1487 1.4524 12.5727 1.4524Z" fill="#6E9419"/>
</svg>
