<svg width="41" height="40" viewBox="0 0 41 40" fill="none" xmlns="http://www.w3.org/2000/svg">
<path d="M22.9463 21.6673L21.8271 20.5562C22.1071 20.4174 22.3864 20.3479 22.5965 20.2785C22.806 20.209 23.0154 20.2785 23.1558 20.4868C23.4357 20.7646 23.3652 21.1812 22.9463 21.6673ZM18.7502 19.4451C18.5408 19.4451 18.3306 19.3757 18.191 19.2368C17.8412 18.8896 17.911 18.4729 18.3306 17.9868L19.5196 19.1674C19.2404 19.3757 18.9597 19.4451 18.7502 19.4451ZM25.5331 20.834C25.6036 20.4868 25.5331 20.0701 25.3935 19.7229C25.2538 19.3757 25.0437 18.959 24.6247 18.6118C23.7855 17.7785 22.8758 17.5701 21.6177 18.0562C20.7778 18.4035 20.1487 18.8201 20.0789 18.8896L18.7502 17.5701C18.9597 17.4313 19.1698 17.2924 19.38 17.1535C19.7298 17.0146 20.2192 16.8063 20.5683 16.6674C20.7086 16.5979 20.8483 16.5979 20.8483 16.5979L20.2192 14.584C19.7989 14.7229 19.3095 14.8618 18.82 15.0702C18.3306 15.2785 17.8412 15.5563 17.3518 15.9729L16.5126 15.1396L15.8828 15.7646L16.8624 16.7368C16.0231 17.709 15.6733 18.8896 16.1628 20.0701C16.3024 20.4174 16.5126 20.7646 16.8624 21.1118C17.5619 21.8062 18.3306 22.0146 19.4491 21.6673C20.2192 21.3896 20.9181 20.9729 21.1981 20.834L22.4569 22.084C22.1769 22.2923 21.897 22.4312 21.6177 22.5701C21.1981 22.7785 20.6381 23.0562 20.1487 23.1257C19.9386 23.1951 19.8694 23.1951 19.7989 23.1951L20.4985 25.2784C21.6875 25.0701 22.8758 24.3757 23.7855 23.6118L24.904 24.7229L25.5331 24.0979L24.4146 22.9868C24.6939 22.6396 24.9738 22.3618 25.1833 21.9451C25.3935 21.5979 25.4633 21.2507 25.5331 20.834Z" fill="#FB8500"/>
<path d="M38.7523 21.2509L34.2777 21.4592C33.8574 21.4592 33.5076 21.8064 33.4385 22.1537C33.2981 22.9175 33.0887 23.6814 32.8087 24.3759C32.6684 24.7231 32.8087 25.2092 33.1578 25.4175L36.9343 27.8481L35.6754 30.0009L31.6895 27.987C31.3404 27.7786 30.8503 27.9175 30.6408 28.1953C30.1514 28.8203 29.5915 29.3064 28.9624 29.862C28.6831 30.1397 28.5435 30.5564 28.7523 30.9036L30.7805 34.8619L28.6126 36.1119L26.1655 32.362C25.9553 32.0147 25.5357 31.8758 25.1168 32.0147C24.4173 32.2925 23.6486 32.5008 22.8785 32.6397C22.4596 32.7092 22.1796 33.0564 22.1796 33.4731L21.9694 37.9175H19.4518L19.243 33.4731C19.243 33.0564 18.8932 32.7092 18.5434 32.6397C17.774 32.5008 17.0046 32.2925 16.3051 32.0147C15.956 31.8758 15.4665 32.0147 15.2564 32.362L12.8093 36.1119L10.6407 34.8619L12.6689 30.9036C12.8784 30.5564 12.7387 30.0703 12.4595 29.862C11.8297 29.3759 11.2705 28.8203 10.7811 28.1953C10.5011 27.8481 10.0821 27.7786 9.73235 27.987L5.74574 30.0009L4.48763 27.8481L8.26338 25.4175C8.61317 25.2092 8.7535 24.7925 8.61317 24.3759C8.3332 23.6814 8.12375 22.9175 7.98342 22.1537C7.91361 21.737 7.56452 21.4592 7.14491 21.4592L2.66887 21.2509V18.7509L7.14491 18.5426C7.56452 18.5426 7.91361 18.1953 7.98342 17.8481C8.12375 17.0842 8.3332 16.3204 8.61317 15.6259C8.7535 15.2787 8.61317 14.7926 8.26338 14.5842L4.48763 12.1537L5.74574 10.0009L9.73235 12.0148C10.0821 12.2231 10.5716 12.0843 10.7811 11.8065C11.2705 11.1815 11.8297 10.6954 12.389 10.2093C12.7387 9.93149 12.8093 9.51482 12.5991 9.1676L10.5716 5.20928L12.7387 3.95929L15.1866 7.70927C15.396 8.05649 15.8156 8.19538 16.2353 8.05649C16.9348 7.77872 17.7042 7.57038 18.4729 7.4315C18.8932 7.36205 19.1725 7.01483 19.1725 6.59817L19.3826 2.15374H21.8996L22.1098 6.59817C22.1098 7.01483 22.4595 7.36205 22.8086 7.4315C23.578 7.57038 24.3467 7.77872 25.0463 8.05649C25.3961 8.19538 25.8855 8.05649 26.0957 7.70927L28.5435 3.95929L30.7107 5.20928L28.6831 9.1676C28.473 9.51482 28.6126 10.0009 28.8919 10.2093C29.4518 10.6954 30.0118 11.2509 30.571 11.8759C30.8503 12.1537 31.2699 12.2926 31.6197 12.0843L35.6056 10.0704L36.8644 12.2231L33.0887 14.6537C32.7389 14.862 32.5992 15.2787 32.7389 15.6954C33.0181 16.3898 33.2283 17.1537 33.3679 17.9176C33.4385 18.3342 33.7883 18.612 34.2072 18.612L38.6832 18.8203L38.7523 21.2509ZM39.662 17.0842L35.0464 16.8065C34.9766 16.3898 34.8362 15.9731 34.6966 15.6259L38.5429 13.1259C38.9625 12.8481 39.0323 12.362 38.8229 11.9454L36.7248 8.33427C36.5147 7.91761 35.9554 7.77872 35.6056 7.98705L31.4801 10.0704C31.2001 9.7926 30.9208 9.44538 30.571 9.1676L32.6684 5.07039C32.8785 4.65373 32.7389 4.16762 32.3193 3.95929L28.6831 1.87596C28.2628 1.66763 27.7734 1.73707 27.4942 2.15374L24.9765 5.97317C24.5569 5.83428 24.2071 5.76484 23.7882 5.62595L23.5075 1.04263C23.5075 0.556523 23.0886 0.209302 22.669 0.209302H18.4729C17.9835 0.209302 17.6337 0.556523 17.6337 1.04263L17.3544 5.62595C16.9348 5.69539 16.5152 5.83428 16.1654 5.97317L13.6485 2.15374C13.3678 1.73707 12.8784 1.66763 12.4595 1.87596L8.82265 3.95929C8.40373 4.16762 8.2634 4.72317 8.47286 5.07039L10.5716 9.1676C10.2909 9.44538 9.94112 9.72315 9.66184 10.0704L5.5363 7.98705C5.11669 7.77872 4.62727 7.91761 4.41712 8.33427L2.31975 11.9454C2.1096 12.362 2.17942 12.8481 2.59903 13.1259L6.44532 15.6259C6.30569 16.0426 6.23517 16.3898 6.09553 16.8065L1.47985 17.0842C0.990423 17.0842 0.640625 17.5009 0.640625 17.9176V22.0842C0.640625 22.5703 0.990423 22.9175 1.47985 22.9175L6.09553 23.1953C6.16604 23.612 6.30569 24.0287 6.44532 24.3759L2.59903 26.8759C2.17942 27.1536 2.1096 27.6398 2.31975 28.0564L4.41712 31.6675C4.62727 32.0842 5.18651 32.2231 5.5363 32.0147L9.66184 29.9314C9.94112 30.2092 10.2218 30.5564 10.5716 30.8342L8.47286 34.9314C8.2634 35.3481 8.40373 35.8342 8.82265 36.0425L12.4595 38.1258C12.8784 38.3342 13.3678 38.2647 13.6485 37.848L16.1654 34.0286C16.585 34.1675 16.9348 34.2369 17.3544 34.3758L17.6337 38.9592C17.6337 39.4453 18.054 39.7925 18.4729 39.7925H22.669C23.1584 39.7925 23.5075 39.4453 23.5075 38.9592L23.7882 34.3758C24.2071 34.3064 24.6274 34.1675 24.9765 34.0286L27.4942 37.848C27.7734 38.2647 28.2628 38.3342 28.6831 38.1258L32.3193 36.0425C32.7389 35.8342 32.8785 35.2786 32.6684 34.9314L30.571 30.8342C30.8503 30.5564 31.2001 30.2786 31.4801 29.9314L35.6056 32.0147C36.0252 32.2231 36.5147 32.0842 36.7248 31.6675L38.8229 28.0564C39.0323 27.6398 38.9625 27.1536 38.5429 26.8759L34.6966 24.3759C34.8362 23.9592 34.9068 23.612 35.0464 23.1953L39.662 22.9175C40.1515 22.9175 40.5006 22.5009 40.5006 22.0842V17.9176C40.5006 17.4315 40.1515 17.0842 39.662 17.0842Z" fill="#FB8500"/>
<path d="M20.6384 27.7782C16.3027 27.7782 12.8068 24.306 12.8068 20.0004C12.8068 15.6949 16.3027 12.2227 20.6384 12.2227C24.9741 12.2227 28.4706 15.6949 28.4706 20.0004C28.4706 24.306 24.9741 27.7782 20.6384 27.7782ZM20.6384 10.4866C15.3238 10.4866 11.0586 14.7921 11.0586 20.0004C11.0586 25.2782 15.3936 29.5143 20.6384 29.5143C25.9529 29.5143 30.2188 25.2087 30.2188 20.0004C30.2188 14.7227 25.9529 10.4866 20.6384 10.4866Z" fill="#FB8500"/>
<path d="M3.15799 36.527C2.66787 36.527 2.24825 36.1103 2.24825 35.6242C2.24825 35.1381 2.66787 34.7214 3.15799 34.7214C3.64741 34.7214 4.06634 35.1381 4.06634 35.6242C4.06634 36.1103 3.64741 36.527 3.15799 36.527ZM3.15799 33.0548C1.68902 33.0548 0.5 34.2353 0.5 35.6936C0.5 37.152 1.68902 38.3325 3.15799 38.3325C4.62627 38.3325 5.81527 37.152 5.81527 35.6936C5.81527 34.2353 4.62627 33.0548 3.15799 33.0548Z" fill="#FB8500"/>
<path d="M36.7946 1.80555C37.4942 1.80555 38.1233 2.3611 38.1233 3.12498C38.1233 3.88887 37.5634 4.44442 36.7946 4.44442C36.0253 4.44442 35.466 3.88887 35.466 3.12498C35.466 2.3611 36.0951 1.80555 36.7946 1.80555ZM36.7946 6.11108C38.4731 6.11108 39.8716 4.7222 39.8716 3.05554C39.8716 1.38888 38.4731 -3.15905e-06 36.7946 -3.15905e-06C35.1162 -3.15905e-06 33.7178 1.38888 33.7178 3.05554C33.7178 4.7222 35.1162 6.11108 36.7946 6.11108Z" fill="#FB8500"/>
<path d="M7.56528 0.902215C8.06715 0.902215 8.47363 1.30638 8.47363 1.80499C8.47363 2.3036 8.06715 2.70776 7.56528 2.70776C7.06272 2.70776 6.65625 2.3036 6.65625 1.80499C6.65625 1.30638 7.06272 0.902215 7.56528 0.902215Z" fill="#FB8500"/>
<path d="M38.1229 32.152C38.6255 32.152 39.0319 32.5561 39.0319 33.0547C39.0319 33.5534 38.6255 33.9575 38.1229 33.9575C37.6203 33.9575 37.2139 33.5534 37.2139 33.0547C37.2139 32.5561 37.6203 32.152 38.1229 32.152Z" fill="#FB8500"/>
<path d="M39.0321 6.9447C39.5339 6.9447 39.9411 7.34886 39.9411 7.84747C39.9411 8.34608 39.5339 8.75024 39.0321 8.75024C38.5302 8.75024 38.123 8.34608 38.123 7.84747C38.123 7.34886 38.5302 6.9447 39.0321 6.9447Z" fill="#FB8500"/>
<path d="M34.6268 37.3619C35.1287 37.3619 35.5358 37.7661 35.5358 38.2647C35.5358 38.7633 35.1287 39.1675 34.6268 39.1675C34.1249 39.1675 33.7178 38.7633 33.7178 38.2647C33.7178 37.7661 34.1249 37.3619 34.6268 37.3619Z" fill="#FB8500"/>
<path d="M8.40388 38.1945C8.90506 38.1945 9.31223 38.5986 9.31223 39.0972C9.31223 39.5958 8.90506 40 8.40388 40C7.90132 40 7.49414 39.5958 7.49414 39.0972C7.49414 38.5986 7.90132 38.1945 8.40388 38.1945Z" fill="#FB8500"/>
<path d="M2.32114 4.3739C2.82301 4.3739 3.22949 4.77806 3.22949 5.27667C3.22949 5.77528 2.82301 6.17944 2.32114 6.17944C1.81858 6.17944 1.41211 5.77528 1.41211 5.27667C1.41211 4.77806 1.81858 4.3739 2.32114 4.3739Z" fill="#FB8500"/>
</svg>
