<svg width="36" height="37" viewBox="0 0 36 37" fill="none" xmlns="http://www.w3.org/2000/svg">
<path d="M34.1361 13.8855L13.1437 34.9007C12.7178 35.3271 11.9876 35.3271 11.5004 34.9007C11.0745 34.4743 11.0745 33.7434 11.5004 33.2561L32.4939 12.2408C32.9198 11.8144 33.65 11.8144 34.1361 12.2408C34.5625 12.7281 34.5625 13.4591 34.1361 13.8855ZM5.90267 24.9718L7.54542 23.3271L13.4481 29.2358L11.8048 30.8804L5.90267 24.9718ZM1.82561 25.2155C1.39973 24.7891 1.39973 24.0581 1.82561 23.5708C3.89482 21.4997 20.3234 5.05302 22.8185 2.55556C23.0621 2.3119 23.3051 2.25099 23.6095 2.25099C24.2183 2.25099 24.7656 2.7383 24.7656 3.40835C24.7656 3.71292 24.6441 4.01749 24.4612 4.20023C23.6702 4.99211 4.5637 24.119 3.46894 25.2155C3.04307 25.6419 2.31284 25.6419 1.82561 25.2155ZM7.60677 13.8246C5.11168 13.8246 3.04306 11.7535 3.04306 9.25607C3.04306 6.75861 5.11168 4.68754 7.60677 4.68754C10.1013 4.68754 12.1705 6.75861 12.1705 9.25607C12.1705 11.7535 10.1013 13.8246 7.60677 13.8246ZM25.2528 17.4185L19.3502 11.5099L20.9935 9.86521L26.8956 15.7738L25.2528 17.4185ZM22.5755 20.0987L16.6728 14.1901L18.3162 12.5454L24.2183 18.454L22.5755 20.0987ZM19.8976 22.7789L13.9955 16.8703L15.6382 15.2256L21.5409 21.1342L19.8976 22.7789ZM14.4821 28.2002L8.58001 22.2916L10.2228 20.6469L16.1255 26.5556L14.4821 28.2002ZM17.16 25.4591L11.2574 19.5505L12.9007 17.9058L18.8028 23.8144L17.16 25.4591ZM29.5723 13.0936L27.9302 14.7383L22.0275 8.82967L23.6703 7.185L29.5723 13.0936ZM35.1706 11.2053C34.1366 10.1698 32.4325 10.1698 31.3985 11.2053L30.607 12.0581L24.7049 6.14947L25.4959 5.35759C25.9831 4.87028 26.2869 4.20023 26.2869 3.46926C26.2869 2.00734 25.07 0.789062 23.6095 0.789062C22.8793 0.789062 22.2098 1.09363 21.7238 1.58094L13.6911 9.62155C13.874 6.08856 11.0745 3.1647 7.60677 3.1647C4.25933 3.1647 1.52182 5.90582 1.52182 9.25607C1.52182 12.7281 4.4422 15.5302 7.9713 15.3474L0.791575 22.5353C0.304347 23.0226 0 23.6926 0 24.4236C0 25.8855 1.21745 27.1038 2.67734 27.1038C3.40758 27.1038 4.07769 26.7992 4.56371 26.3119L4.80731 26.0683L10.71 31.9769L10.4664 32.2205C9.97916 32.7078 9.6754 33.3779 9.6754 34.1089C9.6754 35.5708 10.8923 36.7891 12.3521 36.7891C13.0222 36.7891 13.6911 36.5454 14.2391 35.9972L35.232 14.982C36.266 13.9464 36.266 12.2408 35.1706 11.2053Z" fill="#6E9419"/>
<path d="M7.84997 10.9618V9.92624C8.03283 9.98715 8.2151 10.0481 8.33721 10.1699C8.45871 10.2308 8.51887 10.3526 8.51887 10.5354C8.51887 10.8399 8.3372 10.9618 7.84997 10.9618ZM7.48483 8.40339C7.30257 8.34248 7.11974 8.28157 7.05898 8.15974C6.93748 8.09882 6.93748 7.977 6.93748 7.85517C6.93748 7.5506 7.11973 7.36786 7.5456 7.36786V8.40339H7.48483ZM8.94471 8.82979C8.45869 8.64705 7.97148 8.52522 7.91133 8.52522V7.36786C8.51886 7.42877 9.18893 7.79426 9.24908 7.91608L9.85783 6.75872C9.61481 6.6369 9.37119 6.51507 9.00607 6.33233C8.7017 6.2105 8.3372 6.14959 7.97148 6.08867V5.23588H7.36333V6.08867C6.57233 6.14959 5.90285 6.51507 5.59849 7.24603C5.41562 7.67243 5.41564 8.28157 5.53775 8.64705C5.65985 9.01253 5.96361 9.25618 6.32873 9.43893C6.81536 9.68258 7.30257 9.80441 7.48483 9.80441V10.9618C7.30257 10.9618 7.05897 10.9009 6.87671 10.8399C6.57234 10.7181 6.20721 10.5963 5.9636 10.4135C5.84209 10.3526 5.78135 10.2917 5.78135 10.2917L5.17261 11.51C5.8421 11.9364 6.63308 12.18 7.36333 12.241V13.2156H7.97148V12.241C8.45871 12.241 9.00609 12.1191 9.37121 11.8146C9.55347 11.6927 9.73633 11.51 9.79709 11.2663C10.0407 10.8399 10.0407 10.1699 9.85783 9.74349C9.73632 9.37801 9.43194 9.07344 8.94471 8.82979Z" fill="#6E9419"/>
<path d="M16.0043 2.73827C16.4404 2.73827 16.7946 3.09278 16.7946 3.53014C16.7946 3.9675 16.4404 4.32202 16.0043 4.32202C15.5669 4.32202 15.2126 3.9675 15.2126 3.53014C15.2126 3.09278 15.5669 2.73827 16.0043 2.73827Z" fill="#6E9419"/>
<path d="M29.6949 2.73827C30.131 2.73827 30.4853 3.09278 30.4853 3.53014C30.4853 3.9675 30.131 4.32202 29.6949 4.32202C29.2576 4.32202 28.9033 3.9675 28.9033 3.53014C28.9033 3.09278 29.2576 2.73827 29.6949 2.73827Z" fill="#6E9419"/>
<path d="M33.4673 6.57591C33.9046 6.57591 34.2582 6.93043 34.2582 7.36779C34.2582 7.80515 33.9046 8.15967 33.4673 8.15967C33.03 8.15967 32.6763 7.80515 32.6763 7.36779C32.6763 6.93043 33.03 6.57591 33.4673 6.57591Z" fill="#6E9419"/>
<path d="M30.4248 30.9414C30.8615 30.9414 31.2158 31.2959 31.2158 31.7333C31.2158 32.1706 30.8615 32.5251 30.4248 32.5251C29.9881 32.5251 29.6338 32.1706 29.6338 31.7333C29.6338 31.2959 29.9881 30.9414 30.4248 30.9414Z" fill="#6E9419"/>
<path d="M6.08555 30.9414C6.52225 30.9414 6.87654 31.2959 6.87654 31.7333C6.87654 32.1706 6.52225 32.5251 6.08555 32.5251C5.64825 32.5251 5.29395 32.1706 5.29395 31.7333C5.29395 31.2959 5.64825 30.9414 6.08555 30.9414Z" fill="#6E9419"/>
<path d="M3.04307 16.4438C3.47917 16.4438 3.83347 16.7983 3.83347 17.2357C3.83347 17.6731 3.47917 18.0276 3.04307 18.0276C2.60577 18.0276 2.25146 17.6731 2.25146 17.2357C2.25146 16.7983 2.60577 16.4438 3.04307 16.4438Z" fill="#6E9419"/>
<path d="M32.7369 27.1647C31.8852 27.1647 31.2157 26.4946 31.2157 25.6418C31.2157 24.789 31.8852 24.119 32.7369 24.119C33.5887 24.119 34.2582 24.789 34.2582 25.6418C34.2582 26.4946 33.5285 27.1647 32.7369 27.1647ZM32.7369 22.5961C31.0328 22.5961 29.6951 23.9362 29.6951 25.6418C29.6951 27.3474 31.0328 28.6875 32.7369 28.6875C34.4404 28.6875 35.7794 27.3474 35.7794 25.6418C35.7794 23.9362 34.3803 22.5961 32.7369 22.5961Z" fill="#6E9419"/>
<path d="M24.3398 33.2561C23.9139 33.2561 23.5488 32.8906 23.5488 32.4642C23.5488 32.0378 23.9139 31.6723 24.3398 31.6723C24.7657 31.6723 25.1314 32.0378 25.1314 32.4642C25.1314 32.8906 24.7657 33.2561 24.3398 33.2561ZM24.3398 30.2104C23.0622 30.2104 22.0276 31.2459 22.0276 32.5251C22.0276 33.8043 23.0622 34.8398 24.3398 34.8398C25.6174 34.8398 26.6521 33.8043 26.6521 32.5251C26.6521 31.2459 25.6174 30.2104 24.3398 30.2104Z" fill="#6E9419"/>
</svg>
