<svg width="36" height="36" viewBox="0 0 36 36" fill="none" xmlns="http://www.w3.org/2000/svg">
<path d="M18.0301 28.9259C18.4794 28.9259 18.844 29.2903 18.844 29.7398C18.844 30.1893 18.4794 30.5537 18.0301 30.5537C17.5802 30.5537 17.2163 30.1893 17.2163 29.7398C17.2163 29.2903 17.5802 28.9259 18.0301 28.9259Z" fill="#6E9419"/>
<path d="M20.4095 23.4786C20.8588 23.4786 21.2234 23.843 21.2234 24.2925C21.2234 24.7421 20.8588 25.1064 20.4095 25.1064C19.9602 25.1064 19.5957 24.7421 19.5957 24.2925C19.5957 23.843 19.9602 23.4786 20.4095 23.4786Z" fill="#6E9419"/>
<path d="M27.4203 1.56553C27.8702 1.56553 28.2347 1.92992 28.2347 2.37945C28.2347 2.82898 27.8702 3.19336 27.4203 3.19336C26.971 3.19336 26.6064 2.82898 26.6064 2.37945C26.6064 1.92992 26.971 1.56553 27.4203 1.56553Z" fill="#6E9419"/>
<path d="M8.63999 1.56553C9.0893 1.56553 9.45383 1.92992 9.45383 2.37945C9.45383 2.82898 9.0893 3.19336 8.63999 3.19336C8.19069 3.19336 7.82617 2.82898 7.82617 2.37945C7.82617 1.92992 8.19069 1.56553 8.63999 1.56553Z" fill="#6E9419"/>
<path d="M27.4203 33.6212C27.8702 33.6212 28.2347 33.9856 28.2347 34.4351C28.2347 34.8846 27.8702 35.249 27.4203 35.249C26.971 35.249 26.6064 34.8846 26.6064 34.4351C26.6064 33.9856 26.971 33.6212 27.4203 33.6212Z" fill="#6E9419"/>
<path d="M33.6818 33.6837H29.7377C29.2989 33.6837 28.9238 34.0593 28.9238 34.4976C28.9238 34.9359 29.2989 35.3115 29.7377 35.3115H33.6818C34.12 35.3115 34.4956 34.9359 34.4956 34.4976C34.4956 33.9967 34.12 33.6837 33.6818 33.6837Z" fill="#6E9419"/>
<path d="M8.63999 33.6212C9.0893 33.6212 9.45383 33.9856 9.45383 34.4351C9.45383 34.8846 9.0893 35.249 8.63999 35.249C8.19069 35.249 7.82617 34.8846 7.82617 34.4351C7.82617 33.9856 8.19069 33.6212 8.63999 33.6212Z" fill="#6E9419"/>
<path d="M6.32387 33.6837H2.37975C1.94158 33.6837 1.56592 34.0593 1.56592 34.4976C1.56592 34.9359 1.94158 35.3115 2.37975 35.3115H6.32387C6.76203 35.3115 7.13769 34.9359 7.13769 34.4976C7.07518 33.9967 6.69953 33.6837 6.32387 33.6837Z" fill="#6E9419"/>
<path d="M25.3552 18.6574C25.2927 18.5948 25.2302 18.4696 25.2302 18.3444C25.2302 18.094 25.4183 17.9687 25.7309 17.9061V18.8453C25.5433 18.7826 25.4183 18.72 25.3552 18.6574ZM26.1065 20.2226C26.2947 20.2853 26.4197 20.3479 26.5447 20.4105C26.6703 20.4731 26.7328 20.5983 26.7328 20.7235C26.7328 20.974 26.5447 21.0992 26.169 21.0992V20.2226H26.1065ZM24.4164 20.5983C24.3539 20.5357 24.2914 20.4731 24.2288 20.4731L23.665 21.5374C24.2288 21.9131 24.917 22.1009 25.6059 22.1635V23.04H26.169V22.1635C26.4197 22.1635 26.6072 22.1009 26.8578 22.0383C27.296 21.9131 27.6092 21.6626 27.8598 21.287C28.0473 20.9113 28.0473 20.2853 27.9223 19.9096C27.7967 19.5966 27.5467 19.3461 27.0454 19.1583C26.6072 18.9705 26.169 18.9079 26.1065 18.8453V17.8435C26.6072 17.9061 27.2335 18.2192 27.296 18.3444L27.8598 17.3426C27.6717 17.2174 27.421 17.0922 27.1085 16.967C26.7953 16.9044 26.4822 16.8418 26.169 16.8418V16.0905H25.6684V16.8418C24.9802 16.9044 24.4164 17.2174 24.1032 17.8435C24.0407 18.0313 23.9782 18.2818 23.9782 18.5322C23.9782 18.9079 24.0407 19.2209 24.3539 19.4713C24.6045 19.7218 25.0427 19.9096 25.4183 20.0348L25.7934 20.16V21.1618C25.2927 21.0366 24.7295 20.7861 24.4164 20.5983Z" fill="#6E9419"/>
<path d="M9.45348 20.3478C9.90279 20.3478 10.2673 20.7121 10.2673 21.1617C10.2673 21.6112 9.90279 21.9756 9.45348 21.9756C9.00418 21.9756 8.63965 21.6112 8.63965 21.1617C8.63965 20.7121 9.00418 20.3478 9.45348 20.3478Z" fill="#6E9419"/>
<path d="M34.4957 30.0524C34.4957 30.7411 33.9319 31.3046 33.2437 31.3046C31.4905 31.3046 4.63293 31.3046 2.81713 31.3046C2.12832 31.3046 1.56514 30.7411 1.56514 30.0524V9.0785C1.56514 8.38981 2.12832 7.82633 2.81713 7.82633H9.5159L9.45339 8.64024H3.1928C2.75463 8.64024 2.37897 9.0159 2.37897 9.45416V27.4855C2.37897 27.9237 2.75463 28.2994 3.1928 28.2994H32.9306C33.3688 28.2994 33.7444 27.9237 33.7444 27.4855V9.39155C33.7444 8.95329 33.3688 8.57763 32.9306 8.57763H26.67L26.6069 7.76372H33.3062C33.9944 7.76372 34.5582 8.3272 34.5582 9.0159V30.0524H34.4957ZM24.291 33.6837C24.291 34.122 23.9154 34.4976 23.4772 34.4976H12.5837C12.1455 34.4976 11.7699 34.122 11.7699 33.6837C11.7699 33.2455 12.1455 32.8698 12.5837 32.8698H23.5397C23.9154 32.8698 24.291 33.2455 24.291 33.6837ZM18.0304 1.94111C19.0943 3.00546 21.4739 4.94633 24.7292 5.25937L25.1049 9.0159C25.3549 11.5202 24.2285 13.962 22.2246 15.402L18.0304 18.4072L13.8357 15.402C11.8324 13.962 10.7054 11.4576 10.956 9.0159C11.0185 8.45242 11.2692 5.69764 11.3317 5.25937C14.587 4.94633 16.966 3.00546 18.0304 1.94111ZM25.8562 15.6524C27.9845 15.6524 29.8003 17.4055 29.8003 19.5968C29.8003 21.7881 28.047 23.5411 25.8562 23.5411C23.6647 23.5411 21.9121 21.7881 21.9121 19.5968C21.9121 17.4055 23.7272 15.6524 25.8562 15.6524ZM32.1161 10.2055V26.6715H3.94412V25.0437H18.0304C18.4686 25.0437 18.8443 24.6681 18.8443 24.2298C18.8443 23.7915 18.4686 23.4159 18.0304 23.4159H3.94412V21.9133H7.07442C7.51259 21.9133 7.88824 21.5376 7.88824 21.0994C7.88824 20.6611 7.51259 20.2855 7.07442 20.2855H3.94412V10.2055H9.39088C9.5784 12.7724 10.8304 15.1515 12.9593 16.7168C17.9048 20.2855 17.5923 20.0976 17.7173 20.1602C17.9673 20.2855 18.2805 20.2855 18.5311 20.0976L20.5344 18.6576C19.9087 22.0385 22.5377 25.1063 25.9187 25.1063C28.924 25.1063 31.4279 22.6646 31.4279 19.5968C31.4279 16.4663 28.7358 13.8994 25.543 14.1498C26.2318 12.9602 26.67 11.6455 26.795 10.2055H32.1161ZM33.2437 6.26111H26.4194L26.2318 4.44546C26.1687 4.06981 25.8562 3.75677 25.4805 3.75677C21.4739 3.69416 18.7186 0.438503 18.6561 0.313286C18.5311 0.125462 18.343 0.062851 18.1554 0.062851C18.0929 0.062851 18.1554 0.062851 18.0929 0.062851C18.0304 0.000244141 18.0304 0.000244141 18.0304 0.000244141C17.7798 0.000244141 17.5923 0.125462 17.4666 0.313286C17.4041 0.375896 14.6495 3.69416 10.6429 3.75677C10.2672 3.75677 9.89155 4.06981 9.89155 4.44546L9.64091 6.26111H2.81713C1.25199 6.26111 0 7.51329 0 9.0785V30.0524C0 31.6176 1.25199 32.8698 2.81713 32.8698H10.3297C9.76654 34.3724 10.956 36.0002 12.5212 36.0002H23.4772C25.1048 36.0002 26.2318 34.3724 25.668 32.8698H33.1806C34.7458 32.8698 35.9978 31.6176 35.9978 30.0524V9.0785C36.0603 7.51329 34.8083 6.26111 33.2437 6.26111Z" fill="#6E9419"/>
<path d="M5.13368 3.13064C5.3212 3.13064 5.50933 3.31846 5.50933 3.50629C5.50933 3.69411 5.3212 3.88194 5.13368 3.88194C4.94554 3.88194 4.75801 3.69411 4.75801 3.50629C4.75801 3.31846 4.88303 3.13064 5.13368 3.13064ZM5.13368 5.50977C6.19815 5.50977 7.07449 4.63324 7.07449 3.5689C7.07449 2.50455 6.19815 1.62803 5.13368 1.62803C4.0692 1.62803 3.19287 2.50455 3.19287 3.5689C3.19287 4.63324 4.0692 5.50977 5.13368 5.50977Z" fill="#6E9419"/>
<path d="M32.1166 2.37933C32.5554 2.37933 32.9311 2.75498 32.9311 3.19324C32.9311 3.6315 32.5554 4.00716 32.1166 4.00716C31.6785 4.00716 31.3028 3.6315 31.3028 3.19324C31.3653 2.69237 31.6785 2.37933 32.1166 2.37933ZM32.1166 5.50977C33.4318 5.50977 34.4962 4.44542 34.4962 3.13064C34.4962 1.81585 33.4318 0.751505 32.1166 0.751505C30.8021 0.751505 29.7383 1.81585 29.7383 3.13064C29.7383 4.44542 30.8021 5.50977 32.1166 5.50977Z" fill="#6E9419"/>
<path d="M20.6603 9.70455C20.9728 9.39151 20.9728 8.89064 20.6603 8.5776C20.3471 8.26455 19.8458 8.26455 19.5333 8.5776L17.1543 10.9567L16.2149 10.0176C15.9017 9.70455 15.401 9.70455 15.0879 10.0176C14.7747 10.3306 14.7747 10.8315 15.0879 11.1446L16.528 12.5846C16.8412 12.8976 17.3419 12.8976 17.655 12.5846L20.6603 9.70455Z" fill="#6E9419"/>
<path d="M13.3353 10.9566C13.7735 10.9566 14.1491 10.5809 14.1491 10.1427C14.1491 8.01397 15.9018 6.19832 18.0933 6.19832C20.2847 6.19832 22.0374 7.95137 22.0374 10.1427C22.0374 12.334 20.2847 14.087 18.0933 14.087C17.6551 14.087 17.2794 14.4627 17.2794 14.9009C17.2794 15.3392 17.6551 15.7148 18.0933 15.7148C21.0985 15.7148 23.6025 13.2731 23.6025 10.2053C23.6025 7.13745 21.161 4.69571 18.0933 4.69571C15.0255 4.69571 12.584 7.13745 12.584 10.2053C12.584 10.5809 12.8971 10.9566 13.3353 10.9566Z" fill="#6E9419"/>
</svg>
