<svg width="37" height="37" viewBox="0 0 37 37" fill="none" xmlns="http://www.w3.org/2000/svg">
<path d="M33.961 9.77901C30.471 9.77901 6.29162 9.77901 2.80169 9.77901C2.36553 9.77901 1.99096 9.40529 1.99096 8.9693C1.99096 8.5333 2.36553 8.15959 2.80169 8.15959C3.73624 8.15959 33.3375 8.15959 33.961 8.15959C34.3971 8.15959 34.7711 8.5333 34.7711 8.9693C34.7711 9.40529 34.3971 9.77901 33.961 9.77901ZM32.4036 25.3503H19.1911C18.755 25.3503 18.3816 25.724 18.3816 26.16C18.3816 26.596 18.755 26.9697 19.1911 26.9697H32.3407C32.0918 27.8417 31.2811 28.5268 30.3466 28.5268H6.41606C5.48089 28.5268 4.6714 27.8417 4.4219 26.9697H6.66495C7.10111 26.9697 7.47568 26.596 7.47568 26.16C7.47568 25.724 7.10111 25.3503 6.66495 25.3503H4.29745V11.3361H32.3407V25.3503H32.4036ZM17.6337 3.9865V6.60247H12.3363L17.6337 3.9865ZM24.4257 6.66475H19.1295V3.9865L24.4257 6.66475ZM33.961 6.66475H27.9157L19.1911 2.3048V1.24596C19.1911 0.809963 18.8178 0.436253 18.3816 0.436253C17.9448 0.436253 17.5709 0.809963 17.5709 1.24596V2.3048L8.8464 6.66475H2.80169C1.4932 6.66475 0.433594 7.7236 0.433594 9.03158C0.433594 10.3396 1.4932 11.3984 2.80169 11.3984V26.4714C2.80169 28.4645 4.4219 30.0839 6.41606 30.0839H15.1406L12.5858 35.1913C12.3985 35.565 12.523 36.0633 12.9598 36.2501C13.3337 36.437 13.8321 36.3124 14.0194 35.8764L16.9481 30.0839H17.6337V33.8833C17.6337 34.3193 18.0071 34.693 18.4432 34.693C18.8794 34.693 19.254 34.3193 19.254 33.8833V29.9594H19.939L22.8683 35.7519C22.9928 36.001 23.3045 36.1879 23.5534 36.1879C24.1152 36.1879 24.4885 35.565 24.2396 35.0667L21.6843 29.9594H30.4088C32.4036 29.9594 34.0238 28.3399 34.0238 26.3468V11.3361C35.3323 11.3361 36.3913 10.2773 36.3913 8.9693C36.3913 7.66131 35.2701 6.66475 33.961 6.66475Z" fill="#6E9419"/>
<path d="M10.1562 15.2599L11.5275 19.1216L7.72588 17.689C8.2871 16.6925 9.15941 15.8205 10.1562 15.2599ZM13.0233 15.7582C15.7025 15.7582 17.8217 17.8759 17.8217 20.4919C17.8217 23.1701 15.6409 25.2878 13.0233 25.2878C11.8392 25.2878 10.718 24.8518 9.84509 24.0421L10.5307 23.4193C11.2158 23.9798 12.0881 24.3535 13.0233 24.3535C15.1419 24.3535 16.9494 22.6096 16.9494 20.4296C16.9494 19.9936 16.5754 19.6199 16.1387 19.6199C15.7025 19.6199 15.3292 19.9936 15.3292 20.4296C15.3292 21.7376 14.2696 22.7964 12.9611 22.7964C12.4627 22.7964 12.0265 22.6718 11.652 22.4227C12.0265 22.1113 13.2722 20.9901 13.335 20.9901C13.5839 20.741 13.6461 20.4296 13.5217 20.1804L11.9637 15.8205C12.3376 15.7582 12.6493 15.7582 13.0233 15.7582ZM10.8425 21.177C10.7796 20.9279 10.718 20.6787 10.718 20.4919L11.3402 20.741L10.8425 21.177ZM9.22164 19.9313C9.0972 20.8033 9.22163 21.613 9.59557 22.2981L8.90991 22.921C8.34931 21.8621 8.16202 20.741 8.3493 19.6199L9.22164 19.9313ZM6.41737 18.8725L6.85354 19.0593C5.91838 23.2324 9.03497 26.9072 13.0233 26.9072C16.5132 26.9072 19.3797 24.0421 19.3797 20.5542C19.3797 17.0662 16.5132 14.2634 13.0233 14.2634C12.4627 14.2634 11.9637 14.3257 11.4647 14.4502L11.3402 13.9519C11.2158 13.5159 10.718 13.3291 10.3435 13.5159C8.34931 14.2634 6.72909 15.8828 5.9812 17.8759C5.79392 18.2496 6.04343 18.6856 6.41737 18.8725Z" fill="#6E9419"/>
<path d="M30.4715 33.1353C30.2848 33.1353 30.0974 32.9484 30.0974 32.7616C30.0974 32.5747 30.2848 32.3879 30.4715 32.3879C30.6588 32.3879 30.8455 32.5747 30.8455 32.7616C30.8455 32.9484 30.6588 33.1353 30.4715 33.1353ZM30.4715 30.7685C29.4122 30.7685 28.5391 31.6404 28.5391 32.6993C28.5391 33.7581 29.4122 34.6301 30.4715 34.6301C31.5314 34.6301 32.4045 33.7581 32.4045 32.6993C32.4045 31.6404 31.5314 30.7685 30.4715 30.7685Z" fill="#6E9419"/>
<path d="M5.54471 33.8835C5.35739 33.8835 5.17069 33.6967 5.17069 33.5098C5.17069 33.323 5.35739 33.1361 5.54471 33.1361C5.73204 33.1361 5.91814 33.2607 5.91814 33.5098C5.91814 33.6967 5.73204 33.8835 5.54471 33.8835ZM5.54471 31.579C4.48484 31.579 3.6123 32.451 3.6123 33.5098C3.6123 34.5687 4.48484 35.4407 5.54471 35.4407C6.60458 35.4407 7.47715 34.5687 7.47715 33.5098C7.47715 32.451 6.60458 31.579 5.54471 31.579Z" fill="#6E9419"/>
<path d="M29.6618 3.55043C29.8491 3.55043 30.0358 3.73729 30.0358 3.92414C30.0358 4.111 29.8491 4.29785 29.6618 4.29785C29.475 4.29785 29.2877 4.111 29.2877 3.92414C29.2877 3.73729 29.475 3.55043 29.6618 3.55043ZM29.6618 5.85498C30.7216 5.85498 31.5942 4.98299 31.5942 3.92414C31.5942 2.8653 30.7216 1.99331 29.6618 1.99331C28.6025 1.99331 27.73 2.8653 27.73 3.92414C27.73 4.98299 28.6025 5.85498 29.6618 5.85498Z" fill="#6E9419"/>
<path d="M6.72698 1.99341C7.16315 1.99341 7.53709 2.36713 7.53709 2.80312C7.53709 3.23912 7.16315 3.61283 6.72698 3.61283C6.29082 3.61283 5.91625 3.17683 5.91625 2.74084C5.91625 2.30484 6.29082 1.99341 6.72698 1.99341ZM6.72698 5.10767C8.03548 5.10767 9.09508 4.04882 9.09508 2.74084C9.09508 1.43285 8.03548 0.374004 6.72698 0.374004C5.41849 0.374004 4.35889 1.43285 4.35889 2.74084C4.35889 4.04882 5.41849 5.10767 6.72698 5.10767Z" fill="#6E9419"/>
<path d="M26.1716 31.5163C26.6196 31.5163 26.9826 31.8788 26.9826 32.326C26.9826 32.7732 26.6196 33.1357 26.1716 33.1357C25.7243 33.1357 25.3613 32.7732 25.3613 32.326C25.3613 31.8788 25.7243 31.5163 26.1716 31.5163Z" fill="#6E9419"/>
<path d="M9.84448 31.5163C10.2918 31.5163 10.6548 31.8788 10.6548 32.326C10.6548 32.7732 10.2918 33.1357 9.84448 33.1357C9.39712 33.1357 9.03418 32.7732 9.03418 32.326C9.03418 31.8788 9.39712 31.5163 9.84448 31.5163Z" fill="#6E9419"/>
<path d="M24.6134 0.373509C25.0614 0.373509 25.4243 0.736008 25.4243 1.18321C25.4243 1.63042 25.0614 1.99292 24.6134 1.99292C24.1666 1.99292 23.8037 1.63042 23.8037 1.18321C23.8037 0.736008 24.1666 0.373509 24.6134 0.373509Z" fill="#6E9419"/>
<path d="M12.1498 1.93039C12.5971 1.93039 12.9601 2.29289 12.9601 2.7401C12.9601 3.18731 12.5971 3.5498 12.1498 3.5498C11.7018 3.5498 11.3389 3.18731 11.3389 2.7401C11.3389 2.29289 11.7018 1.93039 12.1498 1.93039Z" fill="#6E9419"/>
<path d="M2.05395 3.48826C2.50194 3.48826 2.86426 3.85075 2.86426 4.29796C2.86426 4.74517 2.50194 5.10767 2.05395 5.10767C1.60597 5.10767 1.24365 4.74517 1.24365 4.29796C1.24365 3.85075 1.60597 3.48826 2.05395 3.48826Z" fill="#6E9419"/>
<path d="M33.962 3.48826C34.41 3.48826 34.7723 3.85075 34.7723 4.29796C34.7723 4.74517 34.41 5.10767 33.962 5.10767C33.5147 5.10767 33.1523 4.74517 33.1523 4.29796C33.1523 3.85075 33.5147 3.48826 33.962 3.48826Z" fill="#6E9419"/>
<path d="M23.8655 19.1211H24.6134V22.2354H23.8039V19.1211H23.8655ZM26.1714 17.564H26.9821V22.2354H26.1714C26.1714 20.4291 26.1714 19.2457 26.1714 17.564ZM28.5395 16.0069H29.3502V22.2354H28.5395C28.5395 21.3011 28.5395 16.692 28.5395 16.0069ZM23.056 23.7925C23.9284 23.7925 29.2874 23.7925 30.0975 23.7925C30.5337 23.7925 30.9082 23.4188 30.9082 22.9828V15.1971C30.9082 14.7612 30.5337 14.3874 30.0975 14.3874H27.73C27.2939 14.3874 26.9193 14.7612 26.9193 15.1971V16.0069H25.3613C24.9251 16.0069 24.5518 16.3806 24.5518 16.8166V17.6263H22.9932C22.557 17.6263 22.1831 18 22.1831 18.436V23.1073C22.3082 23.4188 22.6193 23.7925 23.056 23.7925Z" fill="#6E9419"/>
</svg>
