<svg width="32" height="32" viewBox="0 0 32 32" fill="none" xmlns="http://www.w3.org/2000/svg">
<path d="M15.9707 25.4373C10.7439 25.4373 6.50464 21.1977 6.50464 15.9708C6.50464 10.744 10.7439 6.5044 15.9707 6.5044C21.1974 6.5044 25.4373 10.744 25.4373 15.9708C25.4373 21.1977 21.1974 25.4373 15.9707 25.4373ZM30.49 15.2739H26.8312C26.4827 9.87282 22.1269 5.51711 16.6676 5.11057V1.45177C16.6676 1.04524 16.3191 0.696781 15.9127 0.696781C15.5062 0.696781 15.1577 1.04524 15.1577 1.45177V5.11057C9.75699 5.45903 5.40061 9.81475 4.99414 15.2739H1.45183C1.04479 15.2739 0.696289 15.6224 0.696289 16.0289C0.696289 16.4354 1.04479 16.7839 1.45183 16.7839H5.11067C5.45859 22.185 9.81441 26.5407 15.2737 26.9472V30.4899C15.2737 30.8964 15.6227 31.2449 16.0292 31.2449C16.4357 31.2449 16.7842 30.8964 16.7842 30.4899V26.8311C22.1849 26.4826 26.5407 22.1269 26.9472 16.6677H30.49C30.8965 16.6677 31.245 16.3193 31.245 15.9128C31.245 15.5643 30.8965 15.2739 30.49 15.2739Z" fill="url(#paint0_linear_600_10249)"/>
<path d="M28.9806 17.4235C28.5741 17.3654 28.2256 17.5977 28.167 18.0043C27.2967 23.1731 23.2308 27.2384 18.062 28.1095C17.6556 28.1676 17.4231 28.5742 17.4816 28.9226C17.539 29.3291 17.9455 29.5615 18.2945 29.5034C24.1017 28.5161 28.6321 23.9861 29.619 18.1785C29.619 17.8881 29.3871 17.4816 28.9806 17.4235Z" fill="url(#paint1_linear_600_10249)"/>
<path d="M3.0782 14.5192C3.42669 14.5192 3.71662 14.2869 3.77518 13.9384C4.64612 8.76962 8.71144 4.70428 13.8802 3.83314C14.2867 3.77506 14.5198 3.36853 14.4612 3.02007C14.4032 2.61354 13.9968 2.38124 13.6483 2.43931C7.84051 3.42661 3.31015 7.95655 2.32324 13.7642C2.32324 14.1126 2.61316 14.5192 3.0782 14.5192Z" fill="url(#paint2_linear_600_10249)"/>
<path d="M13.9386 28.1678C8.76984 27.2967 4.70395 23.2313 3.83302 18.0625C3.77504 17.656 3.36854 17.4237 3.01948 17.4818C2.613 17.5399 2.38108 17.9464 2.43964 18.2948C3.42655 24.1025 7.95632 28.6324 13.7641 29.6197C14.1705 29.6778 14.5196 29.4455 14.577 29.0389C14.577 28.5743 14.2865 28.2259 13.9386 28.1678Z" fill="url(#paint3_linear_600_10249)"/>
<path d="M18.0032 3.77589C23.172 4.64703 27.2373 8.71237 28.1088 13.8812C28.1662 14.2296 28.4568 14.4619 28.8053 14.4619C29.2703 14.4619 29.6182 14.0554 29.5022 13.5908C28.5153 7.78315 23.985 3.2532 18.1778 2.26591C17.7707 2.20783 17.4222 2.44014 17.3643 2.84667C17.3643 3.36936 17.6548 3.71781 18.0032 3.77589Z" fill="url(#paint4_linear_600_10249)"/>
<path d="M16.203 17.4228V16.6097C16.3769 16.6678 16.4935 16.7259 16.6095 16.784C16.7254 16.842 16.784 16.9582 16.784 17.0744C16.7254 17.3067 16.5515 17.4228 16.203 17.4228ZM15.8545 15.274C15.68 15.2159 15.564 15.1578 15.506 15.0998C15.448 15.0417 15.3895 14.9255 15.3895 14.8094C15.3895 14.5771 15.564 14.4609 15.8545 14.4028V15.274ZM17.0739 15.6805C16.6095 15.5063 16.261 15.4482 16.203 15.3901V14.4609C16.6675 14.519 17.2485 14.8094 17.3065 14.9255L17.8289 13.9963C17.6549 13.8802 17.4224 13.764 17.1319 13.6479C16.842 13.5317 16.6095 13.4736 16.261 13.4736V12.7767H15.7965V13.4736C15.1575 13.5317 14.5765 13.8221 14.3446 14.4028C14.286 14.5771 14.2286 14.8094 14.2286 15.0417C14.2286 15.3901 14.286 15.6805 14.5765 15.9128C14.8096 16.1451 15.2161 16.3194 15.564 16.4355L15.9125 16.5517V17.4809C15.448 17.4228 14.983 17.1905 14.6925 17.0163C14.6351 16.9582 14.5765 16.9001 14.5191 16.9001L13.9961 17.8874C14.5191 18.2359 15.1575 18.4101 15.7965 18.4682V19.2812H16.261V18.4682C16.4935 18.4682 16.6675 18.4101 16.9 18.352C17.3064 18.2359 17.597 18.0036 17.8289 17.6551C18.0034 17.3067 18.0034 16.7259 17.8875 16.3774C17.7709 16.2032 17.5384 15.8548 17.0739 15.6805Z" fill="url(#paint5_linear_600_10249)"/>
<path d="M15.9707 20.095C13.7059 20.095 11.8474 18.2365 11.8474 15.9716C11.8474 13.7066 13.7059 11.8481 15.9707 11.8481C18.2356 11.8481 20.0946 13.7066 20.0946 15.9716C20.0946 18.2365 18.2356 20.095 15.9707 20.095ZM21.5466 15.9716C21.5466 12.8935 19.0486 10.3962 15.9707 10.3962C12.8929 10.3962 10.3955 12.8935 10.3955 15.9716C10.3955 19.0496 12.8929 21.5469 15.9707 21.5469C19.0486 21.5469 21.5466 19.0496 21.5466 15.9716Z" fill="url(#paint6_linear_600_10249)"/>
<path d="M3.65905 29.0387C3.25257 29.0387 2.90353 28.6903 2.90353 28.2837C2.90353 27.8772 3.25257 27.5287 3.65905 27.5287C4.06552 27.5287 4.414 27.8772 4.414 28.2837C4.35602 28.6903 4.00696 29.0387 3.65905 29.0387ZM3.65905 26.1349C2.43962 26.1349 1.45215 27.1222 1.45215 28.3418C1.45215 29.5614 2.43962 30.5487 3.65905 30.5487C4.87847 30.5487 5.86538 29.5614 5.86538 28.3418C5.86538 27.1222 4.82048 26.1349 3.65905 26.1349Z" fill="url(#paint7_linear_600_10249)"/>
<path d="M28.6892 2.20665C29.2702 2.20665 29.7926 2.67126 29.7926 3.3101C29.7926 3.94893 29.2702 4.35547 28.6892 4.35547C28.1088 4.35547 27.5857 3.89086 27.5857 3.25202C27.5857 2.61318 28.0502 2.20665 28.6892 2.20665ZM28.6892 5.80737C30.0831 5.80737 31.2446 4.64585 31.2446 3.25202C31.2446 1.85819 30.0831 0.696665 28.6892 0.696665C27.2958 0.696665 26.1338 1.85819 26.1338 3.25202C26.1338 4.64585 27.2958 5.80737 28.6892 5.80737Z" fill="url(#paint8_linear_600_10249)"/>
<path d="M2.20634 2.90356C2.61281 2.90356 2.96185 3.25202 2.96185 3.65855C2.96185 4.06509 2.61281 4.41354 2.20634 4.41354C1.79986 4.41354 1.45194 4.00701 1.45194 3.65855C1.45194 3.25202 1.79986 2.90356 2.20634 2.90356ZM2.20634 5.80737C3.42633 5.80737 4.41379 4.82008 4.41379 3.60048C4.41379 2.38088 3.36835 1.45166 2.20634 1.45166C1.0449 1.45166 0 2.43895 0 3.65855C0 4.87815 0.986915 5.80737 2.20634 5.80737Z" fill="url(#paint9_linear_600_10249)"/>
<path d="M28.3409 24.6828C28.7577 24.6828 29.0959 25.0208 29.0959 25.4378C29.0959 25.8547 28.7577 26.1927 28.3409 26.1927C27.9241 26.1927 27.5859 25.8547 27.5859 25.4378C27.5859 25.0208 27.9241 24.6828 28.3409 24.6828Z" fill="url(#paint10_linear_600_10249)"/>
<path d="M23.9855 30.49C24.4023 30.49 24.7404 30.828 24.7404 31.245C24.7404 31.662 24.4023 32 23.9855 32C23.5686 32 23.2305 31.662 23.2305 31.245C23.2305 30.828 23.5686 30.49 23.9855 30.49Z" fill="url(#paint11_linear_600_10249)"/>
<path d="M10.1637 29.7349C10.58 29.7349 10.9181 30.0729 10.9181 30.4899C10.9181 30.9069 10.58 31.2449 10.1637 31.2449C9.74637 31.2449 9.4082 30.9069 9.4082 30.4899C9.4082 30.0729 9.74637 29.7349 10.1637 29.7349Z" fill="url(#paint12_linear_600_10249)"/>
<path d="M1.45183 22.4762C1.86807 22.4762 2.20623 22.8142 2.20623 23.2312C2.20623 23.6482 1.86807 23.9862 1.45183 23.9862C1.03445 23.9862 0.696289 23.6482 0.696289 23.2312C0.696289 22.8142 1.03445 22.4762 1.45183 22.4762Z" fill="url(#paint13_linear_600_10249)"/>
<path d="M31.2442 8.71231C31.661 8.71231 31.9992 9.05031 31.9992 9.4673C31.9992 9.88429 31.661 10.2223 31.2442 10.2223C30.8274 10.2223 30.4893 9.88429 30.4893 9.4673C30.4893 9.05031 30.8274 8.71231 31.2442 8.71231Z" fill="url(#paint14_linear_600_10249)"/>
<path d="M23.9855 0.696683C24.4023 0.696683 24.7404 1.03469 24.7404 1.45167C24.7404 1.86866 24.4023 2.20667 23.9855 2.20667C23.5686 2.20667 23.2305 1.86866 23.2305 1.45167C23.2305 1.03469 23.5686 0.696683 23.9855 0.696683Z" fill="url(#paint15_linear_600_10249)"/>
<path d="M8.01433 0.000516295C8.43114 0.000516295 8.76929 0.33852 8.76929 0.755507C8.76929 1.17249 8.43114 1.5105 8.01433 1.5105C7.59695 1.5105 7.25879 1.17249 7.25879 0.755507C7.25879 0.33852 7.59695 0.000516295 8.01433 0.000516295Z" fill="url(#paint16_linear_600_10249)"/>
<path d="M0.754957 7.95706C1.17176 7.95706 1.50935 8.29506 1.50935 8.71205C1.50935 9.12904 1.17176 9.46704 0.754957 9.46704C0.337574 9.46704 0 9.12904 0 8.71205C0 8.29506 0.337574 7.95706 0.754957 7.95706Z" fill="url(#paint17_linear_600_10249)"/>
<path d="M29.793 29.0387C30.2104 29.0387 30.5486 29.3767 30.5486 29.7937C30.5486 30.2107 30.2104 30.5487 29.793 30.5487C29.3762 30.5487 29.0381 30.2107 29.0381 29.7937C29.0381 29.3767 29.3762 29.0387 29.793 29.0387Z" fill="url(#paint18_linear_600_10249)"/>
<path d="M21.7782 9.46624H20.3263C19.9198 9.46624 19.5713 9.8147 19.5713 10.2212C19.5713 10.6278 19.9198 10.9762 20.3263 10.9762H21.0812V11.7312C21.0812 12.1377 21.4297 12.4862 21.8367 12.4862C22.2432 12.4862 22.5911 12.1377 22.5911 11.7312V10.1632C22.5337 9.75662 22.1847 9.46624 21.7782 9.46624Z" fill="url(#paint19_linear_600_10249)"/>
<path d="M10.1637 12.3699C10.5702 12.3699 10.9181 12.0214 10.9181 11.6149V10.8599H11.6737C12.0801 10.8599 12.4286 10.5114 12.4286 10.1049C12.4286 9.69837 12.0801 9.34991 11.6737 9.34991H10.1637C9.75727 9.34991 9.4082 9.69837 9.4082 10.1049V11.5568C9.46676 12.0214 9.75727 12.3699 10.1637 12.3699Z" fill="url(#paint20_linear_600_10249)"/>
<path d="M11.6145 21.0812H10.8601V20.3262C10.8601 19.9197 10.5111 19.5712 10.1046 19.5712C9.69812 19.5712 9.34961 19.9197 9.34961 20.3262V21.7781C9.34961 22.1846 9.69812 22.5331 10.1046 22.5331H11.5565C11.963 22.5331 12.3115 22.1846 12.3115 21.7781C12.3115 21.3716 12.021 21.0812 11.6145 21.0812Z" fill="url(#paint21_linear_600_10249)"/>
<path d="M21.7785 19.5721C21.3721 19.5721 21.0236 19.9205 21.0236 20.3271V21.0821H20.2686C19.8622 21.0821 19.5137 21.4305 19.5137 21.8371C19.5137 22.2436 19.8622 22.592 20.2686 22.592H21.7785C22.185 22.592 22.5341 22.2436 22.5341 21.8371V20.3851C22.5341 19.9205 22.185 19.5721 21.7785 19.5721Z" fill="url(#paint22_linear_600_10249)"/>
<defs>
<linearGradient id="paint0_linear_600_10249" x1="0.696289" y1="15.9708" x2="31.245" y2="15.9708" gradientUnits="userSpaceOnUse">
<stop stop-color="#2E0797"/>
<stop offset="1" stop-color="#726EFC"/>
</linearGradient>
<linearGradient id="paint1_linear_600_10249" x1="17.4727" y1="23.4634" x2="29.619" y2="23.4634" gradientUnits="userSpaceOnUse">
<stop stop-color="#2E0797"/>
<stop offset="1" stop-color="#726EFC"/>
</linearGradient>
<linearGradient id="paint2_linear_600_10249" x1="2.32324" y1="8.47482" x2="14.4701" y2="8.47482" gradientUnits="userSpaceOnUse">
<stop stop-color="#2E0797"/>
<stop offset="1" stop-color="#726EFC"/>
</linearGradient>
<linearGradient id="paint3_linear_600_10249" x1="2.43066" y1="23.5507" x2="14.577" y2="23.5507" gradientUnits="userSpaceOnUse">
<stop stop-color="#2E0797"/>
<stop offset="1" stop-color="#726EFC"/>
</linearGradient>
<linearGradient id="paint4_linear_600_10249" x1="17.3643" y1="8.3595" x2="29.5247" y2="8.3595" gradientUnits="userSpaceOnUse">
<stop stop-color="#2E0797"/>
<stop offset="1" stop-color="#726EFC"/>
</linearGradient>
<linearGradient id="paint5_linear_600_10249" x1="13.9961" y1="16.029" x2="17.9682" y2="16.029" gradientUnits="userSpaceOnUse">
<stop stop-color="#2E0797"/>
<stop offset="1" stop-color="#726EFC"/>
</linearGradient>
<linearGradient id="paint6_linear_600_10249" x1="10.3955" y1="15.9716" x2="21.5466" y2="15.9716" gradientUnits="userSpaceOnUse">
<stop stop-color="#2E0797"/>
<stop offset="1" stop-color="#726EFC"/>
</linearGradient>
<linearGradient id="paint7_linear_600_10249" x1="1.45215" y1="28.3418" x2="5.86538" y2="28.3418" gradientUnits="userSpaceOnUse">
<stop stop-color="#2E0797"/>
<stop offset="1" stop-color="#726EFC"/>
</linearGradient>
<linearGradient id="paint8_linear_600_10249" x1="26.1338" y1="3.25202" x2="31.2446" y2="3.25202" gradientUnits="userSpaceOnUse">
<stop stop-color="#2E0797"/>
<stop offset="1" stop-color="#726EFC"/>
</linearGradient>
<linearGradient id="paint9_linear_600_10249" x1="0" y1="3.62951" x2="4.41379" y2="3.62951" gradientUnits="userSpaceOnUse">
<stop stop-color="#2E0797"/>
<stop offset="1" stop-color="#726EFC"/>
</linearGradient>
<linearGradient id="paint10_linear_600_10249" x1="27.5859" y1="25.4378" x2="29.0959" y2="25.4378" gradientUnits="userSpaceOnUse">
<stop stop-color="#2E0797"/>
<stop offset="1" stop-color="#726EFC"/>
</linearGradient>
<linearGradient id="paint11_linear_600_10249" x1="23.2305" y1="31.245" x2="24.7404" y2="31.245" gradientUnits="userSpaceOnUse">
<stop stop-color="#2E0797"/>
<stop offset="1" stop-color="#726EFC"/>
</linearGradient>
<linearGradient id="paint12_linear_600_10249" x1="9.4082" y1="30.4899" x2="10.9181" y2="30.4899" gradientUnits="userSpaceOnUse">
<stop stop-color="#2E0797"/>
<stop offset="1" stop-color="#726EFC"/>
</linearGradient>
<linearGradient id="paint13_linear_600_10249" x1="0.696289" y1="23.2312" x2="2.20623" y2="23.2312" gradientUnits="userSpaceOnUse">
<stop stop-color="#2E0797"/>
<stop offset="1" stop-color="#726EFC"/>
</linearGradient>
<linearGradient id="paint14_linear_600_10249" x1="30.4893" y1="9.4673" x2="31.9992" y2="9.4673" gradientUnits="userSpaceOnUse">
<stop stop-color="#2E0797"/>
<stop offset="1" stop-color="#726EFC"/>
</linearGradient>
<linearGradient id="paint15_linear_600_10249" x1="23.2305" y1="1.45167" x2="24.7404" y2="1.45167" gradientUnits="userSpaceOnUse">
<stop stop-color="#2E0797"/>
<stop offset="1" stop-color="#726EFC"/>
</linearGradient>
<linearGradient id="paint16_linear_600_10249" x1="7.25879" y1="0.755507" x2="8.76929" y2="0.755507" gradientUnits="userSpaceOnUse">
<stop stop-color="#2E0797"/>
<stop offset="1" stop-color="#726EFC"/>
</linearGradient>
<linearGradient id="paint17_linear_600_10249" x1="0" y1="8.71205" x2="1.50935" y2="8.71205" gradientUnits="userSpaceOnUse">
<stop stop-color="#2E0797"/>
<stop offset="1" stop-color="#726EFC"/>
</linearGradient>
<linearGradient id="paint18_linear_600_10249" x1="29.0381" y1="29.7937" x2="30.5486" y2="29.7937" gradientUnits="userSpaceOnUse">
<stop stop-color="#2E0797"/>
<stop offset="1" stop-color="#726EFC"/>
</linearGradient>
<linearGradient id="paint19_linear_600_10249" x1="19.5713" y1="10.9762" x2="22.5911" y2="10.9762" gradientUnits="userSpaceOnUse">
<stop stop-color="#2E0797"/>
<stop offset="1" stop-color="#726EFC"/>
</linearGradient>
<linearGradient id="paint20_linear_600_10249" x1="9.4082" y1="10.8599" x2="12.4286" y2="10.8599" gradientUnits="userSpaceOnUse">
<stop stop-color="#2E0797"/>
<stop offset="1" stop-color="#726EFC"/>
</linearGradient>
<linearGradient id="paint21_linear_600_10249" x1="9.34961" y1="21.0521" x2="12.3115" y2="21.0521" gradientUnits="userSpaceOnUse">
<stop stop-color="#2E0797"/>
<stop offset="1" stop-color="#726EFC"/>
</linearGradient>
<linearGradient id="paint22_linear_600_10249" x1="19.5137" y1="21.0821" x2="22.5341" y2="21.0821" gradientUnits="userSpaceOnUse">
<stop stop-color="#2E0797"/>
<stop offset="1" stop-color="#726EFC"/>
</linearGradient>
</defs>
</svg>
