<svg width="37" height="34" viewBox="0 0 37 34" fill="none" xmlns="http://www.w3.org/2000/svg">
<path d="M35.4533 27.8593C35.4533 28.5703 34.8745 29.1521 34.1666 29.1521C32.3652 29.1521 4.76154 29.1521 2.89557 29.1521C2.18775 29.1521 1.60855 28.5703 1.60855 27.8593V6.20532C1.60855 5.4943 2.18775 4.91255 2.89557 4.91255H22.3917L21.5552 5.75285H3.28173C2.83101 5.75285 2.44492 6.14068 2.44492 6.59315V25.2091C2.44492 25.6616 2.83101 26.0494 3.28173 26.0494H33.8447C34.295 26.0494 34.6811 25.6616 34.6811 25.2091V6.52852C34.6811 6.07604 34.295 5.68821 33.8447 5.68821H30.9493V4.84791H34.1666C34.8745 4.84791 35.4533 5.42966 35.4533 6.14068V27.8593ZM24.9652 31.6084C24.9652 32.0608 24.5791 32.4487 24.1288 32.4487H12.9333C12.4826 32.4487 12.0965 32.0608 12.0965 31.6084C12.0965 31.1559 12.4826 30.7681 12.9333 30.7681H24.193C24.5791 30.7681 24.9652 31.1559 24.9652 31.6084ZM29.2765 1.55133L29.3407 5.62357C29.0189 5.30038 25.7374 2.0038 25.2871 1.55133H29.2765ZM25.4798 4.13688L26.8957 5.55893L16.2145 16.289L13.3835 13.4449C13.0618 13.1217 12.5472 13.1217 12.2254 13.4449L9.00805 16.6768L7.59255 15.3194L12.8044 10.0836L15.6356 12.9278C15.9573 13.2509 16.4719 13.2509 16.7936 12.9278L25.4798 4.13688ZM21.748 20.2966C21.748 18.0989 23.55 16.2243 25.8016 16.2243C28.0539 16.2243 29.8553 18.0342 29.8553 20.2966C29.8553 22.5589 28.0539 24.3688 25.8016 24.3688C23.55 24.3688 21.748 22.4943 21.748 20.2966ZM33.0083 10.6008H28.9546C28.5043 10.6008 28.1182 10.9886 28.1182 11.4411C28.1182 11.8935 28.5043 12.2814 28.9546 12.2814H33.0083V24.4335H29.7268C30.7566 23.3992 31.4003 21.9772 31.4003 20.3612C31.4003 17.2586 28.8904 14.673 25.7374 14.673C22.585 14.673 20.0754 17.1939 20.0754 20.3612C20.0754 21.9125 20.7188 23.3992 21.748 24.4335H4.05372V22.6882H15.3138C15.7643 22.6882 16.1501 22.3004 16.1501 21.8479C16.1501 21.3954 15.7643 21.0076 15.3138 21.0076H4.05372V7.36882H20.0111L16.2145 11.1825L13.3835 8.3384C13.0618 8.01521 12.5472 8.01521 12.2254 8.3384L5.85557 14.7376C5.53353 15.0608 5.53353 15.5779 5.85557 15.9011L8.36454 18.4221C8.68633 18.7452 9.20135 18.7452 9.52289 18.4221L12.74 15.1901L15.5713 18.0342C15.893 18.3574 16.4076 18.3574 16.7296 18.0342L27.9897 6.72243L29.5334 8.27376C29.791 8.53232 30.1129 8.59696 30.4347 8.46768C30.7566 8.3384 30.9493 8.01521 30.9493 7.69201V7.36882H33.0083V10.6008ZM34.1666 3.29658H30.9493V0.775665C30.9493 0.323193 30.5632 0 30.1129 0L23.4215 0.0646362C23.0996 0.0646362 22.7778 0.258553 22.7135 0.581749C22.585 0.904942 22.6493 1.22813 22.9063 1.48669L24.4506 3.03802L24.0645 3.29658H2.89538C1.28683 3.29658 0 4.58935 0 6.20532V27.8593C0 29.4753 1.28683 30.7681 2.89538 30.7681H10.6166C10.0377 32.3194 11.2601 34 12.8689 34H24.1288C25.8016 34 26.9599 32.3194 26.3811 30.7681H34.1023C35.7109 30.7681 36.9977 29.4753 36.9977 27.8593V6.20532C37.0619 4.58935 35.7752 3.29658 34.1666 3.29658Z" fill="#0C3A30"/>
</svg>
