<svg width="37" height="37" viewBox="0 0 37 37" fill="none" xmlns="http://www.w3.org/2000/svg">
<path d="M33.961 9.77901C30.471 9.77901 6.29162 9.77901 2.80169 9.77901C2.36553 9.77901 1.99096 9.40529 1.99096 8.9693C1.99096 8.5333 2.36553 8.15959 2.80169 8.15959C3.73624 8.15959 33.3375 8.15959 33.961 8.15959C34.3971 8.15959 34.7711 8.5333 34.7711 8.9693C34.7711 9.40529 34.3971 9.77901 33.961 9.77901ZM32.4036 25.3503H19.1911C18.755 25.3503 18.3816 25.724 18.3816 26.16C18.3816 26.596 18.755 26.9697 19.1911 26.9697H32.3407C32.0918 27.8417 31.2811 28.5268 30.3466 28.5268H6.41606C5.48089 28.5268 4.6714 27.8417 4.4219 26.9697H6.66495C7.10111 26.9697 7.47568 26.596 7.47568 26.16C7.47568 25.724 7.10111 25.3503 6.66495 25.3503H4.29745V11.3361H32.3407V25.3503H32.4036ZM17.6337 3.9865V6.60247H12.3363L17.6337 3.9865ZM24.4257 6.66475H19.1295V3.9865L24.4257 6.66475ZM33.961 6.66475H27.9157L19.1911 2.3048V1.24596C19.1911 0.809963 18.8178 0.436253 18.3816 0.436253C17.9448 0.436253 17.5709 0.809963 17.5709 1.24596V2.3048L8.8464 6.66475H2.80169C1.4932 6.66475 0.433594 7.7236 0.433594 9.03158C0.433594 10.3396 1.4932 11.3984 2.80169 11.3984V26.4714C2.80169 28.4645 4.4219 30.0839 6.41606 30.0839H15.1406L12.5858 35.1913C12.3985 35.565 12.523 36.0633 12.9598 36.2501C13.3337 36.437 13.8321 36.3124 14.0194 35.8764L16.9481 30.0839H17.6337V33.8833C17.6337 34.3193 18.0071 34.693 18.4432 34.693C18.8794 34.693 19.254 34.3193 19.254 33.8833V29.9594H19.939L22.8683 35.7519C22.9928 36.001 23.3045 36.1879 23.5534 36.1879C24.1152 36.1879 24.4885 35.565 24.2396 35.0667L21.6843 29.9594H30.4088C32.4036 29.9594 34.0238 28.3399 34.0238 26.3468V11.3361C35.3323 11.3361 36.3913 10.2773 36.3913 8.9693C36.3913 7.66131 35.2701 6.66475 33.961 6.66475Z" fill="#F4D445"/>
<path d="M10.1557 15.2597L11.527 19.1214L7.72539 17.6888C8.28661 16.6922 9.15893 15.8202 10.1557 15.2597ZM13.0228 15.758C15.702 15.758 17.8212 17.8757 17.8212 20.4916C17.8212 23.1699 15.6404 25.2876 13.0228 25.2876C11.8388 25.2876 10.7175 24.8516 9.8446 24.0419L10.5303 23.419C11.2153 23.9796 12.0876 24.3533 13.0228 24.3533C15.1414 24.3533 16.9489 22.6093 16.9489 20.4293C16.9489 19.9933 16.5749 19.6196 16.1382 19.6196C15.702 19.6196 15.3287 19.9933 15.3287 20.4293C15.3287 21.7373 14.2691 22.7962 12.9606 22.7962C12.4622 22.7962 12.026 22.6716 11.6515 22.4225C12.026 22.111 13.2717 20.9899 13.3345 20.9899C13.5834 20.7408 13.6456 20.4293 13.5212 20.1802L11.9632 15.8202C12.3371 15.758 12.6489 15.758 13.0228 15.758ZM10.842 21.1768C10.7791 20.9276 10.7175 20.6785 10.7175 20.4916L11.3398 20.7408L10.842 21.1768ZM9.22115 19.9311C9.09671 20.8031 9.22114 21.6128 9.59508 22.2979L8.90943 22.9207C8.34882 21.8619 8.16153 20.7408 8.34881 19.6196L9.22115 19.9311ZM6.41688 18.8722L6.85305 19.0591C5.91789 23.2322 9.03449 26.907 13.0228 26.907C16.5127 26.907 19.3792 24.0419 19.3792 20.5539C19.3792 17.0659 16.5127 14.2631 13.0228 14.2631C12.4622 14.2631 11.9632 14.3254 11.4642 14.45L11.3398 13.9517C11.2153 13.5157 10.7175 13.3288 10.343 13.5157C8.34882 14.2631 6.7286 15.8825 5.98071 17.8757C5.79344 18.2494 6.04294 18.6854 6.41688 18.8722Z" fill="#F4D445"/>
<path d="M30.4715 33.1352C30.2848 33.1352 30.0974 32.9483 30.0974 32.7615C30.0974 32.5746 30.2848 32.3877 30.4715 32.3877C30.6588 32.3877 30.8455 32.5746 30.8455 32.7615C30.8455 32.9483 30.6588 33.1352 30.4715 33.1352ZM30.4715 30.7683C29.4122 30.7683 28.5391 31.6403 28.5391 32.6992C28.5391 33.758 29.4122 34.63 30.4715 34.63C31.5314 34.63 32.4045 33.758 32.4045 32.6992C32.4045 31.6403 31.5314 30.7683 30.4715 30.7683Z" fill="#F4D445"/>
<path d="M5.54471 33.8835C5.35739 33.8835 5.17069 33.6967 5.17069 33.5098C5.17069 33.323 5.35739 33.1361 5.54471 33.1361C5.73204 33.1361 5.91814 33.2607 5.91814 33.5098C5.91814 33.6967 5.73204 33.8835 5.54471 33.8835ZM5.54471 31.579C4.48484 31.579 3.6123 32.451 3.6123 33.5098C3.6123 34.5687 4.48484 35.4407 5.54471 35.4407C6.60458 35.4407 7.47715 34.5687 7.47715 33.5098C7.47715 32.451 6.60458 31.579 5.54471 31.579Z" fill="#F4D445"/>
<path d="M29.6622 3.55031C29.8496 3.55031 30.0363 3.73717 30.0363 3.92402C30.0363 4.11088 29.8496 4.29773 29.6622 4.29773C29.4755 4.29773 29.2882 4.11088 29.2882 3.92402C29.2882 3.73717 29.4755 3.55031 29.6622 3.55031ZM29.6622 5.85486C30.7221 5.85486 31.5947 4.98287 31.5947 3.92402C31.5947 2.86518 30.7221 1.99319 29.6622 1.99319C28.603 1.99319 27.7305 2.86518 27.7305 3.92402C27.7305 4.98287 28.603 5.85486 29.6622 5.85486Z" fill="#F4D445"/>
<path d="M6.7265 1.99329C7.16266 1.99329 7.5366 2.367 7.5366 2.803C7.5366 3.23899 7.16266 3.6127 6.7265 3.6127C6.29033 3.6127 5.91576 3.17671 5.91576 2.74071C5.91576 2.30472 6.29033 1.99329 6.7265 1.99329ZM6.7265 5.10754C8.03499 5.10754 9.09459 4.0487 9.09459 2.74071C9.09459 1.43273 8.03499 0.373882 6.7265 0.373882C5.418 0.373882 4.3584 1.43273 4.3584 2.74071C4.3584 4.0487 5.418 5.10754 6.7265 5.10754Z" fill="#F4D445"/>
<path d="M26.1716 31.5162C26.6196 31.5162 26.9826 31.8787 26.9826 32.3259C26.9826 32.7731 26.6196 33.1356 26.1716 33.1356C25.7243 33.1356 25.3613 32.7731 25.3613 32.3259C25.3613 31.8787 25.7243 31.5162 26.1716 31.5162Z" fill="#F4D445"/>
<path d="M9.84448 31.5162C10.2918 31.5162 10.6548 31.8787 10.6548 32.3259C10.6548 32.7731 10.2918 33.1356 9.84448 33.1356C9.39712 33.1356 9.03418 32.7731 9.03418 32.3259C9.03418 31.8787 9.39712 31.5162 9.84448 31.5162Z" fill="#F4D445"/>
<path d="M24.6134 0.373387C25.0614 0.373387 25.4243 0.735886 25.4243 1.18309C25.4243 1.6303 25.0614 1.9928 24.6134 1.9928C24.1666 1.9928 23.8037 1.6303 23.8037 1.18309C23.8037 0.735886 24.1666 0.373387 24.6134 0.373387Z" fill="#F4D445"/>
<path d="M12.1498 1.93027C12.5971 1.93027 12.9601 2.29277 12.9601 2.73998C12.9601 3.18718 12.5971 3.54968 12.1498 3.54968C11.7018 3.54968 11.3389 3.18718 11.3389 2.73998C11.3389 2.29277 11.7018 1.93027 12.1498 1.93027Z" fill="#F4D445"/>
<path d="M2.05444 3.48813C2.50242 3.48813 2.86475 3.85063 2.86475 4.29784C2.86475 4.74505 2.50242 5.10754 2.05444 5.10754C1.60646 5.10754 1.24414 4.74505 1.24414 4.29784C1.24414 3.85063 1.60646 3.48813 2.05444 3.48813Z" fill="#F4D445"/>
<path d="M33.962 3.48813C34.41 3.48813 34.7723 3.85063 34.7723 4.29784C34.7723 4.74505 34.41 5.10754 33.962 5.10754C33.5147 5.10754 33.1523 4.74505 33.1523 4.29784C33.1523 3.85063 33.5147 3.48813 33.962 3.48813Z" fill="#F4D445"/>
<path d="M23.8651 19.1209H24.6129V22.2351H23.8035V19.1209H23.8651ZM26.1709 17.5637H26.9817V22.2351H26.1709C26.1709 20.4288 26.1709 19.2454 26.1709 17.5637ZM28.539 16.0066H29.3498V22.2351H28.539C28.539 21.3008 28.539 16.6917 28.539 16.0066ZM23.0556 23.7922C23.9279 23.7922 29.2869 23.7922 30.097 23.7922C30.5332 23.7922 30.9077 23.4185 30.9077 22.9825V15.1969C30.9077 14.7609 30.5332 14.3872 30.097 14.3872H27.7295C27.2934 14.3872 26.9188 14.7609 26.9188 15.1969V16.0066H25.3608C24.9247 16.0066 24.5513 16.3803 24.5513 16.8163V17.626H22.9927C22.5566 17.626 22.1826 17.9997 22.1826 18.4357V23.1071C22.3077 23.4185 22.6188 23.7922 23.0556 23.7922Z" fill="#F4D445"/>
</svg>
