<svg width="37" height="37" viewBox="0 0 37 37" fill="none" xmlns="http://www.w3.org/2000/svg">
<path d="M33.961 9.77901C30.471 9.77901 6.29162 9.77901 2.80169 9.77901C2.36553 9.77901 1.99096 9.40529 1.99096 8.9693C1.99096 8.5333 2.36553 8.15959 2.80169 8.15959C3.73624 8.15959 33.3375 8.15959 33.961 8.15959C34.3971 8.15959 34.7711 8.5333 34.7711 8.9693C34.7711 9.40529 34.3971 9.77901 33.961 9.77901ZM32.4036 25.3503H19.1911C18.755 25.3503 18.3816 25.724 18.3816 26.16C18.3816 26.596 18.755 26.9697 19.1911 26.9697H32.3407C32.0918 27.8417 31.2811 28.5268 30.3466 28.5268H6.41606C5.48089 28.5268 4.6714 27.8417 4.4219 26.9697H6.66495C7.10111 26.9697 7.47568 26.596 7.47568 26.16C7.47568 25.724 7.10111 25.3503 6.66495 25.3503H4.29745V11.3361H32.3407V25.3503H32.4036ZM17.6337 3.9865V6.60247H12.3363L17.6337 3.9865ZM24.4257 6.66475H19.1295V3.9865L24.4257 6.66475ZM33.961 6.66475H27.9157L19.1911 2.3048V1.24596C19.1911 0.809963 18.8178 0.436253 18.3816 0.436253C17.9448 0.436253 17.5709 0.809963 17.5709 1.24596V2.3048L8.8464 6.66475H2.80169C1.4932 6.66475 0.433594 7.7236 0.433594 9.03158C0.433594 10.3396 1.4932 11.3984 2.80169 11.3984V26.4714C2.80169 28.4645 4.4219 30.0839 6.41606 30.0839H15.1406L12.5858 35.1913C12.3985 35.565 12.523 36.0633 12.9598 36.2501C13.3337 36.437 13.8321 36.3124 14.0194 35.8764L16.9481 30.0839H17.6337V33.8833C17.6337 34.3193 18.0071 34.693 18.4432 34.693C18.8794 34.693 19.254 34.3193 19.254 33.8833V29.9594H19.939L22.8683 35.7519C22.9928 36.001 23.3045 36.1879 23.5534 36.1879C24.1152 36.1879 24.4885 35.565 24.2396 35.0667L21.6843 29.9594H30.4088C32.4036 29.9594 34.0238 28.3399 34.0238 26.3468V11.3361C35.3323 11.3361 36.3913 10.2773 36.3913 8.9693C36.3913 7.66131 35.2701 6.66475 33.961 6.66475Z" fill="#F4D445"/>
<path d="M10.1557 15.2599L11.527 19.1216L7.72539 17.689C8.28661 16.6925 9.15893 15.8205 10.1557 15.2599ZM13.0228 15.7582C15.702 15.7582 17.8212 17.8759 17.8212 20.4919C17.8212 23.1701 15.6404 25.2878 13.0228 25.2878C11.8388 25.2878 10.7175 24.8518 9.8446 24.0421L10.5303 23.4193C11.2153 23.9798 12.0876 24.3535 13.0228 24.3535C15.1414 24.3535 16.9489 22.6096 16.9489 20.4296C16.9489 19.9936 16.5749 19.6199 16.1382 19.6199C15.702 19.6199 15.3287 19.9936 15.3287 20.4296C15.3287 21.7376 14.2691 22.7964 12.9606 22.7964C12.4622 22.7964 12.026 22.6718 11.6515 22.4227C12.026 22.1113 13.2717 20.9901 13.3345 20.9901C13.5834 20.741 13.6456 20.4296 13.5212 20.1804L11.9632 15.8205C12.3371 15.7582 12.6489 15.7582 13.0228 15.7582ZM10.842 21.177C10.7791 20.9279 10.7175 20.6787 10.7175 20.4919L11.3398 20.741L10.842 21.177ZM9.22115 19.9313C9.09671 20.8033 9.22114 21.613 9.59508 22.2981L8.90943 22.921C8.34882 21.8621 8.16153 20.741 8.34881 19.6199L9.22115 19.9313ZM6.41688 18.8725L6.85305 19.0593C5.91789 23.2324 9.03449 26.9072 13.0228 26.9072C16.5127 26.9072 19.3792 24.0421 19.3792 20.5542C19.3792 17.0662 16.5127 14.2634 13.0228 14.2634C12.4622 14.2634 11.9632 14.3257 11.4642 14.4502L11.3398 13.9519C11.2153 13.5159 10.7175 13.3291 10.343 13.5159C8.34882 14.2634 6.7286 15.8828 5.98071 17.8759C5.79344 18.2496 6.04294 18.6856 6.41688 18.8725Z" fill="#F4D445"/>
<path d="M30.4715 33.1353C30.2848 33.1353 30.0974 32.9484 30.0974 32.7616C30.0974 32.5747 30.2848 32.3879 30.4715 32.3879C30.6588 32.3879 30.8455 32.5747 30.8455 32.7616C30.8455 32.9484 30.6588 33.1353 30.4715 33.1353ZM30.4715 30.7685C29.4122 30.7685 28.5391 31.6404 28.5391 32.6993C28.5391 33.7581 29.4122 34.6301 30.4715 34.6301C31.5314 34.6301 32.4045 33.7581 32.4045 32.6993C32.4045 31.6404 31.5314 30.7685 30.4715 30.7685Z" fill="#F4D445"/>
<path d="M5.54471 33.8835C5.35739 33.8835 5.17069 33.6967 5.17069 33.5098C5.17069 33.323 5.35739 33.1361 5.54471 33.1361C5.73204 33.1361 5.91814 33.2607 5.91814 33.5098C5.91814 33.6967 5.73204 33.8835 5.54471 33.8835ZM5.54471 31.579C4.48484 31.579 3.6123 32.451 3.6123 33.5098C3.6123 34.5687 4.48484 35.4407 5.54471 35.4407C6.60458 35.4407 7.47715 34.5687 7.47715 33.5098C7.47715 32.451 6.60458 31.579 5.54471 31.579Z" fill="#F4D445"/>
<path d="M29.6622 3.55043C29.8496 3.55043 30.0363 3.73729 30.0363 3.92414C30.0363 4.111 29.8496 4.29785 29.6622 4.29785C29.4755 4.29785 29.2882 4.111 29.2882 3.92414C29.2882 3.73729 29.4755 3.55043 29.6622 3.55043ZM29.6622 5.85498C30.7221 5.85498 31.5947 4.98299 31.5947 3.92414C31.5947 2.8653 30.7221 1.99331 29.6622 1.99331C28.603 1.99331 27.7305 2.8653 27.7305 3.92414C27.7305 4.98299 28.603 5.85498 29.6622 5.85498Z" fill="#F4D445"/>
<path d="M6.7265 1.99341C7.16266 1.99341 7.5366 2.36713 7.5366 2.80312C7.5366 3.23912 7.16266 3.61283 6.7265 3.61283C6.29033 3.61283 5.91576 3.17683 5.91576 2.74084C5.91576 2.30484 6.29033 1.99341 6.7265 1.99341ZM6.7265 5.10767C8.03499 5.10767 9.09459 4.04882 9.09459 2.74084C9.09459 1.43285 8.03499 0.374004 6.7265 0.374004C5.418 0.374004 4.3584 1.43285 4.3584 2.74084C4.3584 4.04882 5.418 5.10767 6.7265 5.10767Z" fill="#F4D445"/>
<path d="M26.1716 31.5163C26.6196 31.5163 26.9826 31.8788 26.9826 32.326C26.9826 32.7732 26.6196 33.1357 26.1716 33.1357C25.7243 33.1357 25.3613 32.7732 25.3613 32.326C25.3613 31.8788 25.7243 31.5163 26.1716 31.5163Z" fill="#F4D445"/>
<path d="M9.84448 31.5163C10.2918 31.5163 10.6548 31.8788 10.6548 32.326C10.6548 32.7732 10.2918 33.1357 9.84448 33.1357C9.39712 33.1357 9.03418 32.7732 9.03418 32.326C9.03418 31.8788 9.39712 31.5163 9.84448 31.5163Z" fill="#F4D445"/>
<path d="M24.6134 0.373509C25.0614 0.373509 25.4243 0.736008 25.4243 1.18321C25.4243 1.63042 25.0614 1.99292 24.6134 1.99292C24.1666 1.99292 23.8037 1.63042 23.8037 1.18321C23.8037 0.736008 24.1666 0.373509 24.6134 0.373509Z" fill="#F4D445"/>
<path d="M12.1498 1.93039C12.5971 1.93039 12.9601 2.29289 12.9601 2.7401C12.9601 3.18731 12.5971 3.5498 12.1498 3.5498C11.7018 3.5498 11.3389 3.18731 11.3389 2.7401C11.3389 2.29289 11.7018 1.93039 12.1498 1.93039Z" fill="#F4D445"/>
<path d="M2.05444 3.48826C2.50242 3.48826 2.86475 3.85075 2.86475 4.29796C2.86475 4.74517 2.50242 5.10767 2.05444 5.10767C1.60646 5.10767 1.24414 4.74517 1.24414 4.29796C1.24414 3.85075 1.60646 3.48826 2.05444 3.48826Z" fill="#F4D445"/>
<path d="M33.962 3.48826C34.41 3.48826 34.7723 3.85075 34.7723 4.29796C34.7723 4.74517 34.41 5.10767 33.962 5.10767C33.5147 5.10767 33.1523 4.74517 33.1523 4.29796C33.1523 3.85075 33.5147 3.48826 33.962 3.48826Z" fill="#F4D445"/>
<path d="M23.8651 19.1211H24.6129V22.2354H23.8035V19.1211H23.8651ZM26.1709 17.564H26.9817V22.2354H26.1709C26.1709 20.4291 26.1709 19.2457 26.1709 17.564ZM28.539 16.0069H29.3498V22.2354H28.539C28.539 21.3011 28.539 16.692 28.539 16.0069ZM23.0556 23.7925C23.9279 23.7925 29.2869 23.7925 30.097 23.7925C30.5332 23.7925 30.9077 23.4188 30.9077 22.9828V15.1971C30.9077 14.7612 30.5332 14.3874 30.097 14.3874H27.7295C27.2934 14.3874 26.9188 14.7612 26.9188 15.1971V16.0069H25.3608C24.9247 16.0069 24.5513 16.3806 24.5513 16.8166V17.6263H22.9927C22.5566 17.6263 22.1826 18 22.1826 18.436V23.1073C22.3077 23.4188 22.6188 23.7925 23.0556 23.7925Z" fill="#F4D445"/>
</svg>
