<svg width="37" height="37" viewBox="0 0 37 37" fill="none" xmlns="http://www.w3.org/2000/svg">
<path d="M18.3393 33.4758C9.96258 33.4758 3.12059 26.7882 3.12059 18.6006C3.12059 10.4129 9.96258 3.7878 18.3393 3.7878C26.7161 3.7878 33.5581 10.4129 33.5581 18.6006C33.5581 26.7882 26.7161 33.4758 18.3393 33.4758ZM18.3393 2.22527C9.06751 2.22527 1.52197 9.6004 1.52197 18.6631C1.52197 27.7257 9.06751 35.0383 18.3393 35.0383C27.6112 35.0383 35.1567 27.6632 35.1567 18.6006C35.1567 9.5379 27.6112 2.22527 18.3393 2.22527Z" fill="#6E9419"/>
<path d="M28.7612 19.4131H29.5285C29.3364 21.8507 28.3775 24.0382 26.8427 25.7882L26.3313 25.2882C26.0115 24.9757 25.5001 24.9757 25.1802 25.2882C24.8604 25.6007 24.8604 26.1007 25.1802 26.4133L25.6916 26.9133C23.9015 28.4133 21.6632 29.4133 19.1695 29.5383V28.7883C19.1695 28.3508 18.7858 27.9758 18.3382 27.9758C17.8907 27.9758 17.507 28.3508 17.507 28.7883V29.5383C15.0127 29.3508 12.775 28.4133 10.9842 26.9133L11.4962 26.4133C11.8161 26.1007 11.8161 25.6007 11.4962 25.2882C11.1764 24.9757 10.665 24.9757 10.3452 25.2882L9.83316 25.7882C8.29902 24.0382 7.27563 21.8507 7.14794 19.4131H7.91532C8.36286 19.4131 8.74654 19.0381 8.74654 18.6006C8.74654 18.1631 8.36286 17.7881 7.91532 17.7881H7.14794C7.3401 15.3506 8.29902 13.163 9.83316 11.413L10.3452 11.913C10.665 12.2255 11.1764 12.2255 11.4962 11.913C11.8161 11.6005 11.8161 11.1005 11.4962 10.788L10.9842 10.288C12.775 8.78795 15.0127 7.78794 17.507 7.66293V8.41295C17.507 8.85045 17.8907 9.22546 18.3382 9.22546C18.7858 9.22546 19.1695 8.85045 19.1695 8.41295V7.66293C21.6632 7.85044 23.9015 8.78795 25.6916 10.288L25.1802 10.788C24.8604 11.1005 24.8604 11.6005 25.1802 11.913C25.5001 12.2255 26.0115 12.2255 26.3313 11.913L26.8427 11.413C28.3775 13.163 29.4002 15.3506 29.5285 17.7881H28.7612C28.313 17.7881 27.9293 18.1631 27.9293 18.6006C27.9293 19.0381 28.313 19.4131 28.7612 19.4131ZM18.3382 6.10041C11.3041 6.10041 5.54932 11.7255 5.54932 18.6006C5.54932 25.4757 11.3041 31.1008 18.3382 31.1008C25.3718 31.1008 31.1265 25.4757 31.1265 18.6006C31.1265 11.7255 25.3718 6.10041 18.3382 6.10041Z" fill="#6E9419"/>
<path d="M22.3662 17.8503H19.7442C19.6165 17.6003 19.4244 17.4128 19.169 17.2878V12.3502C19.169 11.9127 18.7853 11.5377 18.3377 11.5377C17.8902 11.5377 17.5065 11.9127 17.5065 12.3502V17.2253C17.059 17.4753 16.6753 17.9753 16.6753 18.6003C16.6753 19.4753 17.3782 20.1628 18.2733 20.1628C18.8491 20.1628 19.3605 19.8503 19.6803 19.3503H22.3024C22.7499 19.3503 23.133 18.9753 23.133 18.5378C23.133 18.1628 22.7499 17.8503 22.3662 17.8503Z" fill="#6E9419"/>
<path d="M3.18375 31.9135C2.73622 31.9135 2.35252 31.5385 2.35252 31.101C2.35252 30.6635 2.73622 30.2885 3.18375 30.2885C3.63129 30.2885 4.01498 30.6635 4.01498 31.101C3.95114 31.5385 3.56745 31.9135 3.18375 31.9135ZM3.18375 28.7885C1.84115 28.7885 0.753906 29.851 0.753906 31.1635C0.753906 32.4761 1.84115 33.5386 3.18375 33.5386C4.52636 33.5386 5.54975 32.4136 5.54975 31.101C5.54975 29.7885 4.46252 28.7885 3.18375 28.7885Z" fill="#6E9419"/>
<path d="M33.9411 5.3508C33.3014 5.3508 32.7256 4.8508 32.7256 4.16328C32.7256 3.47577 33.2376 2.97576 33.9411 2.97576C34.644 2.97576 35.156 3.47577 35.156 4.16328C35.156 4.8508 34.5802 5.3508 33.9411 5.3508ZM33.9411 1.41324C32.4064 1.41324 31.127 2.66326 31.127 4.16328C31.127 5.66331 32.4064 6.91333 33.9411 6.91333C35.4753 6.91333 36.754 5.66331 36.754 4.16328C36.754 2.66326 35.4753 1.41324 33.9411 1.41324Z" fill="#6E9419"/>
<path d="M24.7336 0.600558C25.1925 0.600558 25.5648 0.964315 25.5648 1.41307C25.5648 1.86183 25.1925 2.22559 24.7336 2.22559C24.274 2.22559 23.9023 1.86183 23.9023 1.41307C23.9023 0.964315 24.274 0.600558 24.7336 0.600558Z" fill="#6E9419"/>
<path d="M7.14862 1.41233C7.60754 1.41233 7.97984 1.77608 7.97984 2.22484C7.97984 2.6736 7.60754 3.03735 7.14862 3.03735C6.68907 3.03735 6.31738 2.6736 6.31738 2.22484C6.31738 1.77608 6.68907 1.41233 7.14862 1.41233Z" fill="#6E9419"/>
<path d="M2.3532 6.85056C2.81212 6.85056 3.18443 7.21431 3.18443 7.66307C3.18443 8.11183 2.81212 8.47559 2.3532 8.47559C1.89429 8.47559 1.52197 8.11183 1.52197 7.66307C1.52197 7.21431 1.89429 6.85056 2.3532 6.85056Z" fill="#6E9419"/>
<path d="M7.97917 33.4133C8.43809 33.4133 8.8104 33.7771 8.8104 34.2258C8.8104 34.6746 8.43809 35.0383 7.97917 35.0383C7.52026 35.0383 7.14795 34.6746 7.14795 34.2258C7.14795 33.7771 7.52026 33.4133 7.97917 33.4133Z" fill="#6E9419"/>
<path d="M34.325 29.5385C34.7839 29.5385 35.1563 29.9023 35.1563 30.3511C35.1563 30.7998 34.7839 31.1636 34.325 31.1636C33.8655 31.1636 33.4932 30.7998 33.4932 30.3511C33.4932 29.9023 33.8655 29.5385 34.325 29.5385Z" fill="#6E9419"/>
<path d="M29.529 34.9756C29.9879 34.9756 30.3602 35.3393 30.3602 35.7881C30.3602 36.2368 29.9879 36.6006 29.529 36.6006C29.0694 36.6006 28.6978 36.2368 28.6978 35.7881C28.6978 35.3393 29.0694 34.9756 29.529 34.9756Z" fill="#6E9419"/>
</svg>
