<svg width="34" height="37" viewBox="0 0 34 37" fill="none" xmlns="http://www.w3.org/2000/svg">
<path d="M27.1884 21.0017C26.344 21.0017 6.87241 21.0017 6.08875 21.0017C5.66683 21.0017 5.30509 20.6429 5.30509 20.2243C5.30509 19.8057 5.66683 19.4469 6.08875 19.4469C8.43972 19.4469 25.2588 19.4469 27.1884 19.4469C27.6104 19.4469 27.9721 19.8057 27.9721 20.2243C27.9721 20.6429 27.6104 21.0017 27.1884 21.0017ZM24.8369 24.7093H8.43971L7.83722 22.4369H25.5002L24.8369 24.7093ZM22.3655 34.098C22.1844 34.7558 21.5819 35.1744 20.9186 35.1744H12.358C11.6953 35.1744 11.0922 34.696 10.9117 34.098L8.80144 26.2043H24.4751L22.3655 34.098ZM10.7305 15.7392H12.9009C14.2876 15.7392 15.4932 16.696 15.7947 18.0117H13.6244C12.2376 18.0117 11.032 17.0548 10.7305 15.7392ZM11.7555 7.12793C11.7555 4.4369 13.9259 2.28408 16.6386 2.28408C19.3513 2.28408 21.5211 4.4369 21.5211 7.12793C21.5211 9.81896 19.3513 11.9718 16.6386 11.9718C13.9259 11.9718 11.7555 9.81896 11.7555 7.12793ZM20.4365 15.7392H22.6069C22.2446 17.0548 21.0992 18.0117 19.713 18.0117H17.5426C17.8442 16.696 18.9895 15.7392 20.4365 15.7392ZM27.1884 18.0117H23.0288C23.7523 17.2342 24.1742 16.1578 24.1742 15.0216C24.1742 14.603 23.8125 14.2442 23.3905 14.2442H20.3763C19.2309 14.2442 18.1457 14.6628 17.3615 15.3804V13.4668C20.3155 13.108 22.6069 10.8356 22.9686 7.90534H24.1742V12.0316C24.1742 12.4502 24.5359 12.809 24.9578 12.809C25.3798 12.809 25.7409 12.4502 25.7409 12.0316V7.18773C25.7409 6.76913 25.3798 6.41032 24.9578 6.41032H23.0288C22.6069 3.24089 19.8936 0.789062 16.6386 0.789062C13.383 0.789062 10.6703 3.24089 10.3086 6.41032H8.37952C7.9576 6.41032 7.59586 6.76913 7.59586 7.18773V12.0316C7.59586 12.4502 7.9576 12.809 8.37952 12.809C8.80145 12.809 9.16317 12.4502 9.16317 12.0316V7.90534H10.3687C10.7305 10.8356 13.0213 13.108 15.9753 13.4668V15.3804C15.1917 14.6628 14.1065 14.2442 12.9611 14.2442H9.94684C9.52491 14.2442 9.16317 14.603 9.16317 15.0216C9.16317 16.1578 9.58509 17.2342 10.3086 18.0117H6.14893C4.88256 18.0117 3.85815 19.0283 3.85815 20.2841C3.85815 21.5399 4.88256 22.5565 6.14893 22.5565H6.33009L9.52491 34.5764C9.88664 35.8921 11.032 36.7891 12.4182 36.7891H21.039C22.3655 36.7891 23.5711 35.8921 23.9328 34.5764L27.1282 22.5565H27.3088C28.5746 22.5565 29.5996 21.5399 29.5996 20.2841C29.5996 19.0283 28.4542 18.0117 27.1884 18.0117Z" fill="#6E9419"/>
<path d="M21.1593 28.4169C21.5925 28.4169 21.9435 28.7649 21.9435 29.1943C21.9435 29.6236 21.5925 29.9717 21.1593 29.9717C20.7266 29.9717 20.3762 29.6236 20.3762 29.1943C20.3762 28.7649 20.7266 28.4169 21.1593 28.4169Z" fill="#6E9419"/>
<path d="M31.7098 24.7093C32.1424 24.7093 32.4934 25.0574 32.4934 25.4868C32.4934 25.9161 32.1424 26.2642 31.7098 26.2642C31.2766 26.2642 30.9255 25.9161 30.9255 25.4868C30.9255 25.0574 31.2766 24.7093 31.7098 24.7093Z" fill="#6E9419"/>
<path d="M29.4785 12.7491C29.9117 12.7491 30.2627 13.0972 30.2627 13.5265C30.2627 13.9559 29.9117 14.304 29.4785 14.304C29.0458 14.304 28.6948 13.9559 28.6948 13.5265C28.6948 13.0972 29.0458 12.7491 29.4785 12.7491Z" fill="#6E9419"/>
<path d="M24.9577 2.28405C25.3904 2.28405 25.7408 2.63209 25.7408 3.06146C25.7408 3.49083 25.3904 3.83887 24.9577 3.83887C24.5245 3.83887 24.1741 3.49083 24.1741 3.06146C24.1741 2.63209 24.5245 2.28405 24.9577 2.28405Z" fill="#6E9419"/>
<path d="M6.87227 3.00158C7.30492 3.00158 7.65592 3.34962 7.65592 3.77899C7.65592 4.20836 7.30492 4.5564 6.87227 4.5564C6.43962 4.5564 6.08862 4.20836 6.08862 3.77899C6.08862 3.34962 6.43962 3.00158 6.87227 3.00158Z" fill="#6E9419"/>
<path d="M3.85811 14.9618C4.29076 14.9618 4.64177 15.3098 4.64177 15.7392C4.64177 16.1686 4.29076 16.5166 3.85811 16.5166C3.42546 16.5166 3.07446 16.1686 3.07446 15.7392C3.07446 15.3098 3.42546 14.9618 3.85811 14.9618Z" fill="#6E9419"/>
<path d="M1.56735 22.4369C2 22.4369 2.351 22.7849 2.351 23.2143C2.351 23.6437 2 23.9917 1.56735 23.9917C1.1347 23.9917 0.783691 23.6437 0.783691 23.2143C0.783691 22.7849 1.1347 22.4369 1.56735 22.4369Z" fill="#6E9419"/>
<path d="M27.1884 32.902C27.6211 32.902 27.9721 33.25 27.9721 33.6794C27.9721 34.1087 27.6211 34.4568 27.1884 34.4568C26.7552 34.4568 26.4048 34.1087 26.4048 33.6794C26.4048 33.25 26.7552 32.902 27.1884 32.902Z" fill="#6E9419"/>
<path d="M5.3652 35.1744C5.79785 35.1744 6.14885 35.5225 6.14885 35.9518C6.14885 36.3812 5.79785 36.7292 5.3652 36.7292C4.93195 36.7292 4.58154 36.3812 4.58154 35.9518C4.58154 35.5225 4.93195 35.1744 5.3652 35.1744Z" fill="#6E9419"/>
<path d="M12.1174 28.4169C12.5501 28.4169 12.9011 28.7649 12.9011 29.1943C12.9011 29.6236 12.5501 29.9717 12.1174 29.9717C11.6848 29.9717 11.3337 29.6236 11.3337 29.1943C11.3337 28.7649 11.6848 28.4169 12.1174 28.4169Z" fill="#6E9419"/>
<path d="M18.9293 28.4767H14.4079C13.986 28.4767 13.6243 28.8355 13.6243 29.2541C13.6243 29.6727 13.986 30.0315 14.4079 30.0315H18.9293C19.3512 30.0315 19.7129 29.6727 19.7129 29.2541C19.6527 28.7757 19.291 28.4767 18.9293 28.4767Z" fill="#6E9419"/>
<path d="M17.4224 30.6893H15.9152C15.4933 30.6893 15.1316 31.0481 15.1316 31.4667C15.1316 31.8853 15.4933 32.2441 15.9152 32.2441H17.4224C17.8443 32.2441 18.206 31.8853 18.206 31.4667C18.1458 31.0481 17.7841 30.6893 17.4224 30.6893Z" fill="#6E9419"/>
<path d="M3.07447 30.6893C2.65255 30.6893 2.29081 30.3305 2.29081 29.9119C2.29081 29.4933 2.65255 29.1345 3.07447 29.1345C3.49639 29.1345 3.85812 29.4933 3.85812 29.9119C3.85812 30.3305 3.49639 30.6893 3.07447 30.6893ZM5.36524 29.9717C5.36524 28.7159 4.34024 27.6993 3.07447 27.6993C1.8087 27.6993 0.783691 28.7159 0.783691 29.9717C0.783691 31.2275 1.8087 32.2441 3.07447 32.2441C4.34024 32.2441 5.36524 31.1677 5.36524 29.9717Z" fill="#6E9419"/>
<path d="M16.0958 6.11122C15.9754 6.05142 15.9754 5.93182 15.9754 5.81222C15.9754 5.51322 16.156 5.39362 16.5177 5.33382V6.35043C16.3371 6.29063 16.156 6.23083 16.0958 6.11122ZM16.8794 7.84544C17.0606 7.90524 17.2412 7.96504 17.3615 8.08465C17.4825 8.14445 17.5427 8.26405 17.5427 8.38365C17.5427 8.68265 17.3615 8.80225 16.9396 8.80225L16.8794 7.84544ZM16.9998 10.9551V9.99827C17.4825 9.99827 17.9646 9.87867 18.3865 9.57966C18.5677 9.46006 18.6881 9.28066 18.8091 9.04146C18.9294 8.80225 18.9896 8.56305 18.9896 8.26405C18.9896 7.54644 18.6881 7.06803 17.9646 6.76903C17.4825 6.58963 16.9998 6.47003 16.9396 6.47003V5.39362C17.4825 5.45342 18.1458 5.81222 18.2662 5.93182L18.8693 4.85541C18.6279 4.73581 18.3865 4.61621 18.085 4.49661C17.784 4.377 17.4223 4.3172 17.0606 4.2574V3.42019H16.5177V4.2574C15.734 4.3172 15.1315 4.67601 14.83 5.33382C14.6494 5.75242 14.6494 6.29063 14.7698 6.64943C14.8902 7.00823 15.1917 7.24744 15.5535 7.42684C15.9754 7.66604 16.4575 7.72584 16.6387 7.78564V8.86205C16.4575 8.86205 16.2769 8.80225 16.0958 8.74245C15.7948 8.62285 15.4933 8.50325 15.2519 8.32385C15.1315 8.26405 15.0714 8.20425 15.0714 8.20425L14.4683 9.34046C15.0713 9.75906 15.855 9.99827 16.5779 10.0581V10.9551H16.9998Z" fill="#6E9419"/>
<path d="M1.56731 9.75907C1.56731 9.34046 1.92905 8.98166 2.35097 8.98166C2.77289 8.98166 3.13463 9.34046 3.13463 9.75907C3.13463 10.1777 2.77289 10.5365 2.35097 10.5365C1.92905 10.5365 1.56731 10.1777 1.56731 9.75907ZM4.58155 9.75907C4.58155 8.50325 3.55655 7.48664 2.29078 7.48664C1.02442 7.48664 0 8.50325 0 9.75907C0 11.0149 1.02442 12.0315 2.29078 12.0315C3.55655 12.0315 4.58155 11.0149 4.58155 9.75907Z" fill="#6E9419"/>
<path d="M30.9864 9.04136C30.142 9.04136 29.4787 8.38355 29.4787 7.54634C29.4787 6.70913 30.142 6.05133 30.9864 6.05133C31.8302 6.05133 32.4935 6.70913 32.4935 7.54634C32.4935 8.32375 31.7701 9.04136 30.9864 9.04136ZM30.9864 4.55631C29.2981 4.55631 27.9722 5.87192 27.9722 7.54634C27.9722 9.22076 29.2981 10.5364 30.9864 10.5364C32.6741 10.5364 34 9.22076 34 7.54634C34 5.87192 32.6139 4.55631 30.9864 4.55631Z" fill="#6E9419"/>
</svg>
