<svg width="39" height="36" viewBox="0 0 39 36" fill="none" xmlns="http://www.w3.org/2000/svg">
<path d="M29.7083 30.9809H14.4472C13.9724 30.9809 13.5655 31.3824 13.5655 31.8508C13.5655 32.3192 13.9724 32.7207 14.4472 32.7207H29.7083V34.3936H9.76711C8.61386 34.3936 7.66443 33.4568 7.66443 32.3192C7.66443 31.1817 8.61386 30.2449 9.76711 30.2449H29.7083V30.9809ZM11.0558 4.28201V28.5051H9.76711C8.95313 28.5051 8.27525 28.7727 7.66443 29.1742V8.16306C7.66443 6.15562 9.15629 4.54967 11.0558 4.28201ZM31.404 5.88796H17.0923C16.6176 5.88796 16.2106 6.28945 16.2106 6.75785C16.2106 7.22625 16.6176 7.62774 17.0923 7.62774H31.404V24.3564H12.7515V4.28201H31.404V5.88796ZM12.7515 28.5051V25.9623H31.404V28.5051H12.7515ZM32.2857 2.54223H11.6666C8.54613 2.54223 5.96875 5.08499 5.96875 8.16306C5.96875 19.6054 5.96875 19.4047 5.96875 32.2523C5.96875 34.3266 7.66444 35.9995 9.76711 35.9995H32.2179C32.6927 35.9995 33.099 35.598 33.099 35.1296C33.099 34.6612 32.6927 34.2597 32.2179 34.2597H31.3362V30.0441H32.2179C32.6927 30.0441 33.099 29.6426 33.099 29.1742V3.41212C33.099 2.94372 32.6927 2.54223 32.2857 2.54223Z" fill="#F4D445"/>
<path d="M11.9374 30.9804C12.4241 30.9804 12.8191 31.3699 12.8191 31.8503C12.8191 32.3308 12.4241 32.7202 11.9374 32.7202C11.4506 32.7202 11.0557 32.3308 11.0557 31.8503C11.0557 31.3699 11.4506 30.9804 11.9374 30.9804Z" fill="#F4D445"/>
<path d="M23.6714 -3.22312e-05C24.1582 -3.22312e-05 24.5525 0.38941 24.5525 0.869857C24.5525 1.3503 24.1582 1.73975 23.6714 1.73975C23.184 1.73975 22.7891 1.3503 22.7891 0.869857C22.7891 0.38941 23.184 -3.22312e-05 23.6714 -3.22312e-05Z" fill="#F4D445"/>
<path d="M14.4471 5.88766C14.9339 5.88766 15.3288 6.27711 15.3288 6.75755C15.3288 7.238 14.9339 7.62744 14.4471 7.62744C13.9603 7.62744 13.5654 7.238 13.5654 6.75755C13.5654 6.27711 13.9603 5.88766 14.4471 5.88766Z" fill="#F4D445"/>
<path d="M2.57702 1.67184C3.06447 1.67184 3.45872 2.06129 3.45872 2.54173C3.45872 3.02218 3.06447 3.41162 2.57702 3.41162C2.09024 3.41162 1.69531 3.02218 1.69531 2.54173C1.69531 2.06129 2.09024 1.67184 2.57702 1.67184Z" fill="#F4D445"/>
<path d="M2.57702 14.2519C3.06447 14.2519 3.45872 14.6414 3.45872 15.1218C3.45872 15.6023 3.06447 15.9917 2.57702 15.9917C2.09024 15.9917 1.69531 15.6023 1.69531 15.1218C1.69531 14.6414 2.09024 14.2519 2.57702 14.2519Z" fill="#F4D445"/>
<path d="M35.6766 10.0371C36.1634 10.0371 36.5583 10.4265 36.5583 10.907C36.5583 11.3874 36.1634 11.7769 35.6766 11.7769C35.1898 11.7769 34.7949 11.3874 34.7949 10.907C34.7949 10.4265 35.1898 10.0371 35.6766 10.0371Z" fill="#F4D445"/>
<path d="M37.3052 24.2226C37.7913 24.2226 38.1863 24.6121 38.1863 25.0925C38.1863 25.573 37.7913 25.9624 37.3052 25.9624C36.8178 25.9624 36.4229 25.573 36.4229 25.0925C36.4229 24.6121 36.8178 24.2226 37.3052 24.2226Z" fill="#F4D445"/>
<path d="M36.4911 30.914C36.9778 30.914 37.3721 31.3035 37.3721 31.7839C37.3721 32.2644 36.9778 32.6538 36.4911 32.6538C36.0036 32.6538 35.6094 32.2644 35.6094 31.7839C35.6094 31.3035 36.0036 30.914 36.4911 30.914Z" fill="#F4D445"/>
<path d="M4.2733 33.457C4.76007 33.457 5.15501 33.8464 5.15501 34.3269C5.15501 34.8073 4.76007 35.1968 4.2733 35.1968C3.78652 35.1968 3.3916 34.8073 3.3916 34.3269C3.3916 33.8464 3.78652 33.457 4.2733 33.457Z" fill="#F4D445"/>
<path d="M2.57739 28.5044C2.10268 28.5044 1.69568 28.1029 1.69568 27.6345C1.69568 27.1661 2.10268 26.7646 2.57739 26.7646C3.0521 26.7646 3.45909 27.1661 3.45909 27.6345C3.45909 28.1029 3.0521 28.5044 2.57739 28.5044ZM5.15477 27.6345C5.15477 26.2293 4.00152 25.0917 2.57739 25.0917C1.15326 25.0917 0 26.2293 0 27.6345C0 29.0397 1.15326 30.1772 2.57739 30.1772C4.00152 30.1772 5.15477 29.0397 5.15477 27.6345Z" fill="#F4D445"/>
<path d="M36.8969 19.271C36.6938 19.271 36.4906 19.0702 36.4906 18.8695C36.4906 18.6688 36.6938 18.468 36.8969 18.468C37.1007 18.468 37.3046 18.6688 37.3046 18.8695C37.3716 19.0702 37.1691 19.271 36.8969 19.271ZM36.8969 16.7951C35.7443 16.7951 34.7949 17.7319 34.7949 18.8695C34.7949 20.007 35.7443 20.9438 36.8969 20.9438C38.0502 20.9438 38.9996 20.007 38.9996 18.8695C38.9996 17.7319 38.0502 16.7951 36.8969 16.7951Z" fill="#F4D445"/>
<path d="M18.7208 16.7944H19.5347V18.4673H18.6531V16.7944H18.7208ZM21.2304 15.1215H22.1121V18.4673H21.2304C21.2304 17.3966 21.2304 16.0583 21.2304 15.1215ZM23.8078 13.4487H24.6895V18.4673H23.8078C23.8078 16.5268 23.8078 15.2554 23.8078 13.4487ZM26.3175 11.7758H27.1992V18.4673H26.3175C26.3175 17.4636 26.3175 12.5119 26.3175 11.7758ZM17.8391 20.1401C20.0095 20.1401 25.8428 20.1401 28.0131 20.1401C28.4879 20.1401 28.8949 19.7386 28.8949 19.2702V10.9059C28.8949 10.4375 28.4879 10.036 28.0131 10.036H25.4358C24.9611 10.036 24.5534 10.4375 24.5534 10.9059V11.7758H22.9261C22.4514 11.7758 22.0444 12.1773 22.0444 12.6457V13.5156H20.3487C19.874 13.5156 19.467 13.9171 19.467 14.3855V15.2554H17.7713C17.2966 15.2554 16.8896 15.6569 16.8896 16.1253V19.471C17.0251 19.7386 17.3644 20.1401 17.8391 20.1401Z" fill="#F4D445"/>
<path d="M14.4463 10.9061V21.8132C14.4463 22.2816 14.8533 22.6831 15.328 22.6831H28.8935C29.3682 22.6831 29.7751 22.2816 29.7751 21.8132C29.7751 21.3448 29.3682 20.9433 28.8935 20.9433H16.142V10.9061C16.142 10.4377 15.735 10.0363 15.2603 10.0363C14.7856 10.0363 14.4463 10.4377 14.4463 10.9061Z" fill="#F4D445"/>
</svg>
