<svg width="36" height="32" viewBox="0 0 36 32" fill="none" xmlns="http://www.w3.org/2000/svg">
<path d="M18.4482 23.3004C16.8078 23.3004 15.3488 22.6312 14.254 21.5969L15.4089 20.5627C16.1997 21.2927 17.2933 21.7186 18.4482 21.7186C21.0014 21.7186 23.0679 19.6501 23.0679 17.0949C23.0679 16.6691 22.7031 16.304 22.2777 16.304C21.8523 16.304 21.4881 16.6691 21.4881 17.0949C21.4881 18.7984 20.0892 20.1977 18.3875 20.1977C17.6587 20.1977 16.9893 19.9543 16.5037 19.5284C18.0228 18.19 18.6916 17.6425 18.7523 17.5816C18.935 17.3991 19.0563 17.0949 18.9349 16.7907L16.9893 11.2545C17.4147 11.1328 17.9621 11.072 18.5095 11.072C21.9136 11.072 24.6482 13.8097 24.6482 17.1558C24.5881 20.5627 21.8523 23.3004 18.4482 23.3004ZM12.5523 15.7565L14.0112 16.304C13.8286 17.3991 14.0113 18.4942 14.4974 19.4068L13.3425 20.441C12.4303 18.9809 12.2489 17.3383 12.5523 15.7565ZM15.713 18.3725C15.5309 17.8858 15.4702 17.3991 15.4702 16.8516L16.8078 17.3383L15.713 18.3725ZM15.0448 10.4636L16.9893 15.8173L11.7008 13.8097C12.4303 12.3496 13.5858 11.1937 15.0448 10.4636ZM18.4482 9.55104C17.7188 9.55104 16.9893 9.61187 16.4424 9.79439L16.1997 9.12517C16.0783 8.69931 15.5916 8.51679 15.2268 8.69931C12.7956 9.61187 10.9113 11.5587 9.99911 13.9314C9.87773 14.2964 10.0598 14.7831 10.4245 14.9048L11.154 15.1481C9.93844 20.1977 13.6465 24.7605 18.5095 24.7605C22.7031 24.7605 26.1685 21.3536 26.1685 17.0949C26.1072 12.958 22.7031 9.55104 18.4482 9.55104Z" fill="#6E9419"/>
<path d="M7.38526 15.9395C7.82091 15.9395 8.17484 16.2935 8.17484 16.7303C8.17484 17.1672 7.82091 17.5212 7.38526 17.5212C6.94842 17.5212 6.59448 17.1672 6.59448 16.7303C6.59448 16.2935 6.94842 15.9395 7.38526 15.9395Z" fill="#6E9419"/>
<path d="M3.61575 24.335C4.05259 24.335 4.4065 24.689 4.4065 25.1259C4.4065 25.5627 4.05259 25.9167 3.61575 25.9167C3.1801 25.9167 2.82617 25.5627 2.82617 25.1259C2.82617 24.689 3.1801 24.335 3.61575 24.335Z" fill="#6E9419"/>
<path d="M23.372 30.418C23.8088 30.418 24.1627 30.772 24.1627 31.2089C24.1627 31.6457 23.8088 31.9998 23.372 31.9998C22.9357 31.9998 22.5818 31.6457 22.5818 31.2089C22.5818 30.772 22.9357 30.418 23.372 30.418Z" fill="#6E9419"/>
<path d="M32.4899 26.5859C32.9267 26.5859 33.2806 26.94 33.2806 27.3768C33.2806 27.8136 32.9267 28.1677 32.4899 28.1677C32.0536 28.1677 31.6997 27.8136 31.6997 27.3768C31.6997 26.94 32.0536 26.5859 32.4899 26.5859Z" fill="#6E9419"/>
<path d="M28.6605 15.9395C29.0974 15.9395 29.4513 16.2935 29.4513 16.7303C29.4513 17.1672 29.0974 17.5212 28.6605 17.5212C28.2243 17.5212 27.8704 17.1672 27.8704 16.7303C27.8704 16.2935 28.2243 15.9395 28.6605 15.9395Z" fill="#6E9419"/>
<path d="M33.2189 6.81348C33.6557 6.81348 34.009 7.16756 34.009 7.60437C34.009 8.04119 33.6557 8.39526 33.2189 8.39526C32.782 8.39526 32.4287 8.04119 32.4287 7.60437C32.4287 7.16756 32.782 6.81348 33.2189 6.81348Z" fill="#6E9419"/>
<path d="M23.372 0.729495C23.8088 0.729495 24.1627 1.08357 24.1627 1.52039C24.1627 1.9572 23.8088 2.31128 23.372 2.31128C22.9357 2.31128 22.5818 1.9572 22.5818 1.52039C22.5818 1.08357 22.9357 0.729495 23.372 0.729495Z" fill="#6E9419"/>
<path d="M9.69532 3.04102C10.1316 3.04102 10.4855 3.39509 10.4855 3.83191C10.4855 4.26873 10.1316 4.6228 9.69532 4.6228C9.25847 4.6228 8.90454 4.26873 8.90454 3.83191C8.90454 3.39509 9.25847 3.04102 9.69532 3.04102Z" fill="#6E9419"/>
<path d="M18.0228 26.7073C11.3367 26.7073 5.31875 23.1787 2.03609 17.46H5.07539C5.50082 17.46 5.86617 17.0949 5.86617 16.6691C5.86617 16.2432 5.50082 15.8782 5.07539 15.8782H2.03609C5.31875 10.2811 11.3367 6.75251 18.0228 6.75251C24.7095 6.75251 30.7273 10.2811 34.0094 15.9999H30.9701C30.5447 15.9999 30.1799 16.3649 30.1799 16.7908C30.1799 17.2166 30.5447 17.5816 30.9701 17.5816H34.0094C30.7273 23.1787 24.7095 26.7073 18.0228 26.7073ZM35.9545 16.3649C32.6111 9.67273 25.8031 5.23156 18.0228 5.23156C10.2424 5.23156 3.43438 9.67273 0.0910347 16.4257C-0.0303449 16.6082 -0.0303449 16.8516 0.0910347 17.0949C3.43438 23.7871 10.2424 28.2283 18.0228 28.2283C25.8031 28.2283 32.6111 23.7871 35.9545 17.0341C36.0152 16.8516 36.0152 16.6082 35.9545 16.3649Z" fill="#6E9419"/>
<path d="M3.61611 3.83189C4.04154 3.83189 4.40686 4.19691 4.40686 4.62278C4.40686 5.04864 4.04154 5.41367 3.61611 5.41367C3.19068 5.41367 2.82654 4.98781 2.82654 4.56194C2.82654 4.13608 3.19068 3.83189 3.61611 3.83189ZM3.61611 6.87378C4.893 6.87378 5.92651 5.83954 5.92651 4.56194C5.92651 3.28435 4.893 2.2501 3.61611 2.2501C2.33982 2.2501 1.30688 3.28435 1.30688 4.56194C1.30688 5.83954 2.33982 6.87378 3.61611 6.87378Z" fill="#6E9419"/>
<path d="M8.54063 30.4183C8.35796 30.4183 8.17531 30.2357 8.17531 30.0532C8.17531 29.8707 8.35796 29.6882 8.54063 29.6882C8.7221 29.6882 8.90477 29.8707 8.90477 30.0532C8.90477 30.2357 8.7221 30.4183 8.54063 30.4183ZM8.54063 28.1673C7.5071 28.1673 6.65625 29.019 6.65625 30.0532C6.65625 31.0875 7.5071 31.9392 8.54063 31.9392C9.57356 31.9392 10.4244 31.0875 10.4244 30.0532C10.4244 29.019 9.57356 28.1673 8.54063 28.1673Z" fill="#6E9419"/>
<path d="M32.0652 1.52049C32.6733 1.52049 33.2201 2.00719 33.2201 2.67641C33.2201 3.34562 32.7334 3.83233 32.0652 3.83233C31.3964 3.83233 30.9103 3.34562 30.9103 2.67641C30.9103 2.00719 31.4571 1.52049 32.0652 1.52049ZM32.0652 5.35327C33.5241 5.35327 34.7397 4.13651 34.7397 2.67641C34.7397 1.2163 33.5241 -0.000459671 32.0652 -0.000459671C30.6062 -0.000459671 29.3906 1.2163 29.3906 2.67641C29.3906 4.13651 30.6062 5.35327 32.0652 5.35327Z" fill="#6E9419"/>
</svg>
