<svg width="32" height="32" viewBox="0 0 32 32" fill="none" xmlns="http://www.w3.org/2000/svg">
<path d="M23.7326 29.6365C22.6881 30.6644 21.1491 30.8808 19.0602 30.3398C12.5733 28.6086 3.39266 19.5738 1.63374 13.19C1.08395 11.1883 1.30366 9.61941 2.34824 8.64561C4.21737 6.80621 7.2958 6.75211 9.16471 8.59151C11.0338 10.4309 11.0338 13.4605 9.10971 15.2999C8.945 15.4622 8.83501 15.5704 8.67008 15.6786C8.34043 15.9491 8.34043 16.3819 8.61535 16.7065L15.4868 23.4691C15.7615 23.7396 16.2565 23.7396 16.5313 23.415C18.4554 21.0886 21.8083 21.0345 23.7326 22.9822C25.6564 24.7675 25.6564 27.7971 23.7326 29.6365ZM16.0363 22.0083L10.1543 16.2196C12.5733 13.8392 12.5733 9.99811 10.1543 7.61771C7.73565 5.2373 3.83273 5.2914 1.41382 7.67181C0.0395361 9.02431 -0.345539 11.0801 0.31424 13.5687C2.78788 22.5494 18.7852 36.4531 24.7222 30.6103C27.141 28.2299 27.141 24.3347 24.7771 22.0083C22.3583 19.6279 18.4554 19.6279 16.0363 22.0083Z" fill="url(#paint0_linear_600_10303)"/>
<path d="M9.38509 11.946C9.38509 10.1066 7.84565 8.53766 5.92153 8.53766C5.53689 8.53766 5.20703 8.86226 5.20703 9.24096C5.20703 9.61966 5.53689 9.94426 5.92153 9.94426C7.0761 9.94426 8.01081 10.864 8.01081 12.0001C8.01081 12.3788 8.34066 12.7034 8.7253 12.7034C9.10994 12.7034 9.38509 12.3247 9.38509 11.946Z" fill="url(#paint1_linear_600_10303)"/>
<path d="M19.721 22.7656C20.1155 22.7656 20.4356 23.0805 20.4356 23.4689C20.4356 23.8574 20.1155 24.1722 19.721 24.1722C19.3259 24.1722 19.0059 23.8574 19.0059 23.4689C19.0059 23.0805 19.3259 22.7656 19.721 22.7656Z" fill="url(#paint2_linear_600_10303)"/>
<path d="M12.8483 2.47841C13.2429 2.47841 13.5631 2.79327 13.5631 3.18171C13.5631 3.57015 13.2429 3.88501 12.8483 3.88501C12.4537 3.88501 12.1338 3.57015 12.1338 3.18171C12.1338 2.79327 12.4537 2.47841 12.8483 2.47841Z" fill="url(#paint3_linear_600_10303)"/>
<path d="M3.22861 3.12758C3.62325 3.12758 3.94311 3.44244 3.94311 3.83088C3.94311 4.21932 3.62325 4.53418 3.22861 4.53418C2.83375 4.53418 2.51367 4.21932 2.51367 3.83088C2.51367 3.44244 2.83375 3.12758 3.22861 3.12758Z" fill="url(#paint4_linear_600_10303)"/>
<path d="M1.85442 20.7102C2.24923 20.7102 2.56914 21.0251 2.56914 21.4135C2.56914 21.802 2.24923 22.1168 1.85442 22.1168C1.45978 22.1168 1.13965 21.802 1.13965 21.4135C1.13965 21.0251 1.45978 20.7102 1.85442 20.7102Z" fill="url(#paint5_linear_600_10303)"/>
<path d="M10.7585 28.8255C11.1533 28.8255 11.4734 29.1403 11.4734 29.5288C11.4734 29.9172 11.1533 30.2321 10.7585 30.2321C10.3639 30.2321 10.0439 29.9172 10.0439 29.5288C10.0439 29.1403 10.3639 28.8255 10.7585 28.8255Z" fill="url(#paint6_linear_600_10303)"/>
<path d="M27.965 28.1748C28.3601 28.1748 28.6797 28.4897 28.6797 28.8781C28.6797 29.2666 28.3601 29.5814 27.965 29.5814C27.5705 29.5814 27.251 29.2666 27.251 28.8781C27.251 28.4897 27.5705 28.1748 27.965 28.1748Z" fill="url(#paint7_linear_600_10303)"/>
<path d="M30.7146 16.6519C31.1097 16.6519 31.4298 16.9667 31.4298 17.3552C31.4298 17.7436 31.1097 18.0585 30.7146 18.0585C30.3201 18.0585 30 17.7436 30 17.3552C30 16.9667 30.3201 16.6519 30.7146 16.6519Z" fill="url(#paint8_linear_600_10303)"/>
<path d="M30.5506 10.9185C29.6708 15.6252 24.7783 18.6007 20.051 17.2482C19.8858 17.1941 19.776 17.1941 19.6108 17.2482L16.8625 18.222L17.577 16.7072C17.6867 16.4367 17.632 16.1121 17.3568 15.8957C12.9591 12.4874 13.179 5.88716 17.7417 2.80345C19.501 1.61325 21.6997 1.12635 23.899 1.50505C28.4068 2.31655 31.375 6.53636 30.5506 10.9185ZM24.1734 0.152546C21.6449 -0.280254 19.1163 0.206646 16.9722 1.66735C11.8047 5.18386 11.4201 12.5415 16.0925 16.599L14.9384 19.0876C14.8282 19.3581 14.8832 19.6286 15.0481 19.845C15.2128 20.0614 15.5427 20.1155 15.7627 20.0073L19.8309 18.6007C25.2728 20.0614 30.8256 16.6531 31.8152 11.189C32.8591 6.04946 29.3958 1.12635 24.1734 0.152546Z" fill="url(#paint9_linear_600_10303)"/>
<path d="M22.0292 8.53668C21.9744 8.48258 21.9195 8.42848 21.9195 8.32028C21.9195 8.10388 22.0292 7.99568 22.3042 7.99568V8.69898C22.1939 8.64488 22.139 8.59078 22.0292 8.53668ZM22.6341 9.72689C22.7439 9.78099 22.8542 9.83509 22.9639 9.88919C23.0188 9.94329 23.0737 9.99739 23.0737 10.1056C23.0737 10.2679 22.9091 10.3761 22.6341 10.3761V9.72689ZM21.3695 9.99739C21.3146 9.94329 21.2597 9.94329 21.2597 9.88919L20.875 10.7007C21.3146 10.9712 21.864 11.1335 22.3591 11.1876V11.8368H22.7439V11.1876C23.2389 11.1876 23.7883 10.9712 24.0084 10.5384C24.1731 10.2679 24.1731 9.78099 24.0084 9.51049C23.8986 9.29408 23.7334 9.07768 23.3487 8.96948C23.0188 8.80718 22.689 8.75308 22.6341 8.75308V7.99568C23.0188 8.04978 23.5139 8.32028 23.5688 8.37438L23.9535 7.61698C23.7883 7.50878 23.6237 7.45468 23.4036 7.34648C23.184 7.23828 22.9639 7.18418 22.689 7.18418V6.64318H22.3042V7.18418C21.4244 7.29238 20.9848 7.77928 20.9848 8.48258C20.9848 9.13178 21.4244 9.40228 22.0841 9.56459L22.3591 9.61869V10.3761C21.9744 10.322 21.5896 10.1597 21.3695 9.99739Z" fill="url(#paint10_linear_600_10303)"/>
<path d="M22.4691 6.04944C24.2287 6.04944 25.7128 7.45605 25.7128 9.24135C25.7128 11.0267 24.2836 12.4333 22.4691 12.4333C20.71 12.4333 19.2259 11.0267 19.2259 9.24135C19.2259 7.45605 20.6551 6.04944 22.4691 6.04944ZM22.4691 13.7858C24.9982 13.7858 27.0872 11.73 27.0872 9.24135C27.0872 6.75275 24.9982 4.69694 22.4691 4.69694C19.9405 4.69694 17.8516 6.75275 17.8516 9.24135C17.8516 11.73 19.8856 13.7858 22.4691 13.7858Z" fill="url(#paint11_linear_600_10303)"/>
<path d="M22.4685 2.47799C22.0838 2.47799 21.7539 2.80259 21.7539 3.18129C21.7539 3.55999 22.0838 3.88459 22.4685 3.88459C25.4921 3.88459 27.9658 6.3191 27.9658 9.29461C27.9658 12.2701 25.4921 14.7046 22.4685 14.7046C19.4454 14.7046 16.9714 12.2701 16.9714 9.29461C16.9714 8.91591 16.6416 8.59131 16.2569 8.59131C15.8721 8.59131 15.542 8.91591 15.542 9.29461C15.542 13.0275 18.6205 16.0571 22.4136 16.0571C26.2068 16.0571 29.2853 13.0275 29.2853 9.29461C29.2853 5.5617 26.2068 2.47799 22.4685 2.47799Z" fill="url(#paint12_linear_600_10303)"/>
<path d="M3.88788 27.5256C3.50297 27.5256 3.17311 27.201 3.17311 26.8223C3.17311 26.4436 3.50297 26.119 3.88788 26.119C4.27274 26.119 4.60261 26.4436 4.60261 26.8223C4.60261 27.201 4.27274 27.5256 3.88788 27.5256ZM3.88788 24.8206C2.73326 24.8206 1.79883 25.7403 1.79883 26.8764C1.79883 28.0125 2.73326 28.9323 3.88788 28.9323C5.04224 28.9323 5.97667 28.0125 5.97667 26.8764C5.97667 25.7403 5.04224 24.8206 3.88788 24.8206Z" fill="url(#paint13_linear_600_10303)"/>
<path d="M8.34108 1.82935C8.5058 1.82935 8.67073 1.99165 8.67073 2.15395C8.67073 2.31625 8.56079 2.47855 8.34108 2.47855C8.12094 2.47855 8.01122 2.31625 8.01122 2.15395C8.01122 1.99165 8.17593 1.82935 8.34108 1.82935ZM8.34108 3.83105C9.27551 3.83105 10.045 3.07365 10.045 2.15395C10.045 1.23425 9.27551 0.476845 8.34108 0.476845C7.40644 0.476845 6.63672 1.23425 6.63672 2.15395C6.63672 3.07365 7.40644 3.83105 8.34108 3.83105Z" fill="url(#paint14_linear_600_10303)"/>
<path d="M28.9549 22.7656C28.4055 22.7656 27.9105 22.3328 27.9105 21.7377C27.9105 21.1426 28.3501 20.7098 28.9549 20.7098C29.5598 20.7098 29.9994 21.1426 29.9994 21.7377C29.9994 22.3328 29.5598 22.7656 28.9549 22.7656ZM28.9549 19.4114C27.636 19.4114 26.5361 20.4934 26.5361 21.7918C26.5361 23.0902 27.636 24.1722 28.9549 24.1722C30.2744 24.1722 31.3738 23.0902 31.3738 21.7918C31.3738 20.4934 30.2744 19.4114 28.9549 19.4114Z" fill="url(#paint15_linear_600_10303)"/>
<defs>
<linearGradient id="paint0_linear_600_10303" x1="0" y1="18.9299" x2="26.5432" y2="18.9299" gradientUnits="userSpaceOnUse">
<stop stop-color="#2E0797"/>
<stop offset="1" stop-color="#726EFC"/>
</linearGradient>
<linearGradient id="paint1_linear_600_10303" x1="5.20703" y1="10.6205" x2="9.38509" y2="10.6205" gradientUnits="userSpaceOnUse">
<stop stop-color="#2E0797"/>
<stop offset="1" stop-color="#726EFC"/>
</linearGradient>
<linearGradient id="paint2_linear_600_10303" x1="19.0059" y1="23.4689" x2="20.4356" y2="23.4689" gradientUnits="userSpaceOnUse">
<stop stop-color="#2E0797"/>
<stop offset="1" stop-color="#726EFC"/>
</linearGradient>
<linearGradient id="paint3_linear_600_10303" x1="12.1338" y1="3.18171" x2="13.5631" y2="3.18171" gradientUnits="userSpaceOnUse">
<stop stop-color="#2E0797"/>
<stop offset="1" stop-color="#726EFC"/>
</linearGradient>
<linearGradient id="paint4_linear_600_10303" x1="2.51367" y1="3.83088" x2="3.94311" y2="3.83088" gradientUnits="userSpaceOnUse">
<stop stop-color="#2E0797"/>
<stop offset="1" stop-color="#726EFC"/>
</linearGradient>
<linearGradient id="paint5_linear_600_10303" x1="1.13965" y1="21.4135" x2="2.56914" y2="21.4135" gradientUnits="userSpaceOnUse">
<stop stop-color="#2E0797"/>
<stop offset="1" stop-color="#726EFC"/>
</linearGradient>
<linearGradient id="paint6_linear_600_10303" x1="10.0439" y1="29.5288" x2="11.4734" y2="29.5288" gradientUnits="userSpaceOnUse">
<stop stop-color="#2E0797"/>
<stop offset="1" stop-color="#726EFC"/>
</linearGradient>
<linearGradient id="paint7_linear_600_10303" x1="27.251" y1="28.8781" x2="28.6797" y2="28.8781" gradientUnits="userSpaceOnUse">
<stop stop-color="#2E0797"/>
<stop offset="1" stop-color="#726EFC"/>
</linearGradient>
<linearGradient id="paint8_linear_600_10303" x1="30" y1="17.3552" x2="31.4298" y2="17.3552" gradientUnits="userSpaceOnUse">
<stop stop-color="#2E0797"/>
<stop offset="1" stop-color="#726EFC"/>
</linearGradient>
<linearGradient id="paint9_linear_600_10303" x1="12.8271" y1="10.0309" x2="32.001" y2="10.0309" gradientUnits="userSpaceOnUse">
<stop stop-color="#2E0797"/>
<stop offset="1" stop-color="#726EFC"/>
</linearGradient>
<linearGradient id="paint10_linear_600_10303" x1="20.875" y1="9.23998" x2="24.1319" y2="9.23998" gradientUnits="userSpaceOnUse">
<stop stop-color="#2E0797"/>
<stop offset="1" stop-color="#726EFC"/>
</linearGradient>
<linearGradient id="paint11_linear_600_10303" x1="17.8516" y1="9.24135" x2="27.0872" y2="9.24135" gradientUnits="userSpaceOnUse">
<stop stop-color="#2E0797"/>
<stop offset="1" stop-color="#726EFC"/>
</linearGradient>
<linearGradient id="paint12_linear_600_10303" x1="15.542" y1="9.26756" x2="29.2853" y2="9.26756" gradientUnits="userSpaceOnUse">
<stop stop-color="#2E0797"/>
<stop offset="1" stop-color="#726EFC"/>
</linearGradient>
<linearGradient id="paint13_linear_600_10303" x1="1.79883" y1="26.8764" x2="5.97667" y2="26.8764" gradientUnits="userSpaceOnUse">
<stop stop-color="#2E0797"/>
<stop offset="1" stop-color="#726EFC"/>
</linearGradient>
<linearGradient id="paint14_linear_600_10303" x1="6.63672" y1="2.15395" x2="10.045" y2="2.15395" gradientUnits="userSpaceOnUse">
<stop stop-color="#2E0797"/>
<stop offset="1" stop-color="#726EFC"/>
</linearGradient>
<linearGradient id="paint15_linear_600_10303" x1="26.5361" y1="21.7918" x2="31.3738" y2="21.7918" gradientUnits="userSpaceOnUse">
<stop stop-color="#2E0797"/>
<stop offset="1" stop-color="#726EFC"/>
</linearGradient>
</defs>
</svg>
