<svg width="36" height="36" viewBox="0 0 36 36" fill="none" xmlns="http://www.w3.org/2000/svg">
<path d="M18.0306 28.9259C18.4799 28.9259 18.8445 29.2903 18.8445 29.7398C18.8445 30.1893 18.4799 30.5537 18.0306 30.5537C17.5807 30.5537 17.2168 30.1893 17.2168 29.7398C17.2168 29.2903 17.5807 28.9259 18.0306 28.9259Z" fill="#F4D445"/>
<path d="M20.4095 23.4786C20.8588 23.4786 21.2234 23.843 21.2234 24.2925C21.2234 24.7421 20.8588 25.1064 20.4095 25.1064C19.9602 25.1064 19.5957 24.7421 19.5957 24.2925C19.5957 23.843 19.9602 23.4786 20.4095 23.4786Z" fill="#F4D445"/>
<path d="M27.4203 1.56553C27.8702 1.56553 28.2347 1.92992 28.2347 2.37945C28.2347 2.82898 27.8702 3.19336 27.4203 3.19336C26.971 3.19336 26.6064 2.82898 26.6064 2.37945C26.6064 1.92992 26.971 1.56553 27.4203 1.56553Z" fill="#F4D445"/>
<path d="M8.63999 1.56553C9.0893 1.56553 9.45383 1.92992 9.45383 2.37945C9.45383 2.82898 9.0893 3.19336 8.63999 3.19336C8.19069 3.19336 7.82617 2.82898 7.82617 2.37945C7.82617 1.92992 8.19069 1.56553 8.63999 1.56553Z" fill="#F4D445"/>
<path d="M27.4203 33.6212C27.8702 33.6212 28.2347 33.9856 28.2347 34.4351C28.2347 34.8846 27.8702 35.249 27.4203 35.249C26.971 35.249 26.6064 34.8846 26.6064 34.4351C26.6064 33.9856 26.971 33.6212 27.4203 33.6212Z" fill="#F4D445"/>
<path d="M33.6818 33.6837H29.7377C29.2989 33.6837 28.9238 34.0593 28.9238 34.4976C28.9238 34.9359 29.2989 35.3115 29.7377 35.3115H33.6818C34.12 35.3115 34.4956 34.9359 34.4956 34.4976C34.4956 33.9967 34.12 33.6837 33.6818 33.6837Z" fill="#F4D445"/>
<path d="M8.63999 33.6212C9.0893 33.6212 9.45383 33.9856 9.45383 34.4351C9.45383 34.8846 9.0893 35.249 8.63999 35.249C8.19069 35.249 7.82617 34.8846 7.82617 34.4351C7.82617 33.9856 8.19069 33.6212 8.63999 33.6212Z" fill="#F4D445"/>
<path d="M6.32338 33.6837H2.37926C1.94109 33.6837 1.56543 34.0593 1.56543 34.4976C1.56543 34.9359 1.94109 35.3115 2.37926 35.3115H6.32338C6.76155 35.3115 7.1372 34.9359 7.1372 34.4976C7.07469 33.9967 6.69904 33.6837 6.32338 33.6837Z" fill="#F4D445"/>
<path d="M25.3552 18.6574C25.2927 18.5948 25.2302 18.4696 25.2302 18.3444C25.2302 18.094 25.4183 17.9687 25.7309 17.9061V18.8453C25.5433 18.7826 25.4183 18.72 25.3552 18.6574ZM26.1065 20.2226C26.2947 20.2853 26.4197 20.3479 26.5447 20.4105C26.6703 20.4731 26.7328 20.5983 26.7328 20.7235C26.7328 20.974 26.5447 21.0992 26.169 21.0992V20.2226H26.1065ZM24.4164 20.5983C24.3539 20.5357 24.2914 20.4731 24.2288 20.4731L23.665 21.5374C24.2288 21.9131 24.917 22.1009 25.6059 22.1635V23.04H26.169V22.1635C26.4197 22.1635 26.6072 22.1009 26.8578 22.0383C27.296 21.9131 27.6092 21.6626 27.8598 21.287C28.0473 20.9113 28.0473 20.2853 27.9223 19.9096C27.7967 19.5966 27.5467 19.3461 27.0454 19.1583C26.6072 18.9705 26.169 18.9079 26.1065 18.8453V17.8435C26.6072 17.9061 27.2335 18.2192 27.296 18.3444L27.8598 17.3426C27.6717 17.2174 27.421 17.0922 27.1085 16.967C26.7953 16.9044 26.4822 16.8418 26.169 16.8418V16.0905H25.6684V16.8418C24.9802 16.9044 24.4164 17.2174 24.1032 17.8435C24.0407 18.0313 23.9782 18.2818 23.9782 18.5322C23.9782 18.9079 24.0407 19.2209 24.3539 19.4713C24.6045 19.7218 25.0427 19.9096 25.4183 20.0348L25.7934 20.16V21.1618C25.2927 21.0366 24.7295 20.7861 24.4164 20.5983Z" fill="#F4D445"/>
<path d="M9.45348 20.3478C9.90279 20.3478 10.2673 20.7121 10.2673 21.1617C10.2673 21.6112 9.90279 21.9756 9.45348 21.9756C9.00418 21.9756 8.63965 21.6112 8.63965 21.1617C8.63965 20.7121 9.00418 20.3478 9.45348 20.3478Z" fill="#F4D445"/>
<path d="M34.4957 30.0523C34.4957 30.741 33.9319 31.3045 33.2437 31.3045C31.4905 31.3045 4.63293 31.3045 2.81713 31.3045C2.12832 31.3045 1.56514 30.741 1.56514 30.0523V9.07838C1.56514 8.38969 2.12832 7.82621 2.81713 7.82621H9.5159L9.45339 8.64012H3.1928C2.75463 8.64012 2.37897 9.01577 2.37897 9.45403V27.4853C2.37897 27.9236 2.75463 28.2993 3.1928 28.2993H32.9306C33.3688 28.2993 33.7444 27.9236 33.7444 27.4853V9.39143C33.7444 8.95317 33.3688 8.57751 32.9306 8.57751H26.67L26.6069 7.7636H33.3062C33.9944 7.7636 34.5582 8.32708 34.5582 9.01577V30.0523H34.4957ZM24.291 33.6836C24.291 34.1219 23.9154 34.4975 23.4772 34.4975H12.5837C12.1455 34.4975 11.7699 34.1219 11.7699 33.6836C11.7699 33.2453 12.1455 32.8697 12.5837 32.8697H23.5397C23.9154 32.8697 24.291 33.2453 24.291 33.6836ZM18.0304 1.94099C19.0943 3.00534 21.4739 4.94621 24.7292 5.25925L25.1049 9.01577C25.3549 11.5201 24.2285 13.9619 22.2246 15.4019L18.0304 18.4071L13.8357 15.4019C11.8324 13.9619 10.7054 11.4575 10.956 9.01577C11.0185 8.4523 11.2692 5.69751 11.3317 5.25925C14.587 4.94621 16.966 3.00534 18.0304 1.94099ZM25.8562 15.6523C27.9845 15.6523 29.8003 17.4053 29.8003 19.5966C29.8003 21.7879 28.047 23.541 25.8562 23.541C23.6647 23.541 21.9121 21.7879 21.9121 19.5966C21.9121 17.4053 23.7272 15.6523 25.8562 15.6523ZM32.1161 10.2053V26.6714H3.94412V25.0436H18.0304C18.4686 25.0436 18.8443 24.6679 18.8443 24.2297C18.8443 23.7914 18.4686 23.4158 18.0304 23.4158H3.94412V21.9132H7.07442C7.51259 21.9132 7.88824 21.5375 7.88824 21.0993C7.88824 20.661 7.51259 20.2853 7.07442 20.2853H3.94412V10.2053H9.39088C9.5784 12.7723 10.8304 15.1514 12.9593 16.7166C17.9048 20.2853 17.5923 20.0975 17.7173 20.1601C17.9673 20.2853 18.2805 20.2853 18.5311 20.0975L20.5344 18.6575C19.9087 22.0384 22.5377 25.1062 25.9187 25.1062C28.924 25.1062 31.4279 22.6645 31.4279 19.5966C31.4279 16.4662 28.7358 13.8993 25.543 14.1497C26.2318 12.9601 26.67 11.6453 26.795 10.2053H32.1161ZM33.2437 6.26099H26.4194L26.2318 4.44534C26.1687 4.06969 25.8562 3.75665 25.4805 3.75665C21.4739 3.69403 18.7186 0.438381 18.6561 0.313164C18.5311 0.12534 18.343 0.0627289 18.1554 0.0627289C18.0929 0.0627289 18.1554 0.0627289 18.0929 0.0627289C18.0304 0.00012207 18.0304 0.00012207 18.0304 0.00012207C17.7798 0.00012207 17.5923 0.12534 17.4666 0.313164C17.4041 0.375774 14.6495 3.69403 10.6429 3.75665C10.2672 3.75665 9.89155 4.06969 9.89155 4.44534L9.64091 6.26099H2.81713C1.25199 6.26099 0 7.51316 0 9.07838V30.0523C0 31.6175 1.25199 32.8697 2.81713 32.8697H10.3297C9.76654 34.3723 10.956 36.0001 12.5212 36.0001H23.4772C25.1048 36.0001 26.2318 34.3723 25.668 32.8697H33.1806C34.7458 32.8697 35.9978 31.6175 35.9978 30.0523V9.07838C36.0603 7.51316 34.8083 6.26099 33.2437 6.26099Z" fill="#F4D445"/>
<path d="M5.13319 3.13064C5.32071 3.13064 5.50885 3.31846 5.50885 3.50629C5.50885 3.69411 5.32071 3.88194 5.13319 3.88194C4.94505 3.88194 4.75752 3.69411 4.75752 3.50629C4.75752 3.31846 4.88254 3.13064 5.13319 3.13064ZM5.13319 5.50977C6.19766 5.50977 7.074 4.63324 7.074 3.5689C7.074 2.50455 6.19766 1.62803 5.13319 1.62803C4.06872 1.62803 3.19238 2.50455 3.19238 3.5689C3.19238 4.63324 4.06872 5.50977 5.13319 5.50977Z" fill="#F4D445"/>
<path d="M32.1166 2.37933C32.5554 2.37933 32.9311 2.75498 32.9311 3.19324C32.9311 3.6315 32.5554 4.00716 32.1166 4.00716C31.6785 4.00716 31.3028 3.6315 31.3028 3.19324C31.3653 2.69237 31.6785 2.37933 32.1166 2.37933ZM32.1166 5.50977C33.4318 5.50977 34.4962 4.44542 34.4962 3.13064C34.4962 1.81585 33.4318 0.751505 32.1166 0.751505C30.8021 0.751505 29.7383 1.81585 29.7383 3.13064C29.7383 4.44542 30.8021 5.50977 32.1166 5.50977Z" fill="#F4D445"/>
<path d="M20.6598 9.70455C20.9723 9.39151 20.9723 8.89064 20.6598 8.5776C20.3466 8.26455 19.8453 8.26455 19.5328 8.5776L17.1538 10.9567L16.2144 10.0176C15.9012 9.70455 15.4006 9.70455 15.0874 10.0176C14.7743 10.3306 14.7743 10.8315 15.0874 11.1446L16.5275 12.5846C16.8407 12.8976 17.3414 12.8976 17.6545 12.5846L20.6598 9.70455Z" fill="#F4D445"/>
<path d="M13.3353 10.9566C13.7735 10.9566 14.1491 10.5809 14.1491 10.1427C14.1491 8.01397 15.9018 6.19832 18.0933 6.19832C20.2847 6.19832 22.0374 7.95137 22.0374 10.1427C22.0374 12.334 20.2847 14.087 18.0933 14.087C17.6551 14.087 17.2794 14.4627 17.2794 14.9009C17.2794 15.3392 17.6551 15.7148 18.0933 15.7148C21.0985 15.7148 23.6025 13.2731 23.6025 10.2053C23.6025 7.13745 21.161 4.69571 18.0933 4.69571C15.0255 4.69571 12.584 7.13745 12.584 10.2053C12.584 10.5809 12.8971 10.9566 13.3353 10.9566Z" fill="#F4D445"/>
</svg>
