<svg width="33" height="32" viewBox="0 0 33 32" fill="none" xmlns="http://www.w3.org/2000/svg">
<path d="M3.71974 2.83696C4.12643 2.83696 4.4752 3.17753 4.4752 3.57486C4.4752 3.97219 4.12643 4.31276 3.71974 4.31276C3.31282 4.31276 2.96404 3.97219 2.96404 3.57486C2.96404 3.17753 3.31282 2.83696 3.71974 2.83696ZM3.71974 5.67505C4.94027 5.67505 5.9285 4.7101 5.9285 3.5181C5.9285 2.3261 4.88212 1.41791 3.71974 1.41791C2.55706 1.41791 1.51074 2.38286 1.51074 3.57486C1.51074 4.76686 2.49897 5.67505 3.71974 5.67505Z" fill="url(#paint0_linear_600_10283)"/>
<path d="M28.0155 1.41936C28.597 1.41936 29.1198 1.87346 29.1198 2.49784C29.1198 3.12222 28.655 3.57631 28.0155 3.57631C27.3765 3.57631 26.9111 3.12222 26.9111 2.49784C26.9111 1.87346 27.4346 1.41936 28.0155 1.41936ZM28.0155 4.99536C29.4106 4.99536 30.573 3.86012 30.573 2.49784C30.573 1.13555 29.4106 0.000317246 28.0155 0.000317246C26.6204 0.000317246 25.458 1.13555 25.458 2.49784C25.458 3.86012 26.6204 4.99536 28.0155 4.99536Z" fill="url(#paint1_linear_600_10283)"/>
<path d="M8.77724 2.83791C9.19444 2.83791 9.5327 3.16827 9.5327 3.57582C9.5327 3.98337 9.19444 4.31372 8.77724 4.31372C8.35997 4.31372 8.02148 3.98337 8.02148 3.57582C8.02148 3.16827 8.35997 2.83791 8.77724 2.83791Z" fill="url(#paint2_linear_600_10283)"/>
<path d="M12.4391 2.16961e-05C12.8563 2.16961e-05 13.1948 0.330376 13.1948 0.737926C13.1948 1.14548 12.8563 1.47583 12.4391 1.47583C12.0218 1.47583 11.6836 1.14548 11.6836 0.737926C11.6836 0.330376 12.0218 2.16961e-05 12.4391 2.16961e-05Z" fill="url(#paint3_linear_600_10283)"/>
<path d="M21.1574 1.41799C21.5751 1.41799 21.9129 1.74834 21.9129 2.15589C21.9129 2.56344 21.5751 2.8938 21.1574 2.8938C20.7402 2.8938 20.4023 2.56344 20.4023 2.15589C20.4023 1.74834 20.7402 1.41799 21.1574 1.41799Z" fill="url(#paint4_linear_600_10283)"/>
<path d="M31.3288 6.35744C31.7465 6.35744 32.085 6.6878 32.085 7.09535C32.085 7.5029 31.7465 7.83325 31.3288 7.83325C30.9117 7.83325 30.5732 7.5029 30.5732 7.09535C30.5732 6.6878 30.9117 6.35744 31.3288 6.35744Z" fill="url(#paint5_linear_600_10283)"/>
<path d="M21.8552 25.543C22.2729 25.543 22.6108 25.8733 22.6108 26.2809C22.6108 26.6884 22.2729 27.0188 21.8552 27.0188C21.438 27.0188 21.0996 26.6884 21.0996 26.2809C21.0996 25.8733 21.438 25.543 21.8552 25.543Z" fill="url(#paint6_linear_600_10283)"/>
<path d="M0.814347 7.09377C1.23178 7.09377 1.57004 7.42413 1.57004 7.83168C1.57004 8.23923 1.23178 8.56958 0.814347 8.56958C0.397083 8.56958 0.0585938 8.23923 0.0585938 7.83168C0.0585938 7.42413 0.397083 7.09377 0.814347 7.09377Z" fill="url(#paint7_linear_600_10283)"/>
<path d="M29.7016 27.6996L31.2708 29.2321L30.2245 30.2538L28.6553 28.7213C28.3645 28.4375 27.8997 28.4375 27.609 28.7213L26.0398 30.2538L25.0515 29.2321L26.6207 27.6996C26.9114 27.4157 26.9114 26.9617 26.6207 26.6778L25.0515 25.1453L26.0978 24.1236L27.6676 25.6561C27.9577 25.9399 28.4226 25.9399 28.7133 25.6561L30.2825 24.1236L31.3288 25.1453L29.7596 26.6778C29.4109 26.9617 29.4109 27.4157 29.7016 27.6996ZM1.51099 26.9617H19.6463C20.0532 26.9617 20.4019 26.6211 20.4019 26.2237C20.4019 25.8264 20.0532 25.4858 19.6463 25.4858H1.51099V12.8279C1.51099 12.3739 1.62746 11.9765 1.85976 11.6359L5.92875 19.4691C6.04481 19.6961 6.27758 19.8664 6.56797 19.8664H8.7768V20.6043C8.7768 21.7963 9.76479 22.7613 10.9856 22.7613C12.2059 22.7613 13.1942 21.7963 13.1942 20.6043V19.8664H19.0068V20.6043C19.0068 21.7963 19.9945 22.7613 21.2155 22.7613C22.436 22.7613 23.4242 21.7963 23.4242 20.6043V19.8664H25.6329C25.9231 19.8664 26.1558 19.6961 26.2719 19.4691L30.3405 11.6359C30.5732 11.9765 30.6893 12.3739 30.6893 12.8279V22.591C30.3991 22.4207 30.0504 22.4775 29.8177 22.7045L28.2485 24.2371L26.6793 22.7045C26.3885 22.4207 25.9231 22.4207 25.6329 22.7045L23.5403 24.6912C23.2496 24.975 23.2496 25.4291 23.5403 25.7129L25.1095 27.2455L23.5403 28.778C23.4242 28.8916 23.3662 29.0051 23.3662 29.1754H3.7779C2.55731 29.1186 1.56931 28.1537 1.51099 26.9617ZM5.17282 8.79786C5.17282 8.62757 5.28929 8.51405 5.4635 8.51405H6.33544C6.50988 8.51405 6.62612 8.62757 6.62612 8.79786V9.25195H5.17282V8.79786ZM11.6829 7.94643C11.6829 7.49233 12.0899 7.095 12.5547 7.095H19.5297C19.9945 7.095 20.4019 7.49233 20.4019 7.94643V9.25195H11.6829V7.94643ZM25.5163 8.79786C25.5163 8.62757 25.633 8.51405 25.8071 8.51405H26.6793C26.8534 8.51405 26.9694 8.62757 26.9694 8.79786V9.25195H25.5163V8.79786ZM10.2296 17.7662H11.6829V20.6043C11.6829 21.0017 11.3341 21.3422 10.9274 21.3422C10.5203 21.3422 10.2296 20.9449 10.2296 20.6043V17.7662ZM23.3076 17.7662C23.715 17.7662 24.0638 17.4257 24.0638 17.0283C24.0638 16.631 23.715 16.2904 23.3076 16.2904C21.6804 16.2904 20.4019 16.2904 18.9482 16.2904C18.5414 16.2904 18.1926 16.631 18.1926 17.0283C18.1926 17.4257 18.5414 17.7662 18.9482 17.7662V18.4474H13.136V17.7095C13.5429 17.7095 13.8915 17.3689 13.8915 16.9716C13.8915 16.5742 13.5429 16.2337 13.136 16.2337C11.5085 16.2337 10.2296 16.2337 8.7768 16.2337C8.36987 16.2337 8.02104 16.5742 8.02104 16.9716C8.02104 17.3689 8.36987 17.7095 8.7768 17.7095V18.4474H7.03304L3.02238 10.7845C3.25491 10.7278 3.48722 10.671 3.7779 10.671C12.3805 10.671 20.46 10.671 28.3645 10.671C28.5972 10.671 28.888 10.7278 29.1201 10.7845L25.0515 18.4474H23.3076V17.7662ZM20.4019 17.7662H21.8545V20.6043C21.8545 21.0017 21.5057 21.3422 21.0989 21.3422C20.6921 21.3422 20.3433 21.0017 20.3433 20.6043V17.7662H20.4019ZM31.2127 27.1887L32.7819 25.6561C33.0727 25.3723 33.0727 24.9182 32.7819 24.6344L32.0264 23.8965V12.8279C32.0264 10.898 30.3991 9.25195 28.3645 9.19519V8.79786C28.3645 7.8329 27.609 7.095 26.6207 7.095H25.749C24.7607 7.095 24.0052 7.8329 24.0052 8.79786V9.25195H21.8545V7.94643C21.8545 6.69767 20.8087 5.67595 19.5297 5.67595H12.5547C11.276 5.67595 10.2296 6.69767 10.2296 7.94643V9.25195H8.02104V8.79786C8.02104 7.8329 7.26558 7.095 6.27758 7.095H5.40559C4.41736 7.095 3.66183 7.8329 3.66183 8.79786V9.25195C1.62746 9.30871 0 10.898 0 12.8847V26.9617C0 28.9483 1.6856 30.5944 3.71998 30.5944H24.2959L25.5163 31.7864C25.8071 32.0702 26.2719 32.0702 26.5626 31.7864L28.1324 30.2538L29.7016 31.7864C29.9918 32.0702 30.4572 32.0702 30.7479 31.7864L32.7819 29.7997C33.0727 29.5159 33.0727 29.0618 32.7819 28.778L31.2127 27.1887Z" fill="url(#paint8_linear_600_10283)"/>
<defs>
<linearGradient id="paint0_linear_600_10283" x1="1.51074" y1="3.54648" x2="5.9285" y2="3.54648" gradientUnits="userSpaceOnUse">
<stop stop-color="#2E0797"/>
<stop offset="1" stop-color="#726EFC"/>
</linearGradient>
<linearGradient id="paint1_linear_600_10283" x1="25.458" y1="2.49784" x2="30.573" y2="2.49784" gradientUnits="userSpaceOnUse">
<stop stop-color="#2E0797"/>
<stop offset="1" stop-color="#726EFC"/>
</linearGradient>
<linearGradient id="paint2_linear_600_10283" x1="8.02148" y1="3.57582" x2="9.5327" y2="3.57582" gradientUnits="userSpaceOnUse">
<stop stop-color="#2E0797"/>
<stop offset="1" stop-color="#726EFC"/>
</linearGradient>
<linearGradient id="paint3_linear_600_10283" x1="11.6836" y1="0.737926" x2="13.1948" y2="0.737926" gradientUnits="userSpaceOnUse">
<stop stop-color="#2E0797"/>
<stop offset="1" stop-color="#726EFC"/>
</linearGradient>
<linearGradient id="paint4_linear_600_10283" x1="20.4023" y1="2.15589" x2="21.9129" y2="2.15589" gradientUnits="userSpaceOnUse">
<stop stop-color="#2E0797"/>
<stop offset="1" stop-color="#726EFC"/>
</linearGradient>
<linearGradient id="paint5_linear_600_10283" x1="30.5732" y1="7.09535" x2="32.085" y2="7.09535" gradientUnits="userSpaceOnUse">
<stop stop-color="#2E0797"/>
<stop offset="1" stop-color="#726EFC"/>
</linearGradient>
<linearGradient id="paint6_linear_600_10283" x1="21.0996" y1="26.2809" x2="22.6108" y2="26.2809" gradientUnits="userSpaceOnUse">
<stop stop-color="#2E0797"/>
<stop offset="1" stop-color="#726EFC"/>
</linearGradient>
<linearGradient id="paint7_linear_600_10283" x1="0.0585938" y1="7.83168" x2="1.57004" y2="7.83168" gradientUnits="userSpaceOnUse">
<stop stop-color="#2E0797"/>
<stop offset="1" stop-color="#726EFC"/>
</linearGradient>
<linearGradient id="paint8_linear_600_10283" x1="0" y1="18.8376" x2="33" y2="18.8376" gradientUnits="userSpaceOnUse">
<stop stop-color="#2E0797"/>
<stop offset="1" stop-color="#726EFC"/>
</linearGradient>
</defs>
</svg>
