<svg width="38" height="36" viewBox="0 0 38 36" fill="none" xmlns="http://www.w3.org/2000/svg">
<path d="M28.6704 4.98748L36.167 4.92354L36.2328 12.4688C35.4504 11.6376 29.9084 6.2024 28.6704 4.98748ZM15.6962 27.8152L11.0668 23.2753C10.7414 22.9555 10.2193 22.9555 9.89322 23.2753L4.61228 28.4547L1.87449 25.769L10.4152 17.3925L15.044 21.9324C15.3701 22.2522 15.8915 22.2522 16.2176 21.9324L29.9084 8.50436L32.6462 11.19L15.6962 27.8152ZM37.7976 4.09227C37.7976 3.64467 37.4057 3.32495 36.9494 3.32495L26.7137 3.45284C26.3882 3.45284 26.0621 3.64467 25.997 3.96439C25.8662 4.2841 25.9319 4.60382 26.1923 4.85959L28.865 7.48127L15.6962 20.206L11.0668 15.666C10.7414 15.3463 10.2193 15.3463 9.89322 15.666L0.244583 25.2575C-0.0815277 25.5772 -0.0815277 26.0888 0.244583 26.4085L4.15599 30.2451C4.4821 30.5648 5.00349 30.5648 5.3296 30.2451L10.6105 25.0657L15.2399 29.6056C15.566 29.9254 16.0874 29.9254 16.4129 29.6056L33.9506 12.4049L36.6233 15.0266C36.7542 15.1545 37.0152 15.2823 37.2105 15.2823C37.6668 15.2823 38.058 14.8987 37.9929 14.4511L37.7976 4.09227Z" fill="#0C3A30"/>
<path d="M36.2971 17.5843C36.7656 17.5843 37.1452 17.9565 37.1452 18.4156C37.1452 18.8747 36.7656 19.2468 36.2971 19.2468C35.8298 19.2468 35.4502 18.8747 35.4502 18.4156C35.4502 17.9565 35.8298 17.5843 36.2971 17.5843Z" fill="#0C3A30"/>
<path d="M28.1483 20.014C28.6168 20.014 28.9958 20.3861 28.9958 20.8453C28.9958 21.3044 28.6168 21.6765 28.1483 21.6765C27.6797 21.6765 27.3008 21.3044 27.3008 20.8453C27.3008 20.3861 27.6797 20.014 28.1483 20.014Z" fill="#0C3A30"/>
<path d="M19.1512 31.9715C19.6191 31.9715 19.9987 32.3437 19.9987 32.8028C19.9987 33.2619 19.6191 33.634 19.1512 33.634C18.6827 33.634 18.3037 33.2619 18.3037 32.8028C18.3037 32.3437 18.6827 31.9715 19.1512 31.9715Z" fill="#0C3A30"/>
<path d="M2.85239 31.2042C3.32094 31.2042 3.69989 31.5763 3.69989 32.0354C3.69989 32.4945 3.32094 32.8667 2.85239 32.8667C2.3845 32.8667 2.00488 32.4945 2.00488 32.0354C2.00488 31.5763 2.3845 31.2042 2.85239 31.2042Z" fill="#0C3A30"/>
<path d="M17.5213 12.7886C17.9892 12.7886 18.3688 13.1608 18.3688 13.6199C18.3688 14.079 17.9892 14.4512 17.5213 14.4512C17.0534 14.4512 16.6738 14.079 16.6738 13.6199C16.6738 13.1608 17.0534 12.7886 17.5213 12.7886Z" fill="#0C3A30"/>
<path d="M2.85239 1.59846C3.32094 1.59846 3.69989 1.97061 3.69989 2.42972C3.69989 2.88884 3.32094 3.26099 2.85239 3.26099C2.3845 3.26099 2.00488 2.88884 2.00488 2.42972C2.00488 1.97061 2.3845 1.59846 2.85239 1.59846Z" fill="#0C3A30"/>
<path d="M25.6707 -0.000171781C26.1386 -0.000171781 26.5182 0.371978 26.5182 0.831091C26.5182 1.2902 26.1386 1.66235 25.6707 1.66235C25.2028 1.66235 24.8232 1.2902 24.8232 0.831091C24.8232 0.371978 25.2028 -0.000171781 25.6707 -0.000171781Z" fill="#0C3A30"/>
<path d="M10.415 6.20232C10.3493 6.13838 10.2842 6.01049 10.2842 5.88261C10.2842 5.62683 10.4801 5.435 10.8713 5.435V6.4581C10.6754 6.33021 10.5452 6.26626 10.415 6.20232ZM11.2626 7.92879C11.4578 7.99273 11.5887 8.05668 11.7188 8.12062C11.849 8.18456 11.9141 8.31245 11.9141 8.44034C11.9141 8.69611 11.7188 8.824 11.2626 8.88794V7.92879ZM10.2842 8.76005C10.0238 8.69611 9.63264 8.50428 9.43671 8.37639C9.37162 8.31245 9.30653 8.24851 9.24143 8.24851L8.6543 9.39949C9.30652 9.78315 10.0889 10.0389 10.8063 10.1029V11.062H11.3276V10.1029C11.5887 10.1029 11.849 10.0389 12.11 9.97498C12.5663 9.84709 12.9575 9.59132 13.2179 9.14371C13.4138 8.69611 13.4138 8.05668 13.2837 7.67302C13.1528 7.3533 12.8925 7.09753 12.3704 6.84175C11.849 6.64992 11.3927 6.52204 11.3276 6.52204V5.435C11.9141 5.49895 12.5664 5.88261 12.6314 5.94655L13.2179 4.85951C12.9575 4.73163 12.6965 4.60374 12.3704 4.47585C12.045 4.34797 11.7189 4.28402 11.3927 4.22008V3.38882H10.8063V4.22008C10.0238 4.34797 9.37162 4.66768 9.04551 5.37106C8.85023 5.75472 8.85022 6.33021 8.98041 6.71387C9.1106 7.09753 9.43672 7.28936 9.76283 7.48119C10.2191 7.67302 10.6754 7.8009 10.8713 7.86485V8.95188C10.6754 8.824 10.4801 8.824 10.2842 8.76005Z" fill="#0C3A30"/>
<path d="M11.0021 2.4298C13.6748 2.4298 15.8918 4.60387 15.8918 7.22554C15.8918 9.84722 13.6748 12.0213 11.0021 12.0213C8.32938 12.0213 6.11233 9.84722 6.11233 7.22554C6.11233 4.60387 8.32938 2.4298 11.0021 2.4298ZM11.0021 13.6199C14.588 13.6199 17.5217 10.7424 17.5217 7.22554C17.5217 3.70866 14.588 0.831215 11.0021 0.831215C7.41678 0.831215 4.48242 3.70866 4.48242 7.22554C4.48242 10.7424 7.41678 13.6199 11.0021 13.6199Z" fill="#0C3A30"/>
<path d="M29.1912 31.2681V30.3089C29.3872 30.3729 29.5174 30.4368 29.6475 30.5007C29.7784 30.5647 29.8435 30.6926 29.8435 30.8205C29.8435 31.1402 29.5831 31.2681 29.1912 31.2681ZM28.8007 28.7743C28.6048 28.7103 28.4746 28.6464 28.3444 28.5824C28.2786 28.5185 28.2142 28.3906 28.2142 28.2627C28.2142 28.007 28.4088 27.8151 28.8007 27.8151V28.7743ZM30.2347 29.2219C29.7133 29.0301 29.257 28.9022 29.1912 28.9022V27.8151C29.7784 27.8791 30.4299 28.2627 30.4957 28.3267L31.0822 27.2396C30.8212 27.1118 30.5608 26.9839 30.2347 26.856C29.9086 26.7281 29.5831 26.6642 29.257 26.6002V25.7689H28.6705V26.6002C27.8881 26.6642 27.2359 26.9839 26.9097 27.6872C26.7138 28.1348 26.7138 28.6464 26.8447 29.0301C27.0399 29.6055 27.6922 29.8613 28.3444 30.0531L28.7349 30.181V31.2681C28.539 31.2681 28.3444 31.2041 28.1485 31.1402C27.8881 31.0762 27.4962 30.8844 27.301 30.7565C27.2359 30.6926 27.1701 30.6286 27.1057 30.6286L26.5186 31.7796C27.1701 32.1633 27.9525 32.419 28.6705 32.483V33.4421H29.257V32.483C29.7784 32.483 30.2347 32.3551 30.6259 32.0354C30.8212 31.9075 30.952 31.7157 31.0822 31.5238C31.2775 31.0762 31.2774 30.4368 31.1473 30.0531C31.0171 29.7334 30.7561 29.4137 30.2347 29.2219Z" fill="#0C3A30"/>
<path d="M28.9308 34.4014C26.2574 34.4014 24.041 32.2273 24.041 29.6057C24.041 26.984 26.2574 24.8099 28.9308 24.8099C31.6035 24.8099 33.8205 26.984 33.8205 29.6057C33.8205 32.2273 31.6035 34.4014 28.9308 34.4014ZM28.9308 23.2113C25.3448 23.2113 22.4111 26.0888 22.4111 29.6057C22.4111 33.1226 25.3448 36 28.9308 36C32.5161 36 35.4504 33.1226 35.4504 29.6057C35.4504 26.0888 32.5161 23.2113 28.9308 23.2113Z" fill="#0C3A30"/>
<path d="M10.2196 33.6341C9.7633 33.6341 9.3721 33.2504 9.3721 32.8028C9.3721 32.3552 9.7633 31.9716 10.2196 31.9716C10.6759 31.9716 11.0671 32.3552 11.0671 32.8028C11.002 33.2504 10.6108 33.6341 10.2196 33.6341ZM10.2196 30.4369C8.8507 30.4369 7.74219 31.524 7.74219 32.8668C7.74219 34.2096 8.8507 35.2966 10.2196 35.2966C11.5891 35.2966 12.697 34.2096 12.697 32.8668C12.697 31.524 11.524 30.4369 10.2196 30.4369Z" fill="#0C3A30"/>
<path d="M22.02 4.02821C22.6722 4.02821 23.2587 4.53976 23.2587 5.24314C23.2587 5.94651 22.7367 6.45806 22.02 6.45806C21.3027 6.45806 20.7813 5.94651 20.7813 5.24314C20.7813 4.53976 21.3027 4.02821 22.02 4.02821ZM22.02 8.05664C23.5848 8.05664 24.8886 6.77777 24.8886 5.24314C24.8886 3.7085 23.5848 2.42963 22.02 2.42963C20.4552 2.42963 19.1514 3.7085 19.1514 5.24314C19.1514 6.77777 20.4552 8.05664 22.02 8.05664Z" fill="#0C3A30"/>
<path d="M4.09079 15.2183C4.28671 15.2183 4.48198 15.4102 4.48198 15.602C4.48198 15.7938 4.28671 15.9857 4.09079 15.9857C3.89551 15.9857 3.69958 15.7938 3.69958 15.602C3.69958 15.4102 3.83041 15.2183 4.09079 15.2183ZM4.09079 17.6482C5.19931 17.6482 6.11189 16.753 6.11189 15.666C6.11189 14.5789 5.19931 13.6837 4.09079 13.6837C2.98291 13.6837 2.07031 14.5789 2.07031 15.666C2.07031 16.753 2.98291 17.6482 4.09079 17.6482Z" fill="#0C3A30"/>
</svg>
