<svg width="39" height="36" viewBox="0 0 39 36" fill="none" xmlns="http://www.w3.org/2000/svg">
<path d="M31.9749 34.4014L33.0799 31.2042C34.12 31.2042 34.9642 31.2042 35.9395 31.2042L37.0438 34.4014H31.9749ZM24.6965 34.4014L25.8003 31.2042C26.841 31.2042 27.6859 31.2042 28.6605 31.2042L29.7648 34.4014H24.6965ZM17.352 34.4014L18.457 31.2042C19.4972 31.2042 20.3413 31.2042 21.3166 31.2042L22.4216 34.4014H17.352ZM10.0736 34.4014L11.1787 31.2042C12.2182 31.2042 13.063 31.2042 14.0376 31.2042L15.1426 34.4014H10.0736ZM2.72913 34.4014L3.83416 31.2042C4.87429 31.2042 5.7191 31.2042 6.6937 31.2042L7.79873 34.4014H2.72913ZM8.96864 32.611L8.4489 31.2042H9.4235L8.96864 32.611ZM7.47365 26.4085C8.51314 26.4085 9.35859 26.4085 10.3332 26.4085L11.4382 29.6057C9.61816 29.6057 8.18869 29.6057 6.36862 29.6057L7.47365 26.4085ZM11.1787 21.6127C12.2182 21.6127 13.063 21.6127 14.0376 21.6127L15.1426 24.8099C14.0376 24.8099 11.1787 24.8099 10.0736 24.8099L11.1787 21.6127ZM14.6229 17.3285L15.8577 18.5434C16.1827 18.8632 16.7018 18.8632 17.0269 18.5434L18.0022 17.5843L18.7821 19.9502C16.9627 19.9502 15.5326 19.9502 13.7125 19.9502L14.6229 17.3285ZM12.673 14.3232L9.68368 17.2646L8.4489 16.0496L13.2576 11.3178L15.8577 13.8756C16.1827 14.1953 16.7018 14.1953 17.0269 13.8756L25.1514 5.88264L26.3862 7.09757C26.1253 7.35334 16.8323 16.4973 16.4423 16.8809L13.8429 14.3232C13.5179 14.0035 12.9981 14.0035 12.673 14.3232ZM28.5956 3.51674L28.6605 7.03362C28.4003 6.77785 25.9313 4.348 25.0859 3.51674H28.5956ZM22.4216 15.2184C21.9012 15.2184 20.9266 15.2184 20.4069 15.2184L21.9012 13.7477L22.4216 15.2184ZM19.8865 18.2237L19.3667 16.753H20.3413L19.8865 18.2237ZM26.0611 20.0141C24.9561 20.0141 22.0965 20.0141 20.9915 20.0141L22.0965 16.817C23.136 16.817 23.9808 16.817 24.9561 16.817L26.0611 20.0141ZM29.7648 24.8099C27.9454 24.8099 26.516 24.8099 24.6965 24.8099L25.8009 21.6127C26.841 21.6127 27.6859 21.6127 28.6605 21.6127L29.7648 24.8099ZM26.7106 26.4085H27.6859L27.2304 27.8152L26.7106 26.4085ZM16.247 23.0195L15.7279 21.5488H16.7019L16.247 23.0195ZM20.4069 26.4085L19.8865 27.8152L19.3667 26.3445H20.4069V26.4085ZM23.0711 21.6127H24.0464L23.526 23.0834L23.0711 21.6127ZM21.3166 21.6127L22.4216 24.8099C21.3166 24.8099 18.457 24.8099 17.352 24.8099L18.457 21.6127C19.4972 21.6127 20.3413 21.6127 21.3166 21.6127ZM12.6075 27.8152L12.0884 26.3445H13.063L12.6075 27.8152ZM13.7125 29.6057L14.8175 26.4085C15.8577 26.4085 16.7018 26.4085 17.6771 26.4085L18.7821 29.6057C16.9627 29.6057 15.5326 29.6057 13.7125 29.6057ZM16.247 32.611L15.7279 31.1403H16.7019L16.247 32.611ZM21.057 29.6057L22.1614 26.4085C23.2016 26.4085 24.0464 26.4085 25.021 26.4085L26.1253 29.6057C24.3059 29.6057 22.8116 29.6057 21.057 29.6057ZM23.5915 32.611L23.0711 31.1403H24.0464L23.5915 32.611ZM30.8699 32.611L30.3501 31.1403H31.3247L30.8699 32.611ZM33.4044 29.6057C31.5849 29.6057 30.1554 29.6057 28.3354 29.6057L29.4398 26.4085C30.4805 26.4085 31.3247 26.4085 32.3 26.4085L33.4044 29.6057ZM38.9288 34.913L37.304 30.1172C37.1742 29.7975 36.9141 29.5417 36.5241 29.5417H35.094L33.6652 25.3214C33.5348 25.0017 33.2746 24.746 32.8852 24.746H31.4551L30.0257 20.5257C29.8952 20.206 29.6351 19.9502 29.2458 19.9502H27.8156L26.3862 15.7299C26.2558 15.4102 25.9956 15.1544 25.6062 15.1544H24.1761L23.2664 12.4049L27.5555 8.1846L28.9849 9.59136C29.116 9.71925 29.3755 9.84713 29.5708 9.84713C30.0257 9.84713 30.415 9.46347 30.3501 9.01587L30.2852 2.68547C30.2852 2.23787 29.8953 1.91815 29.4398 1.91815L23.2015 1.98209C22.8765 1.98209 22.5514 2.17392 22.4865 2.49364C22.3561 2.81335 22.4216 3.13307 22.6812 3.38885L24.1112 4.7956L16.4423 12.213L13.8429 9.6553C13.5179 9.33559 12.9981 9.33559 12.673 9.6553L6.75923 15.4742C6.43415 15.7939 6.43415 16.3054 6.75923 16.6251L9.16329 18.991C9.48837 19.3108 10.0081 19.3108 10.3332 18.991L13.3232 16.0496L13.3874 16.1136L12.0884 20.0141H10.6583C10.3332 20.0141 10.0081 20.206 9.87836 20.5896L8.4489 24.8099H7.01879C6.69371 24.8099 6.36862 25.0017 6.23884 25.3854L4.80938 29.6057H3.24952C2.92444 29.6057 2.59935 29.7975 2.46957 30.1811L0.844806 34.9769C0.649501 35.4885 1.03948 36 1.62475 36C3.24952 36 36.589 36 38.2144 36C38.4739 36 38.7335 35.8721 38.8633 35.6803C38.9943 35.4245 39.0586 35.1687 38.9288 34.913Z" fill="#F4D445"/>
<path d="M1.62477 15.2183C1.62477 14.7707 2.01473 14.3871 2.46959 14.3871C2.92444 14.3871 3.31441 14.7707 3.31441 15.2183C3.31441 15.6659 2.92444 16.0496 2.46959 16.0496C2.01473 16.0496 1.62477 15.602 1.62477 15.2183ZM4.8743 15.2183C4.8743 13.8755 3.76927 12.7885 2.40405 12.7885C1.03948 12.7885 0 13.8755 0 15.2183C0 16.5612 1.10502 17.6482 2.46959 17.6482C3.83416 17.6482 4.8743 16.4972 4.8743 15.2183Z" fill="#F4D445"/>
<path d="M12.6079 1.59852C13.2581 1.59852 13.8434 2.11006 13.8434 2.81344C13.8434 3.51682 13.3236 4.02837 12.6079 4.02837C11.8935 4.02837 11.3731 3.51682 11.3731 2.81344C11.3731 2.11006 11.8935 1.59852 12.6079 1.59852ZM12.6079 5.62695C14.1678 5.62695 15.4675 4.34808 15.4675 2.81344C15.4675 1.2788 14.1678 -6.96182e-05 12.6079 -6.96182e-05C11.0487 -6.96182e-05 9.74902 1.2788 9.74902 2.81344C9.74902 4.34808 11.0487 5.62695 12.6079 5.62695Z" fill="#F4D445"/>
<path d="M34.9644 10.423C35.8741 10.423 36.5891 11.1264 36.5891 12.0216C36.5891 12.9168 35.8741 13.6202 34.9644 13.6202C34.0547 13.6202 33.3403 12.9168 33.3403 12.0216C33.3403 11.1264 34.0547 10.423 34.9644 10.423ZM34.9644 15.2188C36.7844 15.2188 38.2145 13.812 38.2145 12.0216C38.2145 10.2312 36.7844 8.82441 34.9644 8.82441C33.1449 8.82441 31.7148 10.2312 31.7148 12.0216C31.7148 13.812 33.1449 15.2188 34.9644 15.2188Z" fill="#F4D445"/>
<path d="M35.7446 23.9781C36.2116 23.9781 36.5894 24.3502 36.5894 24.8094C36.5894 25.2685 36.2116 25.6406 35.7446 25.6406C35.2782 25.6406 34.9004 25.2685 34.9004 24.8094C34.9004 24.3502 35.2782 23.9781 35.7446 23.9781Z" fill="#F4D445"/>
<path d="M34.9643 3.96442C35.4314 3.96442 35.8098 4.33657 35.8098 4.79569C35.8098 5.2548 35.4314 5.62695 34.9643 5.62695C34.4985 5.62695 34.1201 5.2548 34.1201 4.79569C34.1201 4.33657 34.4985 3.96442 34.9643 3.96442Z" fill="#F4D445"/>
<path d="M17.8728 3.19685C18.3392 3.19685 18.7176 3.569 18.7176 4.02811C18.7176 4.48722 18.3392 4.85938 17.8728 4.85938C17.4058 4.85938 17.0273 4.48722 17.0273 4.02811C17.0273 3.569 17.4058 3.19685 17.8728 3.19685Z" fill="#F4D445"/>
<path d="M6.49846 2.36579C6.96552 2.36579 7.34394 2.73794 7.34394 3.19706C7.34394 3.65617 6.96552 4.02832 6.49846 4.02832C6.03268 4.02832 5.6543 3.65617 5.6543 3.19706C5.6543 2.73794 6.03268 2.36579 6.49846 2.36579Z" fill="#F4D445"/>
<path d="M7.34353 9.59138C7.80995 9.59138 8.18834 9.96353 8.18834 10.4226C8.18834 10.8818 7.80995 11.2539 7.34353 11.2539C6.87646 11.2539 6.49805 10.8818 6.49805 10.4226C6.49805 9.96353 6.87646 9.59138 7.34353 9.59138Z" fill="#F4D445"/>
<path d="M4.87412 19.9498C5.34054 19.9498 5.71894 20.3219 5.71894 20.781C5.71894 21.2402 5.34054 21.6123 4.87412 21.6123C4.4077 21.6123 4.0293 21.2402 4.0293 20.781C4.0293 20.3219 4.4077 19.9498 4.87412 19.9498Z" fill="#F4D445"/>
<path d="M30.8696 16.7525C31.3366 16.7525 31.7144 17.1247 31.7144 17.5838C31.7144 18.0429 31.3366 18.415 30.8696 18.415C30.4032 18.415 30.0254 18.0429 30.0254 17.5838C30.0254 17.1247 30.4032 16.7525 30.8696 16.7525Z" fill="#F4D445"/>
</svg>
