<svg width="34" height="36" viewBox="0 0 34 36" fill="none" xmlns="http://www.w3.org/2000/svg">
<path d="M27.1887 20.2126C26.3442 20.2126 6.87265 20.2126 6.089 20.2126C5.66707 20.2126 5.30533 19.8538 5.30533 19.4352C5.30533 19.0166 5.66707 18.6578 6.089 18.6578C8.43996 18.6578 25.259 18.6578 27.1887 18.6578C27.6106 18.6578 27.9723 19.0166 27.9723 19.4352C27.9723 19.8538 27.6106 20.2126 27.1887 20.2126ZM24.8371 23.9203H8.43996L7.83746 21.6478H25.5004L24.8371 23.9203ZM22.3658 33.309C22.1846 33.9668 21.5821 34.3854 20.9188 34.3854H12.3582C11.6956 34.3854 11.0925 33.907 10.9119 33.309L8.80168 25.4153H24.4754L22.3658 33.309ZM10.7307 14.9502H12.9011C14.2879 14.9502 15.4934 15.907 15.795 17.2226H13.6246C12.2379 17.2226 11.0323 16.2658 10.7307 14.9502ZM11.7557 6.33887C11.7557 3.64784 13.9261 1.49501 16.6388 1.49501C19.3515 1.49501 21.5213 3.64784 21.5213 6.33887C21.5213 9.0299 19.3515 11.1827 16.6388 11.1827C13.9261 11.1827 11.7557 9.0299 11.7557 6.33887ZM20.4367 14.9502H22.6071C22.2448 16.2658 21.0994 17.2226 19.7133 17.2226H17.5429C17.8444 15.907 18.9898 14.9502 20.4367 14.9502ZM27.1887 17.2226H23.029C23.7525 16.4452 24.1744 15.3688 24.1744 14.2326C24.1744 13.814 23.8127 13.4551 23.3908 13.4551H20.3765C19.2312 13.4551 18.146 13.8738 17.3617 14.5914V12.6777C20.3158 12.3189 22.6071 10.0465 22.9689 7.11628H24.1744V11.2425C24.1744 11.6611 24.5362 12.0199 24.9581 12.0199C25.38 12.0199 25.7411 11.6611 25.7411 11.2425V6.39867C25.7411 5.98007 25.38 5.62126 24.9581 5.62126H23.029C22.6071 2.45183 19.8938 0 16.6388 0C13.3832 0 10.6705 2.45183 10.3088 5.62126H8.37977C7.95785 5.62126 7.5961 5.98007 7.5961 6.39867V11.2425C7.5961 11.6611 7.95785 12.0199 8.37977 12.0199C8.80169 12.0199 9.16342 11.6611 9.16342 11.2425V7.11628H10.369C10.7307 10.0465 13.0215 12.3189 15.9756 12.6777V14.5914C15.1919 13.8738 14.1067 13.4551 12.9613 13.4551H9.94708C9.52516 13.4551 9.16342 13.814 9.16342 14.2326C9.16342 15.3688 9.58534 16.4452 10.3088 17.2226H6.14917C4.88281 17.2226 3.8584 18.2392 3.8584 19.495C3.8584 20.7508 4.88281 21.7674 6.14917 21.7674H6.33034L9.52515 33.7874C9.88689 35.103 11.0323 36 12.4184 36H21.0392C22.3658 36 23.5714 35.103 23.9331 33.7874L27.1285 21.7674H27.3091C28.5748 21.7674 29.5998 20.7508 29.5998 19.495C29.5998 18.2392 28.4544 17.2226 27.1887 17.2226Z" fill="#0C3A30"/>
<path d="M21.159 27.6278C21.5923 27.6278 21.9433 27.9758 21.9433 28.4052C21.9433 28.8346 21.5923 29.1826 21.159 29.1826C20.7264 29.1826 20.376 28.8346 20.376 28.4052C20.376 27.9758 20.7264 27.6278 21.159 27.6278Z" fill="#0C3A30"/>
<path d="M31.71 23.9203C32.1427 23.9203 32.4937 24.2683 32.4937 24.6977C32.4937 25.1271 32.1427 25.4751 31.71 25.4751C31.2768 25.4751 30.9258 25.1271 30.9258 24.6977C30.9258 24.2683 31.2768 23.9203 31.71 23.9203Z" fill="#0C3A30"/>
<path d="M29.479 11.9601C29.9122 11.9601 30.2632 12.3081 30.2632 12.7375C30.2632 13.1669 29.9122 13.5149 29.479 13.5149C29.0463 13.5149 28.6953 13.1669 28.6953 12.7375C28.6953 12.3081 29.0463 11.9601 29.479 11.9601Z" fill="#0C3A30"/>
<path d="M24.9575 1.49499C25.3901 1.49499 25.7405 1.84303 25.7405 2.2724C25.7405 2.70176 25.3901 3.0498 24.9575 3.0498C24.5242 3.0498 24.1738 2.70176 24.1738 2.2724C24.1738 1.84303 24.5242 1.49499 24.9575 1.49499Z" fill="#0C3A30"/>
<path d="M6.87252 2.21252C7.30517 2.21252 7.65617 2.56056 7.65617 2.98993C7.65617 3.41929 7.30517 3.76733 6.87252 3.76733C6.43987 3.76733 6.08887 3.41929 6.08887 2.98993C6.08887 2.56056 6.43987 2.21252 6.87252 2.21252Z" fill="#0C3A30"/>
<path d="M3.85787 14.1727C4.29052 14.1727 4.64152 14.5208 4.64152 14.9501C4.64152 15.3795 4.29052 15.7275 3.85787 15.7275C3.42522 15.7275 3.07422 15.3795 3.07422 14.9501C3.07422 14.5208 3.42522 14.1727 3.85787 14.1727Z" fill="#0C3A30"/>
<path d="M1.56686 21.6478C1.99951 21.6478 2.35052 21.9959 2.35052 22.4252C2.35052 22.8546 1.99951 23.2026 1.56686 23.2026C1.13421 23.2026 0.783203 22.8546 0.783203 22.4252C0.783203 21.9959 1.13421 21.6478 1.56686 21.6478Z" fill="#0C3A30"/>
<path d="M27.1889 32.1129C27.6216 32.1129 27.9726 32.4609 27.9726 32.8903C27.9726 33.3197 27.6216 33.6677 27.1889 33.6677C26.7557 33.6677 26.4053 33.3197 26.4053 32.8903C26.4053 32.4609 26.7557 32.1129 27.1889 32.1129Z" fill="#0C3A30"/>
<path d="M5.36471 34.3854C5.79736 34.3854 6.14836 34.7334 6.14836 35.1628C6.14836 35.5921 5.79736 35.9402 5.36471 35.9402C4.93147 35.9402 4.58105 35.5921 4.58105 35.1628C4.58105 34.7334 4.93147 34.3854 5.36471 34.3854Z" fill="#0C3A30"/>
<path d="M12.1176 27.6278C12.5503 27.6278 12.9013 27.9758 12.9013 28.4052C12.9013 28.8346 12.5503 29.1826 12.1176 29.1826C11.685 29.1826 11.334 28.8346 11.334 28.4052C11.334 27.9758 11.685 27.6278 12.1176 27.6278Z" fill="#0C3A30"/>
<path d="M18.929 27.6876H14.4077C13.9858 27.6876 13.624 28.0464 13.624 28.465C13.624 28.8836 13.9858 29.2424 14.4077 29.2424H18.929C19.351 29.2424 19.7127 28.8836 19.7127 28.465C19.6525 27.9866 19.2908 27.6876 18.929 27.6876Z" fill="#0C3A30"/>
<path d="M17.4226 29.9003H15.9155C15.4936 29.9003 15.1318 30.2591 15.1318 30.6777C15.1318 31.0963 15.4936 31.4551 15.9155 31.4551H17.4226C17.8445 31.4551 18.2063 31.0963 18.2063 30.6777C18.1461 30.2591 17.7843 29.9003 17.4226 29.9003Z" fill="#0C3A30"/>
<path d="M3.07398 29.9003C2.65206 29.9003 2.29033 29.5415 2.29033 29.1229C2.29033 28.7042 2.65206 28.3454 3.07398 28.3454C3.4959 28.3454 3.85763 28.7042 3.85763 29.1229C3.85763 29.5415 3.4959 29.9003 3.07398 29.9003ZM5.36475 29.1827C5.36475 27.9268 4.33975 26.9102 3.07398 26.9102C1.80822 26.9102 0.783203 27.9268 0.783203 29.1827C0.783203 30.4385 1.80822 31.4551 3.07398 31.4551C4.33975 31.4551 5.36475 30.3787 5.36475 29.1827Z" fill="#0C3A30"/>
<path d="M16.0963 5.32216C15.9759 5.26236 15.9759 5.14276 15.9759 5.02316C15.9759 4.72415 16.1564 4.60455 16.5182 4.54475V5.56136C16.3376 5.50156 16.1564 5.44176 16.0963 5.32216ZM16.8799 7.05638C17.0611 7.11618 17.2416 7.17598 17.362 7.29558C17.483 7.35538 17.5432 7.47499 17.5432 7.59459C17.5432 7.89359 17.362 8.01319 16.9401 8.01319L16.8799 7.05638ZM17.0003 10.166V9.2092C17.483 9.2092 17.9651 9.0896 18.387 8.7906C18.5682 8.671 18.6886 8.4916 18.8095 8.25239C18.9299 8.01319 18.9901 7.77399 18.9901 7.47499C18.9901 6.75738 18.6886 6.27897 17.9651 5.97997C17.483 5.80057 17.0003 5.68097 16.9401 5.68097V4.60455C17.483 4.66435 18.1463 5.02316 18.2666 5.14276L18.8697 4.06635C18.6284 3.94675 18.387 3.82715 18.0855 3.70754C17.7845 3.58794 17.4228 3.52814 17.0611 3.46834V2.63113H16.5182V3.46834C15.7345 3.52814 15.132 3.88695 14.8305 4.54475C14.6499 4.96336 14.6499 5.50156 14.7703 5.86037C14.8907 6.21917 15.1922 6.45837 15.5539 6.63778C15.9759 6.87698 16.458 6.93678 16.6391 6.99658V8.07299C16.458 8.07299 16.2774 8.01319 16.0963 7.95339C15.7953 7.83379 15.4938 7.71419 15.2524 7.53479C15.132 7.47499 15.0718 7.41518 15.0718 7.41518L14.4688 8.5514C15.0718 8.97 15.8555 9.2092 16.5784 9.26901V10.166H17.0003Z" fill="#0C3A30"/>
<path d="M1.56731 8.97013C1.56731 8.55152 1.92905 8.19272 2.35097 8.19272C2.77289 8.19272 3.13463 8.55152 3.13463 8.97013C3.13463 9.38873 2.77289 9.74754 2.35097 9.74754C1.92905 9.74754 1.56731 9.38873 1.56731 8.97013ZM4.58155 8.97013C4.58155 7.71431 3.55655 6.6977 2.29078 6.6977C1.02442 6.6977 0 7.71431 0 8.97013C0 10.2259 1.02442 11.2426 2.29078 11.2426C3.55655 11.2426 4.58155 10.2259 4.58155 8.97013Z" fill="#0C3A30"/>
<path d="M30.9859 8.2523C30.1415 8.2523 29.4782 7.59449 29.4782 6.75728C29.4782 5.92007 30.1415 5.26226 30.9859 5.26226C31.8298 5.26226 32.493 5.92007 32.493 6.75728C32.493 7.53469 31.7696 8.2523 30.9859 8.2523ZM30.9859 3.76725C29.2976 3.76725 27.9717 5.08286 27.9717 6.75728C27.9717 8.4317 29.2976 9.74731 30.9859 9.74731C32.6736 9.74731 33.9996 8.4317 33.9996 6.75728C33.9996 5.08286 32.6134 3.76725 30.9859 3.76725Z" fill="#0C3A30"/>
</svg>
