<svg width="39" height="36" viewBox="0 0 39 36" fill="none" xmlns="http://www.w3.org/2000/svg">
<path d="M29.7083 30.9813H14.4472C13.9724 30.9813 13.5655 31.3828 13.5655 31.8512C13.5655 32.3196 13.9724 32.7211 14.4472 32.7211H29.7083V34.394H9.76711C8.61386 34.394 7.66443 33.4572 7.66443 32.3196C7.66443 31.1821 8.61386 30.2453 9.76711 30.2453H29.7083V30.9813ZM11.0558 4.28207V28.5055H9.76711C8.95313 28.5055 8.27525 28.7731 7.66443 29.1746V8.16317C7.66443 6.1557 9.15629 4.54973 11.0558 4.28207ZM31.404 5.88804H17.0923C16.6176 5.88804 16.2106 6.28953 16.2106 6.75794C16.2106 7.22635 16.6176 7.62784 17.0923 7.62784H31.404V24.3567H12.7515V4.28207H31.404V5.88804ZM12.7515 28.5055V25.9627H31.404V28.5055H12.7515ZM32.2857 2.54227H11.6666C8.54613 2.54227 5.96875 5.08505 5.96875 8.16317C5.96875 19.6057 5.96875 19.405 5.96875 32.2527C5.96875 34.3271 7.66444 36 9.76711 36H32.2179C32.6927 36 33.099 35.5985 33.099 35.1301C33.099 34.6617 32.6927 34.2602 32.2179 34.2602H31.3363V30.0445H32.2179C32.6927 30.0445 33.099 29.643 33.099 29.1746V3.41217C33.099 2.94376 32.6927 2.54227 32.2857 2.54227Z" fill="#6E9419"/>
<path d="M11.9369 30.9814C12.4236 30.9814 12.8186 31.3708 12.8186 31.8513C12.8186 32.3317 12.4236 32.7212 11.9369 32.7212C11.4501 32.7212 11.0552 32.3317 11.0552 31.8513C11.0552 31.3708 11.4501 30.9814 11.9369 30.9814Z" fill="#6E9419"/>
<path d="M23.6719 -5.60284e-05C24.1587 -5.60284e-05 24.553 0.389392 24.553 0.869845C24.553 1.3503 24.1587 1.73975 23.6719 1.73975C23.1845 1.73975 22.7896 1.3503 22.7896 0.869845C22.7896 0.389392 23.1845 -5.60284e-05 23.6719 -5.60284e-05Z" fill="#6E9419"/>
<path d="M14.4476 5.88813C14.9344 5.88813 15.3293 6.27758 15.3293 6.75803C15.3293 7.23848 14.9344 7.62793 14.4476 7.62793C13.9608 7.62793 13.5659 7.23848 13.5659 6.75803C13.5659 6.27758 13.9608 5.88813 14.4476 5.88813Z" fill="#6E9419"/>
<path d="M2.57702 1.67231C3.06447 1.67231 3.45872 2.06176 3.45872 2.54221C3.45872 3.02266 3.06447 3.41211 2.57702 3.41211C2.09024 3.41211 1.69531 3.02266 1.69531 2.54221C1.69531 2.06176 2.09024 1.67231 2.57702 1.67231Z" fill="#6E9419"/>
<path d="M2.57702 14.2524C3.06447 14.2524 3.45872 14.6418 3.45872 15.1223C3.45872 15.6027 3.06447 15.9922 2.57702 15.9922C2.09024 15.9922 1.69531 15.6027 1.69531 15.1223C1.69531 14.6418 2.09024 14.2524 2.57702 14.2524Z" fill="#6E9419"/>
<path d="M35.6766 10.0375C36.1634 10.0375 36.5583 10.427 36.5583 10.9074C36.5583 11.3879 36.1634 11.7773 35.6766 11.7773C35.1898 11.7773 34.7949 11.3879 34.7949 10.9074C34.7949 10.427 35.1898 10.0375 35.6766 10.0375Z" fill="#6E9419"/>
<path d="M37.3052 24.2231C37.7913 24.2231 38.1863 24.6125 38.1863 25.093C38.1863 25.5734 37.7913 25.9629 37.3052 25.9629C36.8178 25.9629 36.4229 25.5734 36.4229 25.093C36.4229 24.6125 36.8178 24.2231 37.3052 24.2231Z" fill="#6E9419"/>
<path d="M36.4916 30.9147C36.9783 30.9147 37.3726 31.3042 37.3726 31.7846C37.3726 32.2651 36.9783 32.6545 36.4916 32.6545C36.0041 32.6545 35.6099 32.2651 35.6099 31.7846C35.6099 31.3042 36.0041 30.9147 36.4916 30.9147Z" fill="#6E9419"/>
<path d="M4.2733 33.4575C4.76007 33.4575 5.15501 33.8469 5.15501 34.3274C5.15501 34.8078 4.76007 35.1973 4.2733 35.1973C3.78652 35.1973 3.3916 34.8078 3.3916 34.3274C3.3916 33.8469 3.78652 33.4575 4.2733 33.4575Z" fill="#6E9419"/>
<path d="M2.57739 28.5058C2.10268 28.5058 1.69568 28.1043 1.69568 27.6359C1.69568 27.1675 2.10268 26.766 2.57739 26.766C3.0521 26.766 3.45909 27.1675 3.45909 27.6359C3.45909 28.1043 3.0521 28.5058 2.57739 28.5058ZM5.15477 27.6359C5.15477 26.2307 4.00152 25.0931 2.57739 25.0931C1.15326 25.0931 0 26.2307 0 27.6359C0 29.0411 1.15326 30.1787 2.57739 30.1787C4.00152 30.1787 5.15477 29.0411 5.15477 27.6359Z" fill="#6E9419"/>
<path d="M36.8969 19.2712C36.6938 19.2712 36.4906 19.0705 36.4906 18.8697C36.4906 18.669 36.6938 18.4682 36.8969 18.4682C37.1007 18.4682 37.3046 18.669 37.3046 18.8697C37.3716 19.0705 37.1691 19.2712 36.8969 19.2712ZM36.8969 16.7953C35.7443 16.7953 34.7949 17.7321 34.7949 18.8697C34.7949 20.0073 35.7443 20.9441 36.8969 20.9441C38.0502 20.9441 38.9996 20.0073 38.9996 18.8697C38.9996 17.7321 38.0502 16.7953 36.8969 16.7953Z" fill="#6E9419"/>
<path d="M18.7208 16.7956H19.5347V18.4685H18.6531V16.7956H18.7208ZM21.2304 15.1227H22.1121V18.4685H21.2304C21.2304 17.3978 21.2304 16.0595 21.2304 15.1227ZM23.8078 13.4498H24.6895V18.4685H23.8078C23.8078 16.5279 23.8078 15.2565 23.8078 13.4498ZM26.3175 11.7769H27.1992V18.4685H26.3175C26.3175 17.4647 26.3175 12.513 26.3175 11.7769ZM17.8391 20.1414C20.0095 20.1414 25.8428 20.1414 28.0131 20.1414C28.4879 20.1414 28.8949 19.7399 28.8949 19.2715V10.907C28.8949 10.4386 28.4879 10.0371 28.0131 10.0371H25.4358C24.9611 10.0371 24.5534 10.4386 24.5534 10.907V11.7769H22.9261C22.4514 11.7769 22.0444 12.1784 22.0444 12.6468V13.5167H20.3487C19.874 13.5167 19.467 13.9182 19.467 14.3866V15.2565H17.7713C17.2966 15.2565 16.8896 15.658 16.8896 16.1264V19.4722C17.0251 19.7399 17.3644 20.1414 17.8391 20.1414Z" fill="#6E9419"/>
<path d="M14.4468 10.907V21.8142C14.4468 22.2826 14.8538 22.6841 15.3285 22.6841H28.8939C29.3686 22.6841 29.7756 22.2826 29.7756 21.8142C29.7756 21.3458 29.3686 20.9443 28.8939 20.9443H16.1425V10.907C16.1425 10.4386 15.7355 10.0371 15.2608 10.0371C14.7861 10.0371 14.4468 10.4386 14.4468 10.907Z" fill="#6E9419"/>
</svg>
