<svg width="48" height="44" viewBox="0 0 48 44" fill="none" xmlns="http://www.w3.org/2000/svg">
<path d="M24.2244 18.5794V17.6465C24.3837 17.7243 24.5438 17.802 24.7031 17.8797C24.7828 17.9575 24.8624 18.0352 24.8624 18.1907C24.8624 18.4239 24.6227 18.5794 24.2244 18.5794ZM23.8253 16.2472C23.666 16.1695 23.5059 16.0918 23.4262 16.014C23.3465 15.9363 23.2669 15.8585 23.2669 15.7031C23.2669 15.4698 23.4262 15.3144 23.8253 15.2366V16.2472ZM25.1818 16.6359C24.7031 16.4804 24.2244 16.325 24.2244 16.325V15.2366C24.7828 15.3144 25.4208 15.6253 25.5013 15.7808L26.0596 14.6925C25.8199 14.537 25.5801 14.4592 25.2615 14.3038C24.9429 14.1483 24.6226 14.1483 24.304 14.0706V13.2932H23.7456V14.0706C22.5491 14.226 21.9103 14.9257 21.9103 15.8585C21.9103 16.7914 22.5492 17.1024 23.4262 17.3356L23.8253 17.4133V18.4239C23.3465 18.3462 22.7085 18.113 22.4687 17.9575C22.389 17.8797 22.3094 17.8797 22.3094 17.802L21.751 19.0458C22.389 19.4345 23.1076 19.6677 23.8253 19.7455V20.6006H24.3836V19.6677C25.1022 19.6677 25.8199 19.3568 26.1385 18.7349C26.3783 18.3462 26.3783 17.7243 26.1385 17.3356C25.9792 17.1024 25.7402 16.8691 25.1818 16.6359Z" fill="#0C3A30"/>
<path d="M29.4104 13.6042C28.2936 11.8163 26.2193 10.6502 23.9857 10.6502C21.7513 10.6502 19.677 11.8163 18.5602 13.6042C16.6452 13.6042 6.43318 13.6042 5.15627 13.6042L23.9857 4.0424L42.8947 13.6042C41.6171 13.6042 31.405 13.6042 29.4104 13.6042ZM39.9419 17.4912C38.426 17.4912 35.0748 17.4912 33.958 17.4912V15.5477H39.9419V17.4912ZM37.9472 35.9929H35.9534V19.4346H37.9472V35.9929ZM9.06584 38.8693V37.8587C24.7034 37.8587 23.3468 37.8587 40.0223 37.8587V38.8693H9.06584ZM42.9736 41.8233H6.03408V40.8127C9.46493 40.8127 41.3789 40.8127 42.9736 40.8127V41.8233ZM10.0233 19.4346H12.018V35.9929H10.0233V19.4346ZM14.0118 17.4912C12.4967 17.4912 9.14549 17.4912 8.0279 17.4912V15.5477H14.0118V17.4912ZM25.9795 34.9823V35.9929H18.9593V34.9823C20.8743 34.9823 24.7034 34.9823 25.9795 34.9823ZM21.991 32.106C23.1875 32.106 27.0963 32.106 29.0121 32.106V33.0389C27.0963 33.0389 23.2672 33.0389 21.991 33.0389V32.106ZM25.9795 29.1519V30.1625C24.7831 30.1625 20.8743 30.1625 18.9593 30.1625V29.1519C20.8743 29.1519 24.7034 29.1519 25.9795 29.1519ZM21.991 27.2085V26.1979H29.0121V27.2085C27.0963 27.2085 23.2672 27.2085 21.991 27.2085ZM28.4529 17.0247C28.4529 19.4346 26.459 21.3781 23.9857 21.3781C21.5115 21.3781 19.5177 19.4346 19.5177 17.0247C19.5177 14.6148 21.5115 12.6714 23.9857 12.6714C26.459 12.6714 28.4529 14.6148 28.4529 17.0247ZM17.6824 15.5477C16.7249 19.5124 19.8363 23.3216 23.9857 23.3216C28.1342 23.3216 31.2457 19.5124 30.2882 15.5477H31.9634V18.5018C31.9634 19.0459 32.4429 19.5124 33.0013 19.5124H34.0384V36.0707H27.9749V35.0601H29.9695C30.5279 35.0601 31.0059 34.5936 31.0059 34.0495V31.0954C31.0059 30.5512 30.5279 30.0848 29.9695 30.0848H27.9749V29.1519H29.9695C30.5279 29.1519 31.0059 28.6855 31.0059 28.1413V25.265C31.0059 24.7208 30.5279 24.2544 29.9695 24.2544H21.0336C20.4752 24.2544 19.9957 24.7208 19.9957 25.265V27.2085H18.0018C17.4426 27.2085 16.9647 27.6749 16.9647 28.2191V31.1731C16.9647 31.7173 17.4426 32.1837 18.0018 32.1837H19.9957V33.0389H18.0018C17.4426 33.0389 16.9647 33.5053 16.9647 34.0495V35.9929H13.9329V19.4346H14.9693C15.5277 19.4346 16.0072 18.9682 16.0072 18.424V15.47H17.6824V15.5477ZM47.3627 13.682L24.4636 2.0212C24.145 1.86572 23.8256 1.86572 23.5061 2.0212L0.528937 13.682C0.129855 13.9152 -0.109896 14.3039 0.0502098 14.7703C0.209527 15.2367 0.528961 15.5477 1.0077 15.5477H6.03408V18.5018C6.03408 19.0459 6.51282 19.5124 7.07122 19.5124H8.0279V36.0707C7.4695 36.0707 6.99158 36.5371 6.99158 37.0813V39.0247H4.99695C4.43855 39.0247 3.95901 39.4912 3.95901 40.0353V41.9788H2.92265C2.36425 41.9788 1.88475 42.4452 1.88475 42.9894C1.88475 43.5336 2.36425 44 2.92265 44C5.47567 44 43.4531 44 45.8461 44C46.4045 44 46.8832 43.5336 46.8832 42.9894C46.8832 42.4452 46.4045 41.9788 45.8461 41.9788H44.8089V40.0353C44.8089 39.4912 44.3302 39.0247 43.7718 39.0247H41.7772V36.9258C41.7772 36.3816 41.2984 35.9152 40.74 35.9152H39.9419V19.4346H40.9798C41.5382 19.4346 42.0161 18.9682 42.0161 18.424V15.47H47.0425C47.522 15.47 47.9211 15.159 48 14.6926C48 14.3816 47.7602 13.9152 47.3627 13.682Z" fill="#0C3A30"/>
<path d="M6.03354 4.8975C6.59194 4.8975 7.07067 5.36393 7.07067 5.9081C7.07067 6.45227 6.59194 6.9187 6.03354 6.9187C5.47514 6.9187 4.99641 6.45227 4.99641 5.9081C5.07607 5.28619 5.47514 4.8975 6.03354 4.8975ZM6.03354 8.78442C7.70874 8.78442 9.0653 7.46287 9.0653 5.83036C9.0653 4.19785 7.70874 2.8763 6.03354 2.8763C4.35756 2.8763 3.00098 4.19785 3.00098 5.83036C3.00098 7.46287 4.35756 8.78442 6.03354 8.78442Z" fill="#0C3A30"/>
<path d="M4.5175 33.039C4.75727 33.039 4.99704 33.2722 4.99704 33.5054C4.99704 33.7386 4.75727 33.9718 4.5175 33.9718C4.27932 33.9718 4.03955 33.8163 4.03955 33.5054C4.03955 33.2722 4.27932 33.039 4.5175 33.039ZM2.04492 33.5054C2.04492 34.8269 3.16173 35.9153 4.5175 35.9153C5.87407 35.9153 6.99166 34.8269 6.99166 33.5054C6.99166 32.1838 5.87407 31.0955 4.5175 31.0955C3.16173 31.0955 2.04492 32.1838 2.04492 33.5054Z" fill="#0C3A30"/>
<path d="M41.4578 1.94342C42.256 1.94342 42.9736 2.56532 42.9736 3.42045C42.9736 4.27557 42.3364 4.89748 41.4578 4.89748C40.5808 4.89748 39.9419 4.19783 39.9419 3.42045C39.9419 2.64306 40.5808 1.94342 41.4578 1.94342ZM41.4578 6.84094C43.3728 6.84094 44.9683 5.28617 44.9683 3.42045C44.9683 1.55472 43.3728 -4.72069e-05 41.4578 -4.72069e-05C39.5428 -4.72069e-05 37.9473 1.55472 37.9473 3.42045C37.9473 5.28617 39.5428 6.84094 41.4578 6.84094Z" fill="#0C3A30"/>
<path d="M44.9688 6.76322C45.5422 6.76322 46.0067 7.21566 46.0067 7.77382C46.0067 8.33199 45.5422 8.78442 44.9688 8.78442C44.3962 8.78442 43.9316 8.33199 43.9316 7.77382C43.9316 7.21566 44.3962 6.76322 44.9688 6.76322Z" fill="#0C3A30"/>
<path d="M33.0018 0.9329C33.5744 0.9329 34.0389 1.38534 34.0389 1.9435C34.0389 2.50166 33.5744 2.9541 33.0018 2.9541C32.4284 2.9541 31.9639 2.50166 31.9639 1.9435C31.9639 1.38534 32.4284 0.9329 33.0018 0.9329Z" fill="#0C3A30"/>
<path d="M15.0497 -0.000205278C15.6223 -0.000205278 16.0868 0.452233 16.0868 1.0104C16.0868 1.56856 15.6223 2.021 15.0497 2.021C14.4763 2.021 14.0117 1.56856 14.0117 1.0104C14.0117 0.452233 14.4763 -0.000205278 15.0497 -0.000205278Z" fill="#0C3A30"/>
<path d="M2.04495 9.71732C2.61754 9.71732 3.08208 10.1698 3.08208 10.7279C3.08208 11.2861 2.61754 11.7385 2.04495 11.7385C1.47156 11.7385 1.00781 11.2861 1.00781 10.7279C1.00781 10.1698 1.47156 9.71732 2.04495 9.71732Z" fill="#0C3A30"/>
<path d="M4.03892 23.3214C4.61151 23.3214 5.07605 23.7739 5.07605 24.3321C5.07605 24.8902 4.61151 25.3427 4.03892 25.3427C3.46553 25.3427 3.00098 24.8902 3.00098 24.3321C3.00098 23.7739 3.46553 23.3214 4.03892 23.3214Z" fill="#0C3A30"/>
<path d="M44.9688 22.3111C45.5422 22.3111 46.0067 22.7635 46.0067 23.3217C46.0067 23.8798 45.5422 24.3323 44.9688 24.3323C44.3962 24.3323 43.9316 23.8798 43.9316 23.3217C43.9316 22.7635 44.3962 22.3111 44.9688 22.3111Z" fill="#0C3A30"/>
<path d="M43.9309 34.9823C44.5043 34.9823 44.968 35.4348 44.968 35.9929C44.968 36.5511 44.5043 37.0035 43.9309 37.0035C43.3583 37.0035 42.8945 36.5511 42.8945 35.9929C42.8945 35.4348 43.3583 34.9823 43.9309 34.9823Z" fill="#0C3A30"/>
</svg>
