<svg width="44" height="44" viewBox="0 0 44 44" fill="none" xmlns="http://www.w3.org/2000/svg">
<path d="M21.8461 25.2185V24.1583C22.0749 24.234 22.2282 24.3098 22.3807 24.3855C22.534 24.4612 22.6095 24.6127 22.6095 24.7642C22.534 25.0671 22.3045 25.2185 21.8461 25.2185ZM21.3877 22.4922C21.1589 22.4165 21.0056 22.3407 20.9293 22.265C20.8531 22.1893 20.7768 22.0378 20.7768 21.8864C20.7768 21.5834 21.0056 21.432 21.3877 21.3562V22.4922ZM22.9161 22.9466C22.3807 22.7194 21.8461 22.6437 21.7698 22.5679V21.3562C22.3807 21.432 23.1449 21.8106 23.2212 21.9621L23.9084 20.7504C23.6796 20.5989 23.3737 20.4475 22.9916 20.296C22.6095 20.1445 22.3045 20.0688 21.8461 20.0688V19.16H21.2352V20.0688C20.3947 20.1445 19.7075 20.5232 19.3254 21.2805C19.2484 21.5077 19.1729 21.8106 19.1729 22.1136C19.1729 22.5679 19.2484 22.9466 19.6305 23.2495C19.9363 23.5525 20.471 23.7796 20.9293 23.9311L21.3877 24.0826V25.2943C21.1589 25.2943 20.9293 25.2185 20.7768 25.1428C20.471 25.0671 20.0896 24.9156 19.7838 24.6884C19.7075 24.6127 19.6305 24.537 19.555 24.537L18.9434 25.7487C19.6305 26.2031 20.471 26.4303 21.3114 26.506V27.5662H21.9223V26.506C22.457 26.506 22.9916 26.3545 23.4507 26.0516C23.6796 25.9001 23.8328 25.6729 23.9084 25.4457C24.1379 24.9914 24.1379 24.234 23.9854 23.7796C23.8328 23.4767 23.5263 23.1738 22.9161 22.9466Z" fill="#0C3A30"/>
<path d="M21.5399 28.0964C18.943 28.0964 16.7274 25.9759 16.7274 23.3253C16.7274 20.6747 18.8667 18.5542 21.5399 18.5542C24.2138 18.5542 26.3531 20.6747 26.3531 23.3253C26.3531 25.9759 24.1376 28.0964 21.5399 28.0964ZM21.5399 16.7366C19.7072 16.7366 17.95 17.494 16.7274 18.7057V17.191C16.7274 16.6609 16.2698 16.2065 15.7344 16.2065C15.1998 16.2065 14.7422 16.6609 14.7422 17.191V23.3253C14.7422 26.9604 17.7212 29.9897 21.4636 29.9897C23.2979 29.9897 25.0543 29.2323 26.2761 28.0206V29.5353C26.2761 30.0654 26.7345 30.5198 27.2691 30.5198C27.8037 30.5198 28.2629 30.0654 28.2629 29.5353V23.401C28.1858 19.7659 25.2068 16.7366 21.5399 16.7366Z" fill="#0C3A30"/>
<path d="M3.81994 18.1756C4.36817 18.1756 4.81293 18.6163 4.81293 19.1601C4.81293 19.7038 4.36817 20.1446 3.81994 20.1446C3.27096 20.1446 2.82617 19.7038 2.82617 19.1601C2.82617 18.6163 3.27096 18.1756 3.81994 18.1756Z" fill="#0C3A30"/>
<path d="M41.0977 6.81571C41.6467 6.81571 42.0907 7.25647 42.0907 7.80022C42.0907 8.34397 41.6467 8.78473 41.0977 8.78473C40.5495 8.78473 40.1055 8.34397 40.1055 7.80022C40.1055 7.25647 40.5495 6.81571 41.0977 6.81571Z" fill="#0C3A30"/>
<path d="M41.0977 26.6574C41.6467 26.6574 42.0907 27.0982 42.0907 27.642C42.0907 28.1857 41.6467 28.6265 41.0977 28.6265C40.5495 28.6265 40.1055 28.1857 40.1055 27.642C40.1055 27.0982 40.5495 26.6574 41.0977 26.6574Z" fill="#0C3A30"/>
<path d="M2.90197 36.124C3.4502 36.124 3.89496 36.5648 3.89496 37.1085C3.89496 37.6523 3.4502 38.093 2.90197 38.093C2.35299 38.093 1.9082 37.6523 1.9082 37.1085C1.9082 36.5648 2.35299 36.124 2.90197 36.124Z" fill="#0C3A30"/>
<path d="M40.1798 36.124C40.7287 36.124 41.1735 36.5648 41.1735 37.1085C41.1735 37.6523 40.7287 38.093 40.1798 38.093C39.6323 38.093 39.1875 37.6523 39.1875 37.1085C39.1875 36.5648 39.6323 36.124 40.1798 36.124Z" fill="#0C3A30"/>
<path d="M41.0977 40.895C41.6467 40.895 42.0907 41.3358 42.0907 41.8795C42.0907 42.4233 41.6467 42.864 41.0977 42.864C40.5495 42.864 40.1055 42.4233 40.1055 41.8795C40.1055 41.3358 40.5495 40.895 41.0977 40.895Z" fill="#0C3A30"/>
<path d="M2.90273 29.5353C2.36809 29.5353 1.90896 29.0809 1.90896 28.5507C1.90896 28.0206 2.36809 27.5662 2.90273 27.5662C3.43736 27.5662 3.89572 28.0206 3.89572 28.5507C3.89572 29.0809 3.43736 29.5353 2.90273 29.5353ZM2.90273 25.7487C1.29883 25.7487 0 27.0361 0 28.6265C0 30.2168 1.29883 31.5043 2.90273 31.5043C4.50663 31.5043 5.80546 30.2168 5.80546 28.6265C5.80546 27.0361 4.50663 25.7487 2.90273 25.7487Z" fill="#0C3A30"/>
<path d="M3.35954 5.90693C3.13149 5.90693 2.90192 5.67974 2.90192 5.45254C2.90192 5.22535 3.13149 4.99815 3.35954 4.99815C3.5891 4.99815 3.81867 5.22535 3.81867 5.45254C3.81867 5.67974 3.66612 5.90693 3.35954 5.90693ZM3.35954 3.02913C2.06146 3.02913 0.992188 4.08938 0.992188 5.37681C0.992188 6.66425 2.06146 7.72449 3.35954 7.72449C4.65837 7.72449 5.7284 6.66425 5.7284 5.37681C5.7284 4.08938 4.65837 3.02913 3.35954 3.02913Z" fill="#0C3A30"/>
<path d="M40.6392 21.0532C39.875 21.0532 39.1878 20.4474 39.1878 19.6143C39.1878 18.7813 39.798 18.1754 40.6392 18.1754C41.4789 18.1754 42.0898 18.7813 42.0898 19.6143C42.0898 20.4474 41.4026 21.0532 40.6392 21.0532ZM40.6392 16.2822C38.8057 16.2822 37.2773 17.7968 37.2773 19.6143C37.2773 21.4319 38.8057 22.9465 40.6392 22.9465C42.4719 22.9465 44.0003 21.4319 44.0003 19.6143C44.0003 17.7968 42.4719 16.2822 40.6392 16.2822Z" fill="#0C3A30"/>
<path d="M32.5423 36.1997H10.5422V35.2151H32.5423V36.1997ZM32.5423 41.8795H10.5422V38.0929H32.5423V41.8795ZM10.5422 13.4802H15.3547C15.8893 13.4802 16.3477 13.0258 16.3477 12.4957C16.3477 11.9656 15.8893 11.5112 15.3547 11.5112H10.5422V10.6024H15.3547C15.8893 10.6024 16.3477 10.148 16.3477 9.6179C16.3477 9.08778 15.8893 8.63339 15.3547 8.63339H10.5422V4.84681C12.4512 4.84681 30.1734 4.84681 32.5423 4.84681V8.63339H28.7221C28.1874 8.63339 27.7298 9.08778 27.7298 9.6179C27.7298 10.148 28.1874 10.6024 28.7221 10.6024H32.5423V11.5869H28.7221C28.1874 11.5869 27.7298 12.0413 27.7298 12.5714C27.7298 13.1015 28.1874 13.5559 28.7221 13.5559H32.5423V33.3219H10.5422V13.4802ZM24.9033 2.12048H28.7221V3.02926H24.9033V2.12048ZM36.361 35.2151C36.8956 35.2151 37.3548 34.7608 37.3548 34.2306C37.3548 33.7005 36.8956 33.2461 36.361 33.2461H34.4512V13.4802H36.361C36.8956 13.4802 37.3548 13.0258 37.3548 12.4957C37.3548 11.9656 36.8956 11.5112 36.361 11.5112H34.4512V10.6024H36.361C36.8956 10.6024 37.3548 10.148 37.3548 9.6179C37.3548 9.08778 36.8956 8.63339 36.361 8.63339H34.4512V4.84681H35.445C35.9797 4.84681 36.4373 4.39243 36.4373 3.8623C36.4373 3.33218 35.9797 2.8778 35.445 2.8778C33.382 2.8778 32.9244 2.8778 30.6326 2.8778V0.984509C30.6326 0.454388 30.1734 -3.8147e-06 29.6388 -3.8147e-06H23.9096C23.375 -3.8147e-06 22.9174 0.454388 22.9174 0.984509V3.02926C19.2497 3.02926 10.6185 3.02926 7.63874 3.02926C7.10411 3.02926 6.64648 3.48365 6.64648 4.01377C6.64648 4.54389 7.10411 4.99828 7.63874 4.99828H8.63251V8.78485H7.63874C7.10411 8.78485 6.64648 9.23924 6.64648 9.76936C6.64648 10.2995 7.10411 10.7539 7.63874 10.7539H8.63251V11.7384H7.63874C7.10411 11.7384 6.64648 12.1928 6.64648 12.7229C6.64648 13.253 7.10411 13.7074 7.63874 13.7074H8.63251V33.3219H7.63874C7.10411 33.3219 6.64648 33.7762 6.64648 34.3064C6.64648 34.8365 7.10411 35.2909 7.63874 35.2909H8.63251V36.2754H7.63874C7.10411 36.2754 6.64648 36.7298 6.64648 37.2599C6.64648 37.79 7.10411 38.2444 7.63874 38.2444H8.63251V42.031H7.63874C7.10411 42.031 6.64648 42.4854 6.64648 43.0155C6.64648 43.5456 7.10411 44 7.63874 44C8.8613 44 33.6871 44 35.368 44C35.9026 44 36.361 43.5456 36.361 43.0155C36.361 42.4854 35.9026 42.031 35.368 42.031H34.3757V38.2444H36.2847C36.8194 38.2444 37.2777 37.79 37.2777 37.2599C37.2777 36.7298 36.8194 36.2754 36.2847 36.2754H34.3757V35.2909H36.361V35.2151Z" fill="#0C3A30"/>
</svg>
