<svg width="44" height="44" viewBox="0 0 44 44" fill="none" xmlns="http://www.w3.org/2000/svg">
<path d="M21.9603 34.9764C14.7735 34.9764 8.94449 29.147 8.94449 21.9601C8.94449 14.7732 14.7735 8.94376 21.9603 8.94376C29.147 8.94376 34.9768 14.7732 34.9768 21.9601C34.9768 29.147 29.147 34.9764 21.9603 34.9764ZM41.9244 21.0018H36.8935C36.4143 13.5753 30.4251 7.58624 22.9186 7.02725V1.9964C22.9186 1.43741 22.4394 0.958286 21.8805 0.958286C21.3216 0.958286 20.8424 1.43741 20.8424 1.9964V7.02725C13.4165 7.50638 7.42645 13.4955 6.86755 21.0018H1.99688C1.43719 21.0018 0.958008 21.481 0.958008 22.04C0.958008 22.5989 1.43719 23.0781 1.99688 23.0781H7.02779C7.50617 30.5046 13.4954 36.4937 21.0019 37.0527V41.9238C21.0019 42.4828 21.4819 42.9619 22.0408 42.9619C22.5997 42.9619 23.0788 42.4828 23.0788 41.9238V36.8929C30.5048 36.4138 36.4941 30.4247 37.053 22.9184H41.9244C42.4833 22.9184 42.9625 22.4392 42.9625 21.8802C42.9625 21.4011 42.4833 21.0018 41.9244 21.0018Z" fill="#0C3A30"/>
<path d="M39.8478 23.9564C39.2889 23.8765 38.8097 24.1959 38.7292 24.7549C37.5324 31.862 31.9419 37.4518 24.8348 38.6496C24.2759 38.7295 23.9562 39.2885 24.0367 39.7676C24.1157 40.3266 24.6745 40.646 25.1545 40.5662C33.1394 39.2086 39.3686 32.98 40.7256 24.9945C40.7256 24.5952 40.4067 24.0362 39.8478 23.9564Z" fill="#0C3A30"/>
<path d="M4.23142 19.9637C4.7106 19.9637 5.10926 19.6443 5.18978 19.1652C6.38731 12.0581 11.9771 6.46828 19.0842 5.27046C19.6431 5.19061 19.9636 4.63162 19.883 4.15249C19.8033 3.59351 19.2444 3.27409 18.7653 3.35395C10.7796 4.71148 4.55035 10.9402 3.19336 18.9256C3.19336 19.4048 3.592 19.9637 4.23142 19.9637Z" fill="#0C3A30"/>
<path d="M19.1652 38.7295C12.0582 37.5316 6.46757 31.9418 5.27004 24.8347C5.19031 24.2757 4.63137 23.9563 4.15141 24.0362C3.59251 24.116 3.27362 24.675 3.35414 25.1541C4.71113 33.1396 10.9396 39.3683 18.9252 40.7258C19.4841 40.8057 19.9641 40.4863 20.043 39.9273C20.043 39.2884 19.6436 38.8093 19.1652 38.7295Z" fill="#0C3A30"/>
<path d="M24.7556 5.19051C31.8626 6.38833 37.4524 11.9782 38.6507 19.0852C38.7297 19.5644 39.1292 19.8838 39.6083 19.8838C40.2477 19.8838 40.7261 19.3248 40.5666 18.686C39.2096 10.7005 32.9804 4.47181 24.9955 3.11428C24.4358 3.03443 23.9567 3.35385 23.877 3.91283C23.877 4.63152 24.2764 5.11065 24.7556 5.19051Z" fill="#0C3A30"/>
<path d="M22.2796 23.9564V22.8384C22.5188 22.9183 22.679 22.9981 22.8385 23.078C22.998 23.1578 23.0785 23.3175 23.0785 23.4772C22.998 23.7967 22.7588 23.9564 22.2796 23.9564ZM21.8004 21.0017C21.5605 20.9219 21.401 20.842 21.3212 20.7622C21.2415 20.6823 21.161 20.5226 21.161 20.3629C21.161 20.0435 21.401 19.8838 21.8004 19.8039V21.0017ZM23.4771 21.5607C22.8385 21.3212 22.3593 21.2413 22.2796 21.1614V19.8838C22.9182 19.9636 23.7171 20.3629 23.7969 20.5226L24.5152 19.2449C24.276 19.0852 23.9563 18.9255 23.5569 18.7658C23.1582 18.6061 22.8385 18.5262 22.3594 18.5262V17.568H21.7207V18.5262C20.8421 18.6061 20.0432 19.0054 19.7243 19.8039C19.6438 20.0435 19.5648 20.3629 19.5648 20.6823C19.5648 21.1614 19.6438 21.5607 20.0432 21.8801C20.3637 22.1996 20.9226 22.4391 21.401 22.5988L21.8802 22.7585V24.0362C21.2415 23.9564 20.6021 23.6369 20.2027 23.3974C20.1237 23.3175 20.0432 23.2377 19.9643 23.2377L19.2451 24.5952C19.9643 25.0743 20.8421 25.3139 21.7207 25.3938V26.5117H22.3594V25.3938C22.6791 25.3938 22.9182 25.3139 23.238 25.234C23.7969 25.0743 24.1963 24.7549 24.5152 24.2758C24.7552 23.7967 24.7552 22.9981 24.5958 22.519C24.4355 22.2794 24.1158 21.8003 23.4771 21.5607Z" fill="#0C3A30"/>
<path d="M21.9599 27.6297C18.8457 27.6297 16.2903 25.0743 16.2903 21.96C16.2903 18.8456 18.8457 16.2903 21.9599 16.2903C25.0741 16.2903 27.6302 18.8456 27.6302 21.96C27.6302 25.0743 25.0741 27.6297 21.9599 27.6297ZM29.6266 21.96C29.6266 17.7277 26.1919 14.2939 21.9599 14.2939C17.7279 14.2939 14.2939 17.7277 14.2939 21.96C14.2939 26.1923 17.7279 29.626 21.9599 29.626C26.1919 29.626 29.6266 26.1923 29.6266 21.96Z" fill="#0C3A30"/>
<path d="M5.03058 39.9275C4.47168 39.9275 3.99174 39.4484 3.99174 38.8894C3.99174 38.3304 4.47168 37.8513 5.03058 37.8513C5.58948 37.8513 6.06864 38.3304 6.06864 38.8894C5.98891 39.4484 5.50896 39.9275 5.03058 39.9275ZM5.03058 35.9348C3.35387 35.9348 1.99609 37.2923 1.99609 38.9692C1.99609 40.6462 3.35387 42.0037 5.03058 42.0037C6.70728 42.0037 8.06429 40.6462 8.06429 38.9692C8.06429 37.2923 6.62755 35.9348 5.03058 35.9348Z" fill="#0C3A30"/>
<path d="M39.4483 3.03435C40.2471 3.03435 40.9655 3.67319 40.9655 4.55159C40.9655 5.43 40.2471 5.98898 39.4483 5.98898C38.6502 5.98898 37.931 5.35014 37.931 4.47174C37.931 3.59334 38.5696 3.03435 39.4483 3.03435ZM39.4483 7.98535C41.3649 7.98535 42.9619 6.38826 42.9619 4.47174C42.9619 2.55522 41.3649 0.958128 39.4483 0.958128C37.5324 0.958128 35.9346 2.55522 35.9346 4.47174C35.9346 6.38826 37.5324 7.98535 39.4483 7.98535Z" fill="#0C3A30"/>
<path d="M3.03371 3.99273C3.59261 3.99273 4.07255 4.47186 4.07255 5.03085C4.07255 5.58983 3.59261 6.06896 3.03371 6.06896C2.47481 6.06896 1.99642 5.50997 1.99642 5.03085C1.99642 4.47186 2.47481 3.99273 3.03371 3.99273ZM3.03371 7.98547C4.71121 7.98547 6.06897 6.62794 6.06897 4.95099C6.06897 3.27404 4.63148 1.99636 3.03371 1.99636C1.43674 1.99636 0 3.35389 0 5.03085C0 6.7078 1.35701 7.98547 3.03371 7.98547Z" fill="#0C3A30"/>
<path d="M38.9687 33.9382C39.5418 33.9382 40.0068 34.4029 40.0068 34.9763C40.0068 35.5496 39.5418 36.0144 38.9687 36.0144C38.3956 36.0144 37.9307 35.5496 37.9307 34.9763C37.9307 34.4029 38.3956 33.9382 38.9687 33.9382Z" fill="#0C3A30"/>
<path d="M32.9805 41.9238C33.5536 41.9238 34.0186 42.3885 34.0186 42.9619C34.0186 43.5352 33.5536 44 32.9805 44C32.4074 44 31.9424 43.5352 31.9424 42.9619C31.9424 42.3885 32.4074 41.9238 32.9805 41.9238Z" fill="#0C3A30"/>
<path d="M13.9744 40.8857C14.5467 40.8857 15.0117 41.3504 15.0117 41.9238C15.0117 42.4972 14.5467 42.9619 13.9744 42.9619C13.4005 42.9619 12.9355 42.4972 12.9355 41.9238C12.9355 41.3504 13.4005 40.8857 13.9744 40.8857Z" fill="#0C3A30"/>
<path d="M1.99688 30.9038C2.5692 30.9038 3.03418 31.3685 3.03418 31.9419C3.03418 32.5152 2.5692 32.98 1.99688 32.98C1.42298 32.98 0.958008 32.5152 0.958008 31.9419C0.958008 31.3685 1.42298 30.9038 1.99688 30.9038Z" fill="#0C3A30"/>
<path d="M42.9619 11.9782C43.535 11.9782 44 12.4429 44 13.0163C44 13.5896 43.535 14.0544 42.9619 14.0544C42.3888 14.0544 41.9238 13.5896 41.9238 13.0163C41.9238 12.4429 42.3888 11.9782 42.9619 11.9782Z" fill="#0C3A30"/>
<path d="M32.9805 0.958199C33.5536 0.958199 34.0186 1.42295 34.0186 1.99631C34.0186 2.56967 33.5536 3.03442 32.9805 3.03442C32.4074 3.03442 31.9424 2.56967 31.9424 1.99631C31.9424 1.42295 32.4074 0.958199 32.9805 0.958199Z" fill="#0C3A30"/>
<path d="M11.0203 -5.31673e-05C11.5934 -5.31673e-05 12.0584 0.464702 12.0584 1.03806C12.0584 1.61142 11.5934 2.07617 11.0203 2.07617C10.4464 2.07617 9.98145 1.61142 9.98145 1.03806C9.98145 0.464702 10.4464 -5.31673e-05 11.0203 -5.31673e-05Z" fill="#0C3A30"/>
<path d="M1.03807 10.9402C1.61118 10.9402 2.07536 11.4049 2.07536 11.9783C2.07536 12.5517 1.61118 13.0164 1.03807 13.0164C0.464165 13.0164 0 12.5517 0 11.9783C0 11.4049 0.464165 10.9402 1.03807 10.9402Z" fill="#0C3A30"/>
<path d="M40.9648 39.9275C41.5387 39.9275 42.0037 40.3923 42.0037 40.9656C42.0037 41.539 41.5387 42.0037 40.9648 42.0037C40.3917 42.0037 39.9268 41.539 39.9268 40.9656C39.9268 40.3923 40.3917 39.9275 40.9648 39.9275Z" fill="#0C3A30"/>
<path d="M29.9456 13.0163H27.9492C27.3903 13.0163 26.9111 13.4954 26.9111 14.0544C26.9111 14.6133 27.3903 15.0925 27.9492 15.0925H28.9873V16.1306C28.9873 16.6896 29.4664 17.1687 30.0261 17.1687C30.585 17.1687 31.0634 16.6896 31.0634 16.1306V13.9745C30.9845 13.4155 30.5045 13.0163 29.9456 13.0163Z" fill="#0C3A30"/>
<path d="M13.9744 17.009C14.5333 17.009 15.0117 16.5299 15.0117 15.9709V14.9328H16.0506C16.6095 14.9328 17.0886 14.4537 17.0886 13.8947C17.0886 13.3357 16.6095 12.8566 16.0506 12.8566H13.9744C13.4155 12.8566 12.9355 13.3357 12.9355 13.8947V15.8911C13.0161 16.5299 13.4155 17.009 13.9744 17.009Z" fill="#0C3A30"/>
<path d="M15.9707 28.9874H14.9334V27.9493C14.9334 27.3903 14.4535 26.9112 13.8945 26.9112C13.3356 26.9112 12.8564 27.3903 12.8564 27.9493V29.9457C12.8564 30.5046 13.3356 30.9838 13.8945 30.9838H15.891C16.4499 30.9838 16.929 30.5046 16.929 29.9457C16.929 29.3867 16.5296 28.9874 15.9707 28.9874Z" fill="#0C3A30"/>
<path d="M29.9453 26.911C29.3863 26.911 28.9072 27.3901 28.9072 27.9491V28.9872H27.8691C27.3102 28.9872 26.8311 29.4663 26.8311 30.0253C26.8311 30.5843 27.3102 31.0634 27.8691 31.0634H29.9453C30.5042 31.0634 30.9841 30.5843 30.9841 30.0253V28.0289C30.9841 27.3901 30.5042 26.911 29.9453 26.911Z" fill="#0C3A30"/>
</svg>
