<svg width="44" height="44" viewBox="0 0 44 44" fill="none" xmlns="http://www.w3.org/2000/svg">
<path d="M21.8471 25.2186V24.1584C22.0759 24.2341 22.2291 24.3098 22.3817 24.3856C22.535 24.4613 22.6105 24.6128 22.6105 24.7642C22.535 25.0671 22.3054 25.2186 21.8471 25.2186ZM21.3887 22.4923C21.1599 22.4165 21.0066 22.3408 20.9303 22.2651C20.8541 22.1893 20.7778 22.0379 20.7778 21.8864C20.7778 21.5835 21.0066 21.432 21.3887 21.3563V22.4923ZM22.9171 22.9467C22.3817 22.7195 21.847 22.6437 21.7708 22.568V21.3563C22.3817 21.432 23.1459 21.8107 23.2222 21.9622L23.9093 20.7504C23.6805 20.599 23.3747 20.4475 22.9926 20.2961C22.6105 20.1446 22.3054 20.0689 21.8471 20.0689V19.1601H21.2361V20.0689C20.3957 20.1446 19.7085 20.5233 19.3264 21.2806C19.2494 21.5078 19.1739 21.8107 19.1739 22.1136C19.1739 22.568 19.2494 22.9467 19.6315 23.2496C19.9373 23.5525 20.472 23.7797 20.9303 23.9312L21.3887 24.0826V25.2943C21.1599 25.2943 20.9303 25.2186 20.7778 25.1429C20.472 25.0671 20.0906 24.9157 19.7848 24.6885C19.7085 24.6128 19.6315 24.537 19.556 24.537L18.9443 25.7487C19.6315 26.2031 20.472 26.4303 21.3124 26.506V27.5663H21.9233V26.506C22.4579 26.506 22.9926 26.3546 23.4517 26.0517C23.6805 25.9002 23.8338 25.673 23.9093 25.4458C24.1389 24.9914 24.1389 24.2341 23.9863 23.7797C23.8338 23.4768 23.5272 23.1739 22.9171 22.9467Z" fill="white"/>
<path d="M21.5409 28.0964C18.944 28.0964 16.7284 25.9759 16.7284 23.3253C16.7284 20.6747 18.8677 18.5542 21.5409 18.5542C24.2148 18.5542 26.3541 20.6747 26.3541 23.3253C26.3541 25.9759 24.1385 28.0964 21.5409 28.0964ZM21.5409 16.7366C19.7082 16.7366 17.951 17.494 16.7284 18.7057V17.191C16.7284 16.6609 16.2708 16.2065 15.7354 16.2065C15.2008 16.2065 14.7432 16.6609 14.7432 17.191V23.3253C14.7432 26.9604 17.7222 29.9897 21.4646 29.9897C23.2988 29.9897 25.0553 29.2323 26.2771 28.0206V29.5353C26.2771 30.0654 26.7354 30.5198 27.2701 30.5198C27.8047 30.5198 28.2639 30.0654 28.2639 29.5353V23.401C28.1868 19.7659 25.2078 16.7366 21.5409 16.7366Z" fill="white"/>
<path d="M3.81896 18.1755C4.36719 18.1755 4.81196 18.6163 4.81196 19.16C4.81196 19.7038 4.36719 20.1445 3.81896 20.1445C3.26998 20.1445 2.8252 19.7038 2.8252 19.16C2.8252 18.6163 3.26998 18.1755 3.81896 18.1755Z" fill="white"/>
<path d="M41.0967 6.81565C41.6457 6.81565 42.0897 7.25641 42.0897 7.80016C42.0897 8.34391 41.6457 8.78467 41.0967 8.78467C40.5485 8.78467 40.1045 8.34391 40.1045 7.80016C40.1045 7.25641 40.5485 6.81565 41.0967 6.81565Z" fill="white"/>
<path d="M41.0967 26.6574C41.6457 26.6574 42.0897 27.0982 42.0897 27.642C42.0897 28.1857 41.6457 28.6265 41.0967 28.6265C40.5485 28.6265 40.1045 28.1857 40.1045 27.642C40.1045 27.0982 40.5485 26.6574 41.0967 26.6574Z" fill="white"/>
<path d="M2.90295 36.124C3.45117 36.124 3.89594 36.5648 3.89594 37.1085C3.89594 37.6523 3.45117 38.093 2.90295 38.093C2.35397 38.093 1.90918 37.6523 1.90918 37.1085C1.90918 36.5648 2.35397 36.124 2.90295 36.124Z" fill="white"/>
<path d="M40.1798 36.124C40.7287 36.124 41.1735 36.5648 41.1735 37.1085C41.1735 37.6523 40.7287 38.093 40.1798 38.093C39.6323 38.093 39.1875 37.6523 39.1875 37.1085C39.1875 36.5648 39.6323 36.124 40.1798 36.124Z" fill="white"/>
<path d="M41.0967 40.895C41.6457 40.895 42.0897 41.3358 42.0897 41.8795C42.0897 42.4233 41.6457 42.864 41.0967 42.864C40.5485 42.864 40.1045 42.4233 40.1045 41.8795C40.1045 41.3358 40.5485 40.895 41.0967 40.895Z" fill="white"/>
<path d="M2.90273 29.5353C2.36809 29.5353 1.90896 29.0809 1.90896 28.5507C1.90896 28.0206 2.36809 27.5662 2.90273 27.5662C3.43736 27.5662 3.89572 28.0206 3.89572 28.5507C3.89572 29.0809 3.43736 29.5353 2.90273 29.5353ZM2.90273 25.7487C1.29883 25.7487 0 27.0361 0 28.6265C0 30.2168 1.29883 31.5043 2.90273 31.5043C4.50663 31.5043 5.80546 30.2168 5.80546 28.6265C5.80546 27.0361 4.50663 25.7487 2.90273 25.7487Z" fill="white"/>
<path d="M3.35954 5.90693C3.13149 5.90693 2.90192 5.67974 2.90192 5.45254C2.90192 5.22535 3.13149 4.99815 3.35954 4.99815C3.5891 4.99815 3.81867 5.22535 3.81867 5.45254C3.81867 5.67974 3.66612 5.90693 3.35954 5.90693ZM3.35954 3.02913C2.06146 3.02913 0.992188 4.08938 0.992188 5.37681C0.992188 6.66425 2.06146 7.72449 3.35954 7.72449C4.65837 7.72449 5.7284 6.66425 5.7284 5.37681C5.7284 4.08938 4.65837 3.02913 3.35954 3.02913Z" fill="white"/>
<path d="M40.6392 21.0532C39.875 21.0532 39.1878 20.4474 39.1878 19.6143C39.1878 18.7813 39.798 18.1754 40.6392 18.1754C41.4789 18.1754 42.0898 18.7813 42.0898 19.6143C42.0898 20.4474 41.4026 21.0532 40.6392 21.0532ZM40.6392 16.2822C38.8057 16.2822 37.2773 17.7968 37.2773 19.6143C37.2773 21.4319 38.8057 22.9465 40.6392 22.9465C42.4719 22.9465 44.0003 21.4319 44.0003 19.6143C44.0003 17.7968 42.4719 16.2822 40.6392 16.2822Z" fill="white"/>
<path d="M32.5413 36.1997H10.5413V35.2151H32.5413V36.1997ZM32.5413 41.8795H10.5413V38.0929H32.5413V41.8795ZM10.5413 13.4802H15.3537C15.8884 13.4802 16.3467 13.0258 16.3467 12.4957C16.3467 11.9656 15.8884 11.5112 15.3537 11.5112H10.5413V10.6024H15.3537C15.8884 10.6024 16.3467 10.148 16.3467 9.6179C16.3467 9.08778 15.8884 8.63339 15.3537 8.63339H10.5413V4.84681C12.4502 4.84681 30.1725 4.84681 32.5413 4.84681V8.63339H28.7211C28.1865 8.63339 27.7288 9.08778 27.7288 9.6179C27.7288 10.148 28.1865 10.6024 28.7211 10.6024H32.5413V11.5869H28.7211C28.1865 11.5869 27.7288 12.0413 27.7288 12.5714C27.7288 13.1015 28.1865 13.5559 28.7211 13.5559H32.5413V33.3219H10.5413V13.4802ZM24.9024 2.12048H28.7211V3.02926H24.9024V2.12048ZM36.36 35.2151C36.8946 35.2151 37.3538 34.7608 37.3538 34.2306C37.3538 33.7005 36.8946 33.2461 36.36 33.2461H34.4503V13.4802H36.36C36.8946 13.4802 37.3538 13.0258 37.3538 12.4957C37.3538 11.9656 36.8946 11.5112 36.36 11.5112H34.4503V10.6024H36.36C36.8946 10.6024 37.3538 10.148 37.3538 9.6179C37.3538 9.08778 36.8946 8.63339 36.36 8.63339H34.4503V4.84681H35.444C35.9787 4.84681 36.4363 4.39243 36.4363 3.8623C36.4363 3.33218 35.9787 2.8778 35.444 2.8778C33.381 2.8778 32.9234 2.8778 30.6316 2.8778V0.984509C30.6316 0.454388 30.1724 -3.8147e-06 29.6378 -3.8147e-06H23.9086C23.374 -3.8147e-06 22.9164 0.454388 22.9164 0.984509V3.02926C19.2487 3.02926 10.6175 3.02926 7.63776 3.02926C7.10313 3.02926 6.64551 3.48365 6.64551 4.01377C6.64551 4.54389 7.10313 4.99828 7.63776 4.99828H8.63153V8.78485H7.63776C7.10313 8.78485 6.64551 9.23924 6.64551 9.76936C6.64551 10.2995 7.10313 10.7539 7.63776 10.7539H8.63153V11.7384H7.63776C7.10313 11.7384 6.64551 12.1928 6.64551 12.7229C6.64551 13.253 7.10313 13.7074 7.63776 13.7074H8.63153V33.3219H7.63776C7.10313 33.3219 6.64551 33.7762 6.64551 34.3064C6.64551 34.8365 7.10313 35.2909 7.63776 35.2909H8.63153V36.2754H7.63776C7.10313 36.2754 6.64551 36.7298 6.64551 37.2599C6.64551 37.79 7.10313 38.2444 7.63776 38.2444H8.63153V42.031H7.63776C7.10313 42.031 6.64551 42.4854 6.64551 43.0155C6.64551 43.5456 7.10313 44 7.63776 44C8.86032 44 33.6861 44 35.367 44C35.9016 44 36.36 43.5456 36.36 43.0155C36.36 42.4854 35.9016 42.031 35.367 42.031H34.3748V38.2444H36.2838C36.8184 38.2444 37.2767 37.79 37.2767 37.2599C37.2767 36.7298 36.8184 36.2754 36.2838 36.2754H34.3748V35.2909H36.36V35.2151Z" fill="white"/>
</svg>
